<?xml version="1.0" standalone="no"?>
<!DOCTYPE svg PUBLIC "-//W3C//DTD SVG 20010904//EN"
 "http://www.w3.org/TR/2001/REC-SVG-20010904/DTD/svg10.dtd">
<svg version="1.0" xmlns="http://www.w3.org/2000/svg"
 width="260.000000pt" height="260.000000pt" viewBox="0 0 260.000000 260.000000"
 preserveAspectRatio="xMidYMid meet">
<metadata>
Created by potrace 1.14, written by Peter Selinger 2001-2017
</metadata>
<g transform="translate(0.000000,260.000000) scale(0.100000,-0.100000)"
fill="#000000" stroke="none">
<path d="M686 1705 c-40 -41 -44 -163 -10 -304 l18 -74 -32 -28 c-27 -25 -35
-27 -56 -18 -13 6 -26 22 -29 35 -2 13 0 21 4 18 5 -3 9 4 9 15 0 12 4 21 8
21 8 0 12 22 15 68 0 12 3 22 7 22 10 0 3 68 -10 102 -28 68 -85 89 -116 43
-21 -33 -13 -138 17 -227 19 -58 19 -61 2 -80 -22 -25 -86 -58 -110 -58 -10 0
-25 5 -33 10 -12 8 -9 9 10 6 17 -2 31 3 43 18 10 11 15 14 11 6 -5 -12 -4
-12 6 -3 45 41 -22 156 -80 138 -30 -10 -60 -45 -60 -72 0 -27 -6 -28 -51 -9
-33 14 -71 19 -115 17 -11 -1 -35 -15 -52 -32 -34 -33 -42 -55 -18 -46 11 4
13 1 10 -11 -3 -9 1 -7 8 6 8 12 17 19 21 16 7 -7 11 11 8 30 -1 5 5 3 14 -4
13 -11 15 -10 9 3 -6 16 10 18 33 4 6 -4 14 -1 16 5 4 10 6 10 6 1 1 -7 7 -13
15 -13 43 0 166 -77 150 -93 -3 -3 2 -7 11 -11 9 -3 13 -2 10 4 -3 6 -2 10 4
10 5 0 12 -4 15 -9 12 -19 96 3 96 24 0 8 6 12 14 9 8 -3 21 4 29 16 12 17 17
19 28 8 22 -21 62 -38 81 -35 27 5 70 46 63 60 -4 7 8 -4 26 -23 18 -19 38
-35 44 -35 5 -1 9 -6 8 -12 -2 -8 6 -7 23 2 18 9 35 10 56 4 25 -7 29 -6 24 8
-5 13 -4 14 9 3 11 -9 15 -9 15 -1 0 7 5 9 10 6 6 -3 10 1 10 9 0 9 5 16 10
16 6 0 10 -4 10 -9 0 -13 29 -41 41 -41 6 0 8 4 5 9 -6 9 29 7 58 -5 14 -5 17
-4 11 5 -6 10 -3 11 13 2 26 -14 32 -14 32 0 0 5 -5 7 -12 3 -6 -4 -8 -3 -5 4
4 5 16 8 27 5 16 -4 19 -2 14 12 -6 15 -5 16 15 4 11 -8 21 -17 21 -22 0 -4 5
-5 10 -2 6 3 10 1 10 -5 0 -6 4 -9 9 -6 5 4 12 0 14 -6 4 -10 6 -10 6 -1 1 7
8 10 18 6 10 -4 14 -2 9 5 -3 6 2 13 13 17 11 3 25 13 33 22 8 10 8 14 1 10
-6 -4 -15 -2 -19 5 -4 7 -4 10 1 6 4 -4 13 -3 20 2 8 7 16 -1 28 -25 9 -19 23
-35 32 -35 8 0 15 -5 15 -12 0 -6 7 -3 16 8 8 10 12 13 8 5 -5 -10 -3 -12 5
-7 7 5 10 14 8 20 -8 20 26 15 50 -6 12 -12 27 -17 34 -13 8 5 10 4 5 -3 -10
-16 -1 -15 35 4 19 10 29 21 25 30 -10 25 20 15 43 -14 12 -16 29 -28 39 -27
25 2 73 47 67 63 -2 7 0 10 5 7 9 -6 35 41 32 57 -1 3 5 9 13 12 10 3 17 -3
21 -22 11 -52 16 -67 26 -79 11 -14 29 -18 26 -5 0 4 6 23 15 42 8 19 13 39
10 45 -4 5 -3 7 2 3 5 -5 14 1 22 12 21 29 30 25 38 -17 15 -83 55 -130 70
-84 8 26 16 63 17 79 1 6 5 12 10 12 5 0 6 5 3 10 -3 6 -1 10 5 10 6 0 9 4 6
9 -4 5 -1 11 6 13 15 5 59 -32 52 -44 -3 -4 -2 -8 3 -8 4 0 18 -19 31 -42 24
-45 85 -93 104 -82 6 4 8 3 5 -3 -4 -6 4 -13 18 -16 14 -2 28 0 31 4 3 5 13 5
23 -1 10 -5 21 -6 25 -3 3 4 14 8 24 9 36 5 51 10 66 23 11 9 16 10 16 2 0
-11 48 14 61 32 3 5 8 8 10 7 2 -1 18 4 34 10 28 11 28 13 10 20 -12 5 -14 9
-6 9 11 1 12 4 4 12 -7 7 -29 1 -74 -19 -103 -48 -126 -54 -182 -54 -70 0
-112 22 -147 80 -43 71 -67 99 -91 105 -29 8 -65 -30 -80 -84 -6 -24 -13 -39
-14 -34 -15 61 -31 94 -49 103 -29 13 -62 -4 -77 -40 l-12 -29 -14 30 c-29 58
-59 51 -98 -22 -33 -61 -54 -87 -70 -87 -18 0 -35 48 -40 115 -8 95 -33 99
-40 6 -6 -73 -29 -121 -59 -121 -29 0 -43 34 -49 118 -6 83 -29 87 -33 6 -4
-59 -21 -111 -39 -118 -17 -6 -39 29 -31 50 3 8 1 14 -3 14 -5 0 -7 14 -4 31
5 36 -3 79 -16 79 -5 0 -14 -20 -20 -44 -13 -55 -70 -131 -97 -131 -19 0 -20
6 -10 55 6 29 18 50 26 45 4 -3 11 2 14 11 4 10 2 13 -7 8 -6 -4 -3 3 8 16 12
14 14 20 5 15 -13 -8 -13 -6 -2 8 8 9 11 21 8 26 -4 5 -2 12 3 16 6 3 8 34 6
72 -3 50 -10 72 -26 90 -29 30 -70 30 -89 1 -17 -27 -25 -245 -11 -296 8 -28
6 -34 -16 -52 -14 -11 -34 -20 -44 -20 -20 0 -51 38 -42 53 3 5 6 19 7 30 1
11 8 22 16 24 13 4 13 3 0 -6 -12 -9 -9 -11 15 -9 17 1 37 -2 45 -7 13 -8 12
-5 -1 15 -23 36 -53 42 -83 19 -21 -17 -26 -29 -26 -65 0 -32 -4 -44 -15 -44
-8 0 -15 3 -16 8 0 4 -2 23 -4 43 -1 20 -9 47 -16 60 -12 23 -13 23 -17 4 -2
-11 -8 -25 -13 -32 -6 -7 -6 -12 1 -15 6 -2 1 -17 -10 -36 -16 -27 -26 -33
-48 -30 -35 4 -41 39 -12 70 12 13 20 17 18 9 -2 -7 5 -15 15 -16 11 -2 17 3
17 16 0 27 -44 35 -75 15 -25 -16 -29 -29 -25 -73 2 -32 -24 -29 -45 3 -24 37
-25 53 -4 102 12 27 14 40 6 36 -9 -6 -9 -4 -1 7 6 8 11 29 10 47 0 17 2 32 6
32 3 0 5 8 3 18 -2 9 -6 40 -9 69 -5 58 -18 88 -46 103 -14 7 -23 6 -34 -5z
m45 -72 c16 -41 -1 -215 -21 -228 -19 -12 -32 156 -17 218 11 44 24 47 38 10z
m490 -44 c6 -12 9 -47 7 -78 -6 -81 -63 -211 -70 -158 -6 54 -4 194 4 205 7 8
7 12 -1 12 -8 0 -8 6 1 20 17 26 44 25 59 -1z m-656 -9 c15 0 25 -31 25 -81 0
-42 -27 -139 -39 -139 -5 0 -12 17 -16 38 -5 20 -10 44 -12 52 -10 39 -9 106
1 112 7 5 7 8 -2 8 -7 0 -10 5 -7 10 4 6 11 8 16 5 5 -4 9 0 10 7 0 10 2 10 6
1 2 -7 11 -13 18 -13z m-179 -192 c5 -7 3 -8 -6 -3 -8 5 -11 4 -6 -3 4 -6 12
-9 20 -6 19 7 40 -44 25 -62 -12 -15 -46 -18 -73 -8 -18 7 -22 39 -6 49 6 4 8
11 5 16 -3 5 1 6 10 3 9 -4 15 -3 14 2 -4 24 5 31 17 12z m19 -118 c3 -6 -1
-7 -9 -4 -18 7 -21 14 -7 14 6 0 13 -4 16 -10z m45 -44 c0 -2 -7 -7 -16 -10
-8 -3 -12 -2 -9 4 6 10 25 14 25 6z"/>
<path d="M1315 1566 c-15 -10 -16 -16 -6 -35 14 -25 43 -25 46 0 2 8 -3 23
-10 32 -10 14 -15 14 -30 3z"/>
<path d="M1205 1340 c-3 -5 -1 -10 4 -10 6 0 11 5 11 10 0 6 -2 10 -4 10 -3 0
-8 -4 -11 -10z"/>
<path d="M723 993 c-19 -7 -17 -99 2 -107 12 -4 13 -2 7 12 -5 9 -7 23 -5 30
4 10 8 10 21 0 10 -8 13 -9 9 -1 -4 7 0 13 10 16 10 3 4 5 -13 6 -20 1 -31 6
-31 16 0 9 6 14 14 11 7 -3 13 -1 13 5 0 6 8 5 23 -2 16 -8 19 -8 11 0 -12 13
-43 20 -61 14z"/>
<path d="M840 982 c-19 -15 -22 -25 -16 -54 6 -32 10 -36 44 -41 25 -3 42 0
52 11 8 8 9 12 3 8 -15 -8 -18 10 -3 19 16 10 12 24 -15 50 -29 30 -36 31 -65
7z m41 -6 c5 3 14 -6 20 -20 9 -19 9 -29 0 -40 -9 -11 -9 -15 1 -20 7 -3 0 -3
-17 1 -41 8 -47 13 -41 30 3 8 1 11 -4 8 -17 -10 -11 23 7 41 11 11 18 13 21
5 2 -6 8 -9 13 -5z"/>
<path d="M966 988 c3 -5 10 -6 15 -3 5 4 9 -15 9 -43 0 -33 4 -49 13 -49 7 0
13 8 13 18 0 10 -4 15 -8 13 -4 -3 -8 -1 -8 5 0 5 5 13 10 16 8 5 8 11 0 20
-8 10 -8 15 1 21 7 4 9 3 6 -3 -3 -5 0 -10 7 -10 7 0 13 5 13 12 0 6 -17 11
-38 11 -21 0 -36 -3 -33 -8z"/>
<path d="M1090 980 c-22 -22 -25 -42 -10 -71 11 -20 64 -27 75 -9 4 6 11 8 16
5 5 -3 6 2 2 11 -4 12 -3 15 6 10 8 -6 7 2 -3 23 -14 26 -43 51 -60 51 -3 0
-15 -9 -26 -20z m43 -9 c-2 -6 3 -10 9 -8 18 3 21 -38 4 -52 -37 -31 -81 25
-49 61 17 19 40 19 36 -1z"/>
<path d="M1248 992 c-23 -5 -38 -51 -25 -80 9 -19 17 -23 46 -21 25 2 35 -1
33 -10 -1 -7 2 -10 7 -7 5 3 8 14 6 24 -2 9 -4 23 -4 30 -1 6 -9 12 -18 11
-10 0 -13 -3 -6 -5 18 -8 4 -34 -18 -34 -25 0 -46 39 -28 51 11 7 11 9 1 9 -7
0 -10 5 -7 10 4 6 11 8 16 5 5 -4 9 0 9 7 0 8 5 6 11 -5 6 -9 14 -15 20 -12 5
4 9 1 9 -6 0 -7 2 -10 5 -7 3 3 3 12 0 21 -7 17 -31 25 -57 19z"/>
<path d="M1368 993 c-3 -4 -6 -30 -7 -58 -2 -47 -2 -49 15 -33 14 14 15 22 7
40 -15 35 -7 49 23 36 21 -10 23 -14 11 -32 -18 -30 -15 -50 8 -54 15 -3 17
-1 9 8 -13 13 -6 53 7 44 5 -3 4 6 -3 20 -6 14 -17 26 -24 26 -7 0 -19 3 -27
6 -8 3 -17 2 -19 -3z"/>
<path d="M1502 956 c-26 -54 -29 -78 -6 -50 15 19 16 19 9 0 -6 -19 -5 -19 13
-3 19 17 37 23 29 10 -3 -5 1 -13 8 -20 10 -10 14 -9 19 2 2 7 1 15 -3 17 -5
2 -17 23 -27 47 l-19 43 -23 -46z m38 -16 c0 -3 -9 -6 -19 -6 -16 0 -18 4 -9
19 8 16 12 17 19 6 5 -8 9 -16 9 -19z"/>
<path d="M1619 981 c0 -9 -2 -29 -3 -44 -1 -16 4 -36 12 -45 13 -16 13 -16 8
1 -6 20 3 49 13 43 4 -3 13 -1 21 5 11 6 8 9 -12 9 -19 0 -28 5 -28 16 0 8 4
13 9 9 5 -3 12 -1 16 5 4 7 13 6 28 -1 17 -9 20 -9 10 1 -18 20 -73 21 -74 1z"/>
<path d="M1739 984 c-7 -57 -5 -94 5 -91 6 2 10 22 8 48 -3 40 -11 65 -13 43z"/>
<path d="M1820 963 c-6 -16 -15 -36 -20 -45 -13 -22 -13 -28 0 -28 6 0 10 7
10 15 0 8 4 15 10 15 5 0 8 -6 6 -12 -1 -7 -1 -10 1 -5 3 4 10 4 15 1 7 -4 8
-2 4 4 -4 7 -1 12 9 12 9 0 14 -4 11 -9 -3 -5 1 -14 9 -21 22 -18 19 1 -7 55
-25 52 -35 56 -48 18z m25 -31 c-20 -5 -35 9 -17 15 6 3 10 10 6 16 -3 7 2 3
11 -8 15 -18 15 -20 0 -23z"/>
</g>
</svg>
