<?xml version="1.0" encoding="UTF-8" standalone="no"?>
<!DOCTYPE svg PUBLIC "-//W3C//DTD SVG 1.1//EN" "http://www.w3.org/Graphics/SVG/1.1/DTD/svg11.dtd">
<svg width="100%" height="100%" viewBox="0 0 77 164" version="1.1" xmlns="http://www.w3.org/2000/svg" xmlns:xlink="http://www.w3.org/1999/xlink" xml:space="preserve" xmlns:serif="http://www.serif.com/" style="fill-rule:evenodd;clip-rule:evenodd;stroke-linejoin:round;stroke-miterlimit:2;">
    <g transform="matrix(1,0,0,1,-425.485,-517.12)">
        <path d="M498.877,561.36C499.403,555.408 499.864,549.093 497.155,543.769C495.832,541.171 493.75,538.755 493.71,535.841C493.693,534.532 494.101,533.26 494.505,532.016C496.119,527.051 497.731,522.086 499.344,517.12C491.517,520.494 485.102,527.859 484.461,536.358C484.06,541.69 485.857,546.904 487.035,552.119C489.758,564.177 489.084,576.947 485.31,588.705C484.795,590.308 482.192,594.634 482.963,596.208C483.748,597.81 486.162,597.562 487.423,596.833C491.814,594.297 494.476,585.972 495.778,581.442C497.654,574.913 498.282,568.1 498.877,561.36Z" style="fill:rgb(202,176,130);fill-rule:nonzero;"/>
    </g>
    <g transform="matrix(1,0,0,1,-425.485,-517.12)">
        <path d="M427.326,554.251C429.354,544.068 436.832,534.609 434.86,524.413C439.551,526.752 444.241,529.092 448.932,531.431C450.131,532.029 451.504,532.641 452.763,532.18C454.125,531.682 454.754,530.162 455.653,529.025C457.585,526.581 460.986,525.809 464.099,525.907C469.192,526.069 474.197,528.193 477.852,531.741C479.785,526.497 483.032,521.742 487.213,518.032C487.842,518.875 488.47,519.718 489.099,520.56C491.202,519.686 493.305,518.811 495.409,517.936C489.871,523.485 485.435,530.858 485.928,538.68C486.382,545.891 490.881,552.197 492.579,559.219C496.387,574.961 486.192,601.601 469.873,606.178C456.295,609.986 440.606,595.36 434.104,584.589C428.799,575.802 425.28,564.523 427.326,554.251Z" style="fill:rgb(187,206,220);fill-rule:nonzero;"/>
    </g>
    <g transform="matrix(1,0,0,1,-425.485,-517.12)">
        <path d="M467.52,574.414C471.02,585.747 470.665,599.625 461.927,607.646C455.9,594.44 438.541,590.377 430.218,578.483C426.958,573.823 425.276,568.08 425.506,562.399C425.668,558.4 426.741,554.499 427.808,550.642C429.865,543.195 431.923,535.749 433.981,528.304C434.159,527.66 434.345,527 434.745,526.466C437.653,522.587 443.968,529.165 447.259,529.303C449.126,529.381 451.54,526.693 453.176,528.595C453.813,529.337 452.981,536.175 453.233,537.691C455.388,550.67 463.67,561.947 467.52,574.414Z" style="fill:rgb(223,218,207);fill-rule:nonzero;"/>
    </g>
    <g transform="matrix(1,0,0,1,-425.485,-517.12)">
        <path d="M442.421,625.056C440.496,624.402 438.771,623.245 437.258,621.886C430.369,615.696 428.142,605.946 426.676,596.802C429.104,606.123 436.385,614.035 445.474,617.228C447.969,618.105 450.633,618.647 453.262,618.351C456.531,617.983 459.638,616.339 462.923,616.512C466.661,616.707 469.905,619.251 472.179,622.224C476.101,627.35 477.829,633.883 478.175,640.328C478.52,646.774 477.577,653.21 476.636,659.595C476.029,663.717 475.421,667.84 474.814,671.962C474.534,673.865 474.235,675.822 473.261,677.482C472.287,679.14 470.462,680.45 468.55,680.232C470.817,674.07 470.977,667.354 470.839,660.791C470.709,654.636 470.339,648.487 469.732,642.361C469.24,637.403 469.5,630.057 466.939,625.648C464.889,622.119 461.585,623.451 458.324,624.357C453.452,625.709 447.34,626.729 442.421,625.056Z" style="fill:rgb(160,122,73);fill-rule:nonzero;"/>
    </g>
    <g transform="matrix(1,0,0,1,-425.485,-517.12)">
        <path d="M450.481,611.516C446.398,610.493 443.592,606.839 441.264,603.332C438.027,598.456 434.995,593.219 434.225,587.416C441.252,595.847 453.495,599.147 459.181,608.534C459.713,609.412 460.187,610.344 460.913,611.07C461.647,611.805 462.602,612.286 463.585,612.621C468.073,614.152 472.985,612.793 477.488,611.31C481.909,609.853 486.332,608.255 490.259,605.757C494.187,603.259 497.623,599.768 499.3,595.426C497.348,599.368 495.396,603.311 493.444,607.253C492.397,609.366 491.331,611.508 489.758,613.265C488.429,614.749 486.77,615.915 484.996,616.824C479.398,619.694 472.542,619.819 466.745,617.454C464.307,616.459 462.652,614.757 460.457,613.456C457.294,611.581 453.882,612.367 450.481,611.516Z" style="fill:rgb(202,176,130);fill-rule:nonzero;"/>
    </g>
    <g transform="matrix(1,0,0,1,-425.485,-517.12)">
        <path d="M501.384,591.492C501.113,591.429 500.813,591.306 500.632,591.657C500.191,592.521 499.546,593.275 499.266,594.228C499.203,594.442 499.067,594.643 498.93,594.823C497.58,596.62 496.051,598.264 494.563,599.944C494.144,600.415 493.739,600.902 493.294,601.348C492.809,601.836 492.344,602.384 491.765,602.727C491.08,603.132 490.254,603.288 489.633,603.836C488.385,604.178 487.396,604.966 486.361,605.69C485.07,606.591 483.608,607.154 482.078,607.463C481.409,607.599 480.692,607.566 480.066,607.875C479.407,608.2 478.683,607.944 478.03,608.174C477.044,608.521 475.969,608.352 474.988,608.726C474.889,608.763 474.669,608.615 474.576,608.498C474.411,608.292 474.472,608.031 474.655,607.883C475.723,607.01 476.807,606.157 477.886,605.298C478.994,604.958 479.574,603.985 480.355,603.252C480.521,603.096 480.679,602.928 480.863,602.795C481.871,602.07 482.416,600.956 483.193,600.036C483.354,599.136 484.047,598.56 484.527,597.853C484.72,597.568 484.925,597.282 485.067,596.971C485.735,595.495 486.76,594.23 487.51,592.807C488.384,591.147 489.473,589.591 489.963,587.735C490.241,586.69 490.834,585.758 491.188,584.73C491.505,583.81 491.889,582.897 492.376,582.057C492.704,581.492 492.956,580.945 493.038,580.303C493.074,580.02 493.103,579.708 493.242,579.471C493.713,578.66 493.908,577.752 494.177,576.878C494.736,575.071 495.413,573.288 495.543,571.374C495.591,570.687 495.573,569.992 495.666,569.312C495.939,567.354 495.432,565.424 495.494,563.476C495.497,563.364 495.459,563.244 495.414,563.14C494.923,562.006 494.916,560.792 494.813,559.594C494.793,559.365 494.777,559.132 494.715,558.913C494.577,558.412 494.413,557.917 494.255,557.422C494.114,556.982 493.966,556.543 493.82,556.105C493.655,555.612 493.541,555.091 493.306,554.633C493.063,554.158 493.154,553.644 492.975,553.149C492.667,552.297 492.202,551.515 491.958,550.635C491.697,549.69 491.341,548.77 491.027,547.839L491.006,547.846C490.562,546.532 490.11,545.22 489.681,543.902C489.613,543.694 489.546,543.358 489.653,543.241C490.237,542.605 490.342,541.822 490.442,541.028C490.82,540.701 490.854,540.235 490.996,539.796C491.153,539.312 491.451,538.87 491.711,538.424C491.827,538.227 492.324,538.116 492.503,538.255C493.088,538.708 493.804,539.016 494.195,539.692C494.882,540.883 495.988,541.793 496.492,543.109C497.225,543.67 497.107,544.726 497.775,545.33C497.842,545.392 497.857,545.551 497.842,545.656C497.764,546.202 498,546.677 498.163,547.167C498.563,548.368 498.424,549.685 498.956,550.86C498.999,550.954 498.968,551.086 498.959,551.2C498.816,553.019 499.041,554.844 498.812,556.665C498.669,557.798 498.463,558.94 498.66,560.097C498.697,560.316 498.62,560.555 498.584,560.783C498.496,561.354 498.471,561.918 498.504,562.502C498.558,563.473 498.4,564.445 498.414,565.425C498.43,566.445 498.235,567.469 498.145,568.491C498.11,568.891 498.034,569.307 498.106,569.692C498.292,570.68 498.003,571.632 497.97,572.601C497.96,572.883 497.827,573.197 497.913,573.438C498.144,574.081 497.914,574.671 497.87,575.292C497.748,576.986 497.31,578.564 496.518,580.057C496.22,580.618 495.954,581.196 495.672,581.766C494.956,583.208 494.197,584.622 493.178,585.882C492.962,586.15 492.804,586.463 492.627,586.761C492.304,587.304 491.984,587.847 491.669,588.395C491.334,588.98 491.239,589.713 490.589,590.107C490.514,590.152 490.462,590.32 490.479,590.416C490.557,590.861 490.288,591.181 490.119,591.538C489.668,592.483 487.333,596.478 486.772,597.086C486.534,597.344 486.335,597.588 486.18,597.903C486.031,598.206 485.751,598.449 485.963,598.838C486.09,599.07 486.313,598.949 486.872,598.377C487.562,597.673 488.163,596.914 488.591,596.016C488.812,595.553 489.142,595.143 489.398,594.695C489.651,594.254 489.872,593.795 490.106,593.343C490.53,592.524 491.038,591.735 491.345,590.873C491.565,590.258 491.914,589.757 492.249,589.23C492.526,588.794 492.839,588.38 493.094,587.932C493.408,587.381 493.753,586.863 494.143,586.357C494.658,585.687 495.233,585.032 495.407,584.13C495.5,583.642 495.719,583.101 496.055,582.753C496.89,581.891 497.192,580.772 497.719,579.759C498.457,578.342 498.659,576.818 498.744,575.261C498.766,574.86 498.749,574.455 498.789,574.057C498.864,573.319 498.753,572.559 499.04,571.845C498.768,570.982 499.032,570.127 499.088,569.27C499.1,569.098 499.173,568.912 499.129,568.758C498.883,567.884 499.14,567.04 499.245,566.186C499.287,565.843 499.379,565.487 499.331,565.154C499.142,563.826 499.354,562.518 499.445,561.201C499.476,560.746 499.46,560.287 499.462,559.83C499.464,559.603 499.423,559.368 499.462,559.148C499.886,556.764 499.725,554.341 499.941,551.944C499.96,551.721 499.912,551.479 499.84,551.264C499.548,550.379 499.543,549.457 499.462,548.545C499.443,548.318 499.469,548.076 499.4,547.865C498.737,545.847 498.241,543.759 496.907,542.02C496.562,541.57 496.384,540.986 496.019,540.557C495.162,539.55 494.239,538.599 493.339,537.627C493.029,537.292 492.565,537.013 492.435,536.621C492.304,536.228 492.496,535.725 492.561,535.273C492.593,535.045 492.669,534.825 492.705,534.599C492.878,533.53 493.121,532.453 493.035,531.378C492.959,530.436 492.825,529.547 493.531,528.77C493.629,528.66 493.599,528.438 493.64,528.271C493.863,527.377 494.202,526.541 494.776,525.803C495.02,525.487 495.188,525.108 495.364,524.744C495.665,524.118 496.063,523.564 496.456,522.993C497.138,522.004 498.034,521.168 498.54,520.051C498.846,519.379 499.099,518.654 499.815,518.252C499.896,518.206 499.903,517.921 499.855,517.777C499.761,517.487 499.536,517.273 499.221,517.274C498.821,517.276 498.398,517.443 498.027,517.358C497.064,517.136 496.196,517.415 495.318,517.709C494.386,518.021 493.45,518.32 492.531,518.665C491.893,518.904 491.281,519.212 490.658,519.489C490.26,520.334 489.39,520.422 488.658,520.71C488.113,520.924 487.653,521.22 487.199,521.593C486.367,522.275 485.68,523.117 484.741,523.688C484.333,523.936 483.939,524.262 483.714,524.801C483.526,525.254 483.089,525.617 483.017,526.157C482.933,526.787 482.253,527.025 482.075,527.568C481.897,528.108 481.795,528.667 481.602,529.212C481.398,529.784 481.444,530.457 481.445,531.086C481.445,531.36 481.593,531.638 481.701,531.904C481.74,532 481.853,532.07 481.94,532.145L482.093,532.215C482.25,532.27 482.327,532.21 482.299,532.043C482.139,531.071 482.031,530.08 482.318,529.135C482.718,527.814 483.371,526.594 484.198,525.486C484.603,524.943 485.028,524.376 485.56,523.978C486.201,523.498 486.66,522.769 487.476,522.528C488.284,522.288 488.647,521.435 489.433,521.142C489.852,520.986 490.177,520.576 490.597,520.429C491.56,520.09 492.293,519.21 493.409,519.247C494.537,518.434 495.936,518.619 497.18,518.229C497.276,518.198 497.426,518.233 497.51,518.293C497.634,518.383 497.811,518.529 497.805,518.642C497.79,518.919 497.717,519.207 497.607,519.464C497.382,519.987 496.888,520.371 496.668,520.855C496.119,522.064 495.42,523.156 494.597,524.185C494.383,524.452 494.167,524.73 494.021,525.036C493.623,525.867 493.263,526.718 492.886,527.56C492.521,528.374 492.093,530.3 491.996,531.392C491.885,532.651 491.841,533.929 491.58,535.159C491.285,536.56 490.812,537.926 490.352,539.284C490.17,539.821 489.827,540.308 489.521,540.794L489.085,540.754C488.917,540.392 488.778,540.01 488.689,539.621C488.613,539.29 488.676,538.923 488.577,538.603C488.233,537.499 487.85,536.407 487.47,535.316C487.331,534.917 487.024,534.736 486.507,534.775C486.394,534.782 486.182,535.043 486.207,535.099C486.541,535.821 486.849,536.568 487.29,537.224C487.597,537.681 487.797,538.095 487.747,538.651C487.723,538.925 487.799,539.221 487.881,539.491C488.252,540.7 488.76,541.873 488.775,543.17C488.777,543.337 488.87,543.502 488.921,543.667C489.125,544.323 489.347,544.951 489.319,545.683C489.298,546.224 489.506,546.886 489.846,547.304C490.572,548.197 490.76,549.279 491.161,550.288C491.351,550.769 491.485,551.287 491.755,551.72C492.6,553.065 492.882,554.611 493.399,556.071C493.293,556.852 493.625,557.541 493.849,558.253C493.917,558.472 494.029,558.714 493.993,558.923C493.835,559.84 494.393,560.596 494.506,561.442C494.62,562.29 494.639,563.151 494.706,564.005C494.716,564.118 494.788,564.225 494.802,564.338C494.855,564.734 494.904,565.13 494.938,565.529C494.992,566.157 495.046,566.786 495.074,567.417C495.096,567.933 495.138,568.458 495.069,568.964C494.882,570.324 494.675,571.685 494.407,573.03C494.263,573.751 494.274,574.497 493.856,575.184C493.478,575.803 493.535,576.633 493.069,577.248C492.597,578.915 491.947,580.511 491.158,582.052C491.106,582.154 491.098,582.275 491.058,582.383C490.858,582.92 490.698,583.478 490.443,583.988C489.827,585.225 489.331,586.506 488.892,587.813C488.82,588.028 488.749,588.246 488.645,588.445C487.897,589.867 487.127,591.277 486.393,592.705C486.024,593.424 485.656,594.134 485.129,594.758C484.609,595.375 484.174,596.054 483.842,596.794C483.344,597.905 482.598,598.862 481.918,599.86C481.596,600.334 481.342,600.91 480.906,601.239C480.246,601.737 479.813,602.419 479.221,602.952C478.625,603.487 477.921,603.901 477.292,604.402C476.305,605.192 475.316,605.982 474.372,606.823C473.073,607.984 471.699,608.991 469.98,609.451C469.311,609.63 468.654,609.862 468.008,610.113C467.237,610.414 466.435,610.447 465.632,610.449C465,610.45 464.368,610.389 463.736,610.349C463.526,610.335 463.376,610.035 463.459,609.811C463.682,609.213 463.959,608.687 464.507,608.273C465.237,607.719 465.873,607.072 466.779,606.744C467.232,606.58 467.57,606.099 467.966,605.768C468.273,605.511 468.551,605.166 468.908,605.033C469.828,604.692 470.408,603.99 471.004,603.285C471.188,603.069 471.346,602.789 471.583,602.664C473.224,601.796 474.161,600.221 475.311,598.887C476.088,597.986 476.594,596.845 477.183,595.789C477.632,594.983 478.012,594.137 478.438,593.318C479.13,591.987 479.623,590.579 480.079,589.155C480.183,588.827 480.256,588.48 480.419,588.182C480.814,587.462 481.045,586.703 481.164,585.894C481.24,585.384 481.323,584.846 481.547,584.393C482.045,583.388 482.148,582.285 482.389,581.228C482.645,580.106 482.874,578.985 483.28,577.904C483.464,577.41 483.561,576.904 483.435,576.378C483.353,576.034 483.352,575.713 483.478,575.364C484.049,573.787 484.025,572.096 484.375,570.474C484.446,570.149 484.445,569.772 484.352,569.454C484.201,568.933 484.137,568.451 484.388,567.943C484.455,567.805 484.451,567.59 484.397,567.44C484.017,566.377 484.264,565.269 484.167,564.186C484.126,563.728 484.118,563.279 483.971,562.838C483.753,562.18 483.555,561.514 483.341,560.855C483.144,560.25 482.852,559.662 482.755,559.043C482.646,558.349 482.31,557.762 482.091,557.122C481.963,556.747 481.895,556.344 481.861,555.947C481.807,555.318 481.374,554.945 480.981,554.544L480.709,554.678C480.654,554.76 480.653,554.895 480.662,555.003C480.709,555.61 481.101,556.047 481.424,556.518C481.311,557.174 481.539,557.767 481.776,558.357C481.818,558.462 481.869,558.577 481.95,558.652C482.403,559.066 482.015,559.809 482.566,560.198C482.654,560.261 482.593,560.519 482.621,560.684C482.844,562.036 483.043,563.399 483.296,564.74C483.545,566.062 483.579,567.36 483.561,568.679C483.548,569.592 483.714,570.518 483.363,571.405C483.679,572.152 483.277,572.871 483.27,573.608C483.265,574.172 483.024,574.731 482.989,575.297C482.932,576.221 482.746,577.105 482.48,577.987C482.248,578.755 482.121,579.555 481.936,580.337C481.738,581.175 481.467,582.001 481.333,582.848C481.201,583.697 480.939,584.509 480.7,585.32C480.277,586.75 479.662,588.124 479.238,589.556C478.858,590.839 478.288,592.026 477.69,593.209C477.352,593.879 477.022,594.554 476.697,595.231C476.173,596.322 475.515,597.333 474.834,598.328C473.525,600.243 471.702,601.681 470.118,603.339C469.817,603.653 469.305,603.755 468.915,603.995C468.674,604.146 468.487,604.38 468.264,604.563C468.044,604.743 467.83,604.947 467.579,605.07C466.283,605.709 465.211,606.68 464.009,607.458C463.823,607.578 463.68,607.771 463.532,607.943C463.048,608.502 462.496,608.994 462.029,609.574C461.528,610.195 461.198,610.15 460.599,609.59C460.249,609.263 460.022,608.886 459.873,608.435C459.602,607.611 459.257,606.82 458.655,606.171C458.537,606.044 458.391,605.926 458.321,605.775C457.741,604.507 456.861,603.448 455.996,602.374C455.208,601.396 454.516,600.328 453.29,599.812C453.137,599.747 452.984,599.629 452.887,599.495C452.296,598.679 451.446,598.271 450.578,597.801C449.22,597.066 447.988,596.098 446.579,595.433C446.135,594.859 445.371,594.8 444.849,594.38C443.997,593.695 443.179,592.961 442.404,592.191C440.941,590.737 439.569,589.195 438.255,587.606C437.849,587.114 437.5,586.585 436.94,586.256C436.266,585.861 436.344,585.031 435.908,584.503C435.801,584.373 435.64,584.289 435.508,584.18C435.376,584.07 435.191,583.979 435.131,583.836C434.698,582.81 433.794,582.128 433.226,581.185C432.61,580.161 431.935,579.159 431.261,578.168C430.543,577.115 430.29,575.851 429.519,574.82C429.123,574.292 429.097,573.503 428.801,572.881C428.501,572.251 428.812,571.511 428.323,570.907C428.149,570.693 428.279,570.238 428.255,569.895C428.23,569.553 428.194,569.212 428.148,568.873C428.038,568.079 427.753,567.267 427.841,566.497C427.993,565.169 427.635,563.876 427.777,562.547C427.872,561.654 428.067,560.718 427.805,559.804C428.303,558.851 428.072,557.774 428.319,556.777C428.443,556.275 428.412,555.717 428.611,555.254C428.868,554.657 428.831,553.994 429.062,553.441C429.337,552.781 429.378,552.105 429.548,551.443C429.648,551.054 429.762,550.664 429.913,550.293C429.995,550.09 430.163,549.775 430.302,549.769C430.642,549.755 430.657,550.135 430.767,550.38C430.909,550.695 430.97,551.081 431.193,551.315C431.703,551.848 431.838,552.529 432.08,553.171C432.324,553.819 432.474,554.527 432.84,555.095C433.189,555.64 433.419,556.215 433.676,556.792C433.836,557.155 434.015,557.52 434.244,557.841C434.943,558.821 435.339,559.976 436.079,560.937C436.35,561.288 436.433,561.784 436.601,562.215C436.664,562.376 436.7,562.558 436.799,562.695C437.68,563.911 438.366,565.223 438.856,566.648C439.02,567.125 439.404,567.524 439.598,567.995C439.973,568.904 440.558,569.688 441.059,570.516C441.591,571.396 442.279,572.177 442.866,573.029C443.481,573.925 444.187,574.75 444.612,575.771C444.74,576.078 445.019,576.322 445.22,576.603C445.418,576.88 445.608,577.162 445.796,577.446C446.554,578.593 447.294,579.751 448.073,580.883C448.4,581.359 448.67,581.852 448.938,582.362C449.333,583.112 449.683,583.92 450.322,584.514C450.764,584.924 451.009,585.419 451.189,585.979C451.58,587.188 452.011,588.377 452.921,589.323C453.075,589.483 453.157,589.715 453.259,589.919C453.784,590.965 454.525,591.793 455.474,592.504C456.508,593.279 457.691,593.728 458.808,594.319C458.9,594.367 459.033,594.34 459.146,594.349C459.35,594.364 459.609,594.147 459.633,593.939C459.654,593.747 459.458,593.414 459.295,593.389C458.96,593.337 458.53,593.411 458.306,593.229C457.878,592.879 457.373,592.802 456.905,592.601C456.696,592.512 456.496,592.38 456.322,592.233C455.083,591.179 454.021,589.945 453.217,588.554C452.674,587.614 452.16,586.658 451.561,585.75C451.436,585.56 451.344,585.342 451.271,585.125C450.85,583.86 450.072,582.788 449.434,581.638C449.044,580.936 448.417,580.371 448.225,579.559C447.52,578.726 446.85,577.872 446.47,576.827C446.414,576.677 446.236,576.575 446.13,576.439C445.885,576.122 445.66,575.791 445.409,575.48C444.402,574.229 443.892,572.642 442.716,571.503C442.599,571.39 442.537,571.206 442.483,571.044C442.335,570.59 442.035,570.253 441.715,569.912C441.443,569.621 441.229,569.274 441.003,568.942C440.746,568.563 440.461,568.193 440.269,567.78C440.105,567.427 439.809,567.165 439.751,566.717C439.697,566.296 439.359,565.912 439.145,565.513C438.796,564.86 438.346,564.238 438.118,563.545C437.718,562.331 436.856,561.357 436.474,560.146C435.931,559.654 435.955,558.844 435.501,558.335C435.054,557.835 434.883,557.242 434.63,556.664C434.378,556.09 434.001,555.569 433.766,554.989C433.426,554.148 433.05,553.329 432.601,552.541C432.313,552.036 432.121,551.513 432.116,550.906C432.112,550.457 431.983,550.003 431.87,549.563C431.699,548.899 431.34,548.283 431.46,547.548C431.488,547.373 431.297,547.138 431.161,546.967C430.819,546.54 430.678,546.06 430.681,545.523C430.684,544.776 430.663,544.027 430.695,543.28C430.71,542.942 430.798,542.597 430.907,542.272C431.181,541.454 431.535,540.66 431.763,539.831C431.934,539.211 432.158,538.605 432.575,538.157C433.139,537.552 433.52,536.858 433.914,536.154C434.109,535.805 434.366,535.488 434.613,535.172C435.181,534.449 435.706,533.683 436.346,533.029C437.374,531.978 437.505,530.543 438.081,529.302C438.126,529.206 438.096,529.074 438.1,528.96C438.133,527.952 437.982,527.008 437.234,526.246C437.034,526.042 436.864,525.807 436.69,525.578C436.391,525.184 436.501,524.765 436.95,524.62C437.224,524.531 437.513,524.403 437.787,524.419C438.476,524.461 439.176,524.421 439.847,524.478C440.501,524.534 441.175,524.704 441.846,524.803C442.125,524.844 442.397,524.964 442.661,525.075C444.847,525.994 446.916,527.144 448.854,528.497C449.671,529.068 450.548,529.476 451.425,529.9C451.823,530.092 452.309,530.104 452.758,530.189L452.9,530.13C452.885,530.037 452.88,529.909 452.818,529.863C452.497,529.624 452.186,529.342 451.824,529.192C450.863,528.794 450.01,528.205 449.119,527.691C448.281,527.206 447.357,526.817 446.706,526.069C446.466,525.792 446.219,525.641 445.89,525.501C444.832,525.052 443.704,524.745 442.698,524.219C441.782,523.738 440.766,523.989 439.879,523.562C439.734,523.491 439.547,523.483 439.381,523.487C438.751,523.505 438.122,523.549 437.492,523.566C436.366,523.594 435.37,524.066 434.36,524.485L434.265,524.773C434.564,525.179 434.787,525.641 435.261,525.913C435.652,526.139 436.01,526.437 436.345,526.743C436.99,527.333 437.196,528.082 437.083,528.944C436.98,529.735 436.395,531.253 435.884,531.943C435.473,532.497 435.053,533.045 434.646,533.604C434.274,534.114 433.915,534.635 433.551,535.152C432.751,535.406 432.829,536.276 432.405,536.803C431.648,537.743 431.119,538.821 430.652,539.939C430.249,540.902 430.053,541.883 429.902,542.916C429.74,544.022 429.724,545.05 429.988,546.139C430.188,546.961 430.248,547.84 429.549,548.578C429.292,548.85 429.18,549.286 429.074,549.667C428.825,550.554 428.67,551.469 428.384,552.343C428.082,553.267 428.147,554.275 427.688,555.154C427.772,556.138 427.184,557.049 427.374,558.044C427.036,559.043 427.144,560.092 427.061,561.116C426.975,562.198 427.093,563.301 426.961,564.374C426.783,565.82 427.044,567.236 427.119,568.66C427.154,569.333 427.521,569.983 427.684,570.655C427.844,571.32 427.908,572.01 428.064,572.676C428.197,573.238 428.525,573.714 428.809,574.217C429.073,574.684 429.013,575.324 429.152,575.874C429.221,576.142 429.417,576.377 429.559,576.625C429.673,576.823 429.851,577.005 429.899,577.217C430.121,578.197 430.7,578.993 431.22,579.814C431.619,580.442 432.1,581.018 432.543,581.617C435.136,585.12 437.716,588.635 440.752,591.777C441.743,592.801 442.728,593.831 443.899,594.681C444.654,595.23 445.484,595.617 446.261,596.108C447.814,597.086 449.313,598.15 450.868,599.125C452.24,599.986 453.498,600.961 454.503,602.24C455.14,603.051 455.868,603.81 456.375,604.695C456.807,605.449 457.288,606.15 457.81,606.834C458.088,607.198 458.424,607.55 458.585,607.965C458.92,608.828 459.426,609.602 459.788,610.439C460.047,611.034 460.451,611.277 460.973,611.203C461.74,611.097 462.442,611.14 463.145,611.473C463.333,611.563 463.598,611.506 463.826,611.492C465.369,611.399 466.926,611.461 468.436,611.031C468.682,610.961 468.937,610.914 469.131,611.118C469.379,610.992 469.668,610.923 469.928,610.903C470.565,610.851 471.106,610.63 471.729,610.691C471.874,610.584 472.04,610.509 472.222,610.439C473.788,609.838 475.442,609.655 477.08,609.387C478.038,609.23 479.014,609.126 479.951,608.901C481.074,608.63 482.183,608.405 483.339,608.362C483.785,608.346 484.315,608.257 484.647,607.997C485.645,607.218 486.848,606.763 487.797,605.913C488.269,605.492 488.841,605.23 489.446,604.999C490.459,604.613 491.352,603.966 492.367,603.551C492.874,603.343 493.314,602.896 493.698,602.478C494.307,601.815 494.605,600.852 495.594,600.56L495.697,600.425C496.365,599.186 497.672,598.51 498.417,597.337L498.713,597.268C498.775,597.296 498.807,597.452 498.804,597.551C498.792,598.07 498.669,598.557 498.476,599.05C497.701,601.024 496.788,602.943 496.162,604.976C496.029,605.407 495.793,605.84 495.502,606.184C495.079,606.683 494.829,607.25 494.588,607.839C494.131,608.953 493.509,610.008 492.75,610.905C491.681,612.169 490.661,613.498 489.291,614.503C488.731,614.914 488.213,615.339 487.549,615.58C486.861,615.83 486.065,615.932 485.697,616.718L485.561,616.808C484.658,616.832 484.063,617.595 483.201,617.77C482.357,617.941 481.552,618.298 480.728,618.569C480.621,618.604 480.496,618.636 480.388,618.615C479.845,618.514 479.371,618.771 478.867,618.874C478.311,618.988 477.726,618.971 477.175,619.104C476.603,619.24 476.048,619.288 475.465,619.222C475.129,619.184 474.782,619.232 474.441,619.264C473.682,619.335 472.954,619.197 472.243,618.952C471.701,618.766 471.158,618.584 470.621,618.383C470.303,618.263 469.998,618.111 469.687,617.973C468.536,617.462 467.407,616.83 466.07,617.262C465.374,616.992 465.011,617.569 464.572,617.888C464.215,618.149 464.218,618.58 464.293,618.994C464.322,619.154 464.575,619.261 464.707,619.156C465.11,618.835 465.514,618.513 465.91,618.183C466.151,617.982 466.417,617.923 466.714,618.001C467.16,618.118 467.612,618.219 468.045,618.373C468.31,618.468 468.592,618.605 468.784,618.803C469.377,619.416 469.936,620.066 470.5,620.707C470.841,621.095 471.14,621.522 471.503,621.887C473.605,624.003 474.582,626.119 475.178,629.503C475.308,630.239 475.253,631.003 475.495,631.707C475.798,632.597 475.787,633.507 475.88,634.42C475.993,635.511 475.734,636.6 475.963,637.683C476.008,637.892 475.908,638.131 475.875,638.357C475.844,638.58 475.726,638.839 475.797,639.023C476.093,639.779 475.851,640.489 475.721,641.221C475.663,641.553 475.706,641.904 475.71,642.246C475.721,643.159 475.754,644.072 475.736,644.985C475.73,645.251 475.456,645.55 475.519,645.775C475.819,646.855 475.424,647.923 475.537,649.001C475.625,649.853 475.507,650.724 475.516,651.585C475.525,652.444 475.703,653.32 475.581,654.157C475.4,655.414 475.454,656.656 475.49,657.908C475.496,658.132 475.486,658.373 475.411,658.58C475.126,659.362 475.157,660.181 475.193,660.975C475.285,662.987 474.92,664.983 475.078,666.999C475.149,667.905 474.922,668.831 474.888,669.75C474.851,670.732 474.355,671.638 474.456,672.636C474.086,674.142 473.735,675.654 473.34,677.154C473.122,677.986 472.818,678.795 472.584,679.624C472.419,680.208 472.593,680.587 473.136,680.931L473.386,680.829C473.445,680.44 473.354,679.973 473.537,679.666C474.063,678.784 474.052,677.778 474.285,676.837C474.542,675.791 474.897,674.737 474.81,673.624C474.778,673.21 474.91,672.828 475.112,672.468C475.283,672.161 475.342,671.841 475.338,671.476C475.317,669.812 475.972,668.188 475.645,666.501C475.998,665.899 475.718,665.262 475.749,664.642C475.788,663.897 475.841,663.154 475.89,662.409C475.969,661.206 476.096,660.004 476.121,658.799C476.18,655.814 476.216,652.827 476.215,649.841C476.215,648.063 476.518,646.292 476.337,644.512C476.267,643.817 476.35,643.137 476.461,642.451C476.554,641.885 476.648,641.299 476.6,640.734C476.495,639.471 476.881,638.213 476.608,636.954C476.831,635.807 476.672,634.66 476.595,633.516C476.463,631.568 476.352,629.616 475.588,627.775C475.439,627.414 475.403,626.995 475.375,626.6C475.335,626.005 475.157,625.481 474.828,624.985C474.607,624.654 474.464,624.274 474.265,623.928C474.095,623.632 473.92,623.332 473.704,623.07C473.155,622.406 472.578,621.765 472.019,621.109C471.91,620.98 471.826,620.827 471.739,620.681C471.63,620.496 471.8,620.123 471.996,620.144C472.617,620.21 473.235,620.163 473.868,620.321C474.453,620.468 475.109,620.24 475.748,620.305C476.488,620.38 477.246,620.454 477.977,620.23C478.64,620.026 479.296,619.842 480.004,619.859C480.396,619.867 480.9,619.904 481.159,619.691C481.588,619.336 482.046,619.543 482.464,619.406C482.848,619.28 483.315,619.231 483.587,618.978C484.216,618.396 484.999,618.221 485.75,617.942C486.02,617.841 486.298,617.747 486.543,617.602C487.38,617.109 488.224,616.621 489.028,616.076C489.785,615.565 490.494,614.982 491.224,614.431C492.121,613.041 493.612,612.088 494.163,610.443C494.996,609.76 495.306,608.79 495.634,607.819C495.78,607.386 496.038,606.99 496.253,606.581C496.412,606.279 496.579,605.982 496.746,605.684C497.758,603.872 498.433,601.92 499.102,599.967C499.362,599.21 499.625,598.459 499.923,597.714C500.669,595.847 501.119,593.88 501.746,591.971C501.819,591.749 501.67,591.559 501.384,591.492Z" style="fill:rgb(86,88,61);fill-rule:nonzero;"/>
    </g>
    <g transform="matrix(1,0,0,1,-425.485,-517.12)">
        <path d="M457.515,617.636C458.282,617.377 459.053,617.13 459.811,616.851C460.017,616.775 460.201,616.616 460.369,616.468C460.573,616.287 460.552,615.863 460.354,615.693C459.428,614.892 457.556,614.066 456.161,613.862C454.504,613.619 452.845,613.392 451.187,613.158C450.958,613.125 450.729,613.098 450.5,613.064C449.037,612.848 447.749,612.249 446.667,611.24C445.275,609.945 443.851,608.656 442.762,607.097C442.014,606.027 441.122,605.033 440.69,603.737C440.46,603.05 439.95,602.455 439.56,601.823C438.989,600.899 438.415,599.987 437.968,598.981C437.483,597.891 436.791,596.891 436.169,595.863C435.725,595.131 435.147,594.463 434.809,593.688C434.303,592.526 433.836,591.32 433.568,590.086C433.238,588.567 433.277,587.009 433.905,585.53C433.941,585.445 434.084,585.379 434.188,585.357C434.339,585.324 434.396,585.419 434.365,585.575C434.343,585.688 434.342,585.805 434.329,585.919C434.202,587.067 434.266,588.212 434.341,589.361C434.429,590.703 434.756,591.941 435.518,593.089C435.988,593.796 436.196,594.67 436.769,595.338C436.954,595.553 437.053,595.851 437.256,596.039C437.783,596.525 438.085,597.127 438.339,597.78C438.482,598.15 438.724,598.48 438.919,598.828C439.395,599.677 439.962,600.467 440.314,601.395C440.554,602.025 441.003,602.575 441.356,603.162C441.533,603.456 441.744,603.737 441.871,604.051C442.42,605.404 443.189,606.589 444.355,607.492C444.756,608.263 445.708,608.583 445.97,609.467C446.539,609.949 447.058,610.52 447.695,610.884C448.107,611.12 448.36,611.517 448.758,611.71C449.326,611.986 449.921,612.239 450.532,612.383C451.247,612.551 451.991,612.62 452.726,612.68C453.752,612.763 454.775,612.865 455.796,612.97C456.787,613.071 457.716,613.333 458.638,613.62C459.276,613.819 459.854,614.2 460.504,614.434C461.1,614.647 461.533,614.748 462.05,614.317C462.264,614.138 462.822,614.355 462.976,614.599C463.226,614.992 463.422,615.414 463.373,615.896C463.327,616.356 463.271,616.817 463.17,617.266C463.142,617.391 462.947,617.485 462.817,617.576L462.648,617.571C461.704,617.244 460.838,617.555 459.96,617.87C458.546,618.379 457.122,618.86 455.7,619.343C455.149,619.529 454.594,619.604 453.998,619.525C452.859,619.372 451.71,619.288 450.566,619.174C449.991,619.116 449.411,619.077 448.914,618.729L448.754,618.665C447.712,618.585 446.767,618.109 445.756,617.92C444.731,617.73 443.735,617.43 442.793,617.027C441.852,616.622 440.878,616.284 439.998,615.706C439.091,615.111 438.036,614.752 437.182,614.041C436.61,613.565 435.947,613.197 435.378,612.718C433.345,611.005 432.744,610.292 431.335,608.072L431.23,607.936C430.247,605.607 428.996,603.376 428.538,600.854C428.461,600.43 428.134,600.169 428.065,599.769C428.008,599.438 427.944,599.105 427.847,598.783C427.827,598.715 427.65,598.656 427.55,598.662C427.458,598.667 427.318,598.75 427.294,598.827C427.227,599.042 427.167,599.275 427.181,599.495C427.285,601.208 427.279,602.931 427.54,604.629C427.654,605.364 427.945,606.072 428.157,606.793C428.384,607.561 428.787,608.291 428.644,609.139C428.627,609.244 428.65,609.395 428.716,609.47C429.329,610.165 429.487,611.154 430.187,611.781C430.7,612.24 430.97,612.935 431.628,613.245C432.035,614.015 432.728,614.574 433.173,615.3C433.512,615.852 433.913,616.318 434.353,616.775C435.272,617.732 435.852,618.941 436.671,619.969C437.669,621.22 438.536,622.612 440.011,623.404C440.112,623.457 440.23,623.507 440.297,623.593C441.511,625.127 443.412,625.487 445.01,626.364C446.196,626.593 447.376,626.955 448.571,627.015C449.817,627.077 451.112,626.995 452.323,626.709C453.834,626.354 455.285,625.735 456.753,625.205C457.014,625.111 457.236,624.904 457.468,624.738C457.797,624.506 458.091,624.203 458.449,624.036C459.3,623.641 460.051,623.178 460.569,622.34C460.75,622.047 461.225,621.904 461.595,621.766C462.076,621.586 462.4,621.378 462.318,620.776C462.282,620.503 462.533,620.362 462.777,620.436C463.053,620.518 463.319,620.644 463.6,620.698C463.94,620.765 464.118,620.907 464.025,621.274C463.917,621.698 463.995,622.14 464.284,622.411C464.738,622.838 464.853,623.403 465.105,623.915C465.256,624.221 465.387,624.57 465.626,624.792C466.199,625.324 466.477,625.99 466.766,626.695C467.245,627.866 467.428,629.155 468.154,630.229C468.269,631.845 469.27,633.247 469.257,634.906C469.252,635.409 469.554,635.908 469.593,636.418C469.745,638.415 469.862,640.421 470.095,642.404C470.281,643.975 470.053,645.496 470.017,647.038C469.999,647.773 470.078,648.539 469.742,649.242C469.904,649.928 469.785,650.613 469.757,651.301C469.728,652.047 469.793,652.799 469.485,653.51C469.441,653.613 469.407,653.736 469.415,653.846C469.564,655.752 469.169,657.629 469.111,659.525C469.087,660.271 469.016,661.018 468.912,661.757C468.757,662.844 468.636,663.939 468.723,665.028C468.825,666.292 468.654,667.533 468.584,668.785C468.54,669.583 468.589,670.387 468.596,671.188C468.608,672.504 468.707,673.828 468.6,675.135C468.524,676.063 468.67,676.96 468.677,677.872C468.681,678.444 468.761,679.014 468.774,679.586C468.782,679.936 468.545,680.181 468.136,680.292L467.853,680.196C467.803,680.111 467.844,679.973 467.834,679.859C467.747,678.77 467.848,677.679 467.712,676.584C467.646,676.05 467.525,675.425 467.876,674.893C467.865,673.922 467.852,672.951 467.844,671.98C467.842,671.697 467.781,671.388 467.874,671.138C468.025,670.737 467.992,670.346 467.971,669.945C467.915,668.859 468.247,667.773 467.974,666.686C468.458,665.834 467.842,664.851 468.293,663.995C467.993,662.445 468.463,660.909 468.389,659.362C468.368,658.906 468.476,658.445 468.529,657.987C468.645,656.962 468.934,655.947 468.703,654.902C468.678,654.792 468.67,654.661 468.706,654.559C469.163,653.281 468.937,651.933 469.139,650.639C469.272,649.784 469.394,648.923 469.373,648.08C469.35,647.167 469.554,646.275 469.469,645.363C469.384,644.45 469.35,643.532 469.313,642.616C469.286,641.928 469.279,641.238 469.282,640.55C469.286,639.915 469.267,639.299 469.072,638.675C468.92,638.193 468.94,637.654 468.905,637.14C468.885,636.855 468.996,636.533 468.899,636.287C468.41,635.042 468.353,633.702 467.991,632.432C467.913,632.156 467.766,631.861 467.807,631.599C467.877,631.156 467.659,630.848 467.517,630.481C467.341,630.024 466.98,629.599 467.138,629.049C466.611,628.566 466.508,627.837 466.113,627.274C465.886,626.949 465.712,626.577 465.567,626.207C465.354,625.664 465.135,625.138 464.666,624.756C464.195,624.372 464.009,623.819 463.806,623.279C463.679,622.942 463.49,622.672 463.159,622.501C462.84,622.337 462.569,622.209 462.231,622.52C461.564,623.132 460.625,623.406 460.11,624.221C460.024,624.356 459.861,624.481 459.708,624.529C459.02,624.745 458.566,625.285 458.004,625.674C457.51,626.016 456.887,626.195 456.312,626.413C455.015,626.904 453.687,627.314 452.375,627.765C451.985,627.9 451.597,627.961 451.185,627.887C450.286,627.725 449.353,628.046 448.465,627.704C447.526,628.013 446.633,627.727 445.765,627.436C444.128,626.889 442.503,626.299 440.976,625.481C440.626,625.292 440.321,625.018 440.009,624.765C439.786,624.583 439.62,624.306 439.372,624.185C438.289,623.655 437.645,622.686 436.935,621.793C435.939,620.538 434.855,619.355 434.12,617.896C433.793,617.248 433.119,616.786 432.715,616.166C432.21,615.392 431.603,614.709 431.021,614.002L430.822,613.723C429.652,612.997 429.013,611.834 428.29,610.729C427.739,609.886 427.434,608.986 427.354,607.992C427.327,607.653 427.311,607.294 427.192,606.982C426.634,605.507 426.507,603.967 426.435,602.415C426.419,602.072 426.408,601.728 426.361,601.389C426.219,600.373 426.062,599.378 426.305,598.334C426.472,597.62 426.419,596.848 426.407,596.103C426.398,595.606 426.565,595.195 426.854,594.828C426.935,594.726 427.163,594.677 427.306,594.701C427.461,594.728 427.6,594.862 427.737,594.962L427.802,595.115C427.745,596.193 428.242,597.135 428.556,598.114C429.314,600.482 430.123,602.832 430.915,605.189C431.007,605.462 431.118,605.731 431.227,605.997C431.337,606.263 431.384,606.617 431.583,606.773C432.856,607.765 432.855,609.613 434.214,610.565C434.959,611.087 435.48,611.904 436.346,612.307C436.538,612.396 436.682,612.612 436.815,612.795C437.163,613.272 437.533,613.704 438.184,613.733C439.065,614.368 440.065,614.789 441.005,615.32C441.31,615.491 441.582,615.679 441.952,615.689C442.113,615.694 442.329,615.755 442.423,615.869C443.04,616.616 443.969,616.596 444.779,616.805C445.836,617.077 446.891,617.329 447.934,617.666C448.969,618 450.065,618.152 451.142,618.341C451.646,618.43 452.113,618.619 452.658,618.613C454.755,618.589 454.756,618.622 457.515,617.636Z" style="fill:rgb(86,88,61);fill-rule:nonzero;"/>
    </g>
    <g transform="matrix(1,0,0,1,-425.485,-517.12)">
        <path d="M468.215,584.373C468.353,584.131 468.578,583.9 468.609,583.644C468.664,583.193 468.689,582.703 468.571,582.274C468.398,581.648 468.417,581.023 468.377,580.396C468.255,578.462 467.423,576.728 466.835,574.928C466.715,574.56 466.45,574.218 466.186,573.921C465.637,573.301 465.328,572.57 465.065,571.803C464.861,571.206 464.637,570.635 464.265,570.095C463.916,569.588 463.786,568.928 463.573,568.331C463.379,567.787 463.199,567.237 463.021,566.688C462.886,566.272 462.948,566.068 463.133,566.172C463.319,566.278 463.536,566.422 463.618,566.604C463.854,567.129 464.029,567.682 464.229,568.224C464.448,568.814 464.605,569.411 465.058,569.915C465.347,570.236 465.448,570.741 465.587,571.179C465.798,571.845 466.05,572.488 466.538,572.998C467.033,573.514 467.315,574.137 467.54,574.793C468.083,576.378 468.626,577.964 469.149,579.556C469.511,580.658 469.551,581.798 469.521,582.952C469.494,583.982 469.271,585.008 469.454,586.043C469.474,586.154 469.511,586.292 469.468,586.383C468.909,587.567 469.394,588.921 468.852,590.105C468.785,592.35 468.121,594.509 467.888,596.731C467.859,597.011 467.642,597.333 467.731,597.547C467.819,597.762 468.177,597.868 468.42,598.018C468.768,598.23 468.809,598.367 468.613,598.694C468.408,599.035 468.263,599.441 467.983,599.702C467.611,600.049 467.168,600.385 466.695,600.542C465.884,600.813 465.279,601.318 464.764,601.944C464.203,602.624 463.441,602.853 462.638,602.974C462.136,603.05 461.616,603.006 461.104,603.017C460.566,602.564 459.748,602.695 459.258,602.128C459.151,602.004 458.974,601.942 458.828,601.852C458.211,601.474 458.105,601.211 458.412,600.621C458.538,600.378 458.755,600.176 458.956,599.984C459.022,599.92 459.181,599.914 459.279,599.944L459.377,600.189C459.37,600.299 459.31,600.407 459.267,600.514C459.083,600.965 459.38,601.196 459.672,601.339C459.925,601.462 460.23,601.498 460.455,601.654C460.935,601.988 461.392,602.356 462.027,602.194C462.979,601.949 463.962,601.738 464.545,600.826C464.916,600.244 465.183,599.585 465.959,599.396C466.097,599.362 466.234,599.176 466.298,599.029C466.506,598.557 466.757,598.084 466.851,597.585C467.174,595.888 467.427,594.179 467.724,592.477C467.862,591.685 468.164,590.901 468.174,590.111C468.191,588.737 468.887,587.424 468.49,586.023C468.449,585.877 468.515,585.664 468.603,585.528C468.962,584.967 468.524,584.687 468.222,584.354L468.215,584.373Z" style="fill:rgb(86,88,61);fill-rule:nonzero;"/>
    </g>
    <g transform="matrix(1,0,0,1,-425.485,-517.12)">
        <path d="M473.245,541.969C473.405,542.462 473.704,543.312 473.719,544.268C473.73,544.905 473.637,545.511 473.602,546.131C473.516,547.66 472.559,548.757 471.867,549.983C471.681,550.311 471.324,550.634 470.973,550.758C470.137,551.055 469.452,551.564 468.774,552.091C468.145,552.579 467.467,552.786 466.677,552.677C466.339,552.63 465.992,552.647 465.648,552.641C465.422,552.638 465.109,552.743 464.986,552.633C464.527,552.22 463.89,552.487 463.392,552.087C462.814,551.624 462.197,551.206 461.61,550.741C460.49,549.855 459.447,548.859 458.199,548.137C458.059,548.057 457.972,547.887 457.86,547.759C458.049,547.639 458.223,547.474 458.429,547.409C458.998,547.231 459.503,547.482 459.808,547.904C460.501,548.864 461.549,549.382 462.409,550.13C462.797,550.467 463.236,550.748 463.669,551.029C464.514,551.575 465.403,551.854 466.448,551.702C468.044,551.47 468.208,551.306 469.671,550.382C471.416,549.281 472.101,547.542 472.89,545.826C472.881,545.199 472.925,544.567 472.849,543.948C472.779,543.384 472.601,542.846 472.591,542.254C472.583,541.769 472.368,541.218 472.073,540.825C471.748,540.395 471.532,539.941 471.371,539.452C470.911,538.06 469.73,537.435 468.556,536.832C468.101,536.599 467.545,536.613 467.03,536.777C466.645,536.899 466.268,537.049 465.876,537.137C465.758,537.163 465.579,537.047 465.472,536.947C465.419,536.899 465.447,536.733 465.479,536.633C465.513,536.527 465.576,536.416 465.658,536.342C465.891,536.134 467.443,535.681 467.722,535.762C468.383,535.954 469.128,536.04 469.67,536.415C470.407,536.925 471.034,537.623 471.615,538.319C472.012,538.793 472.289,539.383 472.55,539.954C472.788,540.477 472.932,541.043 473.245,541.969Z" style="fill:rgb(86,88,61);fill-rule:nonzero;"/>
    </g>
    <g transform="matrix(1,0,0,1,-425.485,-517.12)">
        <path d="M451.904,538.618C451.521,538.747 451.143,538.894 450.755,539.003C449.644,539.318 448.981,540.122 448.691,541.154C448.446,542.024 448.296,542.947 448.633,543.872C448.848,544.461 448.934,545.085 449.03,545.713C449.177,546.667 449.545,547.605 449.937,548.497C450.293,549.31 451.032,549.797 451.815,550.191L451.874,550.342L451.707,550.554C451.248,550.542 450.789,550.504 450.331,550.475L450.16,550.469C450.022,550.383 449.825,550.307 449.773,550.178C449.485,549.451 448.87,548.879 448.776,548.063L448.673,547.929C448.608,546.651 448.008,545.5 447.786,544.271C447.594,543.21 447.632,542.104 447.618,541.018C447.61,540.425 447.86,539.915 448.288,539.473C448.896,538.845 449.491,538.236 450.403,538.055C450.797,537.978 451.178,537.822 451.553,537.672C452.637,537.237 453.737,537.141 454.918,537.163C456.35,537.192 457.472,537.65 458.441,538.646C459.678,539.917 460.928,541.177 462.067,542.535C462.381,542.909 462.657,543.21 463.162,543.276C463.439,543.312 463.709,543.438 463.973,543.545C464.201,543.637 464.371,543.83 464.32,544.071C464.292,544.204 464.106,544.363 463.962,544.401C463.695,544.47 463.376,544.546 463.133,544.462C462.594,544.276 462.089,544.021 461.74,543.501C461.389,542.98 460.976,542.49 460.532,542.046C460.055,541.57 459.808,540.837 459.045,540.67C458.626,540.197 458.207,539.726 457.789,539.254C456.574,537.884 455.042,537.727 453.381,538.125C452.878,538.246 452.395,538.451 451.904,538.617L451.904,538.618Z" style="fill:rgb(86,88,61);fill-rule:nonzero;"/>
    </g>
    <g transform="matrix(1,0,0,1,-425.485,-517.12)">
        <path d="M458.328,526.542C458.515,526.515 458.851,526.455 459.19,526.418C459.359,526.4 459.543,526.461 459.702,526.417C461.892,525.824 464.014,526.315 466.158,526.742C467.699,527.05 469.072,527.753 470.504,528.324C471.493,528.719 472.142,529.559 472.987,530.14C473.359,530.397 473.621,530.81 474.116,530.895C474.216,530.912 474.332,531.002 474.388,531.092C474.829,531.791 475.579,532.129 476.169,532.653C476.772,533.188 477.346,533.757 477.904,534.339C478.339,534.794 478.746,535.28 479.135,535.776C479.27,535.945 479.425,536.21 479.384,536.388C479.257,536.937 479.54,537.41 479.565,537.915C479.586,538.358 479.393,538.806 479.372,539.255C479.283,541.232 478.58,543.053 477.991,544.904L477.873,545.026L477.741,545.025L477.629,544.905C477.417,544.386 477.576,543.886 477.729,543.391C477.915,542.787 478.179,542.2 478.3,541.586C478.53,540.418 478.998,539.271 478.711,538.041C478.974,536.598 478.046,535.697 477.191,534.786C476.721,534.286 476.173,533.86 475.662,533.399C475.238,533.018 474.839,532.632 474.321,532.343C473.788,532.047 473.386,531.522 472.908,531.118C472.47,530.75 472.046,530.333 471.545,530.073C469.911,529.223 468.274,528.36 466.574,527.655C465.802,527.335 464.882,527.364 464.026,527.256C463.744,527.221 463.432,527.322 463.171,527.24C461.798,526.809 460.457,527.071 459.122,527.391C458.682,527.496 458.329,527.356 457.977,527.154L457.795,526.907L458.027,526.679C458.071,526.645 458.131,526.63 458.328,526.542Z" style="fill:rgb(86,88,61);fill-rule:nonzero;"/>
    </g>
    <g transform="matrix(1,0,0,1,-425.485,-517.12)">
        <path d="M468.222,584.354C467.943,584.588 467.744,584.89 467.805,585.252C467.886,585.737 467.718,586.137 467.567,586.578C467.365,587.17 467.301,587.808 467.176,588.426C467.108,588.765 466.971,589.028 466.706,589.3C466.072,589.953 465.471,590.659 464.982,591.425C464.618,591.994 464.489,592.709 464.185,593.324C463.84,594.023 463.301,594.534 462.475,594.622L462.225,594.448L462.203,594.294L462.288,594.147C462.986,593.517 463.472,592.744 463.828,591.882C464.271,590.806 464.988,589.896 465.675,588.98C466.175,588.314 466.495,587.618 466.646,586.809C466.794,586.021 466.993,585.24 467.213,584.47C467.368,583.929 467.628,583.917 468.215,584.373L468.222,584.354Z" style="fill:rgb(86,88,61);fill-rule:nonzero;"/>
    </g>
    <g transform="matrix(1,0,0,1,-425.485,-517.12)">
        <path d="M457.495,540.733C456.021,539.733 453.966,539.373 452.468,540.337C451.347,541.059 450.731,542.404 450.642,543.734C450.553,545.064 450.93,546.385 451.445,547.615C451.75,548.344 452.165,549.111 452.898,549.407C454.104,549.897 455.451,548.757 455.741,547.488C455.914,546.731 455.903,545.809 456.544,545.369C457.147,544.955 457.976,545.237 458.604,545.614C460.281,546.622 461.699,546.762 461.163,544.686C460.856,543.495 458.496,541.412 457.495,540.733Z" style="fill:rgb(239,238,235);fill-rule:nonzero;"/>
    </g>
    <g transform="matrix(1,0,0,1,-425.485,-517.12)">
        <path d="M472.408,542.717C472.492,540.62 471.263,538.384 469.244,537.817C468.101,537.494 466.78,537.768 465.938,538.606C463.175,541.354 468.353,543.202 466.973,545.286C465.85,546.98 463.609,544.279 464.436,546.879C466.396,553.039 472.271,546.123 472.408,542.717Z" style="fill:rgb(239,238,235);fill-rule:nonzero;"/>
    </g>
</svg>
