<?xml version="1.0" encoding="UTF-8" standalone="no"?>
<!DOCTYPE svg PUBLIC "-//W3C//DTD SVG 1.1//EN" "http://www.w3.org/Graphics/SVG/1.1/DTD/svg11.dtd">
<svg width="100%" height="100%" viewBox="0 0 107 152" version="1.1"
     xmlns="http://www.w3.org/2000/svg"
     xml:space="preserve"
     style="fill-rule:evenodd;clip-rule:evenodd;stroke-linejoin:round;stroke-miterlimit:2;">
    <g transform="matrix(1,0,0,1,-301.517,-604.196)">
        <path
          d="M305.468,694.968C315.048,686.719 327.368,681.71 339.986,680.937C336.479,685.005 335.215,690.894 336.743,696.044C338.197,691.299 341.719,687.228 346.205,685.106C347.416,687.419 349.37,689.336 351.706,690.503C350.974,688.993 353.056,687.363 354.667,687.833C356.279,688.304 357.247,689.912 357.983,691.42C359.46,694.446 360.642,697.606 361.821,700.759C363.619,694.868 363.008,688.279 360.155,682.821C367.666,687.827 374.204,694.285 379.304,701.733C380.634,694.952 381.714,687.115 377.256,681.836C378.797,683.68 381.415,684.353 383.8,684.066C386.186,683.778 388.389,682.664 390.458,681.441C395.708,678.333 400.462,674.389 404.486,669.802C397.745,672.284 390.432,673.196 383.288,672.444C378.597,671.952 373.817,670.758 369.239,671.886C364.431,673.07 360.476,676.685 355.637,677.736C349.712,679.023 344.388,676.216 339.643,673.011C335.174,669.992 331.888,671.372 327.102,673.618C317.756,678.004 309.919,685.632 305.468,694.968Z"
          style="fill:rgb(187,206,220);fill-rule:nonzero;"/>
    </g>
  <g transform="matrix(1,0,0,1,-301.517,-604.196)">
        <path
          d="M324.281,672.689C319.969,674.314 316.268,672.093 313.07,669.444C309.035,666.047 307.857,660.419 306.922,655.229C308.825,656.371 311.042,656.985 313.261,656.985C309.497,652.567 307.909,646.375 309.083,640.691C310.835,641.748 312.265,643.334 313.135,645.188C311.13,639.596 311.577,633.173 314.336,627.913C316.483,631.888 318.629,635.862 320.776,639.836C322.383,633.783 323.532,627.609 324.21,621.384C325.395,627.178 327.861,632.707 331.377,637.461C331.515,630.286 332.139,623.121 333.243,616.031C335.056,620.541 336.869,625.051 338.682,629.56C339.972,621.088 342.86,612.861 347.147,605.441C346.464,611.375 346.171,617.355 346.273,623.327C348.034,619.578 349.796,615.828 351.558,612.078C351.732,616.247 351.906,620.416 352.081,624.585C354.147,618.332 356.939,612.32 360.383,606.708C359.718,613.544 359.054,620.38 358.39,627.217C359.455,621.713 361.261,616.353 363.744,611.326C363.503,617.088 362.919,622.835 361.998,628.526C364.033,623.765 366.58,619.223 369.583,615.004C369.921,619.333 369.667,623.707 368.833,627.968C369.624,625.98 370.415,623.991 371.207,622.004C371.08,625.494 370.953,628.985 370.827,632.476C375.817,625.435 380.563,618.221 385.053,610.85C383.515,615.621 381.978,620.392 380.44,625.163C381.747,623.283 383.369,621.623 385.218,620.273C384.794,623.87 384.092,627.434 383.118,630.923C384.921,629.578 386.589,628.052 388.087,626.374C387.372,629.903 386.656,633.43 385.94,636.958C388.188,634.727 390.435,632.494 392.683,630.263C391.601,632.703 390.52,635.145 389.438,637.585C391.11,635.4 393.146,633.495 395.439,631.973C394.738,634.093 394.039,636.213 393.339,638.334C394.966,637.835 396.498,637.032 397.833,635.979C396.252,639.496 394.465,642.922 392.483,646.23C396.663,643.23 400.842,640.228 405.023,637.227C402.207,643.042 398.356,648.354 393.705,652.839C397.135,652.283 400.472,651.157 403.538,649.521C400.73,654.054 397.038,658.035 392.729,661.175C397.393,660.065 401.778,657.8 405.382,654.638C401.839,663.534 392.256,668.184 383.483,672.025C382.129,672.617 380.727,673.221 379.249,673.231C378.009,673.24 376.812,672.829 375.605,672.549C369.986,671.246 363.089,676.241 357.422,677.314C351.755,678.387 346.582,675.446 341.632,672.486C339.13,670.989 340.052,671.371 337.485,669.802C335.485,669.244 335.172,668.302 331.985,669.802L324.281,672.689Z"
          style="fill:rgb(255,192,169);fill-rule:nonzero;"/>
    </g>
  <g transform="matrix(1,0,0,1,-301.517,-604.196)">
        <path
          d="M345.616,741.01C349.535,731.107 351.298,720.522 352.237,709.958C352.698,704.766 353.027,699.541 353.18,694.33C353.288,690.681 352.659,691.068 350.074,688.904C349.012,688.016 348.179,686.845 347.083,686.094C346.794,688.545 348.225,691.405 348.858,693.817C350.075,698.462 350.489,703.215 350.484,708.014C350.474,718.294 349.429,731.374 345.616,741.01Z"
          style="fill:rgb(86,88,61);fill-rule:nonzero;"/>
    </g>
  <g transform="matrix(1,0,0,1,-301.517,-604.196)">
        <path
          d="M354.472,677.938C352.652,677.791 350.861,677.31 349.098,676.811C347.293,676.302 345.447,675.747 343.956,674.609C343.368,674.159 342.843,673.597 342.441,672.968C346.43,675.329 350.571,677.54 355.005,677.539C355.628,677.539 356.259,677.496 356.895,677.402C356.482,677.531 356.063,677.643 355.637,677.736C355.247,677.821 354.858,677.888 354.472,677.938Z"
          style="fill:rgb(255,236,229);fill-rule:nonzero;"/>
    </g>
  <g transform="matrix(1,0,0,1,-301.517,-604.196)">
        <path
          d="M355.578,677.984C355.208,677.984 354.839,677.968 354.472,677.938C354.858,677.888 355.247,677.821 355.637,677.736C356.063,677.643 356.482,677.531 356.895,677.402C357.07,677.377 357.246,677.347 357.422,677.314C362.176,676.414 367.795,672.754 372.799,672.367C372.368,672.699 371.917,673.008 371.445,673.292C370.487,673.867 369.462,674.32 368.427,674.739C365.685,675.851 362.852,676.737 359.966,677.39C358.557,677.708 357.127,677.971 355.682,677.984L355.578,677.984Z"
          style="fill:rgb(187,191,198);fill-rule:nonzero;"/>
    </g>
  <g transform="matrix(1,0,0,1,-301.517,-604.196)">
        <path
          d="M355.005,677.539C350.571,677.54 346.43,675.329 342.441,672.968C341.959,672.21 341.655,671.355 341.635,670.481C338.725,668.037 336.954,664.236 337.079,660.427C340.865,662.504 344.256,665.298 347.019,668.617C346.596,664.509 347.499,660.365 348.86,656.466C350.22,652.567 352.033,648.842 353.521,644.989C353.467,652.167 353.367,659.346 353.225,666.523C355.707,662.003 358.412,657.605 361.328,653.352C361.236,657.628 360.703,661.896 359.738,666.064C362.636,661.42 366.117,657.142 370.074,653.36C370.45,653.821 370.247,654.505 370.015,655.052C368.177,659.37 365.458,663.343 364.297,667.891C367.679,666.736 370.95,665.255 374.048,663.474C372.515,665.467 370.981,667.459 369.448,669.452C373.324,665.554 377.222,661.638 381.683,658.428C381.583,659.788 380.92,661.033 380.271,662.233C378.26,665.95 376.105,669.822 372.799,672.367C367.795,672.754 362.176,676.414 357.422,677.314C357.246,677.347 357.07,677.377 356.895,677.402C356.259,677.496 355.628,677.539 355.005,677.539Z"
          style="fill:rgb(255,178,152);fill-rule:nonzero;"/>
    </g>
  <g transform="matrix(1,0,0,1,-301.517,-604.196)">
        <path
          d="M379.283,679.839L379.093,679.589C378.418,678.985 377.743,678.381 377.056,677.79C376.933,677.684 376.764,677.617 376.604,677.57C376.115,677.43 375.624,677.273 375.123,677.196C374.938,677.168 374.704,677.323 374.525,677.445C374.392,677.535 374.276,677.727 374.434,677.878C374.801,678.231 375.143,678.66 375.585,678.871C376.497,679.305 377.424,679.701 378.292,680.227C378.541,680.378 378.851,680.31 379.089,680.112C379.172,680.043 379.219,679.932 379.283,679.839ZM324.297,650.472C324.096,650.279 323.827,650.12 323.708,649.886C323.425,649.324 323.224,648.723 322.97,648.146C322.554,647.197 322.159,646.238 321.688,645.318C321.139,644.242 320.531,643.196 319.924,642.153C319.522,641.461 318.982,640.861 318.679,640.096C318.54,639.748 318.199,639.465 317.911,639.195C317.201,638.528 316.75,638.542 316.222,639.325C315.679,640.129 315.117,640.909 314.809,641.876C314.479,642.909 314.052,643.904 313.785,644.971C313.6,645.714 313.483,646.427 313.51,647.178C313.543,648.098 313.475,649.041 313.659,649.931C313.831,650.763 314.337,651.519 314.59,652.341C315.04,653.802 315.947,654.997 316.772,656.234C317.28,656.993 317.883,657.725 318.575,658.315C319.034,658.706 319.037,659.349 319.591,659.662C320.027,659.909 320.404,660.3 320.733,660.69C321.249,661.301 321.711,661.959 322.181,662.609C322.931,663.647 323.885,664.485 324.83,665.328C324.992,665.473 325.246,665.524 325.467,665.582L325.65,665.359C325.677,665.256 325.682,665.091 325.62,665.029C324.525,663.94 324.118,662.462 323.42,661.151C323.211,660.757 323.479,660.311 323.919,660.267C325.229,660.136 326.439,660.344 327.441,661.294C327.644,661.488 327.898,661.643 328.151,661.769C329.506,662.445 330.561,663.529 331.757,664.42C332.292,664.82 332.639,665.456 333.18,665.891C333.343,666.023 333.428,666.28 333.492,666.498C333.534,666.642 333.531,666.879 333.444,666.956L332.991,666.942C332.446,666.426 331.867,665.926 331.431,665.325C331.146,664.932 330.81,664.661 330.431,664.404C329.339,663.664 328.26,662.905 327.151,662.195C326.62,661.855 326.042,661.579 325.462,661.329C325.288,661.254 324.969,661.289 324.838,661.408C324.709,661.526 324.643,661.85 324.71,662.02C325.094,662.993 325.672,663.856 326.42,664.586C327.695,665.831 328.983,667.067 330.604,667.871C330.944,668.039 331.096,668.326 331.252,668.644C331.413,668.97 331.71,669.19 332.079,669.191C333.861,669.194 335.649,669.378 337.421,669.077C337.69,669.032 337.886,669.074 338.023,669.258C338.295,669.626 338.575,670 338.767,670.411C338.998,670.903 339.309,671.308 339.765,671.575C340.509,672.011 341.031,672.817 341.915,672.989C342.799,673.162 343.372,673.916 344.234,674.104C344.451,674.151 344.662,674.265 344.854,674.382C346.541,675.411 348.429,675.931 350.286,676.529C350.503,676.598 350.773,676.561 350.954,676.675C351.892,677.263 352.934,677.224 353.971,677.23C354.607,677.233 355.245,677.196 355.878,677.237C357.397,677.334 358.846,677.033 360.286,676.589C362.364,675.948 364.461,675.363 366.539,674.722C366.967,674.59 367.328,674.231 367.757,674.122C368.206,674.008 368.625,673.93 369.016,673.629C369.321,673.395 369.744,673.295 370.128,673.187C371.306,672.856 372.35,672.235 373.444,671.718C373.82,671.54 373.956,671.271 373.909,670.894C373.832,670.279 374.126,669.945 374.662,669.698C375.02,669.533 375.358,669.284 375.645,669.01C376.809,667.894 377.888,666.718 378.827,665.382C379.551,664.351 380.054,663.159 380.977,662.268C381.432,661.174 382.173,660.157 381.873,658.862C381.822,658.642 381.598,658.454 381.38,658.506C379.989,658.834 378.894,659.557 377.901,660.769C377.029,661.834 376.123,662.871 375.363,664.026C375.175,664.311 374.942,664.644 374.65,664.768C373.665,665.184 373.262,666.13 372.681,666.882C372.186,667.524 371.664,668.125 371.111,668.71C370.636,669.211 370.175,669.726 369.705,670.232C369.591,670.356 369.479,670.488 369.343,670.584C368.778,670.98 368.205,671.36 367.723,671.864C367.64,671.95 367.376,671.937 367.234,671.878C366.984,671.774 367.181,671.603 367.24,671.468C367.286,671.363 367.346,671.259 367.423,671.177L367.7,670.976C368.168,670.551 368.701,670.174 369.079,669.679C369.47,669.168 369.967,668.794 370.406,668.348C370.847,667.901 371.324,667.469 371.674,666.955C372.223,666.149 372.687,665.284 373.165,664.432C373.243,664.293 373.221,664.094 373.228,663.922C373.246,663.46 372.792,663.13 372.425,663.353C371.936,663.651 371.436,663.944 370.996,664.306C369.802,665.289 368.511,666.145 367.346,667.17C366.752,667.694 365.997,668.036 365.296,668.427C365.199,668.481 364.973,668.365 364.841,668.278C364.694,668.18 364.586,667.985 364.739,667.837C365.109,667.479 365.463,667.059 365.91,666.832C367.049,666.254 368.116,665.584 369.027,664.694C369.984,663.76 371.241,663.269 372.26,662.425C372.831,661.952 373.496,661.593 374.118,661.182C374.396,660.997 374.651,661.1 374.8,661.361C375.012,661.734 374.662,662.437 375.268,662.494C375.752,662.54 375.816,661.845 376.159,661.544C376.539,661.209 376.809,660.748 377.127,660.343C377.199,660.252 377.258,660.139 377.35,660.079C378.11,659.587 378.616,658.772 379.475,658.407C380.013,657.7 380.892,657.744 381.617,657.454C381.809,657.376 382.081,657.426 382.296,657.487C382.582,657.57 382.848,657.782 382.861,658.081C382.892,658.771 382.867,659.465 382.834,660.155C382.827,660.313 382.717,660.478 382.62,660.614C382.148,661.28 381.993,662.09 381.628,662.806C381.576,662.908 381.667,663.194 381.769,663.245C382.066,663.398 382.475,663.648 382.71,663.549C383.387,663.265 384.128,663.536 384.75,663.262C385.365,662.991 385.991,663.044 386.609,662.934C387.003,662.864 387.382,662.715 387.769,662.606C388.819,662.309 389.747,661.665 390.855,661.523C390.999,661.504 391.123,661.331 391.259,661.234C391.489,661.066 391.7,660.848 391.956,660.743C394.284,659.788 396.205,658.219 398.009,656.545C399.262,655.382 400.309,653.984 401.36,652.622C401.806,652.046 402.04,651.302 402.345,650.622C402.444,650.402 402.038,650.059 401.788,650.133C401.623,650.182 401.442,650.214 401.305,650.307C400.151,651.081 398.807,651.471 397.599,652.136C397.048,652.439 396.44,652.639 395.853,652.871C395.088,653.175 394.401,653.553 393.977,654.318C393.787,654.661 393.342,654.716 393.116,654.396C392.737,653.862 392.291,653.857 391.755,654.006C391.427,654.098 391.096,654.235 390.763,654.243C389.319,654.281 387.873,654.284 386.429,654.288C386.264,654.288 386.086,654.24 385.939,654.165C385.869,654.13 385.846,653.982 385.825,653.88L385.913,653.757C386.075,653.709 386.241,653.653 386.407,653.647C386.984,653.625 387.562,653.613 388.14,653.618C389.468,653.628 390.783,653.567 392.039,653.069C392.197,653.006 392.374,652.946 392.539,652.955C393.667,653.01 394.334,652.374 394.888,651.489C395.559,650.418 396.291,649.387 396.977,648.325C397.162,648.04 397.276,647.709 397.414,647.395C397.471,647.266 397.294,647.053 397.142,647.024C396.722,646.942 396.343,647.037 395.979,647.243C394.428,648.12 392.877,648.998 391.318,649.861C391.2,649.926 390.997,649.916 390.867,649.862C390.667,649.78 390.577,649.388 390.707,649.266C390.998,648.994 391.261,648.652 391.606,648.489C393.363,647.66 394.905,646.387 396.845,645.938C397.6,645.278 398.5,645.213 399.44,645.301C399.762,645.33 399.949,645.643 399.754,645.92C399.031,646.952 398.577,648.146 397.692,649.092C397.155,649.666 396.871,650.466 396.245,651.001C396.061,651.158 396.225,651.448 396.509,651.502C397.075,651.609 397.335,651.489 397.454,651.049C397.498,650.883 397.483,650.696 397.546,650.54C397.629,650.333 397.72,650.03 397.881,649.973C398.44,649.773 398.599,649.237 398.928,648.854C400.237,647.332 401.54,645.805 402.818,644.257C403.512,643.417 404.215,642.57 404.477,641.464C404.516,641.303 404.6,641.133 404.711,641.01C405.342,640.314 405.108,639.494 405.056,638.702C405.049,638.602 404.965,638.488 404.886,638.413C404.473,638.013 403.833,637.947 403.304,638.248C403.155,638.333 403.031,638.519 402.88,638.536C401.865,638.657 401.128,639.32 400.282,639.785C399.421,640.259 398.659,640.829 397.953,641.496C397.708,641.728 397.638,641.705 397.456,641.375C397.345,641.174 397.246,640.965 397.142,640.76L397.13,640.772C397.609,640.826 398.097,640.812 398.358,640.347C398.604,639.909 399.01,639.711 399.398,639.479C399.886,639.188 400.41,638.988 400.809,638.525C401.043,638.252 401.499,638.12 401.88,638.036C402.282,637.947 402.662,637.864 402.976,637.581C403.059,637.506 403.168,637.411 403.268,637.407C403.896,637.384 404.559,637.258 405.144,637.415C405.642,637.549 405.733,638.217 405.963,638.673C406.127,638.998 406.118,639.327 406.008,639.677C405.785,640.385 405.423,641.051 405.378,641.815C405.369,641.971 405.27,642.157 405.154,642.266C404.424,642.943 404.04,643.861 403.467,644.644C402.519,645.94 401.56,647.229 400.418,648.369C399.891,648.897 399.308,649.389 399.042,650.121L399.098,650.394C399.176,650.455 399.316,650.483 399.417,650.463C399.581,650.43 399.763,650.381 399.891,650.28C400.856,649.526 402.027,649.155 403.079,648.564C403.269,648.457 403.52,648.447 403.746,648.415C404.197,648.351 404.539,648.779 404.324,649.196C403.776,650.262 403.408,651.421 402.552,652.327C402.216,652.683 401.992,653.161 401.705,653.577C401.017,654.579 400.206,655.457 399.396,656.356C398.032,657.87 396.441,659.077 394.744,660.165C394.468,660.343 394.339,660.554 394.343,660.866C393.968,660.893 393.528,660.742 393.328,661.24C391.368,662.031 389.475,663 387.362,663.373C386.918,663.451 386.467,663.613 386.075,663.836C385.343,664.251 384.572,664.362 383.755,664.334C383.353,664.32 382.95,664.338 382.548,664.36C381.923,664.394 381.227,664.106 380.688,664.473C380.137,664.847 379.715,665.413 379.242,665.901C379.164,665.981 379.101,666.082 379.053,666.184C378.753,666.809 378.392,667.384 377.895,667.88C377.758,668.017 377.77,668.303 377.714,668.52L377.47,668.72C377.434,668.794 377.483,668.91 377.494,669.007L377.673,668.841C377.71,668.741 377.699,668.624 377.708,668.515C378.054,668.548 378.389,668.582 378.678,668.303C379.006,667.987 379.357,667.694 379.707,667.402C379.922,667.222 380.127,667.287 380.308,667.473C380.428,667.597 380.558,667.714 380.663,667.851C380.845,668.089 380.787,668.437 380.539,668.614C380.401,668.714 380.248,668.795 380.101,668.883C379.016,669.531 377.926,670.17 376.94,670.967C376.806,671.075 376.669,671.181 376.539,671.293C376.369,671.442 376.365,671.802 376.539,671.902C376.788,672.045 377.04,672.277 377.301,672.291C378.222,672.344 379.108,672.58 380.012,672.703C380.634,672.789 381.272,672.697 381.878,672.97C382.069,673.056 382.34,673.026 382.559,672.978C384.138,672.635 385.622,672.03 386.995,671.193C388.462,670.296 389.971,669.457 391.304,668.355C392.516,667.892 393.3,666.816 394.4,666.191C394.6,666.077 394.718,665.694 394.596,665.607C394.465,665.513 394.261,665.395 394.141,665.437C393.363,665.708 392.562,665.734 391.755,665.749C391.528,665.753 391.288,665.769 391.077,665.846C390.32,666.122 389.551,666.313 388.756,666.469C387.924,666.634 387.138,667.034 386.329,667.326C386.167,667.385 386,667.445 385.831,667.461C385.662,667.477 385.482,667.461 385.319,667.415C385.227,667.39 385.122,667.288 385.094,667.198C385.064,667.106 385.085,666.96 385.144,666.883C385.466,666.461 385.836,666.138 386.417,666.093C386.87,666.058 387.312,665.912 387.76,665.82C389.66,665.426 391.541,664.945 393.468,664.683C393.685,664.654 393.915,664.563 394.097,664.439C395.045,663.791 396.102,663.635 397.215,663.707C397.45,663.722 397.668,663.766 397.798,664C397.966,664.307 398.157,664.59 398.528,664.69C399.007,664.819 399.25,664.454 399.578,664.232C399.855,664.044 400.267,664.023 400.495,663.8C401.43,662.887 402.348,661.958 403.351,661.117C403.527,660.97 403.677,660.79 403.834,660.621C404.774,659.608 405.562,658.484 406.225,657.275C406.556,656.672 406.836,656.04 407.102,655.405C407.134,655.328 406.952,655.06 406.844,655.043C406.572,655.001 406.204,654.945 406.02,655.086C405.506,655.481 404.888,655.63 404.342,655.936C403.848,656.212 403.322,656.44 402.851,656.75C401.895,657.382 400.966,658.056 400.026,658.713C399.231,658.846 398.832,659.564 398.208,659.949C397.574,660.342 396.903,660.659 396.309,661.139C395.633,661.686 394.799,661.952 393.901,661.922C393.445,661.906 393.34,661.599 393.314,661.223C393.958,661.498 393.958,661.498 394.379,660.905C396.115,660.432 397.358,659.779 398.59,658.752C399.07,658.352 399.582,658.01 400.156,657.718C401.012,657.282 401.768,656.652 402.563,656.097C403.442,655.484 404.254,654.785 405.388,654.603C405.865,654.526 406.283,654.112 406.741,653.879C407.446,653.518 407.878,653.618 408.359,654.299C408.467,654.45 408.502,654.806 408.401,654.928C407.472,656.051 407.198,657.556 406.214,658.64C406.049,659.428 405.5,659.905 404.872,660.33C404.684,660.457 404.473,660.608 404.371,660.8C403.698,662.071 402.517,662.811 401.441,663.661C400.363,664.516 399.281,665.366 398.197,666.212C397.941,666.411 397.758,666.406 397.487,666.086C397.126,665.657 396.835,665.627 396.454,665.937C395.43,666.768 394.351,667.52 393.238,668.225C393.13,668.293 393.034,668.553 393.081,668.652C393.14,668.77 393.355,668.817 393.507,668.883L393.677,668.891C394.663,668.504 395.701,668.524 396.733,668.476C396.951,668.465 397.159,668.312 397.377,668.241C397.761,668.117 398.149,667.904 398.534,667.91C400.355,667.935 401.99,667.122 403.735,666.817C404.496,666.683 405.117,666.372 405.549,665.647C405.866,665.115 406.383,664.701 406.822,664.246C406.894,664.171 407.029,664.106 407.126,664.115C407.288,664.133 407.461,664.188 407.594,664.279C407.747,664.382 407.801,664.586 407.645,664.712C406.777,665.414 406.446,666.535 405.632,667.279C405.518,667.383 405.487,667.585 405.434,667.747C405.291,668.19 405.125,668.606 404.719,668.896C404.542,669.023 404.407,669.233 404.302,669.432C403.57,670.817 402.432,671.898 401.52,673.148C401.391,673.324 401.146,673.413 400.973,673.564C399.671,674.694 398.276,675.706 396.952,676.812C395.56,677.975 393.949,678.849 392.35,679.717C391.333,679.891 390.496,680.564 389.461,680.722C388.788,680.824 388.153,681.154 387.481,681.28C386.528,681.46 385.603,681.768 384.598,681.732C383.927,681.707 383.246,681.938 382.572,682.072C382.307,682.125 382.22,682.357 382.216,682.593C382.206,683.171 382.216,683.749 382.224,684.326C382.237,685.196 382.172,686.05 381.822,686.866C381.594,687.401 381.554,687.97 381.507,688.55C381.434,689.462 381.692,690.408 381.257,691.285C381.402,692.362 381.514,693.444 381.703,694.512C381.885,695.547 381.898,696.57 381.712,697.6C381.651,697.937 381.534,698.273 381.53,698.61C381.522,699.374 381.355,700.08 381.018,700.768C380.872,701.066 380.859,701.429 380.793,701.764C380.748,701.988 380.725,702.217 380.677,702.441C380.633,702.644 380.237,702.79 380.117,702.645C379.9,702.38 379.64,702.124 379.516,701.818C379.322,701.344 379.201,700.835 379.097,700.331C378.841,699.091 378.493,697.857 377.92,696.749C377.108,695.179 376.328,693.546 374.991,692.321C374.355,691.74 373.935,690.975 373.21,690.465C372.508,689.971 371.861,689.38 371.258,688.765C370.642,688.135 369.903,687.71 369.153,687.292C367.848,686.565 366.53,685.862 365.224,685.136C364.923,684.969 364.661,684.732 364.36,684.568C363.905,684.32 363.434,684.1 362.963,683.881C362.755,683.784 362.502,683.962 362.454,684.195C362.38,684.55 362.351,684.96 362.642,685.163C363.415,685.699 363.435,686.669 363.979,687.337C364.164,687.565 364.132,687.997 364.137,688.337C364.163,690.476 364.183,692.613 364.183,694.752C364.183,696.833 364.162,698.914 364.139,700.994C364.132,701.588 363.906,702.054 363.685,702.011C363.307,701.938 363.077,701.647 362.938,701.348C362.502,700.412 361.958,699.526 361.568,698.579C361.324,697.988 361.026,697.444 360.694,696.917C359.993,695.805 359.481,694.584 358.676,693.529C358.111,692.789 357.49,692.119 356.777,691.531C356.484,691.29 356.001,691.405 355.915,691.733C355.652,692.73 355.472,693.755 355.125,694.721C354.842,695.511 354.831,696.295 354.816,697.1C354.799,698.021 354.828,698.951 354.294,699.778C354.205,699.916 354.141,700.104 354.146,700.266C354.185,701.436 353.825,702.531 353.588,703.654C353.438,704.369 353.483,705.124 353.429,705.861C353.35,706.943 353.583,708.059 353.086,709.097C353.051,710.534 352.621,711.932 352.683,713.384C352.722,714.296 352.827,715.234 352.382,716.1C352.435,716.973 352.181,717.805 352.041,718.652C351.939,719.27 351.777,719.88 351.707,720.501C351.643,721.073 351.71,721.66 351.641,722.232C351.544,723.025 351.458,723.838 351.207,724.589C351.017,725.16 351.023,725.72 350.97,726.288C350.933,726.691 351.032,727.128 350.907,727.494C350.494,728.702 350.194,729.919 350.246,731.204C349.684,732.655 349.613,734.24 349.096,735.688C348.591,737.098 348.196,738.529 347.807,739.969C347.141,740.872 347.033,741.984 346.704,743.009C346.441,743.828 346.144,744.634 345.869,745.447C345.356,746.96 345.06,748.552 344.144,749.909C344.053,750.794 343.64,751.525 343.169,752.27C342.793,752.865 342.898,753.6 343.217,754.262C343.375,754.59 343.367,754.914 343.199,755.256C342.889,755.885 342.536,755.994 341.993,755.563C341.87,755.465 341.738,755.306 341.718,755.16C341.563,753.996 341.663,752.847 342.164,751.779C342.658,750.726 343.079,749.667 343.074,748.482C343.074,748.368 343.078,748.235 343.135,748.145C343.834,747.041 343.76,745.712 344.194,744.523C344.622,743.346 344.823,742.087 345.141,740.869C345.227,740.538 345.391,740.229 345.492,739.901C345.608,739.521 345.785,739.129 345.777,738.745C345.755,737.673 346.111,736.707 346.521,735.758C346.708,735.325 346.805,734.903 346.852,734.435C346.939,733.581 347.021,732.706 347.284,731.899C347.588,730.962 347.61,729.978 347.927,729.055C348.153,728.395 348.246,727.717 348.255,727.021C348.259,726.737 348.303,726.444 348.384,726.171C348.693,725.122 348.968,724.07 349.012,722.97L349.214,722.739C349.325,722.64 349.519,722.82 349.538,723.036L349.56,723.207C349.518,723.605 349.508,724.011 349.416,724.398C349.206,725.288 349.028,726.18 348.879,727.085C348.711,728.107 348.568,729.121 348.504,730.153C348.487,730.431 348.338,730.699 348.261,730.976C348.076,731.638 347.799,732.276 347.828,732.99C347.838,733.268 347.754,733.562 347.656,733.827C346.975,735.661 346.707,737.605 346.147,739.473C345.935,740.182 345.78,740.912 345.538,741.618C345.496,741.743 345.621,741.93 345.681,742.083L345.806,742.192C345.901,742.189 346.064,742.175 346.08,742.125C346.504,740.875 346.878,739.611 347.416,738.399C347.62,737.941 347.496,737.329 347.721,736.891C348.231,735.901 348.339,734.797 348.734,733.78C348.816,733.569 348.898,733.342 348.909,733.118C348.971,731.784 349.414,730.537 349.756,729.267C349.83,728.992 349.943,728.714 349.946,728.437C349.958,726.934 350.162,725.465 350.608,724.029C350.659,723.867 350.655,723.686 350.653,723.513C350.64,722.182 351,720.911 351.269,719.625C351.34,719.29 351.316,718.937 351.35,718.593C351.423,717.854 351.294,717.095 351.655,716.382C351.775,716.146 351.725,715.817 351.731,715.529C351.75,714.611 351.721,713.706 351.982,712.79C352.166,712.146 352.033,711.412 352.068,710.721C352.099,710.095 351.977,709.443 352.355,708.864C352.413,708.776 352.43,708.637 352.414,708.528C352.235,707.246 352.805,706.029 352.736,704.758C352.726,704.586 352.704,704.383 352.78,704.244C353.193,703.49 353.038,702.666 353.112,701.87C353.139,701.584 353.087,701.265 353.196,701.015C353.543,700.218 353.858,699.432 353.821,698.53C353.787,697.728 354.349,696.998 354.168,696.164C354.516,695.166 354.43,694.119 354.534,693.092C354.608,692.36 354.878,691.648 355.049,690.924C355.102,690.702 355.15,690.471 355.14,690.247C355.132,690.087 355.067,689.879 354.952,689.786C354.596,689.499 354.214,689.242 353.824,689.004C353.527,688.822 353.112,689.112 353.062,689.47C353.003,689.901 353.172,690.253 353.338,690.625C353.427,690.826 353.453,691.077 353.237,691.257C353.053,691.409 352.605,691.421 352.43,691.239C352.069,690.869 351.661,690.517 351.403,690.08C350.91,689.242 350.276,688.505 349.874,687.592C349.538,686.827 348.819,686.24 348.409,685.498C347.868,684.518 347.073,684.34 346.09,684.484C345.976,684.5 345.806,684.481 345.758,684.548C345.331,685.138 344.55,685.16 344.055,685.661C343.245,686.482 342.419,687.283 341.821,688.279C341.437,688.918 341.094,689.581 340.511,690.077C340.388,690.182 340.31,690.351 340.24,690.503C339.976,691.078 339.709,691.652 339.474,692.238C339.26,692.77 339.082,693.316 338.9,693.859C338.865,693.965 338.838,694.104 338.876,694.2C339.262,695.185 339.096,696.247 339.318,697.255C339.514,698.146 339.679,699.044 339.827,699.944C339.846,700.059 339.695,700.231 339.581,700.324L339.269,700.262C338.78,699.858 338.263,699.465 338.148,698.78C338.061,698.257 337.471,697.987 337.497,697.395C337.517,696.935 337.429,696.486 337.209,696.055C337.12,695.879 337.18,695.608 337.223,695.389C337.277,695.111 337.452,694.842 337.453,694.569C337.456,693.671 338.057,692.856 337.61,691.867C337.268,691.109 337.53,690.188 337.215,689.331C336.928,688.549 336.68,687.682 336.78,686.798C336.834,686.314 336.625,685.896 336.457,685.469C335.955,684.187 336.145,682.852 336.152,681.532C336.152,681.382 336.254,681.193 336.37,681.09C337.03,680.509 337.356,679.687 337.893,679.018C338.111,678.745 337.882,678.295 337.525,678.286C337.303,678.28 337.071,678.316 336.857,678.379C334.442,679.104 332.038,679.863 329.642,680.647C329.045,680.842 328.422,680.957 327.815,681.123C326.487,681.487 325.178,681.897 324.011,682.659C321.437,683.631 317.879,685.742 315.878,687.122C313.898,688.487 311.889,689.815 310.028,691.353C309.143,692.083 308.44,693.034 307.378,693.557C307.184,693.653 307.027,693.862 306.898,694.051C306.048,695.284 304.865,696.251 304.101,697.554C303.927,697.851 303.746,698.151 303.527,698.414C303.158,698.859 302.784,699.278 302.656,699.878C302.597,700.154 302.329,700.366 302.011,700.371C301.854,700.373 301.68,700.302 301.547,700.214L301.517,699.904C301.848,699.232 302.074,698.449 302.571,697.93C303.226,697.244 303.64,696.424 304.111,695.654C305.163,693.941 306.243,692.236 307.128,690.42C307.454,689.752 307.838,689.093 308.301,688.515C309.166,687.435 309.632,686.091 310.621,685.103C311.212,683.568 312.555,682.544 313.322,681.129C314.164,680.35 314.75,679.322 315.712,678.657C315.852,678.56 315.976,678.431 316.086,678.299C317.081,677.097 318.228,676.066 319.521,675.191C319.756,675.032 319.924,674.779 320.139,674.586C320.308,674.434 320.484,674.237 320.688,674.185C321.97,673.861 322.865,672.618 324.3,672.673C324.064,673.209 323.824,673.687 323.115,673.778C322.74,673.825 322.394,674.124 322.041,674.32C320.273,675.304 318.736,676.587 317.269,677.965C315.72,679.42 314.309,680.996 313.03,682.695C311.789,684.343 310.458,685.927 309.562,687.812C309.419,688.113 309.128,688.348 308.891,688.6C308.61,688.897 308.393,689.203 308.286,689.622C308.172,690.061 307.905,690.458 307.727,690.883C307.623,691.13 307.526,691.391 307.498,691.654C307.481,691.822 308.012,691.793 308.444,691.535C308.787,691.33 309.111,691.088 309.423,690.838C311.116,689.48 312.714,687.986 314.747,687.114C314.991,686.561 315.734,686.7 315.998,686.285C316.376,685.691 316.964,685.528 317.521,685.264C317.886,685.091 318.251,684.917 318.595,684.71C319.809,683.981 320.816,682.889 322.319,682.66C322.567,682.623 322.787,682.338 322.999,682.145C323.265,681.904 323.547,681.731 323.918,681.724C324.277,681.716 324.578,681.569 324.863,681.346C325.036,681.211 325.27,681.074 325.475,681.075C326.201,681.079 326.791,680.679 327.446,680.505C328.403,680.253 329.303,679.909 330.176,679.463C330.374,679.362 330.619,679.351 330.844,679.303C331.236,679.221 331.625,679.101 332.021,679.07C333.186,678.98 334.147,678.216 335.313,678.114C335.878,678.066 336.464,677.969 336.983,677.755C337.607,677.497 338.227,677.568 338.856,677.535C339.366,677.51 339.558,677.854 339.723,678.232C339.883,678.602 339.814,678.847 339.484,679.154C339.358,679.272 339.229,679.389 339.087,679.484C338.404,679.94 337.965,680.632 337.503,681.265C336.89,682.104 336.974,683.15 337.18,684.112C337.302,684.677 337.352,685.244 337.459,685.801C337.633,686.702 337.852,687.589 337.83,688.517C337.826,688.677 337.936,688.841 337.997,689.002C338.179,689.486 338.354,689.973 338.552,690.45C338.586,690.533 338.711,690.618 338.802,690.628C338.899,690.638 339.034,690.586 339.101,690.515C339.217,690.39 339.291,690.228 339.386,690.083C340.33,688.648 341.34,687.26 342.464,685.958C343.26,685.037 344.1,684.183 345.264,683.698C346.054,683.37 346.907,683.246 347.621,683.576C348.537,684 349.482,684.535 349.829,685.64C349.932,685.965 350.026,686.309 350.209,686.589C350.554,687.115 350.955,687.606 351.344,688.104C351.448,688.237 351.579,688.362 351.723,688.448L352,688.39C352.148,688.218 352.231,687.983 352.395,687.832C352.907,687.362 353.38,687.323 353.945,687.695C354.426,688.01 354.922,688.316 355.351,688.694C355.958,689.226 356.453,689.9 357.1,690.369C357.815,690.889 358.263,691.626 358.87,692.228C359.395,692.747 359.903,693.347 360.21,694.008C360.671,695.002 361.232,695.925 361.801,696.852C361.945,697.086 362.002,697.379 362.074,697.652C362.246,698.309 362.572,698.734 362.85,698.629C363.298,698.462 363.292,697.996 363.454,697.652C363.545,697.455 363.524,697.198 363.525,696.97C363.529,694.657 363.531,692.346 363.524,690.033C363.523,689.748 363.545,689.424 363.424,689.186C363.201,688.749 363.173,688.303 363.172,687.841C363.17,687.358 362.979,686.979 362.683,686.589C361.783,685.407 360.918,684.197 360.078,682.973C359.591,682.265 359.166,681.514 358.745,680.765C358.706,680.696 358.865,680.479 358.976,680.38C359.042,680.321 359.21,680.324 359.307,680.363C360.108,680.689 360.898,681.031 361.527,681.658C361.77,681.902 362.026,682.147 362.315,682.328C363.045,682.786 363.821,683.174 364.534,683.656C365.288,684.166 366.215,684.4 366.838,685.117C366.907,685.197 367.046,685.212 367.147,685.269C367.645,685.545 368.316,685.504 368.671,686.025C369.07,686.611 369.804,686.535 370.303,686.935C371.637,688.001 373.181,688.812 374.233,690.22C374.438,690.494 374.724,690.709 374.982,690.941C376.741,692.523 377.82,694.543 378.698,696.693C379.066,697.596 379.417,698.506 379.784,699.41C379.85,699.572 379.969,699.742 380.17,699.66C380.307,699.604 380.475,699.474 380.512,699.343C380.834,698.19 381.2,697.041 381.175,695.822C381.17,695.593 381.173,695.355 381.117,695.135C380.851,694.082 380.558,693.036 380.294,691.983C380.225,691.709 380.125,691.375 380.22,691.143C380.621,690.165 380.429,689.092 380.798,688.105C381.035,687.473 381.116,686.773 381.198,686.094C381.273,685.47 381.162,684.83 381.455,684.223C381.54,684.047 381.455,683.776 381.413,683.555C381.349,683.217 381.266,682.88 381.166,682.551C381.118,682.394 381.048,682.203 380.925,682.115C380.554,681.85 380.167,681.46 379.758,681.422C378.857,681.338 378.149,680.8 377.315,680.572C376.718,680.408 376.111,680.1 375.638,679.702C374.963,679.135 374.204,678.745 373.445,678.333C373.294,678.251 373.136,678.165 373.019,678.044L372.972,677.744C373.726,677.465 373.858,676.756 374.121,676.132L374.396,675.959C374.955,676.078 375.507,676.226 376.061,676.365C377.094,676.625 377.866,677.339 378.734,677.888C379.284,678.235 379.707,678.687 380.101,679.191C380.49,679.688 380.9,680.172 381.346,680.616C381.535,680.805 381.845,680.991 382.092,680.981C383.682,680.909 385.334,681.36 386.834,680.462C386.929,680.405 387.054,680.395 387.166,680.372C389.206,679.956 391.062,678.998 393.035,678.388C393.93,678.111 394.472,677.267 395.383,677.031C395.517,676.997 395.595,676.768 395.713,676.643C395.864,676.484 396.009,676.246 396.193,676.205C396.621,676.11 396.875,675.794 397.207,675.574C398.171,674.938 398.879,674.011 399.81,673.343C401.429,672.181 402.456,670.5 403.66,668.974C403.881,668.694 403.649,668.198 403.306,668.178C402.444,668.124 401.595,668.064 400.755,668.426C400.238,668.649 399.642,668.82 399.089,668.799C397.916,668.754 396.833,669.196 395.687,669.291C394.901,669.356 394.145,669.775 393.36,669.835C392.575,669.896 391.793,670.151 390.987,669.981C390.848,669.951 390.645,670.044 390.521,670.143C388.844,671.471 386.984,672.478 385.039,673.353C384.076,673.786 383.037,673.807 382.033,674.018C381.819,674.063 381.55,674.038 381.355,673.945C380.748,673.654 380.109,673.705 379.482,673.728C378.596,673.759 377.798,673.38 376.947,673.266C376.554,672.612 375.855,672.76 375.265,672.59C374.641,672.411 374.101,672.568 373.656,672.909C373.372,673.127 373.113,673.25 372.778,673.359C370.923,673.959 369.1,674.647 367.355,675.529C367.155,675.631 366.929,675.752 366.718,675.746C366.047,675.727 365.498,676.04 364.919,676.295C364.288,676.573 363.645,676.828 362.995,677.058C361.698,677.516 360.303,677.624 359.023,678.153C358.921,678.195 358.794,678.186 358.68,678.187C357.178,678.189 355.666,678.295 354.178,678.157C352.876,678.036 351.58,677.713 350.318,677.35C348.496,676.824 346.723,676.141 344.98,675.388C344.413,675.143 343.817,674.943 343.374,674.447C343.197,674.249 342.883,674.157 342.616,674.058C340.672,673.332 339.5,672.583 338.217,671.176C337.894,670.821 337.528,670.565 337.085,670.408C336.76,670.294 336.434,670.178 336.099,670.102C335.666,670.004 335.213,670.291 334.763,669.999C334.636,669.916 334.341,670.115 334.118,670.15C333.044,670.315 332.005,670.709 330.891,670.616C330.674,670.599 330.431,670.674 330.227,670.766C329.648,671.027 329.07,671.237 328.434,671.362C327.771,671.491 327.197,671.966 326.482,672.019C326.332,672.029 326.153,672.151 326.059,672.276C325.864,672.53 325.625,672.632 325.32,672.641C324.974,672.65 324.627,672.672 324.281,672.689C324.371,672.491 324.41,672.181 324.559,672.113C325.816,671.545 327.088,671.01 328.368,670.494C328.679,670.369 329.035,670.31 329.372,670.301C329.864,670.287 330.25,670.039 330.659,669.832C330.841,669.74 330.868,669.379 330.718,669.223L330.6,669.096C329.466,668.222 328.34,667.336 327.186,666.488C326.977,666.335 326.605,666.204 326.395,666.286C325.151,666.772 324.294,666.047 323.426,665.39C323.062,665.114 322.711,664.777 322.467,664.396C321.535,662.938 320.24,661.764 319.312,660.305C319.161,660.067 318.946,659.848 318.715,659.684C318.379,659.445 318.061,659.224 317.987,658.778C317.971,658.679 317.875,658.564 317.785,658.512C316.837,657.965 316.309,657.084 315.832,656.146C315.621,655.729 315.21,655.548 314.812,655.759C313.805,656.295 313.001,655.772 312.295,655.238C311.23,654.435 310.491,653.325 309.861,652.141C309.146,650.798 308.686,649.403 308.669,647.869C308.666,647.589 308.567,647.31 308.519,647.029C308.452,646.635 308.371,646.242 308.335,645.846C308.303,645.502 308.424,645.113 308.305,644.813C307.773,643.471 308.342,642.233 308.558,640.952C308.672,640.278 308.63,639.576 308.681,638.889C308.71,638.491 308.768,638.093 308.841,637.7C308.877,637.499 309.267,637.387 309.41,637.521C309.62,637.719 309.895,637.89 310.014,638.135C310.426,638.986 311.204,639.54 311.699,640.309C311.906,640.63 312.18,640.78 312.462,640.97C312.66,641.104 312.781,641.302 312.728,641.559C312.69,641.743 312.417,641.754 312.128,641.627C311.584,641.389 311.181,640.975 310.765,640.576C310.598,640.417 310.448,640.239 310.282,640.079C309.976,639.787 309.79,639.814 309.655,640.176C309.314,641.091 309.029,642.028 309.008,643.009C308.983,644.163 308.927,645.33 309.055,646.473C309.193,647.716 309.444,648.954 309.889,650.142C310.461,651.671 311.255,653.051 312.439,654.191C312.691,654.868 313.296,655.094 313.901,655.291C314.109,655.359 314.367,655.345 314.58,655.286C314.695,655.255 314.863,655.016 314.834,654.93C314.706,654.551 314.522,654.191 314.344,653.83C314.086,653.312 313.831,652.798 313.869,652.19C313.879,652.025 313.861,651.806 313.763,651.695C312.859,650.676 313.089,649.296 312.619,648.132C312.347,647.459 312.441,646.663 312.712,645.929C312.971,645.23 313.218,644.527 313.213,643.755C313.212,643.488 313.403,643.221 313.502,642.953C313.641,642.577 313.823,642.209 313.905,641.821C314.208,640.369 315.059,639.203 315.859,638.013C315.968,637.851 316.239,637.755 316.451,637.714C316.73,637.66 317.026,637.696 317.315,637.686C317.758,637.669 318.1,637.835 318.325,638.224C319.187,639.706 320.329,641.026 320.919,642.667C322.059,644.208 322.664,646.039 323.647,647.67C324.144,648.495 324.292,649.497 324.282,650.487L324.297,650.472Z"
          style="fill:rgb(86,88,61);fill-rule:nonzero;"/>
    </g>
  <g transform="matrix(1,0,0,1,-301.517,-604.196)">
        <path
          d="M333.368,640.791L333.366,640.734C333.078,640.734 332.789,640.729 332.501,640.735C332.156,640.741 331.934,640.985 332.02,641.282C332.179,641.827 332.3,642.394 332.539,642.904C332.905,643.682 333.362,644.418 333.772,645.176C334.547,646.605 335.615,647.797 336.769,648.92C336.842,648.991 336.973,649.036 337.075,649.034C337.174,649.032 337.318,648.979 337.359,648.903C337.437,648.758 337.493,648.582 337.493,648.419C337.496,645.822 337.473,643.226 337.492,640.629C337.504,638.807 337.474,636.983 337.801,635.17C338.063,633.716 338.225,632.243 338.206,630.756C338.201,630.362 338.283,629.956 338.392,629.575C338.608,628.831 338.594,628.147 338.288,627.401C337.922,626.505 337.771,625.523 337.445,624.608C336.829,622.876 336.637,621.03 335.973,619.315C335.891,619.103 335.766,618.869 335.791,618.66C335.935,617.444 335.074,616.494 334.927,615.352C334.905,615.175 334.495,614.979 334.237,614.928C334.087,614.899 333.797,615.102 333.72,615.27C333.383,615.998 333.135,616.769 332.793,617.495C332.053,619.07 331.594,620.708 331.532,622.455C331.519,622.792 331.41,623.125 331.351,623.461C331.293,623.798 331.219,624.133 331.194,624.473C331.164,624.874 331.278,625.313 331.158,625.678C330.711,627.034 330.942,628.421 330.889,629.794C330.875,630.136 330.84,630.522 330.972,630.817C331.246,631.434 331.173,632.063 331.184,632.691C331.198,633.498 331.24,634.312 331.175,635.113C331.093,636.12 331.632,637.01 331.627,637.996C331.626,638.145 331.79,638.29 331.867,638.444C332.303,639.306 332.919,639.936 333.923,640.1C334.084,640.126 334.244,640.222 334.379,640.321C334.459,640.38 334.493,640.505 334.533,640.607L334.395,640.696C334.054,640.734 333.71,640.761 333.368,640.791ZM361.055,620.296C361.038,620.698 361.042,621.096 360.756,621.441C360.127,622.199 359.712,623.081 359.341,623.986C358.813,625.271 358.017,626.404 357.321,627.595C357.276,627.672 357.146,627.7 357.056,627.752C357.037,627.647 356.968,627.52 357.005,627.441C357.249,626.919 357.465,626.373 357.788,625.902C358.357,625.07 358.661,624.193 358.657,623.172C358.652,622.197 359.068,621.263 359.029,620.275C359.492,619.472 359.364,618.572 359.335,617.729C359.295,616.557 359.702,615.457 359.724,614.307C360.124,613.675 360.003,612.968 360.015,612.281C360.034,611.125 360.047,609.97 360.056,608.814C360.059,608.526 360.062,608.233 360.009,607.952C359.982,607.81 359.85,607.665 359.728,607.57C359.604,607.473 359.243,607.659 359.151,607.842C359.1,607.945 359.037,608.046 359.011,608.155C358.873,608.727 358.673,609.256 358.169,609.619C358.085,609.681 357.996,609.809 357.998,609.904C358.015,610.779 357.178,611.237 356.991,612.04C356.81,612.813 356.417,613.54 356.082,614.272C355.746,615.007 355.387,615.733 355.001,616.442C354.7,616.996 354.868,617.694 354.346,618.196C353.941,618.587 354.063,619.305 353.585,619.714C353.477,619.806 353.474,620.03 353.442,620.197C353.42,620.31 353.434,620.428 353.432,620.544C353.418,621.295 353.445,622.05 353.377,622.796C353.311,623.532 353.232,624.286 353.01,624.985C352.612,626.232 352.785,627.502 352.704,628.76C352.671,629.279 352.69,629.799 352.665,630.318L352.474,630.505C352.375,630.484 352.237,630.397 352.216,630.313C352.146,630.036 352.091,629.749 352.086,629.466C352.067,628.137 352.042,626.807 352.068,625.478C352.084,624.622 351.963,623.741 352.388,622.926C352.456,622.795 352.427,622.57 352.363,622.423C352.277,622.222 352.149,621.998 351.974,621.885C351.731,621.727 351.555,621.973 351.411,622.134C351.259,622.303 351.075,622.496 351.037,622.702C350.772,624.142 349.97,625.37 349.473,626.718C349.016,627.959 348.55,629.192 348.168,630.459C347.853,631.501 347.523,632.545 347.099,633.544C346.643,634.614 346.703,635.706 346.932,636.761C347.055,637.332 347.141,637.884 347.142,638.455C347.151,640.594 347.145,642.733 347.157,644.871C347.159,645.154 347.196,645.447 347.287,645.712C347.318,645.802 347.583,645.882 347.71,645.849C347.858,645.81 348.024,645.664 348.09,645.523C348.379,644.903 348.958,644.433 349.035,643.701C349.047,643.594 349.111,643.472 349.189,643.396C349.822,642.777 350.057,641.938 350.44,641.179C350.829,640.406 351.148,639.603 351.508,638.821C352.077,637.585 352.865,636.451 353.186,635.098C353.235,634.89 353.453,634.728 353.561,634.528C353.862,633.971 354.223,633.43 354.423,632.837C354.925,631.351 355.751,630.027 356.413,628.621L356.681,628.438C356.894,628.502 356.829,628.69 356.779,628.843C356.691,629.116 356.63,629.406 356.493,629.654C355.883,630.759 355.77,632.106 354.838,633.048C354.444,633.446 354.859,634.097 354.38,634.46C353.84,635.718 353.168,636.915 352.687,638.201C352.589,638.464 352.427,638.703 352.293,638.953C352.129,639.258 351.897,639.543 351.809,639.868C351.486,641.052 350.806,642.069 350.318,643.174C350.063,643.752 349.814,644.332 349.572,644.916C349.24,645.72 348.798,646.471 348.237,647.119C347.697,647.743 347.245,648.381 347.056,649.192C347.014,649.369 346.564,649.387 346.466,649.206C346.144,648.606 345.813,647.976 345.823,647.296C345.833,646.56 345.722,645.805 346.046,645.074C346.201,644.726 346.175,644.284 346.178,643.885C346.19,642.151 346.186,640.416 346.182,638.682C346.18,638.224 346.237,637.757 345.989,637.328C345.829,637.052 345.898,636.787 346.04,636.512C346.236,636.135 346.309,635.662 346.036,635.362C345.624,634.91 345.642,634.501 345.781,633.963C345.893,633.527 345.807,633.043 345.842,632.582C345.871,632.186 345.894,631.775 346.018,631.403C346.121,631.093 346.081,630.858 345.954,630.586C345.882,630.436 345.837,630.25 345.851,630.086C345.889,629.639 346.092,629.162 345.993,628.755C345.865,628.237 345.848,627.733 345.838,627.216C345.829,626.754 345.882,626.285 345.826,625.83C345.737,625.116 346.201,624.463 346.102,623.816C346.008,623.2 345.827,622.601 345.83,621.96C345.844,619.532 345.834,617.105 345.837,614.677C345.838,614.159 345.867,613.661 346.044,613.149C346.207,612.676 346.134,612.125 346.187,611.612C346.223,611.275 346.184,610.82 346.381,610.629C346.837,610.189 346.588,609.792 346.484,609.364C346.429,609.136 346.354,608.931 346.083,608.863C345.845,608.803 345.645,608.942 345.468,609.313C345.224,609.824 344.925,610.318 344.74,610.85C344.546,611.408 344.078,611.84 343.929,612.356C343.609,613.467 342.653,614.293 342.6,615.5C341.885,616.443 341.697,617.601 341.309,618.675C341.077,619.319 340.809,619.96 340.884,620.683C340.907,620.896 340.831,621.15 340.722,621.339C340.332,622.013 340.199,622.735 340.209,623.499C340.221,624.318 339.82,625.05 339.713,625.845C339.683,626.07 339.536,626.296 339.557,626.511C339.709,628.055 339.051,629.444 338.712,630.889C338.592,631.404 338.52,631.9 338.514,632.417C338.503,633.227 338.488,634.035 338.472,634.845C338.467,635.075 338.517,635.332 338.434,635.533C338.048,636.48 338.18,637.467 338.172,638.441C338.157,640.233 338.157,642.025 338.172,643.817C338.18,644.791 338.05,645.778 338.433,646.726C338.515,646.927 338.473,647.183 338.471,647.414C338.459,648.84 338.834,650.135 339.725,651.273C339.801,651.369 339.79,651.675 339.716,651.722C339.487,651.867 339.209,651.936 338.95,652.034C338.318,651.539 337.653,651.081 337.062,650.541C336.295,649.841 335.556,649.104 334.862,648.33C334.407,647.821 334.092,647.189 333.646,646.669C332.957,645.868 332.502,644.946 332.187,643.964C331.89,643.035 331.436,642.176 331.166,641.226C330.824,640.02 330.579,638.774 330.032,637.616C329.746,637.011 329.484,636.345 329.49,635.629C329.492,635.404 329.464,635.148 329.354,634.961C328.968,634.301 328.954,633.516 328.635,632.854C328.304,632.166 328.197,631.428 327.943,630.729C327.728,630.135 327.503,629.542 327.235,628.971C326.574,627.558 326.195,626.05 325.706,624.58C325.753,623.724 325.312,623.031 324.938,622.32C324.894,622.236 324.771,622.168 324.673,622.144C324.455,622.089 324.37,622.256 324.308,622.421C324.267,622.529 324.248,622.644 324.223,622.756C323.999,623.761 323.776,624.766 323.555,625.771C323.493,626.05 323.488,626.354 323.373,626.608C322.88,627.695 322.897,628.841 322.899,629.996C322.903,631.846 322.898,633.695 322.855,635.545C322.822,636.943 323.107,638.276 323.489,639.607C323.899,641.037 324.26,642.483 324.623,643.927C324.82,644.71 325.007,645.485 325.556,646.124C325.737,646.335 325.839,646.627 325.935,646.898C326.817,649.356 328.138,651.583 329.575,653.741C330.115,654.553 330.75,655.298 331.255,656.145C331.707,656.902 332.441,657.397 333.232,657.776C333.54,657.923 333.643,658.152 333.655,658.459L333.656,658.457C332.871,658.473 332.203,658.192 331.655,657.637C331.097,657.07 330.476,656.567 330.078,655.846C329.891,655.506 329.555,655.249 329.289,654.953C329.087,654.728 328.835,654.617 328.536,654.609L328.364,654.599C327.114,654.403 326.138,653.834 325.528,652.666C325.242,652.117 324.8,651.652 324.466,651.124C324.351,650.944 324.35,650.692 324.297,650.472L324.282,650.487C324.766,650.445 325.143,650.51 325.436,651.017C325.894,651.808 326.381,652.603 327.13,653.176C327.267,653.28 327.4,653.398 327.553,653.472C327.646,653.517 327.829,653.539 327.873,653.488C327.976,653.366 328.07,653.195 328.073,653.043C328.075,652.885 327.993,652.707 327.9,652.57C327.253,651.612 326.719,650.601 326.335,649.505C326.206,649.134 325.838,648.827 325.774,648.457C325.643,647.705 324.975,647.226 324.932,646.404C324.894,645.682 324.257,645.073 324.256,644.286C324.256,644.178 324.205,644.059 324.149,643.962C323.564,642.954 323.308,641.843 323.059,640.719C322.676,638.985 322.375,637.241 322.243,635.47C322.222,635.188 322.168,634.901 322.083,634.631C321.814,633.782 321.831,632.941 322.063,632.088C322.153,631.76 322.226,631.419 322.24,631.081C322.273,630.222 322.189,629.361 322.509,628.521C322.626,628.215 322.548,627.834 322.554,627.488C322.57,626.567 322.586,625.644 322.979,624.784C323.201,624.3 323.205,623.781 323.288,623.272C323.415,622.484 323.549,621.679 323.828,620.938C324.074,620.286 324.333,619.662 324.349,618.956C324.351,618.865 324.469,618.703 324.533,618.703C324.69,618.702 324.875,618.74 324.996,618.832C325.124,618.929 325.274,619.107 325.273,619.247C325.265,620.082 325.684,620.787 325.895,621.553C326.26,622.877 326.76,624.156 327.094,625.488C327.289,626.267 327.591,627.019 327.761,627.802C327.885,628.377 328.531,628.705 328.433,629.359C328.957,630.627 329.163,632.015 329.871,633.213C329.932,633.317 330.148,633.357 330.296,633.364C330.353,633.367 330.45,633.205 330.475,633.105C330.516,632.94 330.525,632.763 330.528,632.591C330.535,632.187 330.478,631.774 330.541,631.379C330.702,630.365 330.025,629.362 330.524,628.353C330.527,627.313 330.55,626.273 330.526,625.234C330.493,623.728 330.725,622.265 331.127,620.821L331.18,620.658C331.204,618.701 332.316,617.062 332.768,615.228C332.939,614.536 333.449,614.035 333.985,613.586C334.389,613.248 335.046,613.43 335.289,613.932C336.335,616.095 336.584,617.051 337.164,619.784C337.401,620.903 337.408,622.066 337.819,623.147C338.103,623.892 338.391,624.635 338.695,625.372L338.996,625.37C339.104,625.248 339.189,625.087 339.229,624.927C339.658,623.208 339.895,621.444 340.496,619.763C340.628,619.393 340.561,618.954 340.671,618.571C340.845,617.966 341.085,617.379 341.309,616.788C341.411,616.52 341.554,616.267 341.655,615.998C341.955,615.194 341.905,614.24 342.459,613.564C342.984,612.923 342.987,612.029 343.62,611.476C344.183,609.829 345.385,608.528 346.07,606.945C346.344,606.312 346.619,605.678 346.921,605.057C346.979,604.938 347.178,604.806 347.299,604.818C347.445,604.832 347.632,604.963 347.703,605.097C347.806,605.291 347.865,605.531 347.867,605.753C347.875,606.503 347.887,607.257 347.825,608.004C347.782,608.513 347.666,609.028 347.495,609.509C347.299,610.059 347.178,610.598 347.177,611.187C347.176,612.219 347.101,613.237 346.894,614.268C346.699,615.243 346.532,616.253 346.761,617.305C346.941,618.133 346.786,619.031 346.813,619.897C346.82,620.094 346.926,620.323 347.064,620.462C347.123,620.522 347.377,620.38 347.545,620.34C347.656,620.315 347.772,620.307 347.887,620.291C347.924,620.937 347.938,621.655 347.45,622.081C346.843,622.611 346.814,623.214 346.786,623.911C346.732,625.224 347.019,626.558 346.565,627.848L346.569,628.018C346.941,628.654 346.697,629.381 346.873,630.044L346.98,630.17C347.081,630.153 347.194,630.125 347.271,630.062C347.357,629.992 347.43,629.89 347.47,629.786C348.069,628.237 348.652,626.683 349.259,625.138C349.864,623.594 350.484,622.056 351.115,620.523C351.333,619.991 351.72,619.502 351.814,618.956C351.917,618.36 351.759,617.72 351.737,617.099C351.71,616.351 351.714,615.603 351.688,614.856C351.685,614.756 351.604,614.603 351.526,614.578L351.243,614.719C350.784,615.642 350.3,616.555 349.909,617.506C349.535,618.417 349.09,619.279 348.474,620.042C348.351,620.195 348.075,620.223 347.87,620.308C348.045,619.521 348.339,618.799 348.769,618.098C349.276,617.271 349.566,616.313 350.036,615.459C350.478,614.654 350.801,613.799 351.196,612.976C351.568,612.2 351.87,611.391 352.233,610.611C352.284,610.502 352.531,610.4 352.648,610.433C352.781,610.47 352.946,610.654 352.962,610.79C353.002,611.126 352.991,611.474 352.951,611.811C352.911,612.149 352.754,612.48 352.748,612.815C352.721,614.43 352.719,616.046 352.728,617.661C352.729,617.913 352.613,618.291 352.974,618.36C353.118,618.387 353.368,618.134 353.485,617.954C353.768,617.523 354.048,617.078 354.247,616.606C355.046,614.701 355.923,612.836 356.874,611.003C357.163,610.447 357.394,609.861 357.658,609.291C358.065,608.408 358.559,607.58 359.102,606.769C359.51,606.16 359.712,605.415 360.014,604.735C360.083,604.579 360.167,604.423 360.278,604.296C360.337,604.228 360.467,604.21 360.568,604.196L360.685,604.313C360.944,604.714 360.991,605.158 361.036,605.628C361.105,606.369 360.822,607.079 360.967,607.837C361.094,608.507 361.019,609.217 361.017,609.909C361.016,610.195 361.041,610.513 360.932,610.761C360.685,611.317 360.736,611.888 360.714,612.461C360.689,613.088 360.662,613.696 360.464,614.325C360.264,614.964 360.312,615.697 360.337,616.386C360.387,617.779 360.127,619.119 359.782,620.455C359.748,620.587 359.82,620.835 359.918,620.888C360.03,620.947 360.249,620.886 360.382,620.809C360.625,620.667 360.839,620.476 361.065,620.305L361.055,620.296Z"
          style="fill:rgb(86,88,61);fill-rule:nonzero;"/>
    </g>
  <g transform="matrix(1,0,0,1,-301.517,-604.196)">
        <path
          d="M369.012,635.732C369.012,636.01 369.005,636.184 369.013,636.357C369.024,636.592 369.071,636.858 369.323,636.907C369.527,636.947 369.815,636.921 369.965,636.8C370.27,636.555 370.496,636.213 370.774,635.931C372.624,634.056 374.459,632.171 376.111,630.11C376.539,629.575 376.886,628.905 377.418,628.536C378.102,628.064 378.247,627.307 378.725,626.748C379.061,626.357 379.351,625.925 379.65,625.504C379.882,625.176 380.1,624.837 380.318,624.5C380.52,624.189 380.573,623.858 380.392,623.521C380.092,622.963 380.184,622.445 380.412,621.869C381.042,620.268 381.162,618.516 381.811,616.913C381.874,616.758 381.898,616.57 381.885,616.403C381.835,615.752 382.149,615.157 382.178,614.54C382.197,614.113 382.653,613.7 382.263,613.259C382.131,613.111 382.174,613.147 381.579,614.176C381.07,615.059 380.825,616.102 380.022,616.813C379.94,616.885 379.869,617 379.849,617.107C379.673,618.048 378.863,618.653 378.569,619.529C377.434,621.042 376.286,622.545 375.166,624.07C374.115,625.502 372.842,626.757 371.893,628.28C371.504,628.906 370.931,629.433 370.713,630.16C370.481,630.935 369.967,631.57 369.703,632.314C369.299,633.446 369.133,634.639 369.012,635.732ZM361.065,620.305C361.123,620.084 361.142,619.842 361.245,619.645C361.943,618.324 362.677,617.033 363.562,615.817C364.166,614.987 364.764,614.151 365.4,613.343C365.718,612.941 366.04,612.534 366.414,612.187C366.545,612.065 366.834,612.093 367.051,612.097L367.202,612.352C367.117,612.555 367.006,612.759 366.862,612.925C366.599,613.228 366.268,613.468 366.152,613.888C365.846,614.987 365.101,615.953 365.152,617.163C364.635,618.105 364.999,619.224 364.545,620.181C364.5,620.276 364.538,620.409 364.534,620.525C364.517,621.006 364.68,621.311 364.986,621.335C365.333,621.362 365.441,621.108 365.601,620.852C366.084,620.082 366.589,619.332 367.03,618.532C367.442,617.783 368.031,617.132 368.524,616.426C368.688,616.192 368.817,615.927 368.929,615.662C369.315,614.746 369.98,614.019 370.553,613.228C370.681,613.051 370.999,613.083 371.139,613.284C371.235,613.423 371.37,613.566 371.392,613.721C371.513,614.526 371.505,615.33 371.298,616.124C371.037,617.119 370.714,618.103 370.538,619.112C370.423,619.777 370.503,620.48 370.539,621.163C370.546,621.291 370.738,621.477 370.875,621.511C370.996,621.54 371.2,621.431 371.298,621.321C371.488,621.112 371.724,620.876 371.77,620.62C371.881,620.006 372.369,619.644 372.648,619.148C372.694,619.066 372.968,619.04 373.094,619.092C373.308,619.18 373.461,619.368 373.449,619.633L373.421,619.798C372.738,620.571 372.774,621.612 372.417,622.509C372.077,623.362 371.67,624.226 371.546,625.12C371.432,625.945 371.142,626.65 370.799,627.37C370.751,627.472 370.865,627.738 370.977,627.803C371.084,627.865 371.288,627.773 371.445,627.733L371.565,627.612C371.851,626.697 372.649,626.175 373.211,625.473C373.748,624.801 374.146,624.031 374.784,623.421C375.273,622.951 375.642,622.349 376.028,621.78C376.64,620.878 377.099,619.868 377.943,619.135C377.989,618.519 378.607,618.225 378.769,617.674C378.802,617.564 378.812,617.426 378.885,617.351C380.316,615.864 380.705,613.805 381.765,612.108C382.303,611.244 382.548,610.201 382.935,609.242C383.065,608.922 383.218,608.611 383.372,608.3C383.517,608.007 383.754,607.877 383.897,608.011C384.017,608.125 384.139,608.262 384.196,608.412C384.256,608.568 384.287,608.765 384.248,608.922C383.917,610.257 383.899,611.646 383.545,612.976L383.507,613.141C382.782,613.89 382.974,614.843 382.89,615.746C382.821,616.486 382.685,617.227 382.496,617.945C382.293,618.718 382.022,619.477 381.727,620.221C381.484,620.836 381.471,621.453 381.565,622.085L381.817,622.209C382.161,622.121 382.409,621.917 382.621,621.612C383.145,620.856 383.697,620.116 384.278,619.404C384.635,618.965 385.054,618.573 385.468,618.185C385.674,617.991 385.932,617.853 386.167,617.69C386.509,617.949 386.646,618.327 386.669,618.724C386.758,620.279 386.741,621.83 386.256,623.337C386.186,623.555 386.047,623.777 386.059,623.99C386.131,625.356 385.611,626.584 385.211,627.841C385.16,628.002 385.122,628.167 385.094,628.333L385.174,628.467C385.276,628.494 385.439,628.544 385.483,628.496C385.795,628.159 386.095,627.81 386.377,627.447C387.224,626.361 388.073,625.274 388.895,624.168C389.168,623.801 389.347,623.364 389.6,622.981C389.733,622.778 389.957,622.703 390.206,622.8C390.423,622.884 390.517,623.134 390.387,623.369C389.939,624.173 389.565,625.039 388.997,625.749C388.513,626.354 388.401,626.963 388.423,627.669C388.436,628.131 388.432,628.594 388.415,629.056C388.409,629.224 388.378,629.41 388.294,629.55C388.213,629.685 388.062,629.798 387.916,629.863L387.649,629.683C387.5,629.438 387.386,629.173 387.252,628.919C386.867,628.188 386.552,628.148 386.032,628.828C385.369,629.696 384.674,630.555 384.135,631.498C383.82,632.05 383.427,632.711 383.844,633.437L383.7,633.703C383.614,633.744 383.466,633.721 383.374,633.671C383.225,633.591 383.112,633.429 382.957,633.373C382.824,633.324 382.632,633.332 382.507,633.396C382.361,633.47 382.238,633.617 382.142,633.759C381.564,634.607 380.999,635.464 380.424,636.315C380.04,636.883 379.709,637.491 379.087,637.862C378.895,637.975 378.733,638.166 378.603,638.354C377.244,640.32 375.343,641.772 373.735,643.5C372.577,644.188 371.738,645.231 370.773,646.134C370.316,646.562 369.765,646.887 369.273,647.28C368.826,647.639 368.422,648.052 367.964,648.395C367.052,649.077 366.204,649.846 365.099,650.265C364.645,650.437 364.322,650.929 363.909,651.236C363.493,651.545 363.043,651.805 362.498,651.845C362.121,651.872 361.8,651.775 361.604,651.451C361.536,651.34 361.538,651.054 361.605,651.015C361.899,650.844 362.219,650.701 362.547,650.609C363.896,650.228 365.136,649.648 366.183,648.695C367.477,648.158 368.342,647.032 369.475,646.29C370.202,645.814 370.798,645.235 371.42,644.659C372.012,644.113 372.605,643.57 373.208,643.037C373.551,642.735 373.915,642.455 374.269,642.165C374.445,642.022 374.681,641.911 374.788,641.728C375.552,640.413 376.888,639.602 377.722,638.354C379.649,636.506 380.99,634.215 382.386,631.988C383.199,630.692 383.683,629.188 384.307,627.775C384.446,627.459 384.518,627.111 384.684,626.812C384.917,626.392 385.018,625.959 385.003,625.487C384.974,624.553 385.164,623.66 385.474,622.783C385.586,622.464 385.706,622.107 385.668,621.785C385.598,621.197 386.001,620.513 385.358,620.028C384.706,620.096 384.484,620.713 384.043,621.051C383.307,621.614 382.934,622.525 382.137,623.03C382.045,623.088 381.977,623.199 381.924,623.299C381.103,624.824 380.034,626.177 378.993,627.55C378.785,627.823 378.646,628.148 378.463,628.441C378.281,628.732 378.1,629.028 377.889,629.297C377.429,629.885 377.031,630.564 376.455,631.006C375.844,631.475 375.397,632.063 374.951,632.639C373.569,634.427 371.908,635.942 370.341,637.55C369.745,638.161 369.264,638.898 368.402,639.192C367.623,639.962 366.776,640.649 365.904,641.314C365.111,641.918 364.218,642.31 363.328,642.713C362.952,642.883 362.532,642.852 362.151,642.665C362.061,642.62 361.972,642.503 361.954,642.405L362.129,642.188C362.597,641.973 363.089,641.807 363.541,641.565C364.911,640.829 366.097,639.813 367.413,638.992C367.701,638.813 367.926,638.532 368.19,638.31C368.696,637.881 368.819,637.343 368.581,636.751C368.265,635.962 368.292,635.209 368.544,634.399C368.71,633.863 368.669,633.263 368.723,632.692C368.76,632.292 368.694,631.839 368.861,631.501C369.535,630.139 369.489,628.592 370.026,627.197C370.093,627.027 369.954,626.764 369.881,626.555C369.819,626.379 369.545,626.308 369.467,626.424L369.37,626.563C368.137,628.907 366.853,631.227 365.692,633.607C364.841,635.351 363.921,637.066 363.204,638.876C362.971,639.464 362.649,640.018 362.351,640.578C362.216,640.833 362.046,641.075 361.694,641.033C361.485,641.009 361.463,640.691 361.649,640.303C361.799,639.99 361.96,639.684 362.108,639.37C362.503,638.539 362.929,637.729 363.251,636.858C363.586,635.954 364.147,635.138 364.585,634.272C365.174,633.108 365.728,631.927 366.318,630.764C366.629,630.152 366.977,629.558 367.321,628.963C368.122,627.575 368.764,626.106 369.519,624.695C370.333,624.099 370.19,623.288 369.954,622.505C369.644,621.481 369.659,620.491 369.944,619.46C370.094,618.919 370.052,618.321 370.073,617.748C370.091,617.231 370.085,616.71 370.068,616.192L369.89,615.952C369.795,615.942 369.68,616.025 369.588,616.09C369.495,616.155 369.398,616.234 369.341,616.329C368.197,618.251 366.733,619.969 365.731,621.984C365.529,622.389 365.219,622.741 364.963,623.12C364.448,623.884 364,624.658 363.809,625.597C363.636,626.443 363.426,627.272 363.446,628.141C363.45,628.314 363.465,628.503 363.403,628.656C362.775,630.211 362.695,631.894 362.272,633.497C362.025,634.436 361.839,635.381 361.453,636.285C361.138,637.022 360.967,637.818 360.989,638.639L360.804,638.824C360.704,638.798 360.572,638.715 360.547,638.627C360.483,638.412 360.409,638.169 360.452,637.96C360.648,637.009 360.85,636.057 361.113,635.123C361.35,634.282 361.466,633.443 361.457,632.57C361.449,631.745 361.815,631.004 362.157,630.279C362.361,629.846 362.445,629.415 362.467,628.948C362.496,628.32 362.347,627.814 361.723,627.524C361.482,627.411 361.431,627.169 361.568,626.941C361.953,626.3 362.322,625.646 362.762,625.044C363.018,624.695 363.113,624.347 363.15,623.932C363.21,623.25 363.038,622.535 363.414,621.896C363.428,620.407 364.039,618.966 363.752,617.459C363.739,617.387 363.586,617.333 363.49,617.29L363.334,617.315C363.253,617.393 363.184,617.487 363.121,617.58C362.639,618.296 362.171,619.023 361.67,619.725C361.511,619.947 361.263,620.108 361.055,620.296L361.065,620.305Z"
          style="fill:rgb(86,88,61);fill-rule:nonzero;"/>
    </g>
  <g transform="matrix(1,0,0,1,-301.517,-604.196)">
        <path
          d="M397.142,640.76C397.04,640.812 396.904,640.836 396.84,640.918C396.062,641.908 395.142,642.792 394.514,643.893C394.193,644.455 393.868,644.968 393.277,645.293C392.982,645.455 392.627,645.688 392.517,645.973C392.244,646.674 391.489,646.893 391.149,647.495C390.817,648.081 390.14,648.269 389.726,648.732C388.758,649.818 387.414,650.43 386.412,651.464C386.253,651.627 386.048,651.747 385.855,651.874C384.95,652.47 384.023,653.037 383.138,653.662C382.094,654.4 380.935,654.877 379.775,655.391C378.627,655.9 377.409,656.285 376.363,657.024C375.753,657.454 374.922,657.452 374.353,657.996C374.322,658.026 374.012,657.879 373.975,657.768C373.791,657.204 373.963,656.885 374.49,656.713L374.659,656.676C375.393,656.351 376.247,656.381 376.932,655.903C377.596,655.439 378.484,655.439 379.097,654.861C379.176,654.786 379.3,654.743 379.41,654.724C381.227,654.388 382.685,653.364 384.109,652.276C384.291,652.136 384.473,651.992 384.667,651.869C385.103,651.592 385.589,651.377 385.978,651.047C387.556,649.711 389.338,648.613 390.693,647.02C391.177,646.45 391.741,645.966 392.26,645.436C392.943,644.739 393.64,644.02 394.141,643.195C394.62,642.405 395.393,641.903 395.838,641.065C396.256,640.277 396.634,639.392 397.389,638.807C397.513,638.031 398.169,637.538 398.422,636.835C398.469,636.706 398.434,636.473 398.344,636.391C398.24,636.297 397.997,636.243 397.875,636.3C396.83,636.786 395.693,637.163 394.795,637.849C393.943,638.498 392.975,638.814 392.057,639.257C391.593,639.482 391.142,639.707 390.695,639.966C390.105,640.309 389.562,640.718 388.88,640.938C388.241,641.144 387.697,641.633 387.089,641.957C386.275,642.392 385.379,642.701 384.633,643.227C383.92,643.728 383.096,643.971 382.375,644.447C381.713,644.884 380.933,645.175 380.168,645.409C379.435,645.635 378.771,645.987 378.204,646.445C377.622,646.914 376.847,647.011 376.34,647.631C375.872,648.203 375.224,648.626 374.67,649.131C374.334,649.437 373.955,649.487 373.544,649.38L373.404,649.142C373.494,648.935 373.583,648.693 373.75,648.56C374.377,648.059 375.035,647.598 375.68,647.119C376.233,646.709 376.782,646.292 377.336,645.883C377.475,645.781 377.615,645.651 377.773,645.611C378.959,645.318 379.922,644.543 381.048,644.112C381.851,643.804 382.594,643.34 383.377,642.973C384.041,642.66 384.587,642.131 385.401,642.073C385.838,642.042 386.157,641.577 386.354,641.14C386.806,640.145 387.229,639.136 387.71,638.155C387.987,637.59 388.359,637.071 388.677,636.526C389.168,635.68 389.649,634.828 390.137,633.981C390.452,633.433 390.778,632.892 391.079,632.337L390.987,632.042C390.874,631.906 390.719,631.81 390.543,631.948C390.182,632.232 389.811,632.507 389.472,632.816C389.061,633.191 388.937,633.774 388.411,634.109C387.888,634.442 387.493,634.979 387.045,635.43C386.64,635.838 386.215,636.222 385.939,636.751C385.784,637.048 385.493,637.276 385.257,637.528C384.981,637.823 384.586,638.065 384.44,638.412C384.038,639.367 383.014,639.736 382.51,640.584C382.432,640.715 382.091,640.704 381.87,640.724L381.706,640.502L381.761,640.343C381.814,640.241 381.85,640.107 381.936,640.047C382.956,639.349 383.463,638.189 384.335,637.369C385.921,635.882 387.046,633.97 388.769,632.615C389.985,631.005 391.64,629.842 393.05,628.431C393.211,628.27 393.393,628.109 393.597,628.019C393.736,627.957 393.966,627.963 394.089,628.042C394.206,628.118 394.314,628.341 394.291,628.477C394.166,629.219 393.994,629.998 393.462,630.525C392.989,630.993 392.723,631.553 392.434,632.102C392.169,632.608 391.63,632.902 391.497,633.516C391.432,633.82 391.111,634.074 390.885,634.334C390.281,635.028 389.736,635.745 389.438,636.642C389.317,637.006 388.996,637.3 388.793,637.642C388.45,638.225 388.105,638.81 387.811,639.418C387.722,639.603 387.757,639.88 387.818,640.092C387.855,640.22 388.044,640.382 388.174,640.391C388.451,640.409 388.827,640.44 388.998,640.284C390.092,639.294 391.442,638.754 392.735,638.135C393.514,637.762 393.893,637.189 393.984,636.411C394.045,635.895 394.092,635.39 394.283,634.903C394.349,634.735 394.01,634.454 393.828,634.523C393.617,634.602 393.411,634.701 393.21,634.806C392.755,635.043 392.313,635.31 391.845,635.518C391.737,635.566 391.493,635.465 391.41,635.357L391.528,634.952C392.187,634.908 392.487,634.329 392.915,633.988C393.95,633.167 394.972,632.337 396.041,631.558C396.592,631.157 396.999,630.566 397.492,630.08C397.732,629.844 398.004,629.63 398.294,629.459C398.396,629.4 398.652,629.448 398.732,629.54C398.825,629.646 398.807,629.852 398.822,630.016L398.764,630.174C398.119,630.983 397.532,631.85 396.807,632.578C395.849,633.542 395.409,634.792 394.749,635.919C394.649,636.091 394.709,636.37 394.734,636.595L394.947,636.784C395.229,636.736 395.53,636.694 395.78,636.564C396.486,636.197 397.163,635.776 397.865,635.401C398.524,635.049 399.204,634.73 399.954,634.631C400.083,634.614 400.258,634.772 400.372,634.888L400.404,635.187C399.878,635.617 399.85,636.307 399.54,636.852C399.032,637.744 398.579,638.644 397.85,639.401C397.507,639.758 397.364,640.309 397.13,640.772L397.142,640.76Z"
          style="fill:rgb(86,88,61);fill-rule:nonzero;"/>
    </g>
  <g transform="matrix(1,0,0,1,-301.517,-604.196)">
        <path
          d="M353.262,666.801C353.038,666.594 352.925,666.302 353.036,665.928C353.115,665.663 353.217,665.402 353.301,665.138C353.354,664.385 353.411,663.608 353.486,662.822C353.496,662.473 353.511,662.124 353.515,661.772C353.445,661.406 353.39,661.039 353.407,660.656C353.475,659.157 353.423,657.653 353.437,656.15C353.44,655.809 353.424,655.428 353.563,655.135C353.829,654.576 353.762,654.007 353.776,653.436C353.795,652.685 353.651,651.891 353.851,651.195C354.099,650.333 354.036,649.482 354.111,648.627C354.166,648 354.172,647.391 354.364,646.76C354.626,645.9 354.663,644.967 354.455,644.057C354.368,643.673 354.134,643.527 353.699,643.542C353.309,643.557 353.055,643.761 352.847,644.053C351.901,645.376 351.21,646.826 350.712,648.37C350.203,649.952 349.761,651.557 349.194,653.122C349.098,653.39 348.995,653.663 348.953,653.943C348.732,655.413 348.1,656.806 348.12,658.321C347.733,659.115 348.118,660.067 347.607,660.835C347.58,661.701 347.553,662.568 347.528,663.434C347.511,664.064 347.519,664.675 347.287,665.302C347.118,665.758 347.158,666.341 347.258,666.835C347.418,667.617 347.704,668.373 347.944,669.138C347.977,669.242 348.042,669.343 348.113,669.429L348.277,669.444L348.408,669.372C348.601,668.983 348.635,668.518 348.371,668.223C347.892,667.688 347.862,667.092 347.88,666.449C347.891,666.045 347.882,665.641 347.882,665.236L347.916,665.236C347.916,664.486 347.739,663.676 347.962,662.999C348.227,662.194 348.056,661.373 348.284,660.621C348.526,659.823 348.521,659.03 348.554,658.23C348.576,657.702 348.702,657.227 348.896,656.733C349.187,655.992 349.519,655.204 349.531,654.432C349.55,653.111 350.207,652.008 350.525,650.796C350.829,649.639 351.531,648.605 351.735,647.397C351.762,647.237 351.85,647.056 351.967,646.946C352.449,646.499 352.68,645.919 352.917,645.33C352.963,645.215 353.175,645.125 353.323,645.1C353.483,645.072 353.773,645.457 353.699,645.607C353.35,646.314 353.448,647.07 353.417,647.813C353.413,647.927 353.415,648.057 353.364,648.153C353.018,648.804 353.139,649.508 353.124,650.195C353.101,651.177 353.103,652.159 353.077,653.142C353.068,653.484 353.089,653.862 352.953,654.158C352.696,654.716 352.734,655.284 352.733,655.858C352.729,658.574 352.732,661.291 352.732,664.008C352.731,664.811 352.825,665.628 352.166,666.282C351.993,666.453 352.208,666.862 352.481,666.983C352.744,667.099 353.004,667.112 353.23,667.029L353.262,666.801Z"
          style="fill:rgb(86,88,61);fill-rule:nonzero;"/>
    </g>
  <g transform="matrix(1,0,0,1,-301.517,-604.196)">
        <path
          d="M372.117,653.206C372.112,653.253 372.143,653.507 372.053,653.706C371.653,654.591 371.219,655.461 370.797,656.336C370.376,656.561 370.525,657.11 370.246,657.369C369.675,657.902 369.652,658.718 369.12,659.287C368.661,659.779 368.463,660.51 368.026,661.032C367.439,661.735 367.169,662.631 366.512,663.288C366.237,663.563 366.054,663.956 365.905,664.326C365.55,665.209 364.953,665.898 364.255,666.513C364.186,666.573 364.064,666.573 363.967,666.602C363.937,666.441 363.844,666.257 363.89,666.121C364.11,665.459 364.415,664.793 364.94,664.361C365.548,663.858 365.633,663.072 366.172,662.536C366.651,662.059 366.977,661.42 367.334,660.83C367.901,659.897 368.439,658.945 368.985,657.999C369.643,656.861 370.183,655.663 370.673,654.446C370.774,654.195 370.765,653.879 370.732,653.602C370.718,653.479 370.537,653.31 370.404,653.279C369.997,653.186 369.61,653.245 369.287,653.564C367.679,655.148 366.051,656.978 364.984,658.892C364.767,659.281 364.393,659.58 364.12,659.944C363.254,661.092 362.322,662.201 361.57,663.421C360.915,664.484 360.172,665.57 360.32,666.944C360.337,667.102 360.314,667.299 360.079,667.283C359.972,667.277 359.87,667.198 359.767,667.15C359.469,667.01 359.333,666.753 359.381,666.449C359.434,666.114 359.515,665.772 359.655,665.466C360.256,664.155 360.934,662.886 361.779,661.711C362.277,661.019 362.614,660.197 363.4,659.739C363.496,659.684 363.6,659.587 363.632,659.487C364.027,658.296 365.015,657.516 365.713,656.541C366.639,655.247 367.641,653.999 368.835,652.909C369.427,652.368 370.105,652.136 370.803,651.911C371.574,651.664 372.131,652.174 372.117,653.206Z"
          style="fill:rgb(86,88,61);fill-rule:nonzero;"/>
    </g>
  <g transform="matrix(1,0,0,1,-301.517,-604.196)">
        <path
          d="M315.964,659.151C315.702,659.055 315.406,659.007 315.182,658.855C314.137,658.148 313.148,657.364 312.039,656.74C311.444,656.406 310.738,656.301 310.22,655.792C310.058,655.633 309.675,655.675 309.392,655.671C309.019,655.664 308.757,655.837 308.578,656.194C308.244,656.855 308.215,657.566 308.428,658.214C308.696,659.029 308.996,659.82 309.126,660.683C309.21,661.237 309.516,661.756 309.717,662.293C310.18,663.528 311.032,665.168 311.826,666.211C312.137,666.619 312.528,666.973 312.913,667.318C313.382,667.737 313.891,668.114 314.37,668.525C315.331,669.348 316.371,670.074 317.496,670.627C318.862,671.298 320.336,671.505 321.853,671.151C322.065,671.102 322.217,671.342 322.17,671.592C322.098,671.978 321.862,672.26 321.498,672.277C320.755,672.312 319.965,672.408 319.274,672.207C318.585,672.006 317.74,672.089 317.225,671.41C315.664,670.651 314.348,669.549 313.032,668.439C311.78,667.382 310.791,666.143 310.054,664.676C308.867,662.317 308.046,659.833 307.409,657.279C307.259,656.678 307.368,656.139 307.66,655.617C308.251,654.567 309.377,654.334 310.43,655.044C310.524,655.108 310.599,655.253 310.69,655.26C311.626,655.33 312.172,656.043 312.845,656.545C313.029,656.683 313.191,656.95 313.378,656.965C314.016,657.013 314.26,657.664 314.829,657.817C315.485,657.993 315.94,658.405 315.963,659.153L315.964,659.151Z"
          style="fill:rgb(86,88,61);fill-rule:nonzero;"/>
    </g>
  <g transform="matrix(1,0,0,1,-301.517,-604.196)">
        <path
          d="M350.31,701.848C350.31,702.887 350.298,703.927 350.314,704.966C350.326,705.766 350.189,706.58 350.591,707.345C350.69,707.531 350.654,707.798 350.654,708.028C350.658,709.875 350.658,711.724 350.654,713.571C350.654,713.802 350.692,714.059 350.605,714.257C350.195,715.193 350.284,716.176 350.267,717.151C350.256,717.839 350.262,718.51 350.009,719.189C349.837,719.651 349.954,720.215 349.914,720.732C349.892,721.013 349.828,721.294 349.757,721.569C349.708,721.758 349.284,721.954 349.19,721.84C349.091,721.719 348.996,721.559 348.983,721.409C348.964,721.186 348.999,720.951 349.049,720.73C349.087,720.565 349.251,720.409 349.243,720.256C349.184,719.096 349.685,718.005 349.623,716.84C349.578,715.986 349.53,715.121 349.902,714.289C350.033,713.996 349.955,713.606 349.955,713.26C349.958,710.604 349.957,707.948 349.955,705.292C349.954,704.776 349.969,704.27 349.739,703.769C349.603,703.473 349.622,703.095 349.615,702.753C349.599,702.003 349.616,701.252 349.608,700.501C349.602,699.987 349.627,699.479 349.434,698.968C349.297,698.606 349.326,698.176 349.309,697.776C349.284,697.203 349.357,696.627 349.055,696.086C348.952,695.901 348.946,695.635 348.966,695.412C349.094,693.975 348.533,692.694 348.029,691.416C347.762,690.742 347.641,689.967 347.009,689.462C346.903,689.376 346.898,689.147 346.874,688.98C346.841,688.744 346.884,688.518 347.096,688.372C347.267,688.254 347.709,688.409 347.823,688.653C348.6,690.311 349.528,691.918 349.619,693.816C350.027,694.78 349.754,695.869 350.183,696.841C350.314,697.137 350.262,697.522 350.264,697.865C350.271,699.193 350.267,700.521 350.267,701.848L350.31,701.848Z"
          style="fill:rgb(86,88,61);fill-rule:nonzero;"/>
    </g>
  <g transform="matrix(1,0,0,1,-301.517,-604.196)">
        <path
          d="M318.743,634.517C317.515,634.138 317.086,633.637 317.025,632.499C317.007,632.154 316.968,631.802 317.008,631.462C317.177,630.068 316.692,628.734 316.648,627.36C316.642,627.154 316.465,626.947 316.346,626.755C316.23,626.57 315.916,626.539 315.736,626.668C314.902,627.26 314.456,628.158 314.056,629.031C313.705,629.795 313.403,630.629 313.493,631.524C313.516,631.751 313.561,632.015 313.476,632.21C313.006,633.288 313.346,634.341 313.476,635.416C313.55,636.019 313.9,636.48 314.044,637.031L313.998,637.167C313.895,637.18 313.749,637.215 313.691,637.162C313.025,636.56 312.645,635.76 312.559,634.909C312.369,633.014 312.462,631.121 313.166,629.316C313.685,627.985 314.312,626.703 315.129,625.527C315.288,625.298 315.541,625.129 315.767,624.953C315.996,624.776 316.393,624.815 316.551,625.026C317.215,625.913 317.684,626.867 317.665,628.02C317.648,629.057 317.741,630.098 317.686,631.132C317.632,632.156 317.9,633.061 318.411,633.921C318.527,634.117 318.626,634.324 318.734,634.527L318.743,634.517Z"
          style="fill:rgb(86,88,61);fill-rule:nonzero;"/>
    </g>
  <g transform="matrix(1,0,0,1,-301.517,-604.196)">
        <path
          d="M336.397,661.926C336.362,661.817 336.313,661.709 336.295,661.598C336.232,661.205 336.436,660.965 336.862,660.952C337.029,660.948 337.202,660.986 337.365,661.03C337.598,661.096 337.746,661.398 337.593,661.56C336.982,662.209 337.101,662.873 337.406,663.63C337.81,664.633 338.375,665.58 338.55,666.674C338.574,666.826 338.691,666.981 338.801,667.102C339.572,667.944 340.336,668.793 341.133,669.61C341.897,670.393 342.763,670.902 343.901,670.362L344.068,670.366L344.297,670.56C344.325,670.654 344.297,670.796 344.238,670.879C343.917,671.332 343.4,671.597 342.917,671.58C342.375,671.562 341.84,671.261 341.308,671.068C341.207,671.031 341.129,670.925 341.048,670.844C339.11,668.904 337.201,666.6 336.744,663.767C336.645,663.154 336.457,662.555 336.309,661.949L336.397,661.926Z"
          style="fill:rgb(86,88,61);fill-rule:nonzero;"/>
    </g>
  <g transform="matrix(1,0,0,1,-301.517,-604.196)">
        <path
          d="M346.088,667.295L346.054,667.464L345.837,667.686C345.743,667.711 345.606,667.677 345.52,667.621C345.259,667.452 345.161,667.191 345.142,666.886C345.057,665.575 344.257,664.739 343.305,663.943C342.726,663.459 341.91,663.39 341.453,662.751C340.121,662.383 339.289,661.318 338.261,660.516C337.722,660.095 337.421,659.603 337.246,658.994C337.211,658.869 337.314,658.58 337.372,658.575C337.58,658.556 337.951,658.571 337.986,658.671C338.268,659.467 338.753,660.105 339.476,660.493C340.133,660.846 340.527,661.606 341.353,661.675C342.057,662.362 342.964,662.738 343.804,663.197C345.123,663.919 345.873,664.945 345.975,666.446C345.991,666.674 346.058,666.898 346.095,667.123L346.088,667.295Z"
          style="fill:rgb(86,88,61);fill-rule:nonzero;"/>
    </g>
  <g transform="matrix(1,0,0,1,-301.517,-604.196)">
        <path
          d="M315.963,659.153C316.46,659.124 316.795,659.403 317.08,659.759C317.136,659.828 317.136,659.943 317.162,660.037C317.06,660.054 316.934,660.116 316.86,660.079C316.456,659.877 316.137,659.582 315.964,659.151L315.963,659.153Z"
          style="fill:rgb(86,88,61);fill-rule:nonzero;"/>
    </g>
  <g transform="matrix(1,0,0,1,-301.517,-604.196)">
        <path
          d="M333.655,658.459L333.809,658.405C333.948,658.386 334.088,658.375 334.228,658.362C334.205,658.458 334.214,658.606 334.155,658.642C333.934,658.775 333.751,658.71 333.656,658.457L333.655,658.459Z"
          style="fill:rgb(86,88,61);fill-rule:nonzero;"/>
    </g>
  <g transform="matrix(1,0,0,1,-301.517,-604.196)">
        <path d="M318.734,634.527L318.917,634.717L318.802,634.672L318.743,634.517L318.734,634.527Z"
              style="fill:rgb(86,88,61);fill-rule:nonzero;"/>
    </g>
</svg>
