<?xml version="1.0" encoding="UTF-8" standalone="no"?>
<!DOCTYPE svg PUBLIC "-//W3C//DTD SVG 1.1//EN" "http://www.w3.org/Graphics/SVG/1.1/DTD/svg11.dtd">
<svg width="100%" height="100%" viewBox="0 0 51 61" version="1.1" xmlns="http://www.w3.org/2000/svg" xmlns:xlink="http://www.w3.org/1999/xlink" xml:space="preserve" xmlns:serif="http://www.serif.com/" style="fill-rule:evenodd;clip-rule:evenodd;stroke-linejoin:round;stroke-miterlimit:2;">
    <g transform="matrix(1,0,0,1,-356.453,-452.841)">
        <path d="M373.295,461.795C372.87,459.818 372.628,457.512 373.969,455.999C374.639,455.243 375.619,454.816 376.613,454.635C378.416,454.306 380.347,454.747 381.829,455.825C384.87,458.038 385.536,462.221 385.954,465.959C386.275,468.827 386.596,471.696 386.916,474.565C387.028,475.565 387.138,476.593 386.873,477.563C386.607,478.533 385.875,479.445 384.884,479.614C384.036,479.76 383.205,479.353 382.388,479.081C380.196,478.355 380.539,479.276 379.03,477.293C377.926,475.844 377.224,473.73 376.525,472.062C375.136,468.748 374.051,465.307 373.295,461.795Z" style="fill:rgb(223,218,207);fill-rule:nonzero;"/>
    </g>
    <g transform="matrix(1,0,0,1,-356.453,-452.841)">
        <path d="M395.998,462.345C396.524,461.425 397.267,460.401 398.444,460.318C399.362,460.253 400.174,460.804 400.837,461.361C403.265,463.397 405.121,465.946 406.2,468.725C406.55,469.629 406.819,470.618 406.479,471.524C406.12,472.484 405.151,473.161 404.201,473.74C401.836,475.182 392.92,480.511 390.635,477.189C388.595,474.225 394.428,465.091 395.998,462.345Z" style="fill:rgb(223,218,207);fill-rule:nonzero;"/>
    </g>
    <g transform="matrix(1,0,0,1,-356.453,-452.841)">
        <path d="M362.721,476.846C361.206,474.924 359.691,473.002 358.177,471.08C357.363,470.047 356.504,468.717 357.037,467.516C357.247,467.041 357.647,466.681 358.036,466.337C359.18,465.321 360.431,464.258 361.952,464.094C364.421,463.829 366.422,465.971 367.925,467.948C369.841,470.466 377.426,479.907 373.752,482.905C370.248,485.765 364.548,479.165 362.721,476.846Z" style="fill:rgb(223,218,207);fill-rule:nonzero;"/>
    </g>
    <g transform="matrix(1,0,0,1,-356.453,-452.841)">
        <path d="M364.765,489.245C363.517,489.869 362.335,490.759 361.733,492.016C360.788,493.986 361.46,496.311 362.143,498.385C362.454,499.33 362.766,500.275 363.077,501.219C363.273,501.816 363.484,502.436 363.927,502.88C364.644,503.601 365.826,503.677 366.779,503.322C367.732,502.967 368.506,502.259 369.232,501.548C371.489,499.34 378.035,493.74 376.174,490.062C374.425,486.606 367.346,487.955 364.765,489.245Z" style="fill:rgb(223,218,207);fill-rule:nonzero;"/>
    </g>
    <g transform="matrix(1,0,0,1,-356.453,-452.841)">
        <path d="M381.059,511.791C381.217,511.966 381.434,512.075 381.653,512.161C383.576,512.919 385.741,512.155 387.607,511.267C389.272,510.475 391.101,509.252 391.164,507.409C391.197,506.474 390.746,505.598 390.306,504.771C388.293,500.984 386.406,497.09 384.251,493.382C383.08,491.365 382.581,490.156 381.108,492.392C379.832,494.328 379.95,498.143 379.931,500.363C379.909,502.897 379.349,509.885 381.059,511.791Z" style="fill:rgb(223,218,207);fill-rule:nonzero;"/>
    </g>
    <g transform="matrix(1,0,0,1,-356.453,-452.841)">
        <path d="M395.329,501.065C395.838,501.606 396.413,502.148 397.141,502.3C398.044,502.49 398.967,502.029 399.663,501.423C400.959,500.297 401.753,498.612 401.796,496.896C401.82,495.976 401.586,494.969 400.855,494.408C400.488,494.126 400.033,493.987 399.589,493.854C397.715,493.289 392.062,490.67 390.95,493.487C390.139,495.542 394.058,499.711 395.329,501.065Z" style="fill:rgb(223,218,207);fill-rule:nonzero;"/>
    </g>
    <g transform="matrix(1,0,0,1,-356.453,-452.841)">
        <path d="M393.438,482.813L393.438,483.063" style="fill:none;fill-rule:nonzero;"/>
    </g>
    <g transform="matrix(1,0,0,1,-356.453,-452.841)">
        <path d="M405.218,489.466C405.363,489.296 405.394,489.061 405.415,488.84C405.696,485.936 405.289,482.968 404.24,480.246C402.594,475.982 393.836,481.565 393.773,485.198C393.702,489.308 402.735,492.376 405.218,489.466Z" style="fill:rgb(223,218,207);fill-rule:nonzero;"/>
    </g>
    <g transform="matrix(1,0,0,1,-356.453,-452.841)">
        <path d="M382.41,491.138C384.825,491.001 387.236,489.59 388.156,487.353C389.077,485.115 388.148,482.161 385.935,481.184C377.473,477.448 373.199,491.658 382.41,491.138Z" style="fill:rgb(187,206,220);fill-rule:nonzero;"/>
    </g>
    <g transform="matrix(1,0,0,1,-356.453,-452.841)">
        <path d="M372.317,456.79C372.332,457.334 372.232,457.981 372.597,458.557C372.32,459.068 372.656,459.553 372.658,460.052C372.66,460.818 372.906,461.525 373.221,462.201C373.587,462.987 373.862,463.795 374.041,464.642C374.137,465.091 374.22,465.565 374.433,465.961C375.092,467.189 375.478,468.507 375.842,469.837C375.902,470.058 375.979,470.295 376.117,470.469C376.77,471.295 377.037,472.308 377.475,473.236C377.914,474.167 378.213,475.163 378.619,476.112C378.913,476.8 379.261,477.47 379.627,478.123C379.792,478.417 380.047,478.669 380.289,478.911C380.557,479.181 380.928,479.244 381.225,478.966C381.74,478.485 382.33,478.4 382.981,478.424C383.674,478.448 384.367,478.45 385.059,478.469C385.846,478.49 386.492,478.856 387.083,479.332C387.13,479.37 387.084,479.539 387.059,479.642L386.928,479.722C386.201,479.576 385.467,479.453 384.753,479.257C384.398,479.159 384.1,479.155 383.753,479.273C383.434,479.38 383.078,479.418 382.738,479.419C382.198,479.419 381.755,479.534 381.318,479.91C380.99,480.193 380.492,480.29 380.056,480.42C379.958,480.449 379.736,480.298 379.678,480.178C379.133,479.045 378.611,477.901 378.081,476.759C378.009,476.603 377.95,476.433 377.848,476.297C377.426,475.728 377.672,474.927 377.131,474.383C376.584,473.833 376.533,473.024 376.222,472.347C375.934,471.722 375.69,471.076 375.417,470.444C375.077,469.652 374.756,468.849 374.374,468.078C373.682,466.681 373.522,465.105 372.828,463.701C372.532,463.106 372.53,462.367 372.376,461.698C372.132,460.634 371.891,459.574 371.956,458.469C371.97,458.245 371.954,457.989 371.859,457.794C371.426,456.908 371.628,455.972 371.642,455.064C371.657,454.193 372.283,453.57 373.198,453.516C373.954,453.47 374.665,453.28 375.391,453.111C375.945,452.982 376.518,452.816 377.075,452.844C377.634,452.871 378.21,453.013 378.756,453.148C380.935,453.683 382.825,454.74 384.221,456.552C384.58,457.019 384.823,457.549 384.772,458.154C384.668,459.398 385.172,460.622 384.878,461.868C385.096,462.242 385.076,462.59 384.911,463.005C384.719,463.487 384.788,464.003 384.957,464.522C385.313,465.616 385.58,466.741 385.454,467.904C385.338,468.964 385.822,469.927 385.873,470.962C385.914,471.796 386.332,472.616 385.919,473.46C386.412,474.537 385.87,475.763 386.398,476.842C386.451,476.95 386.376,477.206 386.276,477.281C386.161,477.366 385.943,477.368 385.787,477.332C385.489,477.262 385.27,477.041 385.202,476.753C385.136,476.477 385.148,476.179 385.148,475.891C385.144,474.448 385.105,473.003 385.161,471.561C385.206,470.392 384.866,469.294 384.698,468.164C384.647,467.826 384.52,467.496 384.504,467.158C384.454,466.128 384.545,465.089 384.148,464.091C384.048,463.839 384.108,463.52 384.107,463.232C384.103,462.25 384.073,461.266 384.115,460.286C384.153,459.399 383.83,458.59 383.633,457.759C383.533,457.336 383.236,456.915 382.924,456.593C381.656,455.283 380.193,454.312 378.309,454.139C378.028,454.113 377.742,454.044 377.478,453.941C377.021,453.762 376.575,453.733 376.147,453.978C375.475,454.362 374.748,454.455 373.989,454.49C372.747,454.549 372.347,454.981 372.318,456.185C372.313,456.359 372.317,456.532 372.317,456.79Z" style="fill:rgb(86,88,61);fill-rule:nonzero;"/>
    </g>
    <g transform="matrix(1,0,0,1,-356.453,-452.841)">
        <path d="M361.924,463.508C362.847,463.366 363.688,463.758 364.439,464.493C364.969,465.011 365.641,465.387 366.155,465.918C367.066,466.857 367.947,467.826 368.8,468.822C369.166,469.249 369.192,469.762 369.458,470.206C370.042,471.178 370.594,472.187 370.878,473.301C371.308,474.991 372.085,476.512 373.087,477.924C373.475,478.47 373.791,479.112 374.555,479.27C374.701,479.3 374.781,479.787 374.659,479.888C374.536,479.99 374.369,480.058 374.21,480.095C374.108,480.118 373.969,480.089 373.877,480.032C373.15,479.58 372.452,479.135 372.052,478.29C371.661,477.465 371.271,476.642 370.89,475.812C370.149,474.201 369.774,472.449 368.912,470.893C368.931,470.364 368.404,470.142 368.25,469.739C368.092,469.326 367.84,469.079 367.505,468.84C367.329,468.715 367.236,468.476 367.098,468.294C366.045,466.908 364.729,465.799 363.322,464.804C362.915,464.517 362.377,464.408 361.888,464.254C361.738,464.206 361.54,464.246 361.385,464.301C361.115,464.397 360.824,464.492 360.605,464.666C359.844,465.271 359.11,465.911 358.364,466.535C357.583,467.19 357.538,468.055 357.845,468.899C358.159,469.76 358.595,470.576 358.799,471.482C358.835,471.638 358.953,471.8 359.078,471.906C359.914,472.613 360.628,473.427 361.248,474.327C361.311,474.42 361.394,474.51 361.488,474.569C362.934,475.463 363.934,476.804 365.016,478.064L365.108,478.206C366.198,478.601 366.613,479.754 367.52,480.346C368.387,480.91 369.257,481.473 370.156,481.981C370.855,482.376 371.602,482.654 372.44,482.638C372.981,482.627 373.291,482.447 373.417,481.898C373.478,481.626 373.912,481.471 374.119,481.641C374.835,482.229 375.675,482.306 376.545,482.338C376.685,482.343 376.839,482.508 376.947,482.633L376.957,482.932C376.453,483.27 376.006,483.799 375.275,483.403C375.097,483.307 374.804,483.296 374.614,483.373C373.657,483.759 372.716,483.765 371.766,483.373C371.661,483.33 371.54,483.294 371.431,483.302C370.758,483.349 370.236,483.072 369.691,482.69C369.133,482.297 368.486,482.03 367.931,481.608C367.569,481.332 367.042,481.238 366.746,480.918C365.539,479.612 364.081,478.556 363.003,477.125C362.8,476.856 362.583,476.572 362.312,476.383C360.973,475.452 360.02,474.141 358.911,472.985C358.909,472.399 358.318,472.177 358.115,471.698C357.872,471.123 357.464,470.617 357.219,470.042C356.927,469.357 356.734,468.629 356.494,467.922C356.413,467.685 356.455,467.478 356.593,467.274C357.337,466.172 358.135,465.124 359.325,464.45C359.521,464.339 359.695,464.171 359.85,464.002C360.237,463.577 360.727,463.479 361.268,463.507C361.441,463.516 361.615,463.508 361.924,463.508Z" style="fill:rgb(86,88,61);fill-rule:nonzero;"/>
    </g>
    <g transform="matrix(1,0,0,1,-356.453,-452.841)">
        <path d="M390.311,477.48C390.317,477.58 390.33,477.984 390.375,478.384L390.578,478.594C391.17,478.415 391.799,478.471 392.357,478.03C393.058,477.477 393.666,476.717 394.656,476.603C394.757,476.591 394.862,476.495 394.939,476.413C395.674,475.626 396.648,475.276 397.623,474.92C397.947,474.802 398.311,474.704 398.555,474.484C399.008,474.075 399.57,473.955 400.102,473.767C401.314,473.337 402.313,472.607 403.255,471.753C403.884,471.182 404.393,470.496 405.13,470.02C405.746,469.622 405.825,469.018 405.451,468.343C404.838,467.239 404.172,466.164 403.529,465.077C402.915,464.038 402.088,463.134 401.496,462.098C401.061,461.337 400.488,460.7 400.02,459.979C399.806,459.649 399.375,459.574 399.121,459.806C397.842,460.969 396.546,462.134 395.553,463.55C394.839,464.569 393.916,465.472 393.548,466.716C392.704,467.624 392.722,468.987 391.871,469.901C391.741,470.04 391.752,470.338 391.751,470.563C391.748,470.979 391.654,471.358 391.45,471.72C391.337,471.92 391.148,472.174 391.196,472.349C391.449,473.274 390.907,474.008 390.649,474.799C390.394,475.581 390.323,476.37 390.311,477.48ZM389.268,477.958C389.395,477.375 389.505,476.817 389.643,476.264C389.74,475.876 389.952,475.501 389.978,475.112C390.045,474.129 390.051,473.145 390.641,472.29C390.682,470.622 391.628,469.246 392.138,467.73C392.616,466.31 393.407,465.03 394.371,463.867C394.846,463.294 395.266,462.673 395.76,462.117C396.257,461.559 396.748,461.008 397.193,460.399C397.688,459.72 398.271,459.045 399.215,458.881C399.49,458.833 399.738,458.639 400.026,458.817C400.365,459.026 400.773,459.127 400.991,459.515C401.443,460.318 401.903,461.116 402.377,461.905C402.733,462.498 403.009,463.202 403.515,463.625C404.126,464.136 404.147,464.935 404.731,465.461C405.265,465.942 405.567,466.688 405.945,467.332C406.178,467.729 406.397,468.141 406.558,468.571C406.715,468.993 406.956,469.489 406.856,469.873C406.755,470.262 406.33,470.625 405.963,470.876C404.774,471.691 403.854,472.85 402.618,473.571C401.696,474.11 400.898,474.959 399.722,474.994C398.65,475.535 397.55,476.029 396.517,476.636C395.877,477.012 395.139,477.175 394.558,477.683C393.999,478.172 393.348,478.555 392.746,478.998C391.993,479.553 391.095,479.776 390.242,480.098C390.024,480.18 389.774,480.073 389.705,479.802C389.55,479.194 389.414,478.58 389.268,477.958Z" style="fill:rgb(86,88,61);fill-rule:nonzero;"/>
    </g>
    <g transform="matrix(1,0,0,1,-356.453,-452.841)">
        <path d="M379.985,506.334C379.985,505.236 379.988,504.138 379.984,503.039C379.981,502.408 380.021,501.783 379.741,501.171C379.606,500.876 379.652,500.493 379.642,500.149C379.619,499.34 379.63,498.53 379.589,497.723C379.566,497.269 379.437,496.82 379.407,496.366C379.36,495.681 379.35,494.991 379.344,494.303C379.343,494.203 379.429,494.089 379.503,494.006C379.577,493.925 379.686,493.825 379.779,493.826C379.873,493.826 379.999,493.92 380.053,494.008C380.139,494.15 380.221,494.319 380.229,494.48C380.26,495.113 380.249,495.75 380.277,496.385C380.32,497.357 380.319,498.337 380.457,499.296C380.58,500.155 380.577,501.01 380.603,501.868C380.652,503.474 380.449,505.093 380.836,506.682C380.377,507.485 380.912,508.241 380.942,509.023C380.973,509.83 380.953,510.641 381.001,511.448C381.05,512.271 381.664,512.797 382.516,512.757C382.852,512.74 383.189,512.641 383.517,512.55C384.512,512.274 385.509,512.006 386.492,511.693C387.147,511.483 387.794,511.233 388.417,510.943C389.048,510.65 389.664,510.361 390.372,510.289C390.734,510.252 391.011,509.92 391.009,509.57C391.006,508.941 390.992,508.307 390.915,507.683C390.718,506.065 390.078,504.59 389.371,503.141C388.664,501.692 387.92,500.269 386.892,499.004C385.955,497.851 385.069,496.657 383.978,495.637C383.857,494.857 383.099,494.623 382.671,494.107C382.269,493.62 381.884,493.116 381.535,492.591C381.173,492.046 381.48,491.341 382.174,491.071L382.456,491.219L382.54,491.521C382.372,491.884 382.455,492.164 382.707,492.465C383.74,493.694 384.755,494.945 385.717,496.224C386.751,497.598 388.01,498.79 388.868,500.311C389.918,502.17 390.922,504.039 391.517,506.102C391.612,506.43 391.657,506.774 391.706,507.113C391.748,507.399 391.712,507.704 391.8,507.972C391.943,508.406 392.135,508.783 391.969,509.295C391.859,509.634 392.054,510.064 392.069,510.454C392.078,510.687 391.976,510.908 391.71,510.977C391.322,511.077 390.936,511.218 390.541,511.255C389.773,511.325 389.129,511.732 388.421,511.947C387.744,512.154 387.14,512.439 386.576,512.847C386.441,512.945 386.272,513.03 386.111,513.048C384.513,513.225 382.929,513.574 381.305,513.421C380.996,513.392 380.774,513.306 380.651,512.981C380.221,511.843 379.902,510.697 379.973,509.454C380.032,508.417 379.985,507.374 379.985,506.334Z" style="fill:rgb(86,88,61);fill-rule:nonzero;"/>
    </g>
    <g transform="matrix(1,0,0,1,-356.453,-452.841)">
        <path d="M368.742,487.444C369.492,487.444 370.243,487.449 370.994,487.442C371.624,487.436 372.237,487.424 372.866,487.228C373.739,486.955 374.578,487.182 375.259,487.831C375.329,487.899 375.365,488.042 375.352,488.143L375.139,488.302L374.976,488.257C373.71,488.057 372.549,488.031 371.223,488.357C370.709,488.483 370.363,488.033 369.892,488.182C369.513,488.302 369.125,488.404 368.733,488.468C368.578,488.492 368.388,488.419 368.24,488.341C367.854,488.14 367.498,488.15 367.083,488.302C366.717,488.436 366.291,488.506 365.906,488.466C365.072,488.38 364.321,488.716 363.53,488.831C363.367,488.856 363.143,488.912 363.071,489.029C362.736,489.572 362.188,489.489 361.688,489.562C361.436,489.598 361.242,489.737 361.225,489.991C361.102,491.878 360.662,493.746 360.867,495.654C360.983,496.735 361.071,497.82 361.249,498.892C361.389,499.735 361.663,500.554 361.849,501.391C362.004,502.091 362.367,502.659 362.847,503.176C363.275,503.638 363.73,503.899 364.372,503.582C364.571,503.486 364.827,503.428 365.042,503.457C365.858,503.569 366.472,503.15 367.102,502.748C368.621,501.781 369.988,500.654 370.907,499.072C371.277,498.434 371.623,497.779 371.945,497.115C372.421,496.132 372.909,495.152 373.31,494.137C373.756,493.012 374.61,492.245 375.475,491.488C375.762,491.237 376.183,491.131 376.553,490.985C376.766,490.901 377.068,491.053 377.103,491.264C377.129,491.418 377.128,491.655 377.034,491.74C376.484,492.243 375.905,492.715 375.329,493.191C375.197,493.3 374.992,493.35 374.908,493.483C374.267,494.5 373.6,495.507 373.039,496.568C372.667,497.272 372.483,498.073 372.161,498.808C371.977,499.223 371.699,499.6 371.438,499.976C370.948,500.682 370.446,501.379 369.934,502.069C369.799,502.251 369.633,502.438 369.439,502.544C368.039,503.314 366.749,504.336 365.072,504.479C364.265,505.002 363.538,504.356 362.771,504.31C362.675,504.304 362.57,504.195 362.497,504.11C361.906,503.414 361.245,502.762 361.204,501.754C361.192,501.476 361.083,501.199 361.007,500.925C360.56,499.324 360.132,497.722 360.161,496.035C360.169,495.588 359.999,495.132 360.039,494.692C360.104,493.967 359.724,493.291 360.02,492.509C360.274,491.842 360.191,491.035 360.201,490.289C360.207,489.796 360.463,489.415 360.641,488.996C360.764,488.707 361.007,488.544 361.32,488.548C361.974,488.554 362.539,488.29 363.138,488.071C364.101,487.721 365.085,487.4 366.144,487.437C367.009,487.468 367.876,487.444 368.742,487.444Z" style="fill:rgb(86,88,61);fill-rule:nonzero;"/>
    </g>
    <g transform="matrix(1,0,0,1,-356.453,-452.841)">
        <path d="M405.615,484.488L405.634,484.488C405.634,483.969 405.69,483.442 405.622,482.931C405.459,481.691 404.411,480.11 402.391,480.371C402.227,480.393 402.031,480.428 401.898,480.361C401.292,480.055 400.651,480.179 400.023,480.18C399.808,480.18 399.554,480.252 399.381,480.378C398.179,481.262 396.849,481.95 395.702,482.928C394.75,483.738 393.815,484.603 392.624,485.101C392.374,485.205 392.163,485.446 391.988,485.668C391.917,485.759 391.928,486.028 392.009,486.106C392.249,486.343 392.531,486.544 392.818,486.725C393.105,486.904 393.458,486.995 393.71,487.209C394.118,487.556 394.524,487.831 395.083,487.857C395.302,487.867 395.547,487.953 395.726,488.081C396.583,488.69 397.571,488.978 398.537,489.344C399.391,489.668 400.173,490.18 400.984,490.614C401.389,490.832 401.777,491.081 402.19,491.279C402.44,491.4 402.76,491.57 402.984,491.504C403.413,491.376 403.865,491.196 404.126,490.773C404.216,490.625 404.289,490.467 404.367,490.313C405.016,489.021 404.942,487.511 405.593,486.216C405.663,486.075 405.614,485.874 405.615,485.7C405.617,485.297 405.615,484.893 405.615,484.488ZM406.636,483.586C406.611,483.932 406.663,484.198 406.564,484.385C406.19,485.092 406.315,485.847 406.265,486.589C406.167,488.023 405.892,489.421 405.354,490.76C405.227,491.074 405.179,491.491 404.947,491.677C404.508,492.028 403.998,492.31 403.38,492.315C402.303,492.322 401.287,492.009 400.464,491.394C399.522,490.691 398.425,490.384 397.41,489.879C396.075,489.214 394.685,488.656 393.319,488.054C392.147,487.537 391.233,486.638 390.187,485.933C389.948,485.772 389.994,485.205 390.241,484.998C390.328,484.926 390.423,484.816 390.52,484.81C391.563,484.741 392.301,484.076 393.092,483.516C393.654,483.117 394.163,482.585 394.786,482.349C395.485,482.083 395.829,481.489 396.37,481.101C397.496,480.289 398.735,479.686 400.141,479.512C400.482,479.47 400.876,479.554 401.163,479.411C401.917,479.034 402.602,479.169 403.319,479.482C403.685,479.642 404.096,479.696 404.467,479.848C405.252,480.167 405.806,480.694 405.971,481.578C406.044,481.967 406.227,482.335 406.355,482.715C406.463,483.036 406.564,483.361 406.636,483.586Z" style="fill:rgb(86,88,61);fill-rule:nonzero;"/>
    </g>
    <g transform="matrix(1,0,0,1,-356.453,-452.841)">
        <path d="M388.967,493.008C388.967,492.794 388.945,492.673 388.972,492.564C389.008,492.416 389.081,492.279 389.139,492.136C389.201,492.231 389.279,492.319 389.321,492.421C389.67,493.269 390.022,494.115 390.355,494.97C390.682,495.807 391.582,497.172 392.239,498.014C393.454,499.572 394.922,500.829 396.579,501.885C396.82,502.038 397.044,502.23 397.303,502.342C398.83,503.007 399.091,502.925 400.149,501.545C400.287,501.366 400.439,501.167 400.631,501.069C400.969,500.893 401.118,500.597 401.287,500.294C401.622,499.693 402.005,499.115 402.311,498.499C402.604,497.908 402.676,497.295 402.215,496.719C401.86,496.276 401.542,495.829 401.038,495.501C399.837,494.72 398.676,493.876 397.527,493.019C397.178,492.758 396.828,492.649 396.413,492.645C395.778,492.64 395.144,492.624 394.509,492.61C393.884,492.596 393.259,492.687 392.729,492.15C392.531,491.949 392.084,491.977 391.746,491.936C391.288,491.882 390.829,491.884 390.414,491.623C390.196,491.486 390.093,491.316 390.06,491.076C389.98,490.487 390.279,490.178 390.842,490.27L391.012,490.294C391.69,490.725 392.519,490.832 393.186,491.222C393.73,491.539 394.247,491.641 394.817,491.632C395.629,491.62 396.399,491.773 397.192,491.946C397.924,492.107 398.537,492.438 398.927,492.953C399.347,493.507 399.845,493.852 400.445,494.004C400.997,494.144 401.369,494.469 401.722,494.839C402.19,495.33 402.474,495.952 403.066,496.38C403.523,496.709 403.644,497.386 403.443,497.977C403.11,498.956 402.757,499.936 402.19,500.812C402.041,501.041 401.798,501.208 401.605,501.411C401.448,501.575 401.188,501.739 401.17,501.922C401.108,502.576 400.535,502.861 400.22,503.32C399.832,503.888 399.247,504.014 398.546,503.768C396.893,503.188 396.261,502.821 394.863,501.653C393.538,500.543 392.331,499.338 391.214,498.012C390.413,497.061 390.02,495.929 389.408,494.9C389.043,494.286 388.892,493.621 388.967,493.008Z" style="fill:rgb(86,88,61);fill-rule:nonzero;"/>
    </g>
    <g transform="matrix(1,0,0,1,-356.453,-452.841)">
        <path d="M381.952,488.047C382.061,488.032 382.184,488.045 382.278,487.999C382.58,487.852 382.869,487.715 383.099,487.421C383.705,486.641 383.918,485.681 384.364,484.83C384.51,484.552 384.419,484.129 384.206,484.069C384.004,484.012 383.752,483.992 383.559,484.062C382.166,484.562 381.585,485.666 381.402,487.049C381.365,487.328 381.74,487.994 381.952,488.047ZM385.242,484.496C385.047,485.323 385.015,486.242 384.616,486.955C384.099,487.882 383.376,488.771 382.248,489.055C381.678,489.198 381.144,488.918 380.71,488.537C380.5,488.353 380.385,488.061 380.176,487.873C379.454,487.224 379.489,486.45 379.842,485.675C380.253,484.77 380.898,484.054 381.834,483.647C381.991,483.578 382.202,483.57 382.305,483.457C382.843,482.872 383.535,482.911 384.225,482.944C384.767,482.969 385.094,483.277 385.133,483.786C385.15,484.015 385.136,484.245 385.136,484.475L385.242,484.496Z" style="fill:rgb(86,88,61);fill-rule:nonzero;"/>
    </g>
</svg>
