<?xml version="1.0" encoding="UTF-8" standalone="no"?>
<!DOCTYPE svg PUBLIC "-//W3C//DTD SVG 1.1//EN" "http://www.w3.org/Graphics/SVG/1.1/DTD/svg11.dtd">
<svg width="100%" height="100%" viewBox="0 0 87 168" version="1.1" xmlns="http://www.w3.org/2000/svg" xmlns:xlink="http://www.w3.org/1999/xlink" xml:space="preserve" xmlns:serif="http://www.serif.com/" style="fill-rule:evenodd;clip-rule:evenodd;stroke-linejoin:round;stroke-miterlimit:2;">
    <g transform="matrix(1,0,0,1,-575.182,-505.651)">
        <path d="M634.193,513.035C635.335,510.854 637.714,509.633 640.032,508.8C643.627,507.509 647.543,506.82 651.284,507.596C655.024,508.373 658.551,510.8 659.968,514.348C661.628,518.504 660.093,523.433 657.107,526.766C654.121,530.099 649.918,532.084 645.685,533.535C644.917,533.798 644.102,534.05 643.306,533.891C641.626,533.556 640.841,531.654 640.334,530.018C639.237,526.47 637.936,523.711 636.282,520.707C634.854,518.116 632.4,516.472 634.193,513.035Z" style="fill:rgb(239,238,235);fill-rule:nonzero;"/>
    </g>
    <g transform="matrix(1,0,0,1,-575.182,-505.651)">
        <path d="M634.49,578.506C633.093,579.643 631.964,581.127 631.347,582.819C629.79,587.087 632.514,592.654 637.015,593.277C639.316,593.596 641.602,592.707 643.696,591.701C645.01,591.07 646.349,590.345 647.196,589.158C648.2,587.753 648.358,585.934 648.482,584.211C648.627,582.191 648.736,580.013 647.65,578.303C646.115,575.884 642.87,575.358 640.019,575.064C637.558,574.809 634.409,574.941 633.481,577.235" style="fill:rgb(239,238,235);fill-rule:nonzero;"/>
    </g>
    <g transform="matrix(1,0,0,1,-575.182,-505.651)">
        <path d="M605.488,514.1C604.061,516.19 602.65,518.349 601.976,520.788C601.301,523.227 601.467,526.025 602.997,528.04C604.626,530.189 607.508,531.068 610.204,530.98C614.018,530.854 617.794,528.916 619.885,525.724C621.976,522.531 622.201,518.132 620.206,514.878C618.212,511.624 613.996,509.82 610.329,510.877C608.157,511.503 606.33,512.996 604.828,514.685C604.552,514.993 604.443,515.672 604.855,515.644" style="fill:rgb(239,238,235);fill-rule:nonzero;"/>
    </g>
    <g transform="matrix(1,0,0,1,-575.182,-505.651)">
        <path d="M577.823,529.157C577.074,531.333 576.736,533.649 576.83,535.947C576.974,539.47 578.63,543.422 582.037,544.33C584.84,545.077 587.694,543.495 590.106,541.882C591.271,541.103 592.452,540.271 593.213,539.095C594.356,537.329 594.381,535.079 594.203,532.984C593.869,529.084 592.408,524.598 588.677,523.413C586.411,522.694 583.879,523.477 581.969,524.894C580.059,526.31 578.656,528.289 577.311,530.25C576.257,531.786 575.179,533.457 575.182,535.32" style="fill:rgb(239,238,235);fill-rule:nonzero;"/>
    </g>
    <g transform="matrix(1,0,0,1,-575.182,-505.651)">
        <path d="M600.193,606.101C596.871,605.977 593.949,608.938 593.434,612.222C592.919,615.507 594.416,618.862 596.69,621.289C598.109,622.803 599.925,624.069 601.988,624.307C603.747,624.509 605.514,623.945 607.094,623.148C609.909,621.726 612.398,619.414 613.41,616.429C614.421,613.443 613.671,609.772 611.163,607.862C608.689,605.98 605.275,606.142 602.177,606.391C599.521,606.605 596.247,607.308 595.587,609.89" style="fill:rgb(239,238,235);fill-rule:nonzero;"/>
    </g>
    <g transform="matrix(1,0,0,1,-575.182,-505.651)">
        <path d="M605.58,516.378C605.257,516.92 604.881,517.418 604.414,517.847C604.193,518.049 604.26,518.283 604.475,518.419C604.825,518.64 604.946,518.924 604.791,519.292C604.667,519.59 604.665,519.838 604.909,520.069C605.035,520.187 605.162,520.307 605.273,520.44C605.566,520.792 605.559,520.818 605.174,521.279C604.811,521.713 604.783,521.985 605.097,522.32C605.85,523.126 606.63,523.857 607.775,524.129C608.309,524.255 608.777,524.664 609.269,524.953L609.263,525.12L609.168,525.245C609.005,525.282 608.813,525.366 608.675,525.316C607.326,524.819 606.023,524.22 604.903,523.295C604.409,522.887 604.097,522.345 603.863,521.748C603.762,521.49 603.592,521.255 603.422,521.033C603.372,520.969 603.205,520.954 603.11,520.982C603.017,521.008 602.92,521.103 602.874,521.193C602.825,521.29 602.821,521.416 602.816,521.531C602.795,521.993 602.807,522.457 602.762,522.917C602.642,524.17 603.033,525.306 603.553,526.405C603.667,526.647 603.921,526.827 604.124,527.021C604.413,527.296 604.753,527.525 605.001,527.83C605.955,529.006 607.356,529.429 608.642,530.043C608.893,530.163 609.191,530.198 609.471,530.236C609.784,530.277 610.058,530.053 610.078,529.76C610.106,529.359 610.1,528.953 610.139,528.553C610.157,528.382 610.273,528.208 610.483,528.265C610.635,528.307 610.857,528.404 610.891,528.521C611.017,528.957 611.075,529.413 611.164,529.861C611.247,530.274 611.581,530.605 611.999,530.605C612.791,530.605 613.56,530.698 614.301,530.13C614.914,529.659 615.738,529.46 616.473,529.154C617.342,528.79 617.99,528.12 618.709,527.552C618.837,527.45 618.875,527.239 618.998,527.126C620.369,525.868 620.788,524.237 620.853,522.463L620.877,522.294L621.085,522.13C621.186,522.158 621.315,522.245 621.345,522.336C621.659,523.299 621.606,524.259 621.288,525.214C621.236,525.369 621.215,525.547 621.231,525.71C621.24,525.806 621.331,525.935 621.417,525.972L621.727,525.923C622.313,524.934 622.922,523.955 623.443,522.932C623.863,522.106 624.059,521.203 624.012,520.256C623.984,519.681 624.013,519.101 624.033,518.524C624.039,518.348 624.121,518.159 624.339,518.204C624.492,518.235 624.68,518.323 624.754,518.445C624.869,518.633 624.937,518.868 624.955,519.088C625.012,519.782 624.567,521.932 624.292,522.612C623.665,524.164 622.808,525.578 621.884,526.972C621.277,527.887 620.639,528.74 619.849,529.506C619.499,529.845 619.171,529.882 618.765,529.83C618.653,529.816 618.536,529.782 618.436,529.73C618.039,529.517 617.663,529.564 617.285,529.779C617.083,529.893 616.85,529.959 616.672,530.1C615.699,530.871 614.446,530.982 613.371,531.513C613.075,531.659 612.692,531.617 612.361,531.707C612.007,531.804 611.695,532.365 611.852,532.695C612.123,533.259 612.205,533.893 612.608,534.42C612.946,534.861 613.031,535.449 613.427,535.905C614.223,536.82 614.842,537.866 615.294,539.002C615.358,539.162 615.501,539.308 615.515,539.468C615.617,540.645 616.388,541.588 616.618,542.722C616.811,543.676 617.206,544.606 617.271,545.563C617.342,546.639 617.721,547.564 618.119,548.525C618.376,549.15 618.481,549.841 618.634,550.507C618.837,551.392 618.934,552.283 619.606,553.025C619.919,553.369 619.937,553.982 620.096,554.47C620.184,554.74 620.271,555.014 620.39,555.27C620.43,555.356 620.569,555.404 620.67,555.447L620.794,555.344C621.285,554.179 621.789,553.014 621.9,551.738C621.945,551.211 622.021,550.713 622.274,550.244C622.382,550.043 622.528,549.826 622.536,549.612C622.567,548.73 622.913,547.936 623.161,547.11C623.475,546.067 623.695,544.994 624.016,543.953C624.201,543.353 624.483,542.778 624.759,542.21C625.933,539.805 625.953,539.82 627.939,537.768C628.284,537.411 628.801,537.151 628.872,536.568L628.938,536.411C629.796,535.646 630.655,534.879 631.52,534.123C631.866,533.821 632.277,533.583 632.579,533.245C633.956,531.706 635.356,530.19 636.79,528.705C637.204,528.278 637.518,527.859 637.573,527.225C637.622,526.66 637.933,526.455 638.528,526.458C638.735,526.459 638.975,526.56 639.137,526.692C639.299,526.823 639.206,527.282 639.017,527.489C638.823,527.702 638.614,527.902 638.412,528.108C637.686,528.852 636.926,529.567 636.244,530.348C635.561,531.131 634.7,531.723 634.03,532.515C632.691,534.096 630.965,535.304 629.729,536.985C628.556,537.607 628.061,538.868 627.142,539.732C627.018,539.848 626.901,539.99 626.832,540.145C626.346,541.24 625.429,542.095 625.084,543.272C624.956,543.71 624.867,544.16 624.513,544.513C624.369,544.656 624.287,544.934 624.294,545.146C624.32,545.917 624.18,546.636 623.771,547.295C623.599,548.604 622.878,549.778 622.872,551.137C622.869,551.699 622.668,552.264 622.527,552.82C622.077,554.591 621.62,556.36 621.476,558.193C621.455,558.47 621.263,558.734 621.233,559.012C621.19,559.407 621.103,559.864 621.251,560.198C621.501,560.761 621.497,561.318 621.497,561.891C621.506,564.781 621.512,567.671 621.515,570.561C621.515,570.79 621.541,571.044 621.457,571.245C620.875,572.636 620.69,574.115 620.431,575.58C620.382,575.859 620.24,576.119 620.143,576.39C620.028,576.713 619.835,577.033 619.818,577.362C619.783,578.016 619.53,578.579 619.313,579.177C619.041,579.925 618.813,580.719 618.758,581.507C618.665,582.833 618.369,584.106 618.035,585.379C618.006,585.489 618.012,585.609 617.999,585.724C617.941,586.258 617.327,586.512 617.333,587.098C617.339,587.554 617.285,588.016 617.211,588.468C616.96,589.992 616.616,591.503 616.64,593.063C616.666,594.797 616.668,596.531 616.686,598.265C616.688,598.495 616.63,598.782 616.742,598.946C617.272,599.725 616.933,600.642 617.197,601.479C617.432,602.224 617.318,603.077 617.385,603.88C617.413,604.218 617.518,604.549 617.576,604.886C617.634,605.223 617.742,605.569 617.712,605.901C617.626,606.903 617.922,607.842 618.158,608.783C618.256,609.176 618.378,609.552 618.381,609.959C618.394,611.403 618.603,612.813 619.042,614.193C619.163,614.569 619.146,614.987 619.251,615.369C619.28,615.473 619.533,615.579 619.673,615.568C619.808,615.557 620.055,615.363 620.04,615.304C619.894,614.724 620.146,614.179 620.157,613.614C620.171,612.81 620.201,612 620.314,611.206C620.427,610.417 620.705,609.653 620.812,608.864C620.884,608.329 621.082,607.86 621.312,607.403C622.006,606.022 622.716,604.649 623.57,603.355C624.075,602.589 624.526,601.787 624.993,600.997C625.277,600.516 625.527,600.012 625.831,599.543C625.984,599.309 626.226,599.133 626.424,598.928L626.653,598.671C627.723,597.548 628.3,596.074 629.441,594.97C630.515,593.931 631.065,592.476 631.687,591.115C631.998,590.436 632.271,589.738 632.54,589.041C632.692,588.65 632.671,588.249 632.481,587.866C632.276,587.453 632.153,586.958 631.844,586.644C631.288,586.077 631.277,585.406 631.26,584.715C631.246,584.079 631.255,583.444 631.265,582.808C631.274,582.228 631.314,581.655 631.642,581.142C631.764,580.95 631.852,580.729 631.908,580.508C632.003,580.122 631.936,579.619 632.161,579.358C632.724,578.703 632.931,577.825 633.602,577.249C634.075,576.842 634.497,576.375 634.942,575.935C635.503,575.38 636.256,575.189 636.973,575.086C637.874,574.958 638.791,575.011 639.699,575.325C641.198,575.845 640.95,575.987 640.949,577.015C640.948,577.534 640.994,578.033 641.144,578.547C641.392,579.393 641.392,580.261 640.883,581.047L640.618,581.249L640.617,581.248C640.612,580.498 640.63,579.746 640.584,578.998C640.573,578.812 640.392,578.581 640.224,578.468C639.723,578.129 639.185,578.036 638.583,578.268C638.045,578.474 637.488,578.607 637.211,579.194C637.167,579.286 637.045,579.369 636.943,579.398C636.851,579.424 636.732,579.38 636.633,579.344L636.564,579.201C636.648,578.533 637.015,578.029 637.53,577.631C637.659,577.531 637.849,577.468 638.012,577.465C638.565,577.455 639.083,577.064 639.679,577.386C639.935,577.524 640.241,577.323 640.414,577.068L640.414,576.765C640.309,576.636 640.169,576.497 640.018,576.45C639.303,576.233 638.508,576.501 637.819,576.101C637.115,576.512 636.219,576.166 635.531,576.731C634.913,577.238 634.166,577.582 633.848,578.406C633.604,579.037 632.923,579.427 632.824,580.154C632.289,580.625 632.277,581.26 632.258,581.901C632.241,582.472 632.306,583.05 632.005,583.595C631.914,583.76 631.994,584.036 632.034,584.254C632.106,584.647 632.257,585.029 632.286,585.423C632.337,586.148 632.835,586.534 633.328,586.933L633.622,586.897C633.846,586.728 634.04,586.518 634.266,586.349C634.442,586.215 634.683,586.274 634.675,586.43C634.586,588.161 635.803,589.111 636.898,590.123C637.147,590.354 637.48,590.491 637.76,590.692C638.99,591.569 640.517,591.11 641.355,589.977C642.45,588.496 643.415,586.94 644.441,585.417L644.665,585.281C644.702,585.387 644.776,585.497 644.765,585.598C644.733,585.88 644.707,586.175 644.604,586.436C644.456,586.81 644.216,587.147 644.062,587.519C643.853,588.022 643.3,588.456 643.595,589.065C643.692,589.266 645.331,588.829 645.646,588.509C646.087,588.06 646.517,587.591 646.886,587.082C647.097,586.792 647.299,586.556 647.634,586.408C648.198,586.161 648.537,585.719 648.66,585.103C648.704,584.882 648.823,584.676 648.915,584.466C649.03,584.21 649.332,584.022 649.42,584.149C649.514,584.284 649.625,584.458 649.614,584.607C649.591,584.884 649.507,585.162 649.41,585.426C649.112,586.231 648.631,586.954 648.512,587.843C648.432,588.44 647.868,588.775 647.406,589.116C647.28,589.21 647.109,589.157 646.955,589.016C646.422,588.527 646.396,588.53 646.152,589.026C646.05,589.232 646.013,589.442 645.746,589.526C645.476,589.611 645.182,589.708 644.975,589.887C644.637,590.18 644.259,590.284 643.853,590.223C642.838,590.07 642.031,590.502 641.403,591.196C641.035,591.603 640.592,591.558 640.186,591.729C639.791,591.895 639.47,591.969 639.05,591.771C638.493,591.508 637.757,591.805 637.273,591.248C636.247,590.914 635.634,590.074 634.943,589.333C634.667,589.038 634.402,588.735 634.122,588.446C633.953,588.273 633.66,588.32 633.54,588.541C633.351,588.895 633.165,589.252 633.004,589.62C632.011,591.886 631.054,594.159 629.442,596.098C628.638,597.064 627.842,598.064 627.16,599.107C626.293,600.431 625.135,601.58 624.595,603.116C624.522,603.324 624.37,603.524 624.208,603.678C623.645,604.215 623.37,604.925 623.073,605.606C622.617,606.653 622.313,607.766 621.696,608.746C621.581,608.93 621.553,609.182 621.527,609.406C621.4,610.486 620.974,611.529 621.138,612.642C620.902,613.301 620.818,613.978 620.842,614.678C620.871,615.482 620.785,616.29 621.119,617.065C621.239,617.343 621.032,617.476 620.648,617.398C620.536,617.374 620.425,617.322 620.313,617.318C620.035,617.306 619.749,617.649 619.835,617.902C619.907,618.114 620.014,618.317 620.114,618.519C620.213,618.722 620.422,618.925 620.413,619.119C620.369,619.977 620.84,620.658 621.096,621.416C621.316,622.063 621.581,622.706 621.555,623.425C621.543,623.755 621.649,624.112 621.783,624.42C622.172,625.32 622.397,626.26 622.603,627.214C622.772,627.997 623.058,628.754 623.243,629.534C623.585,630.986 624.09,632.386 624.497,633.814C624.837,635.015 625.091,636.259 625.315,637.495C625.409,638.014 625.56,638.495 625.724,638.985C625.943,639.634 626.158,640.285 626.357,640.942C626.556,641.602 626.769,642.256 626.762,642.966C626.759,643.233 626.864,643.545 627.024,643.758C627.491,644.377 627.672,645.077 627.844,645.819C628.038,646.654 628.461,647.436 628.653,648.272C628.823,649.017 628.994,649.709 629.586,650.248C629.733,650.382 629.788,650.659 629.809,650.878C629.855,651.337 629.828,651.804 629.875,652.263C629.904,652.539 629.944,652.864 630.105,653.069C630.551,653.635 630.626,654.335 630.868,654.972C631.089,655.558 631.198,656.187 631.356,656.797C631.426,657.073 631.556,657.35 631.554,657.625C631.548,658.394 631.785,659.1 632.025,659.81C632.061,659.919 632.145,660.017 632.162,660.126C632.418,661.909 633.177,663.525 633.834,665.174C633.941,665.441 633.995,665.727 634.081,666.001C634.377,666.936 634.757,667.831 635.217,668.7C635.566,669.359 635.986,669.986 636.155,670.738C636.212,670.995 636.471,671.205 636.63,671.442C636.855,671.774 637.081,672.106 637.285,672.451L637.229,672.735L636.914,672.793C636.708,672.706 636.455,672.617 636.343,672.448C636.028,671.968 635.752,671.458 635.501,670.94C635.277,670.477 635.105,669.988 634.91,669.512C634.26,669.206 634.569,668.415 634.179,668.027C633.772,667.618 633.755,667.086 633.537,666.624C633.267,666.054 633.07,665.449 632.852,664.856C632.773,664.642 632.664,664.415 632.672,664.197C632.693,663.581 632.375,663.125 632.095,662.618C631.823,662.124 632.057,661.477 631.724,660.952C631.411,660.459 631.262,659.905 631.261,659.309C631.261,659.087 631.162,658.863 631.097,658.644C630.762,657.49 630.273,656.383 630.164,655.159C630.118,654.658 629.855,654.178 629.692,653.688C629.477,653.042 629.57,652.183 628.943,651.82C628.376,651.493 627.635,651.392 626.962,651.35C626.308,651.309 625.836,651.06 625.531,650.539C624.917,649.494 624.106,648.737 622.89,648.48C621.895,647.802 620.786,647.287 619.932,646.41C619.529,645.996 619.139,645.58 618.607,645.313C618.359,645.188 618.123,644.975 617.964,644.745C617.412,643.948 616.676,643.316 616.068,642.567C615.06,641.326 614.109,640.036 612.906,638.955C612.359,638.464 611.916,637.827 611.536,637.191C610.531,635.513 609.543,633.82 608.921,631.95C608.849,631.734 608.799,631.509 608.747,631.286C608.266,629.22 607.696,627.178 606.905,625.208C606.566,624.363 606.229,623.46 605.194,623.172L605.072,623.06C605.044,622.957 605.031,622.847 605.039,622.741L605.164,622.634C605.389,622.636 605.646,622.593 605.834,622.685C606.27,622.897 606.719,622.912 607.183,622.918C608.544,622.937 609.465,622.236 610.112,621.114C610.282,620.82 610.343,620.466 610.474,620.147L610.685,619.964C610.784,619.981 610.927,620.072 610.946,620.156C611.02,620.49 611.066,620.832 611.098,621.173C611.135,621.574 611.331,621.798 611.737,621.854C611.83,621.866 611.911,621.963 611.997,622.022L611.87,622.137C611.338,622.355 610.796,622.545 610.276,622.784C609.547,623.119 608.87,623.588 608.021,623.592L607.861,623.65C607.394,623.821 607.154,624.362 607.428,624.782C608.063,625.757 608.408,626.849 608.795,627.925C608.872,628.141 608.989,628.358 609.001,628.579C609.078,629.861 609.65,631.014 609.921,632.245C610.197,633.493 610.914,634.549 611.553,635.627C612.524,637.264 613.788,638.681 615.01,640.135C616.416,641.809 617.909,643.392 619.456,644.93C620.479,645.946 621.579,646.831 622.868,647.524C624.067,648.168 625.357,648.69 626.358,649.692C626.658,649.992 627.163,650.115 627.596,650.249C627.983,650.368 628.353,649.957 628.269,649.532C628.115,648.755 628.028,647.994 627.579,647.261C627.143,646.55 627.033,645.639 626.786,644.814C626.72,644.595 626.713,644.353 626.618,644.15C625.926,642.685 625.612,641.1 625.231,639.548C624.93,638.32 624.467,637.153 624.138,635.943C623.778,634.62 623.555,633.261 623.265,631.92C623.18,631.529 623.116,631.123 622.961,630.758C622.582,629.858 622.581,628.834 622.042,627.988C621.983,627.896 621.944,627.765 621.956,627.658C622.067,626.628 621.556,625.758 621.229,624.847C620.918,623.983 620.829,623.053 620.395,622.226C620.267,621.981 620.205,621.68 620.193,621.401C620.172,620.924 620.027,620.491 619.819,620.078C619.608,619.66 619.466,619.238 619.443,618.763C619.429,618.486 619.341,618.195 619.221,617.943C618.97,617.416 618.769,616.891 618.747,616.294C618.738,616.018 618.634,615.734 618.524,615.474C618.025,614.298 617.755,613.083 617.727,611.799C617.701,610.597 617.421,609.422 617.184,608.246C617.127,607.966 617.054,607.674 617.077,607.396C617.188,606.061 616.927,604.748 616.671,603.47C616.443,602.326 616.362,601.198 616.331,600.051C616.312,599.36 615.851,598.762 615.971,598.029C616.073,597.401 615.814,596.781 615.746,596.164C615.627,595.089 615.521,593.979 615.872,592.905C615.909,592.797 615.961,592.684 615.958,592.573C615.905,590.73 616.57,588.939 616.372,587.085C616.288,586.285 616.462,585.6 617.152,585.108C617.622,584.772 617.728,584.288 617.738,583.739C617.764,582.182 618.132,580.682 618.567,579.195C618.648,578.921 618.77,578.646 618.78,578.368C618.796,577.893 618.929,577.472 619.122,577.043C619.543,576.111 620.093,573.792 620.19,572.727C620.206,572.554 620.155,572.344 620.235,572.214C620.773,571.352 620.318,570.672 619.847,570.007C618.877,568.641 617.687,567.472 616.476,566.325C616.273,566.133 615.995,566.018 615.746,565.874C613.933,564.831 611.982,564.186 609.919,563.866L609.748,563.839C607.789,563.042 605.642,562.691 603.906,561.365C603.814,561.296 603.72,561.223 603.617,561.175C601.618,560.242 600.044,558.695 598.265,557.446C597.426,556.858 596.559,556.298 595.814,555.57C595.32,555.088 594.738,554.699 594.435,554.046C594.388,553.944 594.318,553.839 594.232,553.769C593.209,552.942 592.781,551.718 592.2,550.615C591.612,549.5 590.914,548.42 590.618,547.165C590.035,546.521 589.981,545.556 589.289,544.975C589.203,544.902 589.133,544.804 589.072,544.706C588.83,544.319 588.594,543.926 588.356,543.535C587.787,543.489 587.217,543.43 586.647,543.403C586.185,543.38 585.721,543.379 585.26,543.403C584.496,543.441 583.763,543.363 583.089,542.963C582.944,542.876 582.767,542.775 582.611,542.784C581.477,542.856 580.623,542.224 579.794,541.618C578.26,540.498 577.231,539.02 576.81,537.128C576.635,536.342 576.453,535.577 576.463,534.759C576.473,534.085 576.688,533.521 577.059,532.998C577.143,532.881 577.354,532.781 577.491,532.798C577.603,532.812 577.774,533.008 577.778,533.128C577.798,533.698 577.867,534.277 577.599,534.826C577.333,535.372 577.35,535.986 577.518,536.521C577.675,537.022 577.788,537.513 577.841,538.029C577.858,538.195 577.902,538.385 577.999,538.514C578.522,539.2 579.008,539.926 579.618,540.528C580.098,541.003 580.728,541.33 581.308,541.697C581.669,541.926 583.412,542.375 583.952,542.392C584.818,542.42 585.685,542.407 586.551,542.441C587.054,542.459 587.436,542.312 587.721,541.876C587.874,541.641 588.106,541.456 588.305,541.252C588.485,541.07 588.713,541.081 588.884,541.293C588.992,541.427 589.06,541.592 589.17,541.723L589.447,541.905C590.432,541.681 591.573,541.779 592.165,540.689C592.542,539.995 593.235,539.449 593.173,538.547L593.223,538.384C593.928,537.291 593.848,536.075 593.79,534.861C593.769,534.399 593.769,533.935 593.788,533.473C593.823,532.601 593.695,531.769 593.419,530.931C593.098,529.953 592.789,528.97 592.462,527.993L592.565,527.688L592.846,527.766C592.982,527.87 593.12,527.991 593.208,528.135C593.729,528.98 594.054,529.921 594.102,530.891C594.14,531.656 594.331,532.362 594.52,533.08C594.908,534.559 595.018,536.015 594.356,537.454C594.239,537.709 594.127,538.009 594.148,538.277C594.2,538.951 593.851,539.512 593.655,540.097C593.093,541.767 592.405,542.302 590.587,542.737C590.475,542.765 590.356,542.763 590.246,542.796C589.815,542.926 589.482,543.445 589.615,543.894C589.744,544.329 589.917,544.771 590.164,545.149C590.544,545.733 590.866,546.319 591.081,546.993C591.27,547.588 591.61,548.148 591.955,548.677C592.337,549.262 592.603,549.864 592.782,550.549C592.985,551.323 593.478,551.987 594.038,552.574C594.354,552.906 594.699,553.202 594.898,553.645C595.009,553.894 595.237,554.144 595.476,554.274C596.259,554.695 596.789,555.392 597.437,555.96C597.954,556.414 598.516,556.82 599.083,557.211C599.602,557.569 600.206,557.819 600.676,558.226C601.101,558.594 601.412,559.087 601.923,559.377C602.922,559.945 603.881,560.591 604.914,561.087C605.329,561.287 605.707,561.526 606.108,561.737C606.813,562.11 607.501,562.529 608.359,562.565C608.86,562.585 609.348,562.839 609.85,562.951C610.552,563.109 611.166,563.73 611.97,563.363C612.922,564.058 614.17,563.973 615.157,564.559C616.045,565.086 616.901,565.673 617.764,566.244C617.905,566.338 618.058,566.466 618.122,566.614C618.554,567.605 619.582,568.058 620.171,568.904C620.222,568.977 620.372,569.003 620.479,569.009C620.693,569.022 620.794,568.862 620.798,568.685C620.83,567.069 620.855,565.451 620.872,563.834C620.877,563.315 620.82,562.792 620.848,562.275C620.887,561.57 620.681,560.914 620.563,560.237C620.445,559.566 620.587,558.873 620.293,558.197C620.094,557.737 620.094,557.19 620.014,556.68C619.768,555.128 619.042,553.741 618.501,552.292C617.839,550.516 617.24,548.726 617.02,546.831C617.006,546.717 617.013,546.595 616.976,546.488C616.382,544.808 616.206,543 615.574,541.354C614.944,539.714 614.327,538.029 612.989,536.723C612.267,536.017 611.682,535.118 611.446,534.07C611.37,533.735 611.248,533.408 611.129,533.084C610.972,532.655 610.796,532.233 610.628,531.808C610.014,531.521 609.423,531.141 608.778,530.971C608.148,530.806 607.592,530.583 607.063,530.207C606.408,529.741 605.666,529.395 605.029,528.909C603.55,527.783 602.27,526.503 602.104,524.492C602.081,524.21 601.984,523.934 601.948,523.652C601.889,523.197 601.729,522.708 601.834,522.29C602.082,521.297 601.998,520.231 602.549,519.301C602.956,518.615 602.898,517.854 602.647,517.124C602.447,516.542 602.532,516.022 602.721,515.446C602.971,514.684 603.25,513.988 603.751,513.324C604.712,512.05 605.401,511.491 606.869,511.237L607.031,511.277C607.152,511.34 607.126,511.408 606.977,511.493C606.581,511.718 606.214,512.026 605.791,512.159C605.249,512.331 604.888,512.659 604.612,513.112C604.402,513.455 604.294,513.881 604.031,514.168C603.311,514.953 603.424,515.865 603.528,516.785C603.569,517.161 603.949,517.301 604.229,517.048C604.621,516.695 605.016,516.37 605.581,516.38L605.58,516.378Z" style="fill:rgb(86,88,61);fill-rule:nonzero;"/>
    </g>
    <g transform="matrix(1,0,0,1,-575.182,-505.651)">
        <path d="M660.882,515.423L660.742,515.347C660.753,516.729 660.872,518.121 660.745,519.49C660.606,520.981 660.248,522.453 658.565,523.067C658.471,523.101 658.366,523.408 658.418,523.487C658.803,524.064 658.587,524.554 658.317,525.096C657.905,525.922 657.441,526.702 656.823,527.389C656.591,527.647 656.306,527.873 656.138,528.166C655.638,529.038 654.892,529.615 654.108,530.222C653.29,530.855 652.454,531.227 651.454,531.291C651.097,531.314 650.788,531.387 650.506,531.635C649.756,532.299 648.872,532.427 647.945,532.35C647.658,532.406 647.362,532.362 647.112,532.25L647.108,532.251C646.999,532.277 646.889,532.279 646.782,532.266C646.782,532.414 646.726,532.534 646.586,532.63C646.146,532.932 645.655,533.083 645.116,533.054C644.716,533.032 644.303,533.065 644.042,532.647C643.868,532.366 643.605,532.293 643.303,532.453C643.033,532.596 643.116,532.999 643.516,533.305C643.738,533.474 644.003,533.67 644.26,533.689C644.831,533.729 645.45,533.787 645.97,533.61C646.539,533.415 647.095,533.387 647.665,533.35C648.073,533.324 648.447,533.228 648.836,533.099C649.72,532.807 650.571,532.47 651.306,531.892C651.571,531.684 651.815,531.693 652.102,531.826C652.432,531.98 652.776,531.984 653.096,531.785C653.969,531.247 654.971,530.884 655.536,529.93C655.646,529.744 655.878,529.636 656.027,529.467C656.556,528.864 657.095,528.269 657.583,527.634C657.786,527.371 657.828,526.991 658.012,526.711C658.832,525.47 659.318,524.041 660.242,522.855C660.967,521.923 661.168,520.752 661.403,519.638C661.651,518.459 661.367,516.809 660.882,515.423Z" style="fill:rgb(86,88,61);fill-rule:nonzero;"/>
    </g>
    <g transform="matrix(1,0,0,1,-575.182,-505.651)">
        <path d="M646.2,527.135C646.556,527.341 646.919,527.455 647.334,527.503C647.497,527.523 647.609,527.569 647.693,527.627C648.209,527.387 648.719,527.134 649.209,526.784C649.415,526.637 649.631,526.478 649.851,526.32C649.968,526.01 650.101,525.706 650.221,525.398L650.17,525.249C650.077,525.196 649.962,525.129 649.869,525.144C649.767,525.16 649.654,525.245 649.59,525.332C648.977,526.175 647.986,526.148 647.12,526.392C646.937,526.444 646.685,526.303 646.483,526.211C646.33,526.142 646.217,525.984 646.064,525.913L645.781,526.01L645.638,526.299C645.737,526.63 645.867,526.943 646.2,527.135Z" style="fill:rgb(86,88,61);fill-rule:nonzero;"/>
    </g>
    <g transform="matrix(1,0,0,1,-575.182,-505.651)">
        <path d="M656.395,508.05C655.75,507.47 655.023,507.261 654.255,507.059C654.165,507.035 653.999,507.217 653.908,507.334L654.044,507.591C654.838,507.82 655.498,508.283 656.072,508.841C656.521,509.278 656.883,509.807 657.252,510.319C657.414,510.542 657.559,510.816 657.596,511.082C657.683,511.706 657.712,512.323 657.912,512.944C658.061,513.404 658.023,513.993 657.877,514.467C657.645,515.228 657.609,516.067 657.102,516.735C657.109,517.571 656.423,517.865 655.885,518.268L655.607,518.249C655.253,517.487 654.768,516.762 655.085,515.837C655.453,514.766 654.977,513.759 654.551,512.866C654.042,511.795 653.43,510.723 652.422,509.969C652.001,509.654 651.831,509.28 651.989,508.646C652.138,508.041 651.733,507.405 651.135,507.079C650.326,506.639 649.478,506.268 648.649,505.862C648.046,505.569 647.42,505.638 646.792,505.735L646.706,505.84L646.774,505.993C646.905,506.105 647.032,506.24 647.185,506.3C648.092,506.651 648.986,507.076 649.925,507.286C650.568,507.43 650.803,507.812 650.946,508.303C651.054,508.68 651.006,509.103 651.028,509.506C651.04,509.745 651.134,509.915 651.334,510.079C652.685,511.185 653.82,512.446 654.171,514.237L654.215,514.403C654.642,514.961 654.355,515.36 653.932,515.74C653.584,516.054 653.409,516.1 653.041,515.794C652.13,515.035 651.16,514.504 649.91,514.66C649.521,514.708 649.328,514.44 649.301,513.988C649.273,513.529 649.273,513.065 649.228,512.606C649.192,512.23 648.964,511.982 648.598,511.872C648.8,512.649 649.038,513.417 648.948,514.24C648.923,514.466 648.962,514.702 648.997,514.93C649.028,515.127 649.169,515.22 649.353,515.126C649.787,514.904 650.118,515.316 650.515,515.295C651.093,515.265 651.465,515.636 651.871,515.968C652.486,516.473 652.843,517.093 652.855,517.898C653.517,519.611 653.077,521.17 652.189,522.666C651.983,523.012 651.764,523.349 651.569,523.7L651.719,523.899L651.874,523.861C652.745,522.654 653.721,521.507 653.809,519.904C653.831,519.519 654.056,519.144 654.193,518.767L654.299,518.636L654.443,518.572C654.546,518.596 654.705,518.621 654.734,518.691L654.807,518.897C655.193,518.634 656.025,518.757 656.086,519.305L656.088,519.32C656.575,519.419 656.989,519.751 656.835,520.259C656.58,521.103 656.363,521.9 655.884,522.649C655.785,522.804 655.593,522.9 655.376,522.945L655.188,523.091C655.179,523.271 655.17,523.449 655.163,523.629C655.158,523.736 655.099,523.859 655.028,523.942C654.504,524.548 654.054,525.26 653.421,525.72C652.523,526.371 651.504,526.858 650.521,527.387C650.296,527.603 650.073,527.804 649.877,527.981C649.038,528.741 647.997,529.376 646.852,529.458C646.711,529.469 646.589,529.441 646.478,529.4C645.483,530.232 644.307,530.612 643.003,530.63C641.975,530.645 641.124,529.909 640.952,528.903C640.913,528.676 640.921,528.442 640.9,528.211L640.831,528.058L640.612,528.196C640.26,528.717 640.268,529.201 640.53,529.812C641.096,531.132 641.67,531.558 643.141,531.44C644.927,531.296 645.983,530.816 647.621,529.661C647.804,529.531 647.973,529.375 648.17,529.273L648.465,529.375L648.543,529.683L648.352,529.932L648.515,529.85C648.648,529.733 648.788,529.635 648.887,529.57C649.546,529.14 650.265,528.829 650.93,528.418C651.157,528.258 651.387,528.101 651.61,527.936C651.758,527.813 651.954,527.779 652.144,527.797C652.388,527.606 652.638,527.42 652.884,527.23C653.065,527.09 653.299,527.019 653.472,526.871C654.128,526.313 654.818,525.779 655.402,525.15C655.825,524.694 656.128,524.116 656.434,523.565C656.968,522.602 657.415,521.614 657.282,520.452C657.209,519.824 657.241,519.184 657.232,518.548C657.225,518.081 657.291,517.637 657.538,517.218C658.039,516.368 658.017,515.326 658.525,514.472C658.607,514.335 658.604,514.137 658.609,513.966C658.686,511.691 658.182,509.659 656.395,508.05Z" style="fill:rgb(86,88,61);fill-rule:nonzero;"/>
    </g>
    <g transform="matrix(1,0,0,1,-575.182,-505.651)">
        <path d="M603.379,624.622C603.031,624.529 602.533,624.407 602.043,624.259C600.309,623.735 598.795,622.817 597.516,621.549C596.87,620.908 596.279,620.187 596.198,619.203C596.166,618.825 595.963,618.529 595.626,618.402C594.976,618.153 594.705,617.589 594.331,617.074C593.974,616.581 593.768,616.094 593.766,615.489C593.766,615.272 593.629,615.057 593.58,614.834C593.531,614.615 593.418,614.343 593.499,614.175C593.759,613.636 593.78,613.066 593.862,612.498C593.885,612.337 593.966,612.162 594.073,612.038C594.521,611.516 595.052,611.069 595.378,610.438C595.47,610.261 595.73,610.146 595.936,610.06C596.462,609.841 597,609.647 597.54,609.465L597.82,609.593L597.783,609.915C597.687,610.049 597.56,610.205 597.414,610.253C595.655,610.836 594.838,612.265 594.191,613.836C594.109,614.033 594.114,614.309 594.179,614.516C594.437,615.335 594.713,616.151 595.038,616.945C595.099,617.098 595.422,617.246 595.599,617.222C595.784,617.195 596.007,616.987 596.088,616.803C596.199,616.55 596.243,616.242 596.226,615.963C596.185,615.266 596.465,614.738 596.976,614.302L597.097,614.178C597.357,613.874 597.56,613.448 597.889,613.294C598.341,613.084 598.888,613.016 599.396,613.01C599.773,613.005 600.163,613.168 600.524,613.316C600.623,613.357 600.685,613.608 600.679,613.759C600.672,613.92 600.573,614.081 600.498,614.235C600.28,614.682 600.325,615.108 600.513,615.562C601.23,617.287 602.405,618.533 604.161,619.234C604.654,619.43 605.038,619.412 605.42,619.047C605.539,618.935 605.701,618.849 605.858,618.803L606.131,618.933C606.332,619.374 606.07,619.966 605.648,620.054C604.636,620.264 603.617,620.09 602.842,619.509C601.518,618.514 600.275,617.393 599.6,615.787C599.414,615.347 599.371,614.904 599.274,614.457C599.193,614.081 598.777,613.897 598.488,614.116C597.95,614.524 597.372,614.885 597.18,615.624C597.066,616.063 596.745,616.45 596.644,616.891C596.542,617.329 596.478,617.845 596.612,618.257C596.928,619.227 597.166,620.264 597.949,621.009C599.076,622.084 600.275,623.082 601.79,623.542C602.613,623.791 603.339,624.326 604.233,624.349L604.364,624.449L604.229,624.554C604.002,624.581 603.774,624.593 603.379,624.622Z" style="fill:rgb(86,88,61);fill-rule:nonzero;"/>
    </g>
    <g transform="matrix(1,0,0,1,-575.182,-505.651)">
        <path d="M616.393,516.409C616.446,515.686 616.311,515.029 615.782,514.494C615.592,513.539 614.916,512.91 614.294,512.237C613.881,511.788 613.394,511.562 612.795,511.482C612.23,511.406 611.672,511.267 611.116,511.134C611.052,511.119 611.007,510.976 610.979,510.883L611.065,510.752C612.003,510.669 612.982,510.443 613.831,511C614.739,511.597 615.655,512.192 616.186,513.231C616.397,513.644 616.645,513.995 616.663,514.487C616.674,514.82 616.82,515.152 616.917,515.48C617.145,516.251 617.414,517.011 617.34,517.839C617.296,518.324 617.453,518.739 617.826,519.079C618.166,519.389 618.491,519.72 618.797,520.064C619.626,520.991 619.867,521.488 619.947,522.634C619.974,523.018 619.828,523.411 619.8,523.804C619.77,524.225 619.609,524.528 619.308,524.849C618.973,525.208 619.028,525.85 618.53,526.146C618.439,526.199 618.33,526.223 618.229,526.261C618.189,526.102 618.105,525.939 618.122,525.786C618.14,525.626 618.221,525.444 618.334,525.327C618.679,524.972 618.816,524.56 618.81,524.072C618.808,523.847 618.844,523.607 618.923,523.397C619.382,522.189 618.82,521.296 618.039,520.474C617.883,520.311 617.677,520.195 617.495,520.058C616.62,519.396 616.62,519.396 615.925,520.274L615.814,520.404L615.663,520.448L615.493,520.257C615.835,519.416 615.163,518.717 615.175,517.926L615.086,517.782C614.232,517.223 613.514,516.405 612.381,516.365C611.926,516.35 611.467,516.304 611.021,516.218C610.931,516.201 610.858,515.945 610.834,515.791L610.986,515.512C611.067,515.445 611.191,515.406 611.298,515.4C612.152,515.343 613.53,515.705 614.234,516.156C614.807,516.525 615.436,516.812 615.923,517.311C615.95,517.338 616.246,517.199 616.29,517.087C616.374,516.881 616.364,516.637 616.393,516.409Z" style="fill:rgb(86,88,61);fill-rule:nonzero;"/>
    </g>
    <g transform="matrix(1,0,0,1,-575.182,-505.651)">
        <path d="M638.184,515.334C638.078,515.593 638.043,515.962 637.851,516.088C637.398,516.385 637.176,516.88 636.784,517.194C636.067,517.766 636.012,518.611 635.882,519.364C635.782,519.949 636.042,520.599 636.157,521.216C636.176,521.32 636.247,521.459 636.332,521.5C636.988,521.817 637.306,522.465 637.796,522.943C638.158,523.293 638.471,523.704 639.053,523.775C639.308,523.805 639.539,524.063 639.772,524.227L639.79,524.385C639.745,524.479 639.682,524.628 639.612,524.637C638.973,524.718 638.356,524.738 637.856,524.189C637.351,523.634 636.794,523.125 636.265,522.593C636.143,522.471 635.995,522.35 635.93,522.198C635.501,521.175 634.706,520.397 634.133,519.469C633.67,518.716 633.459,517.962 633.663,517.064C633.825,516.343 633.69,515.58 633.997,514.857C634.265,514.231 634.397,513.547 634.589,512.888C635.581,511.945 636.26,510.695 637.462,509.956C637.754,509.777 638.025,509.556 638.329,509.4C639.251,508.925 640.186,508.471 641.117,508.013C641.323,507.912 641.529,507.789 641.748,507.749C641.889,507.724 642.055,507.833 642.209,507.881C642.149,507.977 642.112,508.111 642.025,508.16C641.577,508.418 641.118,508.659 640.658,508.898C640.198,509.136 639.744,509.394 639.266,509.589C637.473,510.324 636.293,511.725 635.257,513.272C634.531,514.356 634.488,515.665 634.179,516.882C634.089,517.236 634.292,517.666 634.368,518.061C634.416,518.32 634.781,518.76 634.883,518.687C635.063,518.558 635.281,518.407 635.353,518.217C635.877,516.833 637.083,516.139 638.194,515.344L638.184,515.334Z" style="fill:rgb(86,88,61);fill-rule:nonzero;"/>
    </g>
    <g transform="matrix(1,0,0,1,-575.182,-505.651)">
        <path d="M647.571,579.057C647.571,578.654 647.577,578.25 647.569,577.848C647.563,577.492 647.456,577.177 647.203,576.908C646.497,576.157 646.029,575.209 645.24,574.524L645.218,574.213L645.498,574.163C646.113,574.327 646.744,574.478 646.937,575.221L647.038,575.359C647.975,576.042 648.042,577.126 648.221,578.115C648.337,578.763 648.441,579.435 648.282,580.133C648.131,580.789 648.301,581.488 648.001,582.162C647.824,582.56 647.889,583.066 647.843,583.523C647.816,583.791 647.616,583.98 647.414,583.917C647.175,583.845 647.023,583.691 647.033,583.423C647.042,583.146 647.053,582.867 647.08,582.591C647.09,582.479 647.157,582.373 647.171,582.261C647.216,581.897 647.007,581.578 646.768,581.659C646.495,581.753 646.225,581.903 646.348,582.273C646.459,582.605 646.2,582.803 646.09,583.052C646.067,583.105 645.909,583.112 645.812,583.112L645.694,582.999C645.642,582.841 645.558,582.67 645.579,582.517C645.608,582.294 645.764,582.087 645.786,581.865C645.869,581.009 646.104,580.072 645.662,579.323C645.206,578.552 644.443,577.978 643.64,577.519C643.492,577.434 643.313,577.397 643.171,577.303C642.744,577.019 642.421,577.193 642.102,577.5C641.98,577.618 641.801,577.681 641.685,577.478C641.6,577.33 641.542,577.165 641.485,577.003L641.52,576.867C642.163,576.746 642.706,576.171 643.471,576.572C643.971,576.833 644.49,577.05 644.987,577.336C645.803,577.805 646.131,578.589 646.497,579.342C646.716,579.793 646.743,580.336 646.872,580.834C646.896,580.927 646.994,581 647.058,581.083C647.184,580.977 647.366,580.895 647.425,580.76C647.513,580.557 647.532,580.319 647.551,580.092C647.581,579.748 647.586,579.403 647.602,579.057L647.571,579.057Z" style="fill:rgb(86,88,61);fill-rule:nonzero;"/>
    </g>
    <g transform="matrix(1,0,0,1,-575.182,-505.651)">
        <path d="M585.772,537.833C584.187,538.141 582.504,536.462 582.17,535.351L582.254,535.057C582.828,534.778 583.261,534.353 583.629,533.842C583.647,533.818 583.825,533.894 583.917,533.944L583.996,534.086C583.852,535.47 584.901,535.762 585.866,536.114C586.076,536.192 586.348,536.123 586.539,536.223C586.958,536.442 587.315,536.32 587.665,536.107C587.86,535.988 588.021,535.819 588.206,535.685C588.361,535.571 588.536,535.664 588.558,535.848C588.625,536.406 588.515,536.867 587.949,537.133C587.23,537.47 586.58,538.013 585.772,537.833Z" style="fill:rgb(86,88,61);fill-rule:nonzero;"/>
    </g>
    <g transform="matrix(1,0,0,1,-575.182,-505.651)">
        <path d="M606.999,609.661C606.769,609.661 606.537,609.681 606.309,609.657C605.445,609.57 604.917,610.086 604.433,610.682C604.362,610.77 604.274,610.874 604.264,610.978C604.18,611.824 603.941,612.677 604.616,613.441C604.914,613.779 605.12,614.197 605.503,614.474C605.637,614.57 605.526,615.07 605.376,615.088C605.223,615.108 605.023,615.103 604.909,615.02C604.241,614.53 603.796,613.875 603.518,613.093C603.212,612.235 603.362,611.356 603.64,610.585C604.008,609.569 604.898,608.945 605.969,608.734C607.947,608.341 610.065,609.564 610.652,611.163C610.69,611.267 610.735,611.404 610.698,611.489C610.633,611.64 610.519,611.778 610.396,611.887L610.137,611.817C609.791,611.363 609.49,610.873 609.121,610.441C608.71,609.959 608.245,609.529 607.518,609.653C607.35,609.682 607.172,609.657 606.999,609.657L606.999,609.661Z" style="fill:rgb(86,88,61);fill-rule:nonzero;"/>
    </g>
    <g transform="matrix(1,0,0,1,-575.182,-505.651)">
        <path d="M622.936,519.094C622.995,519.479 622.497,520.108 622.721,520.805C622.735,520.848 622.489,521.009 622.345,521.05L622.084,520.856L621.992,520.543C622.439,519.567 621.82,518.65 621.85,517.699C621.392,516.842 621.045,515.933 620.47,515.129C619.666,514.006 618.793,512.969 617.651,512.176L617.581,511.898C617.7,511.802 617.852,511.744 617.997,511.691L618.159,511.741C619.444,512.032 620.181,512.997 620.841,514.006C621.185,514.532 621.548,515.051 621.868,515.583C622.452,516.558 622.852,517.632 622.936,519.094Z" style="fill:rgb(86,88,61);fill-rule:nonzero;"/>
    </g>
    <g transform="matrix(1,0,0,1,-575.182,-505.651)">
        <path d="M614.408,612.713C614.41,613.72 614.147,614.314 613.773,615.281C613.39,616.275 612.69,617.023 612.115,617.865C611.685,618.493 611.311,618.661 611.232,618.433C611.077,617.988 611.335,617.645 611.528,617.306C611.664,617.067 611.902,616.884 612.102,616.684C612.384,616.402 613.426,614.928 613.524,614.596C613.75,613.825 614.001,613.071 613.927,612.231C613.875,611.643 613.809,611.08 613.493,610.584C612.814,609.521 612.308,608.353 611.465,607.386C611.094,606.96 610.837,606.434 610.55,605.941L610.658,605.652L610.957,605.706C611.346,606.129 611.709,606.575 612.095,607C612.445,607.384 612.804,607.739 612.917,608.291C612.971,608.552 613.205,608.778 613.368,609.012C614.005,609.931 614.215,611.013 614.513,612.058C614.569,612.251 614.448,612.493 614.408,612.713Z" style="fill:rgb(86,88,61);fill-rule:nonzero;"/>
    </g>
    <g transform="matrix(1,0,0,1,-575.182,-505.651)">
        <path d="M585.796,527.779C586.635,527.938 587.501,528.012 588.305,528.276C589.183,528.565 589.816,529.268 590.444,529.93C590.518,530.008 590.576,530.13 590.585,530.237C590.649,530.921 590.77,531.612 590.489,532.277C590.45,532.367 590.331,532.47 590.238,532.483C590.011,532.515 589.995,532.326 589.981,532.161C589.972,532.047 589.97,531.932 589.968,531.818C589.966,531.645 589.972,531.472 589.966,531.3C589.926,530.156 589.299,529.527 588.159,529.15C587.201,528.832 586.248,528.83 585.277,528.826C584.99,528.825 584.702,528.824 584.417,528.792C584.327,528.781 584.175,528.668 584.176,528.605C584.18,528.449 584.218,528.264 584.313,528.151C584.414,528.03 584.592,527.926 584.747,527.909C585.087,527.874 585.435,527.899 585.779,527.899L585.796,527.779Z" style="fill:rgb(86,88,61);fill-rule:nonzero;"/>
    </g>
    <g transform="matrix(1,0,0,1,-575.182,-505.651)">
        <path d="M613.956,525.761C613.378,525.584 612.76,525.527 612.301,525.226C611.451,524.667 610.461,524.264 609.884,523.333C609.787,523.175 609.505,523.081 609.299,523.062C609.2,523.052 609.089,523.298 608.958,523.396L608.695,523.401C608.571,523.286 608.458,523.144 608.385,522.991C608.27,522.751 608.03,522.51 608.31,522.222C608.53,521.994 608.804,521.938 609.101,521.962C609.642,522.008 610.083,522.242 610.424,522.669C610.641,522.939 610.856,523.211 611.092,523.462C611.585,523.985 612.195,524.324 612.912,524.36C613.563,524.393 614.144,524.619 614.736,524.839C614.922,524.907 614.927,525.298 614.724,525.415C614.485,525.553 614.22,525.645 613.956,525.761Z" style="fill:rgb(86,88,61);fill-rule:nonzero;"/>
    </g>
    <g transform="matrix(1,0,0,1,-575.182,-505.651)">
        <path d="M607.302,606.996C607.121,607.073 606.997,607.177 606.925,607.15C604.919,606.373 604.329,606.237 603.008,606.227C601.422,606.214 599.956,606.506 598.843,607.772C598.786,607.837 598.635,607.828 598.526,607.84C598.395,607.855 598.324,607.576 598.417,607.405C598.528,607.205 598.599,606.954 598.764,606.818C599.555,606.156 600.346,605.488 601.484,605.529C602.401,605.563 603.32,605.529 604.236,605.554C605.232,605.581 606.137,605.931 606.974,606.445C607.132,606.542 607.191,606.801 607.302,606.996Z" style="fill:rgb(86,88,61);fill-rule:nonzero;"/>
    </g>
    <g transform="matrix(1,0,0,1,-575.182,-505.651)">
        <path d="M643.297,515.752C644.222,515.709 645.125,515.704 646.016,516.051C646.828,516.365 647.285,516.998 647.782,517.622L647.837,517.782C647.907,518.523 648.024,519.268 647.743,519.989C647.718,520.052 647.558,520.069 647.457,520.087L647.376,519.967C647.65,519.334 647.558,518.753 647.229,518.155C646.907,517.571 646.434,517.223 645.866,516.901C644.839,516.32 643.822,516.204 642.733,516.648C642.468,516.755 642.193,516.86 641.913,516.897C641.783,516.913 641.533,516.792 641.506,516.69C641.421,516.364 641.406,516.02 641.391,515.681L641.604,515.522C642.169,515.586 642.733,515.672 643.297,515.752Z" style="fill:rgb(86,88,61);fill-rule:nonzero;"/>
    </g>
    <g transform="matrix(1,0,0,1,-575.182,-505.651)">
        <path d="M641.322,521.334C641.605,521.36 641.635,521.627 641.764,521.798C642.206,522.385 642.587,523.014 643.278,523.384C643.595,523.555 643.892,523.666 644.243,523.661C644.472,523.658 644.704,523.641 644.931,523.665C645.599,523.736 646.176,523.585 646.629,523.053C646.738,522.924 646.883,522.815 647.034,522.738L647.338,522.77L647.443,523.067C647.252,523.568 646.881,523.99 646.427,524.18C645.656,524.5 644.85,524.925 643.962,524.472C643.814,524.396 643.635,524.373 643.467,524.344C642.121,524.109 641.478,523.135 641.017,521.987C640.96,521.846 641.003,521.646 641.054,521.489C641.078,521.416 641.229,521.384 641.322,521.334Z" style="fill:rgb(86,88,61);fill-rule:nonzero;"/>
    </g>
    <g transform="matrix(1,0,0,1,-575.182,-505.651)">
        <path d="M638.528,587.159C638.357,587.103 638.074,587.047 637.834,586.912C637.717,586.847 637.642,586.642 637.618,586.489C637.583,586.279 637.76,586.207 637.939,586.179C638.051,586.161 638.168,586.138 638.28,586.152C639.747,586.328 640.544,585.374 641.333,584.376C641.755,583.843 641.96,583.149 642.55,582.748C642.617,582.703 642.759,582.753 642.86,582.782L642.944,582.918L642.955,583.088C642.53,584.959 641.383,586.209 639.633,586.937C639.476,587.002 639.315,587.065 639.149,587.1C638.983,587.136 638.809,587.135 638.528,587.159Z" style="fill:rgb(86,88,61);fill-rule:nonzero;"/>
    </g>
    <g transform="matrix(1,0,0,1,-575.182,-505.651)">
        <path d="M640.265,581.592C640.267,581.821 640.288,582.053 640.265,582.28C640.192,583.023 639.904,583.285 639.18,583.331C638.365,583.382 637.581,583.31 636.871,582.849C636.631,582.693 636.38,582.536 636.113,582.447C635.263,582.165 634.984,581.366 634.523,580.735L634.675,580.455L634.97,580.361C635.349,580.506 635.623,580.756 635.879,581.097C636.415,581.813 637.263,582.078 638.081,582.308C638.936,582.549 639.632,582.114 640.275,581.601L640.265,581.592Z" style="fill:rgb(86,88,61);fill-rule:nonzero;"/>
    </g>
    <g transform="matrix(1,0,0,1,-575.182,-505.651)">
        <path d="M578.588,527.599C578.501,526.622 578.861,526.017 579.223,525.44C579.71,524.663 580.282,523.948 581.214,523.65C581.374,523.598 581.556,523.539 581.668,523.425C582.293,522.79 582.911,523.013 583.523,523.424L583.611,523.715L583.382,523.915C583.16,523.961 582.926,523.994 582.7,523.981C581.804,523.927 581.144,524.437 580.647,525.035C580.238,525.529 579.594,525.83 579.348,526.362C579.101,526.899 579.194,527.591 579.131,528.215L579.041,528.346C578.943,528.297 578.798,528.256 578.765,528.173C578.661,527.914 578.599,527.639 578.588,527.599Z" style="fill:rgb(86,88,61);fill-rule:nonzero;"/>
    </g>
    <g transform="matrix(1,0,0,1,-575.182,-505.651)">
        <path d="M648.597,511.868C648.247,511.677 647.861,511.53 647.555,511.284C646.729,510.619 645.859,510.702 644.983,511.088C644.469,511.315 643.947,511.529 643.574,512.024C643.346,512.326 642.939,512.494 642.608,512.716L642.486,512.67L642.458,512.516C642.532,512.365 642.598,512.201 642.709,512.081C643.138,511.62 643.577,511.166 644.025,510.725C644.309,510.445 644.588,510.136 645.038,510.14C645.641,510.146 646.225,509.667 646.854,510.091C647.034,510.212 647.289,510.215 647.503,510.292C648.525,510.657 648.524,510.659 648.595,511.87L648.597,511.868Z" style="fill:rgb(86,88,61);fill-rule:nonzero;"/>
    </g>
    <g transform="matrix(1,0,0,1,-575.182,-505.651)">
        <path d="M588.986,522.568C588.716,522.647 588.394,522.776 588.06,522.82C587.956,522.834 587.796,522.635 587.713,522.501L587.813,522.213C588.173,522.051 588.549,521.805 588.919,521.807C589.474,521.809 590.057,521.918 590.573,522.123C590.994,522.289 591.278,522.703 591.438,523.161C591.628,523.701 591.86,524.229 592.015,524.778C592.109,525.108 592.093,525.473 591.835,525.757C591.764,525.836 591.649,525.878 591.546,525.922L591.453,525.801C591.37,525.06 591.29,524.318 590.745,523.735C590.576,522.77 589.814,522.684 588.986,522.568Z" style="fill:rgb(86,88,61);fill-rule:nonzero;"/>
    </g>
    <g transform="matrix(1,0,0,1,-575.182,-505.651)">
        <path d="M609.336,615.395C609.351,615.928 609.004,616.233 608.604,616.472C608.481,616.545 608.263,616.53 608.116,616.479C607.385,616.222 606.849,615.704 606.414,615.089C606.272,614.89 606.362,614.651 606.557,614.479C606.745,614.314 606.95,614.233 607.162,614.409C607.291,614.518 607.365,614.694 607.497,614.795C607.919,615.115 608.345,615.368 608.905,615.026C609.101,614.904 609.358,615.16 609.336,615.395Z" style="fill:rgb(86,88,61);fill-rule:nonzero;"/>
    </g>
    <g transform="matrix(1,0,0,1,-575.182,-505.651)">
        <path d="M608.657,612.462C608.639,612.573 608.637,612.745 608.579,612.894L608.331,613.031L608.114,612.847C608.094,612.576 608.102,612.302 608.134,612.032L608.381,611.899L608.607,612.082C608.653,612.176 608.639,612.299 608.657,612.462Z" style="fill:rgb(86,88,61);fill-rule:nonzero;"/>
    </g>
    <g transform="matrix(1,0,0,1,-575.182,-505.651)">
        <path d="M660.742,515.335C660.403,515.215 660.405,514.925 660.395,514.641L660.385,514.65C660.725,514.769 660.723,515.059 660.733,515.343L660.742,515.335Z" style="fill:rgb(86,88,61);fill-rule:nonzero;"/>
    </g>
    <g transform="matrix(1,0,0,1,-575.182,-505.651)">
        <path d="M660.395,514.641L660.158,514.438C660.122,514.359 660.169,514.242 660.18,514.143L660.353,514.321C660.388,514.422 660.376,514.539 660.385,514.65L660.395,514.641Z" style="fill:rgb(86,88,61);fill-rule:nonzero;"/>
    </g>
    <g transform="matrix(1,0,0,1,-575.182,-505.651)">
        <path d="M638.194,515.344L638.386,515.163L638.341,515.28L638.184,515.334L638.194,515.344Z" style="fill:rgb(86,88,61);fill-rule:nonzero;"/>
    </g>
    <g transform="matrix(1,0,0,1,-575.182,-505.651)">
        <path d="M605.933,516.036L606.098,515.854L606.064,515.968L605.923,516.027L605.933,516.036Z" style="fill:rgb(86,88,61);fill-rule:nonzero;"/>
    </g>
    <g transform="matrix(1,0,0,1,-575.182,-505.651)">
        <path d="M605.581,516.38C605.699,516.266 605.816,516.152 605.933,516.036L605.923,516.027C605.809,516.144 605.695,516.261 605.58,516.378L605.581,516.38Z" style="fill:rgb(86,88,61);fill-rule:nonzero;"/>
    </g>
    <g transform="matrix(1,0,0,1,-575.182,-505.651)">
        <path d="M640.618,581.249C640.5,581.363 640.383,581.478 640.266,581.592L640.275,581.601C640.389,581.484 640.503,581.365 640.617,581.248L640.618,581.249Z" style="fill:rgb(86,88,61);fill-rule:nonzero;"/>
    </g>
</svg>
