<?xml version="1.0" encoding="UTF-8" standalone="no"?>
<!DOCTYPE svg PUBLIC "-//W3C//DTD SVG 1.1//EN" "http://www.w3.org/Graphics/SVG/1.1/DTD/svg11.dtd">
<svg width="100%" height="100%" viewBox="0 0 95 94" version="1.1" xmlns="http://www.w3.org/2000/svg" xmlns:xlink="http://www.w3.org/1999/xlink" xml:space="preserve" xmlns:serif="http://www.serif.com/" style="fill-rule:evenodd;clip-rule:evenodd;stroke-linejoin:round;stroke-miterlimit:2;">
    <g transform="matrix(1,0,0,1,-718.551,-0.190633)">
        <path d="M795.167,52.961C795.271,53.216 795.533,53.403 795.691,53.642C796.136,54.311 796.614,54.966 796.989,55.674C797.397,56.444 797.822,57.187 798.445,57.805C798.607,57.965 798.78,58.139 798.875,58.34C799.567,59.797 800.459,61.168 800.89,62.734C801.222,63.939 801.931,64.89 802.682,65.837C803.11,66.377 803.543,66.916 803.92,67.491C804.067,67.714 804.118,68.035 804.11,68.308C804.104,68.511 803.978,68.763 803.823,68.897C803.565,69.119 803.259,69.317 802.941,69.43C801.544,69.929 800.282,70.698 798.957,71.342C798.656,71.49 798.307,71.536 797.988,71.653C796.509,72.194 794.985,72.392 793.417,72.298C793.187,72.284 792.955,72.296 792.724,72.296L792.724,72.298C792.32,72.298 791.913,72.269 791.511,72.304C790.285,72.41 789.124,72.038 787.94,71.845C787.659,71.799 787.382,71.651 787.107,71.659C785.725,71.704 784.548,71.124 783.382,70.498C783.231,70.417 783.08,70.309 782.917,70.284C782.352,70.198 782.007,69.824 781.68,69.409C781.325,68.959 780.967,68.51 780.601,68.068C779.655,66.923 778.668,65.805 778.039,64.436C777.993,64.333 777.964,64.198 777.882,64.138C776.791,63.336 776.249,62.081 775.37,61.106C775.178,60.894 774.921,60.657 775.108,60.368C775.21,60.208 775.505,60.179 775.701,60.069L775.898,59.837C775.942,59.604 775.748,59.562 775.58,59.537C775.41,59.511 775.235,59.502 775.062,59.502C774.598,59.502 774.324,59.312 774.209,58.829C774.148,58.566 773.923,58.343 773.798,58.089L773.827,57.798C773.95,57.683 774.133,57.633 774.259,57.519C775.068,56.784 775.919,56.081 776.305,54.999C776.343,54.892 776.401,54.789 776.462,54.694C776.814,54.151 777.567,54.1 777.925,54.626C778.28,55.147 778.581,55.704 778.907,56.244L778.942,56.309C779.16,56.201 779.458,56.185 779.644,56.272C779.757,56.324 779.871,56.379 779.984,56.432C779.83,56.134 779.663,55.841 779.462,55.564C778.794,54.643 780.42,54.228 781.024,54.66C781.888,55.28 782.583,56.044 783.202,56.873C783.324,56.826 783.458,56.796 783.596,56.779L783.546,56.737C783.042,56.382 782.616,55.862 782.286,55.334C782.001,54.877 781.607,54.555 781.268,54.169C780.788,53.622 780.247,53.275 779.47,53.473C779.287,53.52 779.074,53.156 779.159,52.965C779.249,52.759 779.328,52.521 779.485,52.376C779.878,52.013 780.155,51.579 780.352,51.097C780.747,50.13 780.184,49.189 779.155,49.07C778.983,49.051 778.807,49.043 778.635,49.058C777.968,49.114 777.551,48.815 777.285,48.211C777.172,47.955 776.914,47.765 776.789,47.512C776.737,47.404 776.809,47.143 776.911,47.069C777.287,46.796 777.709,46.604 778.195,46.636C779.28,46.708 780.382,46.449 781.455,46.856C781.692,46.946 782.008,46.799 782.286,46.816C783.033,46.86 783.792,46.863 784.519,47.015C785.185,47.153 785.811,47.479 786.463,47.695C786.84,47.82 787.233,47.96 787.623,47.974C788.278,47.997 788.868,48.164 789.437,48.471C789.635,48.577 789.874,48.679 790.089,48.668C791.182,48.611 791.934,49.282 792.643,49.927C793.616,50.814 794.649,51.676 795.167,52.961ZM773.917,65.635C773.887,65.861 773.859,66.093 773.784,66.305C773.493,67.12 773.214,67.933 773.247,68.818C773.252,68.986 773.22,69.172 773.15,69.322C772.49,70.737 772.193,72.259 771.795,73.754C771.441,75.089 770.86,76.34 770.123,77.511C769.972,77.752 769.791,77.984 769.586,78.18C768.795,78.935 767.971,79.657 767.194,80.425C766.629,80.982 766.044,81.512 765.571,82.172C764.875,83.139 764.009,83.974 763.169,84.823C762.931,85.065 762.712,85.337 762.535,85.627C761.456,87.391 760.276,89.103 759.645,91.107C759.482,91.625 759.13,91.683 758.746,91.337C757.991,90.659 757.664,89.715 757.318,88.834C756.856,87.657 756.394,86.484 755.839,85.348C755.763,85.193 755.639,85.047 755.611,84.884C755.511,84.315 755.394,83.783 755.014,83.295C754.671,82.856 754.905,82.137 754.395,81.726L754.314,81.576C754.242,79.743 753.382,78.062 753.374,76.194C753.371,75.016 753.028,73.822 752.71,72.67C752.497,71.894 752.52,71.114 752.439,70.34C752.361,69.597 752.418,68.84 752.424,68.089C752.426,67.858 752.381,67.592 752.478,67.404C752.782,66.809 752.713,66.172 752.797,65.549C752.88,64.93 753.207,64.348 753.085,63.691C753.066,63.583 753.081,63.454 753.121,63.351C753.439,62.552 753.695,61.718 754.106,60.969C755.048,59.255 756.137,57.63 757.347,56.09C757.534,55.851 757.753,55.714 758.089,55.866C758.292,55.958 758.536,55.958 758.76,56.005C759.302,56.117 759.477,56.373 759.317,56.832C759.185,57.211 759.073,57.602 758.893,57.958C758.525,58.69 758.247,59.429 758.293,60.271C758.306,60.486 758.185,60.712 758.109,60.927C757.819,61.744 757.572,62.569 757.615,63.452C757.623,63.624 757.642,63.819 757.575,63.966C756.868,65.502 756.929,67.217 756.428,68.801C756.125,69.756 756.254,70.745 756.347,71.717C756.365,71.898 756.609,72.072 756.779,72.213C756.833,72.258 756.988,72.197 757.089,72.163L757.173,72.029C757.14,71.865 757.068,71.708 757.044,71.542C756.997,71.207 756.835,70.802 756.962,70.545C757.345,69.769 757.235,68.957 757.248,68.165C757.26,67.457 757.406,66.793 757.625,66.142C757.74,65.805 757.77,65.376 758.203,65.223C758.248,65.558 758.319,65.892 758.333,66.229C758.352,66.69 758.349,67.153 758.318,67.613C758.261,68.453 758.607,69.178 758.925,69.914L759.059,70.001L759.283,69.852C759.296,68.987 759.292,68.122 759.292,67.257L759.35,67.257C759.35,66.622 759.353,65.987 759.349,65.352C759.346,64.773 759.413,64.225 759.643,63.669C759.859,63.15 759.9,62.558 760.012,61.997C760.046,61.828 760.044,61.65 760.089,61.485C760.307,60.691 760.618,60.471 761.47,60.488C761.899,60.497 762.158,60.715 762.152,61.098C762.145,61.501 762.2,61.939 762.065,62.3C761.679,63.334 761.409,64.381 761.368,65.484C761.009,66.063 761.113,66.709 761.081,67.339C761.06,67.737 760.948,68.131 760.935,68.528C760.929,68.739 761.013,68.975 761.123,69.16C761.191,69.274 761.379,69.334 761.525,69.372C761.561,69.382 761.691,69.214 761.698,69.122C761.735,68.662 761.779,68.199 761.757,67.739C761.683,66.107 762.265,64.585 762.518,63.008C763.152,62.302 763.248,61.373 763.547,60.528C763.635,60.279 763.838,60.141 764.066,60.143C764.567,60.149 764.937,59.914 765.313,59.629C765.576,59.43 765.856,59.539 765.942,59.915C766.17,60.913 766.964,61.119 767.766,61.173C769.052,61.26 770.118,60.733 770.861,59.666C771.732,58.415 772.497,58.402 773.252,59.866C773.358,60.07 773.517,60.285 773.521,60.497C773.553,62.218 774.148,63.896 773.917,65.635ZM754.323,55.583C753.657,53.78 753.377,53.956 755.02,52.832C755.37,52.592 755.756,52.541 756.11,52.37C756.25,52.302 756.368,52.151 756.45,52.011L756.423,51.7L756.133,51.595C755.93,51.687 755.762,51.859 755.557,51.943C755.301,52.049 755.027,52.129 754.752,52.166C754.445,52.208 754.152,51.96 754.158,51.694C754.163,51.449 754.274,51.262 754.524,51.185C755.064,51.018 755.604,50.851 756.185,50.672C756.617,50.845 757.045,50.992 757.449,51.189C757.711,51.316 757.894,51.522 757.784,51.874C757.631,52.362 757.489,52.855 757.381,53.354C757.244,53.994 757.027,54.496 756.335,54.786C755.891,54.973 755.575,55.459 755.188,55.797C754.92,56.032 754.453,55.934 754.323,55.583ZM752.784,47.678C751.559,47.349 750.28,47.347 749.072,46.986C747.971,46.657 746.872,46.31 745.811,45.873C745.237,45.636 744.751,45.188 744.075,45.195C743.972,45.196 743.851,45.121 743.769,45.047C742.416,43.816 740.873,42.815 739.776,41.273C739.052,40.256 738.261,39.259 737.393,38.329C736.339,37.197 735.528,35.857 734.885,34.436C734.601,33.806 734.703,33.091 734.417,32.432C734.15,31.817 734.155,31.088 733.997,30.42C733.904,30.026 733.81,29.66 733.994,29.264C734.06,29.119 734.078,28.892 734.01,28.756C733.707,28.141 733.908,27.565 733.993,26.942C734.094,26.195 734.264,25.506 734.499,24.786C734.963,23.367 735.233,21.867 734.988,20.367C734.86,19.591 734.458,18.87 734.019,18.194C733.489,17.379 732.98,16.549 732.465,15.723C732.286,15.434 732.371,15.183 732.588,14.947C732.914,14.595 733.266,14.333 733.787,14.369C734.19,14.397 734.596,14.374 735.203,14.374C736.206,14.34 737.364,14.487 738.493,14.985C740.016,15.656 741.584,16.226 743.133,16.84C744.165,17.675 745.478,18.038 746.501,18.925C747.183,19.515 748.046,19.898 748.769,20.48C749.887,21.382 750.938,22.346 751.911,23.4C752.067,23.569 752.255,23.731 752.347,23.934C753.016,25.412 754.313,26.494 754.911,28.015C755.871,28.831 756.028,30.13 756.757,31.097C757.091,31.538 757.191,32.152 757.415,32.68C757.749,33.466 758.072,34.26 758.456,35.022C758.706,35.517 758.697,36.019 758.701,36.538C758.704,36.98 758.52,37.297 758.166,37.561C757.573,38.005 757.025,38.499 756.669,39.17C756.396,39.687 756.165,40.187 756.412,40.81C756.531,41.109 756.036,41.48 755.741,41.345C755.426,41.202 755.098,41.064 754.827,40.858C753.039,39.503 751.343,38.051 749.956,36.269C749.713,35.956 749.425,35.677 749.153,35.387L749.038,35.455L748.982,35.608C748.982,35.722 748.968,35.851 749.015,35.947C749.437,36.828 749.949,37.621 750.667,38.328C751.442,39.09 752.14,39.915 753.052,40.538C753.365,40.751 753.576,41.134 753.78,41.472C753.842,41.576 753.778,41.832 753.682,41.936C753.598,42.027 753.306,42.082 753.248,42.02C752.794,41.535 752.091,41.507 751.61,41.108C750.637,40.299 749.693,39.458 748.736,38.631C747.952,37.952 747.356,37.072 746.452,36.52C746.047,36.272 746.277,35.749 746.041,35.429C745.959,35.317 745.748,35.229 745.611,35.247C745.473,35.264 745.329,35.408 745.236,35.533C745.178,35.61 745.175,35.767 745.21,35.866C745.306,36.135 745.363,36.497 745.563,36.635C746.064,36.979 746.277,37.532 746.672,37.945C747.27,38.568 747.843,39.215 748.426,39.852C749.365,40.021 749.604,41.04 750.389,41.446C751.088,41.808 751.668,42.407 752.276,42.931C752.482,43.11 752.693,43.353 752.764,43.606C752.985,44.396 753.524,44.855 754.203,45.235C754.689,45.507 755.145,45.637 755.668,45.358C755.985,45.188 756.224,45.352 756.392,45.614C756.604,45.945 756.599,46.346 756.408,46.587C756.114,46.955 754.917,47.681 754.511,47.696C753.934,47.718 753.323,47.822 752.784,47.678ZM759.075,39.094C759.279,39.506 759.449,39.921 759.415,40.193C759.391,40.564 759.384,40.734 759.369,40.902C759.339,41.232 759.059,41.435 758.791,41.31C758.432,41.143 758.075,40.969 757.724,40.783C757.3,40.556 757.136,40.077 757.325,39.629C757.483,39.25 757.748,38.968 758.109,38.765C758.485,38.554 758.872,38.687 759.075,39.094ZM760.232,57.168C760.38,57.016 760.764,57.051 761.033,57.079C761.158,57.091 761.352,57.279 761.365,57.403C761.433,58.033 761.525,58.651 761.778,59.237L761.759,59.402C761.765,59.574 761.453,59.812 761.259,59.789C760.498,59.702 760.001,59.294 759.778,58.563C759.605,57.997 759.876,57.532 760.232,57.168ZM759.086,54.415C759.215,54.319 759.396,54.295 759.52,54.251C759.795,54.296 759.997,54.37 760.042,54.645C760.094,54.956 759.911,55.242 759.619,55.254C759.456,55.261 759.272,55.239 759.135,55.163C758.997,55.087 758.83,54.933 758.819,54.801C758.808,54.678 758.962,54.507 759.086,54.415ZM761.208,50.676L761.474,50.553C761.684,50.567 761.731,50.746 761.683,50.906C761.663,50.974 761.506,51.001 761.348,51.076C761.295,50.94 761.225,50.811 761.208,50.676ZM759.167,47.561C759.143,47.442 759.269,47.232 759.386,47.151C759.818,46.853 760.412,46.882 760.628,47.174C760.864,47.492 760.773,47.975 760.4,48.378C760.248,48.542 760.095,48.705 759.934,48.861L759.79,48.885L759.529,48.683C759.386,48.317 759.248,47.944 759.167,47.561ZM758.636,52.328C758.775,51.926 758.97,51.793 759.69,51.819C760.058,51.892 760.715,51.997 761.357,52.16C761.701,52.247 761.779,52.486 761.665,52.815C761.234,54.069 761.234,54.067 759.853,53.66C759.691,53.613 759.519,53.602 759.354,53.565C758.379,53.343 758.32,53.239 758.636,52.328ZM755.8,44.552C755.635,44.583 755.46,44.556 755.318,44.556C755.176,44.544 755.062,44.54 754.951,44.523C754.4,44.437 754.067,44.005 754.14,43.422C754.167,43.206 754.258,42.985 754.37,42.796C754.578,42.442 755.073,42.35 755.405,42.606C755.619,42.771 755.713,43.067 756.046,43.109C756.357,43.149 756.876,43.078 756.809,43.544C756.737,44.044 756.36,44.445 755.8,44.552ZM756.762,48.722C756.925,48.569 757.104,48.423 757.302,48.323C757.591,48.176 757.875,47.906 758.239,48.156C758.623,48.422 758.95,48.73 758.985,49.236L758.949,49.402L758.875,49.546C758.408,49.716 757.946,49.923 757.462,50.021C757.198,50.075 756.632,49.328 756.647,49.026C756.652,48.921 756.69,48.789 756.762,48.722ZM760.898,43.743C761.247,44.332 761.722,44.845 761.811,45.563C761.848,45.856 761.698,46.194 761.446,46.26C760.842,46.419 760.233,46.557 759.667,46.693C758.874,46.51 758.152,46.353 757.435,46.174C757.162,46.106 757.048,45.823 757.129,45.506C757.286,44.899 757.426,44.288 757.613,43.691C757.675,43.492 757.822,43.265 757.995,43.165C758.386,42.941 758.819,42.788 759.235,42.606C759.838,42.91 760.506,43.08 760.898,43.743ZM762.01,38.739C762.146,38.643 762.44,38.881 762.468,39.093C762.473,39.324 762.436,39.531 762.162,39.583C761.951,39.622 761.873,39.471 761.815,39.313C761.726,39.071 761.819,38.874 762.01,38.739ZM762.577,31.91C762.542,31.279 762.508,30.648 762.49,30.017C762.485,29.848 762.475,29.627 762.57,29.515C763.405,28.52 763.116,27.039 764.058,26.097C764.358,24.909 764.997,23.868 765.556,22.803C766.383,21.229 767.316,19.711 768.207,18.171C768.378,17.875 768.59,17.619 768.828,17.362C769.251,16.905 769.617,16.367 769.896,15.808C770.872,13.845 772.155,12.094 773.526,10.402C775.401,8.087 777.391,5.874 779.473,3.742C779.634,3.577 779.862,3.436 779.939,3.237C780.307,2.297 781.17,1.908 781.917,1.388C782.076,1.278 782.416,1.423 782.471,1.627C782.53,1.844 782.582,2.068 782.601,2.292C782.684,3.261 782.456,4.258 782.867,5.197C782.514,5.991 782.974,6.756 782.95,7.543C782.925,8.342 782.997,9.12 783.211,9.921C783.43,10.734 783.307,11.639 783.331,12.504C783.346,13.077 783.388,13.634 783.519,14.208C783.682,14.924 783.611,15.695 783.635,16.443C783.643,16.673 783.636,16.904 783.636,17.135C783.636,17.655 783.625,18.174 783.639,18.694C783.669,19.91 783.299,21.07 783.156,22.262C783.108,22.656 782.967,23.044 782.952,23.438C782.918,24.254 782.653,25.016 782.427,25.779C782.151,26.712 781.757,27.609 781.429,28.527C781.177,29.23 780.86,29.892 780.511,30.557C779.951,31.625 779.408,32.684 778.584,33.577C778.238,34.768 777.267,35.568 776.676,36.608C776.509,36.901 776.256,37.152 776.012,37.393C775.726,37.675 775.411,37.678 775.09,37.424C774.957,37.32 774.873,37.092 774.738,37.064C773.858,36.882 773.478,36.352 773.492,35.471C773.494,35.337 773.329,35.126 773.195,35.078C772.941,34.989 772.656,34.989 772.382,34.961L772.229,35.02C771.822,35.329 771.41,35.835 770.904,35.674C770.531,35.554 770.295,35.027 769.977,34.702C769.48,34.195 768.892,34.096 768.248,34.391C767.934,34.535 767.611,34.671 767.321,34.856C766.746,35.223 766.178,35.35 765.531,35.026C765.359,34.94 765.081,34.966 764.889,35.038C764.412,35.216 763.894,35.273 763.492,35.678C763.202,35.97 762.642,35.707 762.555,35.306C762.519,35.138 762.477,34.963 762.49,34.796C762.552,33.998 762.31,33.185 762.627,32.396C762.681,32.262 762.586,32.074 762.577,31.91ZM769.024,36.325C768.768,37.069 768.473,37.8 768.17,38.528L767.865,38.546C767.692,38.407 767.458,38.242 767.424,38.056C767.344,37.613 767.327,37.15 767.356,36.699C767.388,36.21 768.036,35.697 768.571,35.67C768.662,35.735 768.782,35.783 768.838,35.871C768.927,36.009 769.065,36.207 769.024,36.325ZM775.868,41.825C775.982,42.147 775.901,42.376 775.715,42.612L775.6,42.74C775.254,43.011 775.012,43.634 774.508,43.421C773.929,43.175 773.461,42.694 773.555,41.934C773.576,41.767 773.577,41.598 773.586,41.429C773.789,41.348 774.037,41.312 774.178,41.17C774.699,40.644 775.177,40.077 775.687,39.54L775.985,39.546C776.068,39.658 776.164,39.91 776.124,39.943C775.443,40.496 775.636,41.17 775.868,41.825ZM771.147,37.349C771.281,36.852 771.487,36.369 771.912,36.052C772.072,35.933 772.368,35.848 772.533,35.915C772.772,36.014 772.953,36.261 773.149,36.455L773.141,36.621L773.069,36.767C772.628,37.125 772.194,37.491 771.732,37.82C771.63,37.891 771.378,37.88 771.288,37.801C771.183,37.711 771.111,37.484 771.147,37.349ZM770.567,39.393C771.502,38.368 772.789,38.043 774.022,37.609C774.186,37.551 774.528,37.77 774.561,37.938C774.697,38.626 774.735,39.293 774.274,39.904C773.933,40.357 773.611,40.831 773.571,41.428C773.393,41.554 773.218,41.684 773.037,41.803C772.897,41.894 772.709,42.073 772.608,42.037C771.8,41.745 771.361,42.258 770.863,42.729C770.769,42.818 770.435,42.721 770.254,42.629C770.123,42.562 770.072,42.352 769.968,42.218C769.624,41.776 769.621,41.785 768.72,41.589C768.447,41.529 768.181,41.429 767.921,41.322L767.93,41.053C768.163,40.766 768.495,40.698 768.847,40.687C769.287,40.673 769.606,40.478 769.755,40.046C769.537,40.099 769.321,40.174 769.099,40.198C768.954,40.214 768.771,40.198 768.657,40.121C768.455,39.985 768.397,39.753 768.475,39.517C768.529,39.357 768.595,39.191 768.695,39.056C769.242,38.314 769.565,37.478 769.781,36.591L769.992,36.408C770.125,36.499 770.243,36.618 770.353,36.738L770.381,36.896C769.927,37.67 770.367,38.599 769.941,39.382C769.837,39.573 769.825,39.813 769.771,40.03C770.039,39.819 770.341,39.641 770.567,39.393ZM769.858,54.169C769.996,53.88 770.245,53.632 770.488,53.409C770.584,53.322 770.784,53.347 770.936,53.321L770.956,53.612C770.861,53.932 770.779,54.256 770.669,54.569C770.603,54.759 770.214,54.882 770.108,54.735C769.986,54.564 769.798,54.293 769.858,54.169ZM768.433,56.789C768.315,56.557 768.428,56.173 768.661,56.034C769.224,55.699 769.38,55.658 770.286,55.651C770.367,55.66 770.599,55.67 770.822,55.723C770.92,55.746 771.071,55.85 771.076,55.925C771.108,56.437 771.171,56.962 771.083,57.457C771.051,57.643 770.649,57.882 770.407,57.892C769.548,57.927 768.844,57.599 768.433,56.789ZM766.698,58.958C766.831,58.643 767.001,58.341 767.185,58.051C767.383,57.737 767.726,57.697 768.082,57.914L768.226,58.009C768.717,58.382 769.145,58.863 769.856,58.821C770.042,58.81 770.149,59.278 769.989,59.392C769.478,59.755 768.963,60.114 768.431,60.443C768.299,60.524 768.093,60.484 767.966,60.496C767.375,60.458 766.818,60.01 766.675,59.458C766.634,59.302 766.635,59.103 766.698,58.958ZM762.427,56.078C762.517,55.938 762.608,55.741 762.742,55.695C763.711,55.361 764.604,54.881 765.465,54.333C765.556,54.275 765.685,54.277 765.872,54.235C766.021,54.299 766.241,54.369 766.433,54.483C767.272,54.976 767.518,55.677 767.083,56.509C766.795,57.063 766.429,57.579 766.063,58.087C765.757,58.512 765.371,58.496 764.921,58.091C764.447,57.664 764.362,57.655 763.936,58.019C763.765,58.165 763.618,58.343 763.435,58.471C762.825,58.898 762.673,58.8 762.398,58.051C762.148,57.373 762.011,56.729 762.427,56.078ZM764.283,50.062C764.041,50.204 763.789,50.343 763.523,50.425C762.845,50.633 762.449,50.317 762.44,49.45C762.462,49.369 762.499,49.148 762.586,48.947L762.856,48.804C763.465,48.961 764.014,49.229 764.357,49.791L764.283,50.062ZM766.271,49.511C766.247,49.137 766.383,48.837 766.586,48.805L766.75,48.79C767.035,49.054 767.319,49.319 767.578,49.607L767.532,49.914C767.386,50.127 766.907,50.196 766.588,50.059C766.355,49.959 766.286,49.746 766.271,49.511ZM766.409,51.222C766.528,51.313 766.568,51.507 766.629,51.629C766.497,52.104 766.386,52.544 766.247,52.976C766.217,53.069 766.106,53.159 766.01,53.206C765.499,53.452 764.99,53.703 764.462,53.908C764.344,53.954 764.107,53.865 764.017,53.759C763.938,53.666 763.943,53.445 763.994,53.312C764.05,53.162 764.196,53.043 764.309,52.916C764.529,52.67 764.533,52.415 764.365,52.141C764.234,51.927 764.228,51.715 764.42,51.53C764.622,51.337 764.807,51.114 765.04,50.97C765.216,50.862 765.473,50.782 765.662,50.826C765.929,50.889 766.186,51.052 766.409,51.222ZM765.943,36.483C765.518,37.546 765.095,38.611 764.273,39.45C764.111,39.615 763.781,39.558 763.699,39.331C763.509,38.8 763.345,38.259 763.17,37.722C763.503,37.193 763.802,36.638 764.18,36.142C764.485,35.742 765.332,35.712 765.763,36.029C765.845,36.089 765.874,36.218 765.928,36.316L765.943,36.483ZM765.556,45.905C765.456,46.336 765.303,46.746 764.845,46.952C764.669,47.031 764.355,46.888 764.277,46.694C764.16,46.402 764.224,46.14 764.43,45.909C764.678,45.631 764.98,45.503 765.341,45.635C765.426,45.666 765.475,45.798 765.556,45.905ZM765.282,43.783C765.06,43.821 764.985,43.669 764.93,43.507C764.846,43.26 764.949,43.059 765.143,42.92C765.289,42.816 765.571,43.052 765.599,43.286C765.632,43.551 765.506,43.744 765.282,43.783ZM767.028,40.556C767.08,41.301 766.59,41.617 765.83,41.694C765.562,41.72 765.26,41.706 765.021,41.602C764.849,41.528 764.621,41.249 764.648,41.105C764.839,40.086 765.273,39.153 765.824,38.278C765.954,38.07 766.192,37.944 766.411,38.045C766.602,38.133 766.83,38.323 766.875,38.509C766.984,38.948 766.993,39.412 767.026,39.711C767.026,40.097 767.012,40.327 767.028,40.556ZM761.823,41.167C761.756,40.916 762.184,40.632 762.427,40.759C762.667,40.885 762.966,41.048 763.062,41.27C763.264,41.736 763.382,42.229 763.748,42.618C763.829,42.704 763.811,42.954 763.749,43.087C763.56,43.501 763.334,43.899 763.107,44.294C763.055,44.383 762.942,44.444 762.848,44.504C762.45,44.758 761.842,44.477 761.809,44.017C761.792,43.791 761.806,43.562 761.806,43.634C761.743,42.612 762.017,41.9 761.823,41.167ZM772.687,50.015C772.948,50.477 772.73,50.767 772.424,51.07C771.954,51.536 771.38,51.789 770.736,51.854C770.305,51.898 770.145,52.127 770.106,52.519C770.089,52.687 770.085,52.932 769.981,53.003C769.474,53.345 769.468,53.842 769.43,54.37C769.393,54.9 768.836,55.116 768.412,54.786C768.14,54.576 767.891,54.333 767.655,54.083C767.241,53.646 767.176,53.325 767.542,52.867C767.845,52.488 768.067,52.126 768.036,51.628C768.016,51.31 768.231,51.108 768.44,50.902C768.81,50.539 769.183,50.177 769.529,49.791C769.828,49.456 769.817,49.039 769.675,48.65C769.631,48.529 769.407,48.415 769.26,48.409C769.121,48.403 768.906,48.51 768.849,48.628C768.753,48.826 768.785,49.082 768.707,49.294C768.657,49.431 768.531,49.582 768.4,49.639C768.182,49.735 768.104,49.536 768.063,49.369C768.021,49.202 767.999,49.028 767.989,48.856C767.962,48.4 767.647,48.141 767.331,47.889C767.08,47.687 766.589,47.665 766.354,47.845C766.126,48.02 765.925,48.229 765.707,48.416C765.452,48.634 765.252,49.058 764.886,48.963C764.458,48.852 764.062,48.588 763.682,48.342C763.57,48.27 763.541,48.04 763.511,47.875C763.471,47.663 763.721,47.374 763.9,47.409C764.067,47.441 764.229,47.494 764.545,47.579C765.237,47.706 765.878,47.342 766.249,46.469C766.452,45.994 766.645,45.518 766.61,44.975C766.587,44.633 766.61,44.279 766.677,43.943C766.719,43.734 766.838,43.495 767,43.361C767.486,42.961 768.008,42.604 768.519,42.234C768.68,42.117 769.025,42.175 769.133,42.357C769.337,42.7 769.555,43.044 769.691,43.415C769.761,43.607 769.709,43.873 769.64,44.081C769.432,44.701 769.041,45.192 768.487,45.547C768.391,45.609 768.274,45.663 768.219,45.753C768.168,45.836 768.176,45.963 768.185,46.069L768.309,46.18C768.976,46.336 769.428,46.245 769.663,45.757C770.012,45.026 770.52,44.623 771.308,44.384C771.753,44.249 772.082,43.727 772.466,43.383C772.784,43.098 773.05,43.111 773.352,43.451C773.541,43.664 773.748,43.883 773.862,44.138C774.109,44.695 773.827,45.413 773.247,45.531C772.543,45.675 772,46.11 771.368,46.374C770.852,46.59 770.771,47.023 770.82,47.519C770.854,47.861 771.058,47.989 771.414,47.878C772.352,47.582 773.278,47.265 773.929,46.461L774.07,46.363C774.33,46.288 774.59,46.175 774.854,46.168C775.054,46.162 774.968,46.777 774.703,47.07C774.088,47.749 773.493,48.445 772.846,49.092C772.544,49.395 772.509,49.698 772.687,50.015ZM774.28,54.758C774.287,55.15 774.09,55.429 773.747,55.566C773.635,55.61 773.344,55.508 773.325,55.428C773.262,55.163 773.237,54.867 773.289,54.601C773.339,54.351 773.585,54.286 773.837,54.31C774.115,54.336 774.217,54.525 774.28,54.758ZM775.618,54.941C775.552,55.067 775.407,55.151 775.322,55.231C774.987,55.128 774.941,54.928 774.979,54.687C775.013,54.467 775.319,54.24 775.453,54.345C775.645,54.495 775.738,54.712 775.618,54.941ZM777.743,50.276C778.278,49.346 778.548,49.323 779.444,49.932C779.702,50.107 779.799,50.398 779.713,50.668C779.48,51.405 778.977,51.943 778.385,52.39C777.997,52.683 777.517,52.592 777.07,52.502C776.994,52.486 776.94,52.36 776.858,52.264C777.145,51.606 777.38,50.904 777.743,50.276ZM777.034,49.647C776.993,49.752 776.965,49.898 776.884,49.945C775.893,50.531 775.385,51.499 774.847,52.45C774.769,52.588 774.593,52.671 774.467,52.776C774.164,52.569 773.876,52.382 773.597,52.181C773.173,51.878 773.106,51.547 773.413,51.169C773.629,50.901 773.866,50.646 774.119,50.411C774.62,49.946 775.136,49.498 775.651,49.046C775.777,48.936 775.903,48.807 776.052,48.747C776.331,48.637 776.618,48.658 776.867,48.846C777.045,48.982 777.129,49.397 777.034,49.647ZM776.893,42.799C776.997,42.702 777.206,42.618 777.326,42.657C777.465,42.701 777.576,42.876 777.666,43.015C777.725,43.106 777.726,43.233 777.752,43.344C777.764,44.475 776.699,45.579 775.576,45.597C775.274,45.602 775.01,45.401 774.956,45.108C774.901,44.814 774.929,44.531 775.177,44.327C775.261,44.258 775.38,44.215 775.49,44.197C775.931,44.125 776.186,43.876 776.358,43.46C776.462,43.208 776.686,42.993 776.893,42.799ZM778.404,42.308C778.509,42.013 778.636,41.813 778.954,41.752C779.338,41.677 779.719,41.543 780.106,41.521C780.293,41.511 780.526,41.662 780.677,41.804C780.852,41.968 780.884,42.234 780.707,42.417C780.278,42.866 779.828,43.298 779.365,43.714C779.251,43.815 779.059,43.829 778.929,43.874C778.794,43.81 778.67,43.786 778.6,43.711C778.206,43.293 778.22,42.826 778.404,42.308ZM780.868,40.148C780.985,40.195 781.073,40.317 781.249,40.477C781.025,40.565 780.858,40.687 780.782,40.645C780.684,40.59 780.641,40.408 780.617,40.273L780.868,40.148ZM813.146,34.348C812.332,33.781 811.676,33.043 811.115,32.265C810.188,30.979 808.809,30.373 807.503,29.698C806.023,28.933 804.273,28.937 802.72,28.318C802.618,28.277 802.492,28.29 802.376,28.288C800.707,28.266 799.034,28.203 797.429,28.804C797.269,28.864 797.099,28.924 796.931,28.932C796.062,28.973 795.231,29.211 794.414,29.467C793.609,29.72 792.683,29.603 791.998,30.266C791.866,30.396 791.551,30.326 791.327,30.376C790.969,30.455 790.711,30.666 790.581,31.016C791.574,30.753 792.562,30.471 793.56,30.229C795.336,29.798 797.081,29.195 798.948,29.236C799.287,29.244 799.627,29.151 799.966,29.098C800.132,29.072 800.336,28.953 800.455,29.012C801.283,29.43 802.165,29.159 803.015,29.257C803.987,29.369 804.927,29.599 805.846,29.941C807.026,30.382 808.197,30.789 809.211,31.61C809.847,32.124 810.431,32.62 810.862,33.325C811.128,33.76 811.557,34.093 811.885,34.495C812.232,34.919 812.205,35.516 811.762,35.872C810.736,36.696 809.896,37.731 808.773,38.448C808.446,38.657 808.16,38.984 807.954,39.318C807.133,40.649 805.972,41.705 805.058,42.958C804.389,43.334 804.001,44.002 803.453,44.494C802.859,45.027 802.141,45.422 801.475,45.871C800.76,46.353 799.994,46.734 799.187,47.034C798.487,47.294 797.796,47.559 797.182,48.005C796.804,48.278 796.355,48.394 795.872,48.378C795.469,48.364 795.062,48.368 794.661,48.408C793.113,48.56 791.72,48.162 790.366,47.405C789.367,46.846 788.283,46.421 787.199,46.043C786.56,45.82 785.854,45.825 785.186,45.621C784.14,45.301 783.052,45.183 781.947,45.23C781.256,45.259 780.563,45.22 779.872,45.187C779.539,45.171 779.32,44.633 779.548,44.377C779.814,44.079 780.084,43.749 780.424,43.564C781.016,43.241 781.459,42.809 781.671,42.189C781.86,41.635 782.247,41.345 782.757,41.178C783.3,41 783.853,40.853 784.401,40.689C784.729,40.591 785.081,40.532 785.378,40.373C785.854,40.12 786.362,39.931 786.87,40.033C787.842,40.229 788.449,39.445 789.265,39.248L789.312,39.135L789.178,39.037C787.735,38.953 786.298,38.939 784.9,39.402C784.195,39.635 783.484,39.853 782.765,40.039C782.645,40.07 782.448,39.928 782.333,39.818C782.202,39.691 782.255,39.284 782.381,39.18C782.469,39.109 782.552,39.024 782.653,38.974C784.148,38.234 785.596,37.406 787.175,36.829C788.195,36.457 789.146,35.898 790.174,35.526C790.821,35.292 791.451,35.013 792.079,34.735L792.187,34.453C792.17,34.363 792.068,34.232 791.987,34.219C791.301,34.108 790.648,34.05 790.013,34.526C789.566,34.861 788.992,35.035 788.461,35.248C787.937,35.458 787.564,35.982 786.913,35.944C786.711,35.933 786.483,36.085 786.297,36.209C785.767,36.563 785.224,36.88 784.588,37.006C784.477,37.028 784.369,37.081 784.269,37.138C782.876,37.942 781.485,38.749 780.093,39.556C779.993,39.613 779.862,39.648 779.798,39.733C779.568,40.042 779.421,40.456 779.126,40.665C778.821,40.881 778.371,40.882 777.999,41.02C777.737,41.118 777.507,41.301 777.25,41.419C777.074,41.5 776.775,41.294 776.723,41.085C776.636,40.734 776.646,40.402 776.904,40.113C777.246,39.731 777.609,39.363 777.914,38.952C778.036,38.787 778.032,38.528 778.081,38.31C777.789,38.303 777.528,38.372 777.294,38.57C777.124,38.714 776.921,38.822 776.727,38.934L776.573,38.907L776.49,38.783C776.631,38.41 776.69,37.943 776.954,37.695C777.397,37.279 777.599,36.749 777.893,36.261C778.042,36.016 778.121,35.701 778.322,35.517C779.107,34.8 779.505,33.817 780.128,33C781.019,31.832 781.426,30.446 782.101,29.185C782.425,28.581 782.788,27.919 782.834,27.262C782.93,25.916 783.602,24.752 783.828,23.444C784.042,22.199 784.347,20.979 784.336,19.704C784.332,19.132 784.322,18.572 784.556,18.006C784.799,17.415 784.738,16.769 784.528,16.144C784.42,15.823 784.361,15.476 784.343,15.137C784.304,14.388 784.299,13.636 784.291,12.885C784.286,12.366 784.223,11.872 784.08,11.359C783.739,10.144 783.541,8.898 783.629,7.616C783.672,6.986 783.651,6.338 783.55,5.715C783.477,5.264 783.242,4.841 783.555,4.4C783.556,3.371 783.782,2.327 783.363,1.323C783.243,1.035 783.316,0.765 783.422,0.487L783.326,0.233C783.234,0.187 783.074,0.171 782.997,0.223C782.533,0.533 782.126,0.95 781.493,0.889C781.398,0.88 781.283,0.978 781.193,1.047C780.42,1.638 779.607,2.15 779.057,3.023C778.512,3.891 777.887,4.776 777.102,5.414C775.527,6.694 774.416,8.403 772.895,9.719C772.768,9.829 772.69,9.996 772.591,10.137C771.641,11.497 770.635,12.805 769.895,14.32C769.219,15.7 768.279,16.954 767.419,18.24C766.459,19.676 765.569,21.152 764.742,22.667C764.278,23.518 763.733,24.332 763.339,25.214C762.517,27.052 761.803,28.932 761.822,30.998C761.831,32.039 761.818,33.079 761.826,34.119C761.831,34.808 761.745,35.505 762.072,36.162C762.139,36.298 762.141,36.542 762.062,36.664C761.72,37.19 761.353,37.701 760.96,38.19C760.8,38.39 760.311,38.327 760.176,38.125C760.049,37.935 759.901,37.741 759.841,37.527C759.661,36.865 759.47,36.2 759.374,35.524C759.301,35.003 759.2,34.515 758.967,34.037C758.294,32.652 757.778,31.192 756.897,29.905C756.477,29.291 756.123,28.623 755.805,27.948C755.461,27.219 755.093,26.52 754.543,25.922C754.43,25.8 754.404,25.603 754.307,25.461C754.017,25.034 753.715,24.615 753.412,24.198C753.175,23.875 752.943,23.547 752.684,23.241C752.052,22.497 751.439,21.734 750.754,21.04C750.317,20.596 749.789,20.231 749.262,19.89C748.742,19.554 748.157,19.313 747.878,18.702C747.004,18.15 746.138,17.584 745.253,17.049C743.52,16.003 741.601,15.345 739.762,14.523C738.832,14.108 737.8,13.816 736.789,13.715C735.416,13.579 734.018,13.643 732.633,13.688C731.507,13.724 730.961,14.805 731.519,15.818C732.098,16.868 732.656,17.934 733.301,18.943C733.96,19.973 734.198,21.094 733.982,22.245C733.708,23.704 733.539,25.185 733.142,26.623C733.052,26.95 733.044,27.305 733.036,27.648C733.02,28.284 732.992,28.923 733.042,29.555C733.096,30.236 733.295,30.909 733.325,31.59C733.418,33.732 734.445,35.527 735.381,37.361C736.356,38.418 736.963,39.755 738.014,40.762C738.461,41.191 738.765,41.768 739.185,42.231C740.303,43.462 741.42,44.699 742.879,45.552C743.327,45.814 743.772,46.077 744.206,46.359C744.28,46.407 744.33,46.555 744.321,46.651C744.312,46.746 744.223,46.84 744.152,46.919L743.989,46.967C742.957,47.019 741.927,47.034 740.914,47.306C740.612,47.387 740.246,47.235 739.91,47.18C739.687,47.144 739.454,47.02 739.247,47.057C737.726,47.334 736.19,47.336 734.655,47.379C734.388,47.387 734.112,47.53 733.868,47.663C733.514,47.855 733.206,48.135 732.845,48.304C732.106,48.648 731.597,49.365 730.891,49.661C730.032,50.021 729.548,50.728 728.891,51.268C728.225,51.816 727.589,52.401 726.959,52.99C726.85,53.093 726.806,53.292 726.784,53.454C726.771,53.548 726.835,53.69 726.913,53.749L727.214,53.769C727.779,53.203 728.322,52.615 728.88,52.044C729.56,51.347 730.295,50.714 731.1,50.163C731.7,50.199 731.903,49.516 732.409,49.425C732.976,49.324 733.264,48.863 733.685,48.575C733.825,48.479 733.989,48.392 734.152,48.366C734.942,48.238 735.735,48.048 736.529,48.034C739.186,47.986 741.845,48.012 744.503,47.99C745.431,47.982 746.339,48.076 747.229,48.331C747.947,48.537 748.652,48.779 749.421,48.734C749.632,48.721 749.855,48.861 750.07,48.94C750.447,49.079 750.814,49.317 751.198,49.347C751.969,49.407 752.161,49.817 752.125,50.496C752.114,50.714 752.23,50.937 752.282,51.16C752.388,51.624 752.223,52.048 751.822,52.097C751.116,52.183 750.516,52.54 749.861,52.736C749.145,52.951 748.412,53.088 747.752,53.468C747.61,53.551 747.419,53.549 747.255,53.598C746.27,53.89 745.23,53.984 744.298,54.475C744.059,54.601 743.741,54.599 743.456,54.612C742.879,54.64 742.3,54.66 741.724,54.642C740.85,54.614 739.97,54.643 739.183,55.017C738.703,55.245 738.319,55.201 737.879,55.032L737.699,55.221L737.777,55.36C738.038,55.463 738.302,55.624 738.57,55.632C739.551,55.665 740.535,55.645 741.517,55.644C742.673,55.644 743.818,55.586 744.897,55.093C745.099,55.001 745.341,54.988 745.568,54.961C747.116,54.774 748.612,54.359 750.014,53.704C751.072,53.21 752.225,53.089 753.29,52.66C753.446,52.597 753.718,52.974 753.648,53.148C753.561,53.361 753.446,53.564 753.365,53.78C752.909,54.999 753.044,55.467 754.085,56.301C754.217,56.407 754.359,56.506 754.473,56.629C754.699,56.872 754.728,57.279 754.581,57.586C754.026,58.746 753.075,59.613 752.33,60.632C752.24,60.755 752.033,60.791 751.88,60.867C751.677,60.968 751.434,61.028 751.276,61.178C749.959,62.427 748.255,63.049 746.755,63.999C746.268,63.963 746.167,64.497 745.778,64.645C744.331,65.196 742.951,65.923 741.451,66.329C740.935,66.467 740.53,66.814 740.061,66.974C739.535,67.153 738.925,67.078 738.353,67.132C738.185,67.148 738.025,67.245 737.856,67.272C736.728,67.451 735.638,67.852 734.475,67.841C734.195,67.839 733.915,67.959 733.631,67.993C732.849,68.086 732.095,68.364 731.294,68.341C730.311,68.314 729.432,67.878 728.53,67.583C727.788,67.34 727.148,66.798 726.431,66.452C725.866,66.178 725.265,65.863 724.658,65.81C723.199,65.68 721.88,65.128 720.533,64.648C720.245,64.545 720.171,64.369 720.271,64.111C720.562,63.363 721.165,62.771 721.34,61.965C722.914,59.428 724.529,56.92 726.41,54.596C726.534,54.444 726.624,54.312 726.467,54.198C726.361,54.121 726.094,54.09 726.031,54.16C725.526,54.707 724.912,55.153 724.565,55.852C724.286,56.417 723.992,57.015 723.558,57.454C722.61,58.417 722.062,59.614 721.429,60.762C720.929,61.668 720.516,62.622 719.75,63.355C719.634,63.467 719.551,63.634 719.502,63.792C719.311,64.408 718.973,64.936 718.587,65.445C718.514,65.541 718.568,65.764 718.62,65.908L718.921,65.974C720.112,65.519 721.259,65.44 722.36,66.24C722.527,66.361 722.806,66.319 723.03,66.37C723.809,66.548 724.622,66.646 725.356,66.94C726.315,67.323 727.24,67.818 728.121,68.36C728.532,68.611 728.912,68.792 729.386,68.827C729.783,68.857 730.174,68.949 730.569,69.013C730.734,69.04 730.94,69.138 731.059,69.075C731.827,68.666 732.651,68.84 733.446,68.837C734.434,68.834 735.404,68.71 736.339,68.449C737.389,68.157 738.464,68 739.518,67.733C740.239,67.55 740.995,67.478 741.69,67.23C742.498,66.943 743.255,66.518 744.064,66.204C744.849,65.899 745.655,65.606 746.37,65.079C747.055,64.574 747.906,64.296 748.677,63.905C748.88,63.802 749.053,63.642 749.25,63.524C749.99,63.081 750.732,62.64 751.477,62.207C751.675,62.091 751.88,61.965 752.098,61.915C752.242,61.882 752.428,61.949 752.568,62.025C752.64,62.064 752.696,62.226 752.679,62.319C752.622,62.656 752.57,63.003 752.445,63.319C752.098,64.198 752.081,65.118 752.081,66.037C752.08,68.522 752.098,71.007 752.114,73.492C752.115,73.721 752.082,73.99 752.186,74.172C752.491,74.708 752.348,75.319 752.523,75.852C752.707,76.415 752.709,76.985 752.818,77.545C752.969,78.328 753.162,79.114 753.445,79.858C753.654,80.405 753.829,80.933 753.827,81.521C753.826,81.749 753.84,81.999 753.932,82.2C754.245,82.882 754.437,83.597 754.655,84.313C754.987,85.408 755.522,86.441 755.909,87.522C756.315,88.656 756.901,89.708 757.342,90.824C757.709,91.754 758.502,92.39 759.012,93.224C759.096,93.361 759.42,93.403 759.628,93.393C759.747,93.387 759.92,93.203 759.956,93.069C760.146,92.35 760.269,91.613 760.477,90.901C760.702,90.132 760.969,89.388 761.463,88.716C762.109,87.84 762.628,86.876 763.362,86.054C763.817,85.545 764.168,84.944 764.59,84.403C765.044,83.819 765.435,83.128 766.019,82.717C766.611,82.299 766.817,81.59 767.42,81.232C768.158,80.133 769.483,79.585 770.104,78.373C770.15,78.285 770.284,78.224 770.389,78.189C770.897,78.019 771.096,77.653 771.137,77.141C771.155,76.92 771.202,76.627 771.349,76.504C771.799,76.131 771.765,75.561 772.008,75.112C772.254,74.657 772.504,74.214 772.277,73.656C772.233,73.55 772.373,73.331 772.481,73.209C772.722,72.935 772.868,72.637 772.849,72.27C772.822,71.729 773.069,71.263 773.25,70.778C773.351,70.512 773.541,70.241 773.532,69.977C773.508,69.314 773.788,68.734 773.984,68.144C774.191,67.526 774.274,66.915 774.275,66.278C774.277,65.237 774.266,64.197 774.283,63.157C774.288,62.876 774.356,62.591 774.429,62.318C774.455,62.226 774.576,62.128 774.673,62.098L774.945,62.191C775.671,63.08 776.318,64.047 777.124,64.856C778.077,65.812 778.504,67.116 779.441,68.064C779.435,68.676 779.988,68.916 780.307,69.294C780.674,69.728 781.119,70.132 781.603,70.425C782.556,71.004 783.262,72.048 784.576,71.987C784.887,71.973 785.21,72.233 785.529,72.367C786.436,72.751 787.356,73.017 788.369,72.968C789.231,72.926 790.135,72.867 790.956,73.073C792.052,73.349 793.122,73.295 794.21,73.235C794.376,73.225 794.551,73.14 794.705,73.173C795.695,73.39 796.613,72.89 797.588,72.896C798.019,72.899 798.482,72.662 798.878,72.44C799.831,71.908 800.76,71.335 801.682,70.75C802.737,70.083 803.85,69.664 805.118,69.844C805.454,69.892 805.775,70.034 806.109,70.103L806.402,69.986L806.425,69.669C806.262,69.297 805.991,69.012 805.708,68.716C805.407,68.398 805.274,67.926 805.033,67.543C804.299,66.377 803.214,65.467 802.606,64.202C802.468,63.917 802.062,63.812 801.978,63.418C801.746,62.338 801.102,61.408 800.774,60.377C800.249,58.731 799.233,57.438 798.165,56.157C797.831,55.755 797.542,55.365 797.403,54.83C797.276,54.342 797.029,53.824 796.683,53.464C795.678,52.418 795.184,51.02 794.183,49.979C794.028,49.818 794.175,49.461 794.401,49.442C795.207,49.372 796,49.236 796.741,48.902C798.301,48.199 799.862,47.496 801.402,46.752C802.063,46.433 802.818,46.221 803.174,45.447C803.255,45.272 803.537,45.177 803.74,45.072C804.791,44.526 805.565,43.692 806.22,42.725C806.67,42.061 807.198,41.477 807.805,40.934C808.442,40.365 808.906,39.609 809.487,38.973C809.753,38.68 810.131,38.492 810.439,38.234C811.493,37.351 812.646,36.564 813.26,35.261C813.457,34.844 813.478,34.579 813.146,34.348Z" style="fill:rgb(86,88,61);fill-rule:nonzero;"/>
    </g>
</svg>
