<?xml version="1.0" encoding="UTF-8" standalone="no"?>
<!DOCTYPE svg PUBLIC "-//W3C//DTD SVG 1.1//EN" "http://www.w3.org/Graphics/SVG/1.1/DTD/svg11.dtd">
<svg width="100%" height="100%" viewBox="0 0 87 137" version="1.1" xmlns="http://www.w3.org/2000/svg" xmlns:xlink="http://www.w3.org/1999/xlink" xml:space="preserve" xmlns:serif="http://www.serif.com/" style="fill-rule:evenodd;clip-rule:evenodd;stroke-linejoin:round;stroke-miterlimit:2;">
    <g transform="matrix(1,0,0,1,-276.328,-40.4189)">
        <path d="M295.42,44.854C301.927,48.394 307.217,54.126 310.225,60.896C308.156,54.951 307.507,48.517 308.348,42.279C312.772,44.083 316.191,47.892 318.194,52.231C320.197,56.569 320.892,61.41 320.965,66.188C325.089,60.075 323.904,51.933 325.721,44.787C326.184,42.967 327.741,40.784 329.434,41.596C330.174,41.951 330.553,42.777 330.81,43.558C332.958,50.089 330.601,57.154 328.263,63.619C332.336,57.552 336.606,51.293 342.858,47.51C342.646,52.359 341.602,57.171 339.788,61.672C341.83,60.937 343.872,60.203 345.915,59.468C346.668,59.198 347.593,58.955 348.198,59.479C349.711,60.792 346.377,63.215 347.306,64.99C351.592,64.427 356.012,64.907 360.077,66.378C361.653,68.314 356.293,70.139 357.106,72.5C357.636,74.035 360.432,74.046 360.543,75.667C357.591,76.267 355.694,79.895 356.884,82.662C353.432,81.57 349.661,82.911 346.58,84.815C343.5,86.718 340.767,89.199 337.488,90.738C334.21,92.277 330.044,92.694 327.163,90.5C328.289,91.844 329.416,93.189 330.543,94.533C328.737,95.632 326,94.436 325.582,92.363C324.177,91.912 323.253,93.817 323.059,95.28C321.93,103.793 322.84,112.569 325.693,120.669C321.369,119.422 319.36,114.538 318.184,110.195C316.817,105.146 315.775,100.01 315.066,94.828C311.844,100.345 309.245,106.227 307.333,112.325C305.938,111.422 305.673,109.542 305.304,107.921C304.935,106.3 303.949,104.444 302.287,104.44C301.523,104.438 300.684,104.839 300.043,104.423C299.337,103.965 299.457,102.905 299.719,102.105C300.594,99.426 302.111,96.96 304.106,94.97C301.583,93.015 297.969,94.733 295.286,96.464C288.694,100.717 281.999,105.058 276.915,111.033C275.806,108.351 276.365,105.197 277.78,102.663C279.196,100.129 281.379,98.117 283.629,96.283C288.412,92.384 293.674,89.075 299.26,86.453C297.641,86.005 296.022,85.555 294.402,85.107C294.967,83.188 298.281,83.349 298.896,81.446C299.326,80.115 298.094,78.875 296.992,78.014C295.42,76.788 287.792,72.391 288.978,69.963C290.038,67.795 295.064,70.153 296.91,67.547C298.779,64.907 296.398,60.756 295.93,57.972C295.694,56.569 295.973,45.154 295.42,44.854Z" style="fill:rgb(187,206,220);fill-rule:nonzero;"/>
    </g>
    <g transform="matrix(1,0,0,1,-276.328,-40.4189)">
        <path d="M314.666,71.465C313.327,72.661 312.351,74.203 311.395,75.723C310.842,76.601 310.289,77.48 309.737,78.358C309.163,79.268 308.59,80.18 308.088,81.131C307.388,82.46 306.83,83.864 306.428,85.311C306.308,85.74 306.203,86.195 306.313,86.627C306.647,87.928 308.55,87.989 309.719,87.326C310.887,86.663 311.887,85.562 313.224,85.427C314.131,85.335 315.011,85.717 315.907,85.885C318.266,86.328 320.842,85.12 322.01,83.024C322.513,82.122 322.901,80.968 323.893,80.683C324.282,80.571 324.699,80.623 325.096,80.547C326.153,80.344 326.832,79.302 327.184,78.285C327.535,77.268 327.696,76.16 328.301,75.271C328.646,74.762 329.122,74.35 329.444,73.826C330.512,72.086 329.44,69.657 327.684,68.611C323.753,66.274 317.773,68.693 314.666,71.465Z" style="fill:white;fill-rule:nonzero;"/>
    </g>
    <g transform="matrix(1,0,0,1,-276.328,-40.4189)">
        <path d="M330.808,76.719C331.348,77.605 331.97,78.438 332.796,79.092C333.734,79.835 334.826,80.12 336.078,80.21C336.958,80.047 337.914,79.885 338.863,79.691C339.764,79.507 340.623,79.191 341.454,78.793C341.71,78.669 341.977,78.539 342.254,78.489C343.206,78.319 343.983,77.58 345.006,77.651C345.524,77.075 346.242,77.107 346.921,77.02L347.077,76.951C347.76,76.205 348.68,76.453 349.519,76.363L349.693,76.36C352.641,76.299 352.64,76.301 355.358,77.492C355.673,77.631 356.017,77.706 356.326,77.854C356.543,77.958 356.702,78.215 356.592,78.425C356.253,79.073 356.331,79.769 356.272,80.452C356.237,80.865 355.907,81.173 355.475,81.225C355.361,81.239 355.245,81.253 355.13,81.247C353.389,81.171 351.882,81.829 350.461,82.743C349.934,83.082 349.318,83.211 348.783,83.572C348.327,83.881 347.928,84.379 347.299,84.406C346.274,85.039 345.216,85.623 344.31,86.431C344.133,86.589 343.974,86.675 343.705,86.608C343.32,86.511 342.912,86.511 342.517,86.452C341.442,86.292 340.357,86.173 339.301,85.932C338.844,85.828 338.402,85.763 337.942,85.761C336.903,85.757 335.862,85.738 334.823,85.765C333.704,85.795 332.833,85.263 332.037,84.577C331.836,84.404 331.629,84.098 331.63,83.854C331.632,82.995 331.007,82.373 330.85,81.576C330.801,81.326 330.551,81.09 330.344,80.901C329.958,80.548 329.499,80.322 328.982,80.19C328.484,80.063 327.977,79.918 327.523,79.684C326.292,79.049 326.199,78.753 326.715,77.506C327,76.818 327.297,76.136 327.588,75.452C327.856,74.823 328.46,74.415 328.666,73.724C328.752,73.436 329.11,73.211 329.377,73C329.569,72.848 329.826,72.877 330.021,73.02C330.156,73.119 330.225,73.306 330.359,73.405C330.589,73.574 330.836,73.805 331.096,73.833C332.175,73.952 333.249,74.096 334.325,73.665C335.624,73.144 336.777,72.458 337.792,71.476C338.822,70.48 339.904,69.516 341.072,68.694C341.767,68.204 342.506,67.784 343.157,67.216C343.38,67.022 343.811,66.998 344.143,67.008C344.795,67.029 345.332,66.872 345.921,66.535C346.959,65.941 348.143,65.629 349.312,65.364C349.799,65.254 350.41,65.22 350.835,65.423C351.324,65.656 351.75,65.532 352.153,65.452C353.183,65.246 354.227,65.21 355.24,65.331C356.421,65.472 357.626,65.57 358.773,65.944C359.1,66.049 359.431,66.174 359.717,66.358C359.887,66.467 360.061,66.697 360.084,66.891C360.207,67.935 359.382,69.48 358.474,69.916C357.957,70.163 357.407,70.34 356.878,70.561C356.29,70.807 355.696,71.06 355.363,71.648C355.307,71.747 355.363,71.995 355.454,72.072C355.569,72.17 355.772,72.167 355.939,72.202C357,72.428 358.07,72.618 359.119,72.893C359.608,73.021 360.081,73.268 360.513,73.54C361.157,73.945 361.221,74.309 360.79,74.974C360.448,75.503 360.056,76.002 359.662,76.495C359.565,76.616 359.383,76.708 359.226,76.738C357.923,76.986 356.523,76.874 355.185,76.416C354.865,76.306 354.562,76.147 354.254,76.004C354.1,75.932 353.959,75.792 353.802,75.773C352.22,75.577 350.645,75.019 349.043,75.655C346.641,75.788 344.515,76.841 342.329,77.687C341.792,77.896 341.287,78.156 340.684,78.159C340.408,78.16 340.108,78.246 339.862,78.376C339.292,78.676 338.725,78.937 338.059,78.88C337.949,78.87 337.803,78.884 337.727,78.948C336.793,79.739 335.747,79.171 334.754,79.191C334.485,79.196 334.183,79.076 333.947,78.93C332.864,78.262 331.821,77.549 331.5,76.189C331.449,75.972 331.314,75.767 331.183,75.581L330.882,75.497L330.682,75.721C330.697,76.058 330.648,76.457 330.808,76.719ZM342.191,88.223C341.738,88.653 341.371,89.198 340.674,89.312C340.466,89.345 340.281,89.53 340.089,89.651C339.357,90.114 338.62,90.564 337.729,90.653C337.615,90.665 337.49,90.671 337.391,90.72C335.992,91.422 334.487,91.367 332.916,91.347C332.581,91.347 332.173,91.312 331.773,91.354C330.428,91.496 329.289,90.964 328.2,90.283C328.029,90.177 327.861,89.942 327.836,89.747C327.763,89.173 327.71,88.605 327.4,88.095C327.241,87.834 327.306,87.568 327.353,87.275C327.46,86.596 327.459,85.9 327.761,85.262C327.707,83.895 328.051,82.486 327.296,81.195C327.178,80.992 327.537,80.592 327.78,80.633C328.872,80.814 329.679,81.382 330.117,82.414C330.251,82.729 330.382,83.06 330.428,83.396C330.589,84.579 331.481,85.205 332.264,85.932C332.848,86.474 333.601,86.716 334.303,86.758C335.434,86.825 336.607,87.043 337.725,86.551C337.913,86.468 338.192,86.484 338.392,86.556C339.583,86.985 340.803,87.301 342.041,87.555C342.356,87.619 342.442,87.986 342.191,88.223ZM331.61,95.182C331.734,95.24 331.922,95.275 332.029,95.387C332.38,95.757 332.746,96.128 333.028,96.55C334.047,98.077 335.112,99.583 336.008,101.182C336.588,102.217 337.023,103.348 337.482,104.454C337.524,104.553 337.518,104.685 337.496,104.794C337.474,104.898 337.425,105.029 337.345,105.081C337.267,105.132 337.123,105.124 337.025,105.091C336.922,105.056 336.786,104.981 336.754,104.892C336.276,103.548 335.118,102.724 334.301,101.641C333.928,101.148 333.689,100.568 333.322,100.053C332.68,99.15 331.905,98.388 331.15,97.598C330.912,97.349 330.657,97.112 330.437,96.847C330.279,96.657 330.252,96.413 330.424,96.216C330.689,95.913 330.975,95.627 331.266,95.347C331.343,95.274 331.466,95.249 331.61,95.182ZM328.603,94.994C327.545,94.588 326.828,93.82 326.772,92.702C326.725,91.745 326.336,91.191 325.5,90.866C325.406,90.83 325.256,90.792 325.201,90.837C325.129,90.896 325.083,91.047 325.102,91.144C325.144,91.366 325.244,91.577 325.301,91.798C325.371,92.069 325.264,92.261 325.011,92.321C324.676,92.402 324.332,92.45 324.002,92.546C323.441,92.708 323.111,93.157 323.057,93.678C322.987,94.356 322.983,95.074 323.133,95.733C323.25,96.25 323.292,96.751 323.303,97.266C323.313,97.783 323.298,98.287 323.536,98.787C323.675,99.079 323.635,99.462 323.646,99.805C323.671,100.555 323.735,101.31 323.678,102.055C323.592,103.169 324.044,104.205 324.056,105.298C324.424,105.872 324.34,106.518 324.342,107.149C324.346,108.818 324.542,110.46 324.99,112.071C325.036,112.235 325.041,112.416 325.033,112.587C324.983,113.517 325.133,114.421 325.435,115.294C325.722,116.122 325.675,116.999 325.867,117.834C326.084,118.779 326.409,119.698 326.679,120.631C326.748,120.87 326.672,121.075 326.481,121.245C326.293,121.413 326.089,121.491 325.855,121.38C325.546,121.234 325.222,121.121 325.028,120.789C324.886,120.544 324.689,120.321 324.485,120.121C323.534,119.19 322.672,118.194 322.073,116.992C322.023,116.891 321.93,116.812 321.852,116.726C321.232,116.047 320.769,115.275 320.433,114.418C320.329,114.154 320.212,113.844 320.002,113.681C319.405,113.217 319.18,112.609 319.094,111.895C319.069,111.681 318.949,111.447 318.803,111.286C318.509,110.965 318.395,110.603 318.393,110.182C318.392,110.071 318.386,109.914 318.317,109.854C317.637,109.266 317.737,108.373 317.465,107.633C317.192,106.892 317.15,106.067 316.997,105.281C316.964,105.114 316.874,104.959 316.835,104.793C316.588,103.735 316.289,102.687 316.361,101.575C316.402,100.948 316.454,100.299 316.079,99.726C316.052,98.746 315.967,97.763 316.022,96.788C316.038,96.508 316.143,96.207 316.29,95.938C316.132,95.485 316.068,94.975 316.14,94.438L316.11,94.318C316.11,94.119 316.126,93.924 316.148,93.732L316.156,93.676C316.173,93.548 316.194,93.421 316.222,93.296L316.253,93.119L316.282,93.053C316.349,92.823 316.442,92.606 316.55,92.396C316.31,92.389 316.129,92.576 315.958,92.8C315.811,92.993 315.655,92.837 315.542,92.711C315.33,92.474 315.279,92.172 315.396,91.903C315.672,91.27 315.991,90.661 316.066,89.952C316.087,89.748 316.267,89.545 316.411,89.372C316.707,89.018 316.949,88.659 317.112,88.205C317.372,87.482 317.989,87.002 318.6,86.568C319.114,86.203 319.651,85.86 320.213,85.577C320.504,85.431 320.871,85.405 321.207,85.384C321.502,85.366 321.745,85.496 321.918,85.778C322.321,86.429 322.558,87.153 322.592,87.89C322.628,88.683 322.736,89.497 322.442,90.288C322.223,90.881 322.585,91.383 322.821,91.892L322.983,91.894L323.121,91.826C323.178,91.668 323.249,91.505 323.256,91.341C323.284,90.591 323.293,89.84 323.308,89.09C323.313,88.859 323.253,88.606 323.328,88.401C323.779,87.165 323.25,86.159 322.57,85.215C322.269,84.797 322.348,84.535 322.614,84.153C323.268,83.21 323.881,82.236 324.478,81.255C324.62,81.022 324.629,80.71 324.701,80.434C324.757,80.217 324.762,79.934 325.073,79.947C325.221,79.953 325.41,80.048 325.501,80.164C325.892,80.659 326.282,81.161 326.612,81.697C326.753,81.926 326.788,82.243 326.802,82.524C326.829,83.099 326.81,83.678 326.81,84.185C326.67,85.107 326.974,85.996 326.58,86.818C326.388,87.218 326.488,87.555 326.628,87.938C326.761,88.021 326.875,88.131 326.93,88.298C327.035,88.382 327.12,88.486 327.159,88.623C327.27,89.014 327.214,89.278 326.993,89.543C326.986,89.745 326.987,89.947 327.023,90.152C327.054,90.325 327.009,90.465 326.933,90.584C327.329,90.973 327.726,91.363 328.122,91.753C328.452,92.077 328.796,92.386 328.877,92.882C328.915,93.116 329.031,93.345 329.298,93.361C329.847,93.396 329.989,93.939 330.371,94.184C330.648,94.362 330.469,94.882 330.121,95.004C329.614,95.181 329.106,95.187 328.603,94.994ZM314.837,91.916C314.605,92.547 314.543,93.14 314.817,93.757C315.107,94.41 314.943,94.936 314.506,95.504C314.024,96.132 313.705,96.878 313.367,97.607C312.884,98.648 312.266,99.625 311.705,100.629C311.121,101.02 311.267,101.796 310.825,102.278C310.433,102.705 310.326,103.316 310.049,103.797C309.614,104.55 309.403,105.384 309.002,106.14C308.896,106.339 308.811,106.563 308.777,106.784C308.706,107.237 308.821,107.786 308.602,108.134C308.016,109.068 307.785,110.157 307.193,111.076L307.073,111.201C306.97,111.334 306.711,111.358 306.624,111.239C306.245,110.719 305.956,110.172 305.957,109.499C305.959,108.518 305.921,107.536 305.925,106.555C305.928,105.601 305.58,104.747 305.151,103.935C304.873,103.412 304.424,103.056 303.749,103.1C303.232,103.133 302.734,103.121 302.243,103.387C301.849,103.6 301.37,103.66 300.925,103.774C300.75,103.819 300.469,103.572 300.427,103.382C300.203,102.377 300.441,101.427 300.858,100.536C301.222,99.759 301.713,99.043 302.125,98.287C302.871,96.922 303.829,95.702 304.757,94.465C304.923,94.244 305.231,94.134 305.421,93.926C305.505,93.835 305.517,93.594 305.455,93.477C305.389,93.351 305.132,93.183 305.073,93.219C304.539,93.548 303.916,93.315 303.382,93.512C302.938,93.675 302.497,93.755 302.032,93.755C301.621,93.756 301.246,93.861 300.879,94.066C300.581,94.232 300.246,94.376 299.912,94.421C298.974,94.548 298.255,95.14 297.435,95.513C297.228,95.608 297.056,95.792 296.844,95.863C295.579,96.284 294.52,97.106 293.32,97.654C292.392,98.079 291.513,98.608 290.723,99.27C290.503,99.454 290.267,99.625 290.017,99.764C288.449,100.634 287.126,101.819 285.77,102.974C284.812,103.789 283.803,104.541 282.885,105.409C281.913,106.329 280.499,107.918 280.019,109.004C279.707,109.713 279.179,110.21 278.704,110.767C278.468,111.044 278.118,111.163 277.76,111.032C277.411,110.905 277.193,110.62 277.193,110.239C277.194,109.383 277.073,108.532 277.434,107.685C277.675,107.117 277.735,106.463 277.818,105.84C277.88,105.375 277.95,104.951 278.275,104.57C278.446,104.37 278.455,104.038 278.562,103.776C278.969,102.78 279.351,101.772 280.046,100.926C280.118,100.839 280.196,100.743 280.227,100.638C280.507,99.686 280.996,98.857 281.681,98.141C282.779,96.057 284.451,94.529 286.4,93.269C287.106,92.438 288.144,91.981 288.806,91.084C289.361,90.332 290.291,90.066 291.051,89.582C291.583,89.243 292.178,89 292.757,88.741C293.014,88.627 293.298,88.529 293.575,88.514C294.046,88.487 294.432,88.353 294.852,88.104C295.257,87.864 295.821,87.88 296.32,87.818C296.943,87.74 297.569,87.69 298.196,87.652L298.458,87.847L298.42,88.13C297.914,88.404 297.408,88.685 296.878,88.909C296.189,89.201 295.517,89.489 295.107,90.173C295.024,90.314 294.867,90.437 294.716,90.507C293.747,90.958 293.142,91.809 292.412,92.531C291.539,93.392 290.82,94.34 290.352,95.475C290.609,95.368 290.884,95.288 291.115,95.141C291.246,95.058 291.301,94.859 291.396,94.716C291.966,93.857 292.542,93.02 293.407,92.395C294.099,91.895 294.677,91.241 295.332,90.687C296.135,90.006 297.117,89.641 298.066,89.228C299.387,88.653 300.786,88.405 302.2,88.152C303.164,87.978 304.11,87.8 305.089,87.808C305.52,87.811 305.87,87.921 306.08,88.354C306.278,88.762 306.663,88.883 307.096,88.882C307.558,88.881 308.022,88.861 308.481,88.895C309.143,88.945 309.754,88.798 310.295,88.441C310.96,88.002 311.763,87.873 312.402,87.322C312.896,86.896 313.606,86.727 314.33,87.098C314.833,87.356 315.413,87.465 315.954,87.652C316.159,87.722 316.293,88.06 316.146,88.209C315.799,88.56 315.708,89.011 315.577,89.449C315.329,90.272 315.133,91.112 314.837,91.916ZM306.975,86.561C307.055,86.34 307.141,86.165 307.262,86.015L307.209,85.818C307.195,85.476 307.277,85.132 307.414,84.808C306.929,84.546 306.997,84.312 307.342,83.418C307.606,82.735 307.849,82.016 308.385,81.477C308.483,81.379 308.728,81.323 308.846,81.377C308.967,81.431 309.023,81.642 309.092,81.791L309.072,81.958C308.62,82.65 308.915,83.194 309.51,83.526C310.11,83.86 310.484,84.222 310.57,84.949C310.61,85.285 311.015,85.57 311.228,85.896C311.314,86.027 311.332,86.204 311.386,86.378C311.24,86.498 311.127,86.653 310.979,86.702C310.802,86.761 310.619,86.796 310.434,86.823C310.239,87.221 309.836,87.547 309.449,87.716C308.849,87.978 308.151,87.916 307.567,87.653C307.155,87.466 306.804,87.036 306.975,86.561ZM318.431,85.201C318.447,85.866 317.756,85.87 317.366,86.148C317.184,86.278 316.941,86.32 316.754,86.444C316.242,86.785 315.792,86.58 315.344,86.317C315.155,86.206 315.07,85.847 315.209,85.733C315.815,85.234 316.428,84.743 317.04,84.252L317.193,84.177C317.294,84.215 317.427,84.224 317.491,84.295C317.785,84.624 318.417,84.662 318.431,85.201ZM310.027,81.877C310.684,81.006 311.353,80.142 312.038,79.292C312.25,79.028 312.493,78.726 312.788,78.606C313.202,78.437 313.285,78.981 313.57,79.147C314.297,79.571 315.356,79.47 315.943,78.868C316.198,78.608 316.338,78.057 316.177,77.954C315.903,77.777 315.633,77.859 315.353,77.945C315.082,78.029 314.805,78.121 314.525,78.141C314.379,78.151 314.163,78.05 314.088,77.93C314.019,77.821 314.04,77.579 314.121,77.465C314.352,77.137 314.644,76.852 314.887,76.532L314.829,76.225L314.537,76.09C314.32,76.134 314.076,76.185 313.91,76.318C313.506,76.64 313.146,77.017 312.757,77.358C312.595,77.501 312.094,77.279 312.048,77.048C312.029,76.947 312.02,76.802 312.077,76.736C312.816,75.864 313.541,74.979 314.365,74.182C314.552,74.001 314.821,74.017 314.942,74.224C315.117,74.522 315.262,74.839 315.453,75.125C315.64,75.406 316.202,75.337 316.315,75.03C316.414,74.76 316.485,74.481 316.58,74.211C316.986,73.068 317.977,72.791 319.009,72.584C319.189,72.548 319.473,72.846 319.449,73.033C319.427,73.201 319.413,73.377 319.35,73.53C318.839,74.769 318.101,75.849 317.101,76.752C316.678,77.133 316.649,77.326 316.954,77.784C317.179,78.122 317.494,78.402 317.248,78.859L317.254,79.002C317.357,79.032 317.495,79.095 317.567,79.053C317.913,78.852 318.234,78.605 318.581,78.403C319.162,78.065 319.393,78.114 319.731,78.617C319.988,78.997 320.258,79.371 320.48,79.772C320.592,79.974 320.568,80.235 320.371,80.403C320.108,80.626 319.828,80.829 319.544,81.025C319.122,81.315 318.603,81.494 318.426,82.05C317.742,82.558 317.121,83.195 316.139,83.035C315.642,82.955 315.278,83.204 314.92,83.548C314.468,83.984 313.93,84.328 313.446,84.732C313.06,85.053 312.613,85.099 311.999,85.096C311.868,85.028 311.601,84.926 311.383,84.761C311.085,84.535 311.145,84.092 311.499,83.9C312.208,83.515 312.924,83.142 313.65,82.791C314.291,82.481 314.804,82.03 315.185,81.441C315.256,81.33 315.217,81.092 315.145,80.958C315.036,80.753 314.804,80.555 314.58,80.669C313.667,81.134 312.615,81.305 311.799,81.972C311.488,82.225 311.186,82.49 310.878,82.747C310.602,82.976 310.358,82.982 310.107,82.772C309.798,82.514 309.753,82.239 310.027,81.877ZM319.85,83.9C319.846,84.162 319.623,84.393 319.437,84.296C319.313,84.231 319.19,84.076 319.158,83.941C319.093,83.67 319.247,83.466 319.472,83.444C319.675,83.423 319.855,83.64 319.85,83.9ZM319.975,81.734C320.845,81.09 321.726,80.463 322.606,79.833C322.699,79.767 322.814,79.736 322.913,79.676C323.171,79.521 323.44,79.456 323.728,79.583C323.949,79.679 323.984,80.047 323.852,80.507C323.511,81.698 322.734,82.604 321.913,83.478C321.805,83.593 321.616,83.632 321.493,83.693C321.342,83.667 321.209,83.68 321.122,83.623C320.741,83.373 320.363,83.114 320,82.835C319.735,82.632 319.716,81.925 319.975,81.734ZM316.113,71.723C316.194,71.52 316.351,71.317 316.531,71.19C317.324,70.627 318.112,70.051 319.021,69.674C319.325,69.548 319.479,69.593 319.488,69.906C319.505,70.46 319.685,70.907 320.117,71.26C320.318,71.425 320.689,71.51 320.718,71.37C320.749,71.217 320.787,71.012 320.713,70.901C320.263,70.214 320.705,69.671 321.022,69.156C321.292,68.717 321.707,68.392 322.308,68.423C322.753,68.445 322.955,68.639 322.841,69.045C322.795,69.209 322.702,69.361 322.664,69.527C322.611,69.768 322.67,70.025 322.924,70.077C323.126,70.118 323.413,70.084 323.562,69.962C323.772,69.792 323.888,69.506 324.047,69.273C324.296,68.91 324.399,68.882 324.912,69.014C325.079,69.057 325.254,69.077 325.413,69.139C325.739,69.267 325.769,69.558 325.757,69.852C325.742,70.209 325.584,70.413 325.276,70.46C325.049,70.494 324.815,70.479 324.588,70.513C324.02,70.6 323.858,70.984 324.196,71.514C324.377,71.798 324.66,71.99 324.449,72.415C324.231,72.855 324.008,73.223 323.469,73.26C323.182,73.28 322.894,73.294 322.608,73.321L322.478,73.42C322.487,73.52 322.499,73.675 322.56,73.706C323.311,74.074 323.912,74.584 324.189,75.398C324.26,75.608 324.362,75.882 324.287,76.055C323.995,76.726 323.843,77.492 323.129,77.914C322.886,78.058 322.69,78.284 322.478,78.479C322.056,78.866 321.559,78.91 321.024,78.813C320.721,78.757 320.504,78.52 320.506,78.221L320.506,78.049C320.579,77.776 320.66,77.505 320.738,77.234C320.282,76.792 320.282,76.071 319.763,75.661C319.442,75.406 319.395,75.006 319.652,74.746C320.369,74.022 320.202,73.161 320.121,72.31C320.11,72.181 319.936,71.992 319.808,71.964C319.474,71.89 319.124,71.891 318.782,71.863C318.201,71.865 317.645,71.9 317.102,72.179C316.886,72.29 316.543,72.209 316.278,72.14C316.186,72.116 316.07,71.83 316.113,71.723ZM326.423,71.545C326.549,71.974 326.642,72.416 326.811,72.828C327.038,73.382 326.993,73.888 326.804,74.449C326.608,75.034 326.156,75.199 325.674,75.35C325.359,75.449 324.825,75.101 324.739,74.753C324.614,74.248 324.531,73.696 324.913,73.29C325.306,72.875 325.356,72.398 325.435,71.887C325.517,71.369 325.784,71.296 326.423,71.545ZM326.587,70.218C326.755,69.968 326.981,69.756 327.281,69.804C328.002,69.922 328.538,70.308 328.764,71.034C328.837,71.268 328.766,71.499 328.557,71.633C328.272,71.817 327.972,71.979 327.666,72.127C327.434,72.241 327.221,72.191 327.11,71.934C326.979,71.63 326.725,71.555 326.434,71.535C326.426,71.09 326.309,70.633 326.587,70.218ZM331.584,71.604C331.582,70.968 331.807,70.507 332.377,70.206C332.523,70.129 332.63,69.972 332.744,69.843C333.156,69.38 333.161,68.598 333.844,68.357C334.417,68.155 334.712,67.628 335.186,67.315C335.377,67.19 335.618,67.064 335.71,66.877C336.435,65.415 338.041,64.867 339.005,63.661L339.13,63.542C341.369,62.152 343.526,60.6 346.083,59.817C346.843,59.584 347.646,59.493 348.364,59.349C348.727,59.431 349.029,59.445 349.276,59.569C349.622,59.74 350.159,59.578 350.317,60.048C350.499,60.589 350.128,60.924 349.704,61.145C349.208,61.402 349.379,62.111 348.782,62.334C348.293,62.516 348.057,63.037 347.806,63.5C347.56,63.951 347.222,64.352 346.977,64.803C346.791,65.146 346.535,65.263 346.17,65.347C345.28,65.55 344.403,65.813 343.526,66.069C343.374,66.114 343.245,66.242 343.112,66.34C342.657,66.682 342.226,67.062 341.746,67.365C340.238,68.316 338.844,69.413 337.564,70.648C337.036,71.158 336.242,71.374 335.936,72.125C334.792,72.601 333.759,73.421 332.411,73.269C332.239,73.25 332.066,73.244 331.897,73.213C331.591,73.155 331.296,72.727 331.365,72.429C331.429,72.151 331.585,71.878 331.584,71.604ZM362.387,81.971C362.059,81.866 361.718,81.66 361.4,81.688C360.449,81.771 359.606,81.289 358.684,81.254C358.406,81.243 358.127,81.123 357.86,81.024C357.376,80.844 357.284,80.663 357.262,80.102C357.243,79.613 357.35,79.199 357.743,78.867C358.223,78.463 358.593,77.928 359.243,77.732C359.437,77.673 359.613,77.486 359.749,77.318C360.152,76.824 360.54,76.321 361.124,76.021C361.465,75.846 361.628,75.508 361.68,75.184C361.76,74.678 361.748,74.153 361.73,73.638C361.719,73.328 361.499,73.098 361.211,73.004C360.232,72.685 359.375,72.07 358.361,71.838C358.105,71.779 357.974,71.568 358.014,71.325C358.038,71.177 358.166,70.953 358.283,70.928C359.024,70.774 359.514,70.278 359.903,69.706C360.456,68.893 360.805,67.973 361.042,67.019C361.115,66.723 361.025,66.43 360.789,66.233C360.482,65.977 360.178,65.662 359.815,65.542C359.06,65.29 358.276,65.103 357.49,64.977C356.76,64.86 355.988,65.063 355.284,64.687C355.205,64.645 355.05,64.685 354.958,64.737C354.685,64.889 354.427,64.919 354.146,64.756C353.822,64.567 353.488,64.582 353.158,64.758C352.948,64.87 352.736,64.937 352.507,64.8C352.189,64.61 351.853,64.581 351.512,64.726C351.081,64.909 350.648,64.673 350.179,64.776C349.666,64.89 349.066,64.64 348.514,64.505C348.433,64.485 348.333,64.197 348.376,64.083C348.474,63.818 348.596,63.463 348.811,63.36C349.424,63.067 349.688,62.458 350.129,62.021C350.657,61.498 351.025,60.831 351.842,60.666C352.064,60.621 352.136,60.09 351.969,59.901C351.819,59.731 351.661,59.551 351.469,59.438C350.456,58.839 349.329,58.722 348.184,58.707C347.436,58.697 346.685,58.66 346.074,59.251C345.93,59.39 345.636,59.363 345.422,59.443C344.4,59.828 343.356,60.176 342.477,60.856C342.021,61.208 341.513,61.193 340.994,61.106L340.842,60.868C341.294,60.012 341.742,59.163 341.826,58.165C341.842,57.971 342.12,57.812 342.219,57.61C342.395,57.251 342.57,56.881 342.668,56.496C342.824,55.886 342.859,55.242 343.049,54.646C343.424,53.468 343.436,52.267 343.386,51.06C343.37,50.665 343.275,50.268 343.169,49.885C342.875,48.827 342.843,48.592 341.477,48.65C341.124,48.664 340.825,48.769 340.52,48.976C339.901,49.397 339.272,49.787 338.753,50.344C338.166,50.975 337.542,51.562 336.814,52.054C336.254,52.434 335.748,52.931 335.418,53.568C335.288,53.818 335.09,54.048 334.876,54.235C334.214,54.81 333.673,55.501 333.265,56.25C332.732,57.226 331.761,57.847 331.289,58.855C331.249,58.941 331.106,59.015 331.003,59.026C330.839,59.042 330.631,59.053 330.511,58.968C330.405,58.893 330.321,58.665 330.353,58.536C330.521,57.871 330.857,57.222 330.89,56.555C330.924,55.842 331.185,55.214 331.323,54.543C331.392,54.207 331.581,53.876 331.571,53.547C331.547,52.773 331.814,52.066 332.042,51.367C332.49,49.999 332.203,48.618 332.255,47.244C331.755,46.388 331.672,45.388 331.296,44.488C330.64,42.916 329.574,41.652 328.348,40.505C328.194,40.361 327.839,40.4 327.742,40.604C327.403,41.306 326.667,41.832 326.779,42.735C327.125,42.445 327.466,42.148 327.822,41.87C328.014,41.72 328.259,41.66 328.453,41.845C329.159,42.52 329.927,43.142 330.25,44.131C330.374,44.51 330.598,44.858 330.784,45.216C331.409,46.417 331.521,47.737 331.655,49.048C331.684,49.323 331.64,49.641 331.524,49.889C331.318,50.332 331.325,50.784 331.324,51.245C331.321,51.882 331.183,52.484 331.029,53.106C330.811,53.986 330.489,54.87 330.577,55.819C330.601,56.082 330.522,56.423 330.36,56.62C330.042,57.005 329.922,57.416 329.915,57.894C329.91,58.246 329.837,58.584 329.573,58.846C329.306,59.11 329.329,59.475 329.219,59.794C328.977,60.489 328.818,61.201 328.413,61.862C327.822,62.83 327.413,63.912 326.954,64.957C326.792,65.324 326.704,65.723 326.607,66.114L326.831,66.292C327.047,66.257 327.357,66.236 327.448,66.094C327.817,65.516 328.281,64.924 328.399,64.281C328.537,63.536 328.857,63.004 329.379,62.525C329.807,62.132 330.15,61.681 330.432,61.166C330.678,60.715 330.984,60.285 331.327,59.902C332.209,58.915 332.975,57.871 333.576,56.674C333.952,55.923 334.477,55.212 335.144,54.632C335.62,54.218 336.004,53.701 336.453,53.253C336.896,52.811 337.425,52.444 337.818,51.964C338.528,51.097 339.535,50.609 340.342,49.868C340.716,49.525 341.221,49.312 341.775,49.353C342.013,49.37 342.243,49.423 342.34,49.669C342.734,50.653 342.88,51.662 342.612,52.709C342.541,52.986 342.466,53.265 342.432,53.548C342.269,54.855 342.098,56.159 341.527,57.371C341.455,57.525 341.402,57.696 341.38,57.864C341.228,59.061 340.589,60.061 339.848,60.913C338.838,62.074 337.902,63.316 336.685,64.298C335.878,64.949 335.12,65.665 334.605,66.598C334.47,66.844 334.254,67.065 334.031,67.241C332.987,68.07 332.165,69.086 331.409,70.175C330.678,71.229 330.169,71.228 329.262,70.257C328.989,69.965 328.802,69.576 328.495,69.333C327.866,68.836 327.151,68.444 326.532,67.937C326.104,67.585 325.665,67.418 325.125,67.378C324.792,67.353 324.467,67.207 324.144,67.098C323.71,66.951 323.264,66.823 322.857,66.619C322.411,66.396 322.004,66.528 321.767,66.833C321.361,67.352 320.836,67.71 320.304,68.024C319.022,68.778 317.687,69.441 316.383,70.157C315.779,70.488 315.202,70.867 314.601,71.206C314.158,71.458 313.936,71.811 313.935,72.327C313.934,72.609 313.947,72.939 313.813,73.162C313.488,73.701 313.081,74.189 312.707,74.697C311.934,74.896 311.87,75.728 311.385,76.198C310.82,76.747 310.599,77.465 311.058,78.245C311.302,78.661 311.113,79.014 310.84,79.348C310.527,79.733 310.151,79.948 309.641,79.906C309.353,79.882 309.063,79.882 308.775,79.879C308.478,79.876 308.225,79.927 308.041,80.221C307.861,80.511 307.634,80.782 307.389,81.021C306.732,81.658 306.482,82.469 306.348,83.333C306.304,83.617 306.34,83.915 306.284,84.196C306.229,84.474 306.118,84.744 306.007,85.008C305.864,85.35 305.552,85.513 305.165,85.438C304.943,85.395 304.734,85.278 304.512,85.228C304.352,85.192 304.159,85.16 304.017,85.217C303.875,85.274 303.72,85.426 303.68,85.568C303.645,85.692 303.722,85.904 303.823,85.994C303.942,86.099 304.151,86.093 304.303,86.173C304.518,86.285 304.525,86.619 304.334,86.743C303.693,87.158 302.969,87.355 302.232,87.469C301.976,87.509 301.618,87.424 301.43,87.257C300.948,86.829 300.404,86.788 299.815,86.799C299.065,86.814 298.313,86.787 297.563,86.808C297.163,86.819 296.737,86.818 296.369,86.951C295.608,87.225 294.841,87.44 294.046,87.588C293.487,87.693 292.922,87.842 292.404,88.073C291.141,88.636 289.913,89.271 288.857,90.192C288.302,90.676 287.652,91.055 287.213,91.67C285.939,92.345 285.14,93.644 283.817,94.255L283.681,94.361C282.652,95.294 281.783,96.389 281.064,97.546C279.941,99.351 279,101.271 278.03,103.168C277.587,104.033 277.17,104.925 277.187,105.95C277.191,106.219 277.012,106.488 276.932,106.761C276.59,107.925 276.377,109.104 276.473,110.326C276.524,110.979 276.682,111.194 277.356,111.424L277.525,111.463C278.874,111.903 279.255,111.822 280.055,110.745C280.427,110.245 280.682,109.658 280.989,109.11C281.1,108.912 281.191,108.7 281.321,108.515C282.083,107.425 282.95,106.423 283.946,105.54C284.461,105.083 285.028,104.685 285.545,104.231C286.538,103.36 287.594,102.572 288.663,101.799C289.408,101.26 290.162,100.729 290.871,100.145C291.136,99.925 291.43,99.77 291.691,99.578C292.531,98.959 293.457,98.535 294.396,98.114C294.598,98.024 294.745,97.818 294.927,97.677C295.154,97.503 295.376,97.315 295.625,97.179C297.094,96.381 298.622,95.711 300.188,95.127C300.673,94.946 301.133,94.689 301.628,94.55C301.943,94.462 302.32,94.456 302.636,94.539C303.043,94.647 303.303,95.085 302.97,95.483C302.748,95.748 302.464,95.977 302.298,96.273C301.513,97.671 300.724,99.069 300.008,100.502C299.571,101.377 299.258,102.313 299.375,103.331C299.416,103.682 299.439,104.025 299.829,104.191C299.933,104.235 300.028,104.313 300.109,104.393C300.592,104.881 301.109,104.866 301.684,104.554C302.036,104.364 302.415,104.208 302.799,104.098C303.224,103.976 303.649,103.616 304.111,103.946C304.609,104.302 304.814,104.85 304.902,105.428C304.953,105.768 304.932,106.12 304.925,106.467C304.895,107.972 305.07,109.446 305.591,110.868C305.556,111.664 306.089,112.121 306.616,112.579C306.892,112.819 307.364,112.761 307.517,112.446C307.844,111.776 308.27,111.146 308.38,110.383C308.413,110.159 308.433,109.873 308.574,109.736C309.097,109.229 309.062,108.59 309.09,107.958C309.103,107.656 309.215,107.426 309.451,107.214C309.602,107.076 309.728,106.824 309.729,106.622C309.733,105.957 310.016,105.394 310.297,104.827C310.861,103.691 311.517,102.592 311.983,101.417C312.54,100.011 313.408,98.799 314.166,97.519C314.306,97.283 314.561,97.097 314.802,96.953C314.887,96.903 315.183,97.012 315.219,97.109C315.315,97.37 315.349,97.662 315.361,97.944C315.39,98.637 315.25,99.373 315.442,100.012C315.684,100.815 315.633,101.609 315.701,102.406C315.75,102.977 315.646,103.57 315.985,104.09C316.169,105.76 316.573,107.367 317.337,108.873L317.381,109.039C317.376,109.811 317.696,110.456 318.069,111.12C318.546,111.969 318.916,112.883 319.283,113.789C319.651,114.7 320.564,115.28 320.756,116.288C321.776,117.464 322.48,118.862 323.426,120.096C323.888,120.699 324.357,121.216 324.962,121.681C325.533,122.121 326.102,122.175 326.739,122.145C327.08,122.129 327.426,121.77 327.36,121.443C327.156,120.444 327.216,119.405 326.824,118.429C326.57,117.795 326.448,117.115 326.37,116.417C326.274,115.575 326.041,114.73 325.73,113.94C325.491,113.329 325.378,112.738 325.382,112.096C325.385,111.403 325.407,110.699 325.297,110.02C325.165,109.203 324.569,108.455 324.965,107.565C324.566,106.811 324.704,105.989 324.659,105.19C324.642,104.904 324.691,104.564 324.556,104.343C324.129,103.647 324.476,102.843 324.186,102.146C323.886,101.423 324.003,100.665 323.968,99.923C323.933,99.173 323.969,98.42 323.955,97.669C323.949,97.325 323.986,96.942 323.851,96.647C323.466,95.807 323.647,94.939 323.629,94.084C323.62,93.593 323.872,93.41 324.401,93.362C325.074,93.301 325.538,93.465 326.003,94.069C326.578,94.819 327.179,95.648 328.232,95.891C328.483,95.949 328.7,96.215 328.899,96.419C329.099,96.623 329.208,96.97 329.44,97.078C330.26,97.461 330.651,98.277 331.308,98.827C331.956,99.371 332.434,100.124 332.968,100.799C333.254,101.158 333.46,101.589 333.777,101.915C334.701,102.869 335.616,103.807 336.13,105.076C336.406,105.756 337.488,105.857 337.503,106.75C337.517,107.588 338.121,108.099 338.518,108.703C338.924,109.32 339.128,110.083 339.78,110.542C339.893,110.621 339.954,110.852 339.95,111.01C339.933,111.595 340.306,111.978 340.636,112.369C341.042,112.849 341.512,113.281 341.449,113.99C342.25,115.525 342.708,117.211 343.476,118.75C344.124,120.048 344.368,121.492 345.091,122.747C345.129,124.169 346.178,125.262 346.352,126.639C347.098,127.886 347.436,129.301 347.991,130.627C348.389,131.579 348.726,132.557 349.089,133.525C349.451,134.488 349.431,135.566 349.977,136.476C350.031,136.565 350.016,136.702 350.012,136.817C349.989,137.523 350.233,138.17 350.42,138.835C350.683,139.77 350.892,140.722 351.085,141.675C351.234,142.404 351.375,143.14 351.427,143.88C351.504,144.974 351.746,146.031 352.059,147.069C352.345,148.017 352.5,148.966 352.492,149.954C352.488,150.409 352.479,150.906 352.645,151.314C353.095,152.41 353.211,153.548 353.163,154.699C353.103,156.111 353.562,157.408 353.92,158.731L354.17,158.949C354.171,158.432 354.158,157.913 354.184,157.397C354.19,157.268 354.327,157.145 354.403,157.02C354.532,157.127 354.718,157.207 354.781,157.344C355.258,158.392 355.575,159.491 355.588,160.647C355.597,161.512 355.67,162.359 355.915,163.19C356.126,163.903 356.345,164.612 356.324,165.374C356.318,165.587 356.469,165.801 356.526,166.021C356.727,166.794 357.067,167.534 357.008,168.366C356.993,168.581 357.077,168.82 357.169,169.024C357.607,169.99 357.705,171.015 357.672,172.051C357.652,172.688 357.725,173.294 357.929,173.893L357.755,174.13L357.464,174.034C357.321,173.487 357.17,172.937 357.09,172.379C356.962,171.475 356.514,170.637 356.565,169.698C356.574,169.531 356.562,169.331 356.481,169.195C355.848,168.133 355.888,166.88 355.479,165.756C355.344,165.385 355.239,164.982 355.23,164.592C355.205,163.443 354.709,162.365 354.751,161.21C354.451,160.677 354.559,160.089 354.517,159.521C354.499,159.287 354.441,159.068 354.188,158.971C353.981,159.8 353.674,160.614 354.157,161.471C354.284,161.696 354.198,162.038 354.221,162.324C354.248,162.668 354.212,163.041 354.337,163.346C354.568,163.907 354.553,164.485 354.546,165.052C354.538,165.821 354.651,166.529 355.01,167.218C355.162,167.51 355.207,167.877 355.23,168.214C355.262,168.675 355.26,169.123 355.476,169.561C355.596,169.805 355.623,170.128 355.595,170.405C355.516,171.18 355.783,171.889 355.989,172.601C356.101,172.987 356.247,173.353 356.289,173.762C356.323,174.098 356.421,174.437 356.549,174.751C356.745,175.232 356.971,175.689 356.993,176.23C357.01,176.67 357.355,176.935 357.7,177.154L358.011,177.123L358.18,176.85C357.925,176.365 357.934,175.846 357.97,175.331C357.984,175.128 358.113,174.933 358.19,174.735C358.339,174.817 358.486,174.903 358.636,174.981C358.929,175.133 359.234,175.031 359.288,174.74C359.327,174.522 359.362,174.278 359.304,174.071C358.856,172.47 358.543,170.843 358.323,169.196C358.27,168.803 358.135,168.42 358.027,168.035C357.781,167.151 357.419,166.282 357.308,165.383C357.201,164.521 356.954,163.701 356.809,162.855C356.762,162.575 356.626,162.301 356.622,162.023C356.61,161.156 356.69,160.26 356.246,159.484C355.763,158.636 356.124,157.64 355.675,156.805L355.6,156.65C355.516,155.326 354.803,154.134 354.798,152.788C354.797,152.518 354.654,152.226 354.509,151.985C354.226,151.516 354.188,151.016 354.173,150.489C354.154,149.858 354.126,149.217 353.998,148.602C353.824,147.764 353.554,146.948 353.361,146.11C353.159,145.23 352.916,144.33 352.622,143.477C352.077,141.893 351.839,140.249 351.429,138.642C351.219,137.815 350.926,136.988 351.022,136.104C351.04,135.937 351.028,135.733 350.946,135.596C350.402,134.693 350.327,133.63 349.916,132.677C349.258,131.151 348.669,129.592 348.1,128.029C347.749,127.063 347.587,126.018 347.159,125.092C346.725,124.157 346.442,123.176 346.048,122.233C345.318,120.481 344.634,118.71 343.793,117.006C343.617,116.647 343.508,116.255 343.368,115.879C343.027,114.964 342.729,114.03 342.335,113.139C341.474,111.192 340.825,109.153 339.791,107.281C339.31,105.545 338.04,104.177 337.529,102.453C337.481,102.293 337.375,102.14 337.264,102.011C336.879,101.564 336.684,101.031 336.467,100.492C336.19,99.803 335.842,99.134 335.453,98.501C335.063,97.867 334.53,97.319 334.159,96.676C333.813,96.075 333.266,95.598 332.99,95.003C332.668,94.307 332.029,94.028 331.585,93.515C331.427,93.333 331.288,93.124 331.423,92.906C331.498,92.785 331.719,92.673 331.861,92.686C332.629,92.757 333.325,92.382 334.057,92.34C335.444,92.26 336.757,91.84 338.107,91.598C338.273,91.569 338.482,91.537 338.583,91.425C339.005,90.959 339.618,90.828 340.144,90.747C341.126,90.595 341.631,89.691 342.531,89.45C342.786,89.382 342.992,89.115 343.208,88.925C344.446,87.838 345.536,86.559 347.107,85.902C347.612,85.218 348.545,85.136 349.084,84.568C349.684,83.934 350.527,83.891 351.185,83.442C351.413,83.287 351.781,83.324 351.985,83.154C352.729,82.537 353.661,82.411 354.525,82.125C355.359,81.847 356.213,81.726 356.949,82.434C357.174,82.651 357.503,82.714 357.754,82.561C358.359,82.193 358.92,82.208 359.557,82.5C360.019,82.712 360.541,82.819 361.049,82.899C361.441,82.96 361.859,82.951 362.249,82.882C362.433,82.849 362.604,82.622 362.732,82.447C362.839,82.302 362.646,82.053 362.387,81.971Z" style="fill:rgb(86,88,61);fill-rule:nonzero;"/>
    </g>
    <g transform="matrix(1,0,0,1,-276.328,-40.4189)">
        <path d="M330.492,72.418L330.392,72.347L330.378,72.462L330.492,72.418Z" style="fill:rgb(86,88,61);fill-rule:nonzero;"/>
    </g>
    <g transform="matrix(1,0,0,1,-276.328,-40.4189)">
        <path d="M311.443,60.984C311.525,61.38 311.56,61.787 311.696,62.157C312.073,63.181 312.445,64.212 312.912,65.196C313.201,65.808 313.653,66.343 314.05,66.9C314.094,66.961 314.275,66.97 314.366,66.935L314.567,66.698C314.486,65.963 314.419,65.203 314.026,64.566C313.69,64.021 313.425,63.467 313.211,62.865C313,62.272 312.666,61.721 312.369,61.16C312.29,61.011 312.158,60.886 312.032,60.769L311.746,60.613C311.631,60.69 311.559,60.834 311.443,60.984ZM307.825,74.005C307.369,73.95 306.816,74.038 306.474,73.811C305.613,73.24 304.521,73.115 303.775,72.329C303.425,71.959 302.933,71.727 302.565,71.371C301.945,70.771 301.365,70.129 300.784,69.491C300.513,69.195 300.302,68.843 300.022,68.557C298.177,66.676 296.859,64.475 295.996,61.993C295.712,61.173 295.546,60.334 295.547,59.457C295.549,58.773 295.623,58.085 295.286,57.421C295.143,57.138 295.218,56.742 295.204,56.397C295.166,55.424 295.308,54.445 294.95,53.486C294.843,53.198 294.987,52.813 295.03,52.473C295.08,52.077 295.178,51.685 295.197,51.288C295.242,50.375 295.249,49.481 295.471,48.561C295.695,47.633 295.645,46.59 295.485,45.636C295.369,44.938 294.887,44.298 294.551,43.642C294.394,43.336 294.186,43.057 294.027,42.752L294.116,42.486C294.201,42.43 294.336,42.425 294.444,42.438C294.553,42.452 294.671,42.494 294.76,42.559C295.597,43.173 296.477,43.711 297.385,44.219C297.974,44.548 298.454,45.07 298.994,45.494C300.48,46.661 301.964,47.819 303.09,49.378C303.659,50.167 304.556,50.688 305.024,51.579C305.919,52.043 306.345,52.984 307.088,53.613C307.65,54.088 308.072,54.727 308.564,55.286C308.802,55.556 308.751,56.107 309.313,56.064C309.361,55.73 309.454,55.395 309.444,55.063C309.432,54.666 309.328,54.272 309.268,53.876C309.217,53.537 309.145,53.198 309.128,52.857C309.093,52.134 309.254,51.714 309.485,51.865C309.849,52.104 309.711,52.471 309.732,52.79C309.767,53.308 309.777,53.829 309.777,54.349C309.777,54.766 309.83,55.152 310.147,55.463C310.227,55.541 310.308,55.642 310.335,55.747C310.501,56.386 310.308,57.166 311.065,57.568C311.315,58.148 311.565,58.728 311.813,59.308C312.04,59.84 312.382,60.279 312.761,60.722C313.12,61.141 313.259,61.744 313.522,62.252C313.946,63.069 314.426,63.859 314.819,64.689C315.166,65.421 315.283,66.208 315.312,67.032C315.336,67.719 314.988,68.384 315.237,69.07C315.01,69.46 314.784,69.85 314.552,70.237L314.428,70.271L314.336,70.132C314.358,69.353 313.951,68.743 313.645,68.063C313.102,66.854 312.389,65.744 311.828,64.551C311.533,63.924 311.313,63.285 311.114,62.618C310.671,61.136 310.083,59.695 309.537,58.245C309.436,57.979 309.28,57.725 309.106,57.499C307.951,55.999 306.902,54.394 305.587,53.049C304.344,51.778 303.131,50.475 301.9,49.192C300.906,48.155 299.818,47.236 298.757,46.279C298.107,45.694 297.292,45.388 296.605,44.874C296.512,44.804 296.249,44.859 296.135,44.946C296.021,45.035 295.903,45.27 295.944,45.384C296.145,45.94 296.187,46.465 295.941,47.024C295.855,47.22 295.849,47.502 295.916,47.707C296.181,48.504 295.897,49.286 295.9,50.074C295.903,50.824 295.84,51.577 295.871,52.326C295.895,52.94 295.494,53.488 295.789,54.173C296.001,54.664 295.852,55.312 295.862,55.889C295.872,56.525 295.879,57.16 295.888,57.795L295.9,57.967C296.424,59.487 296.494,61.12 297.03,62.63C297.275,63.32 297.528,64.051 298.104,64.579C298.367,65.551 298.941,66.321 299.653,67.007C299.773,67.123 299.843,67.298 299.915,67.454C300.137,67.937 300.421,68.329 300.938,68.571C301.23,68.708 301.483,69.007 301.664,69.29C302.297,70.28 303.197,70.966 304.087,71.706C305.095,72.542 306.298,72.905 307.424,73.452C307.871,73.669 308.418,73.676 308.917,73.788L308.989,73.92L308.845,74.139C308.507,74.087 308.173,74.007 307.838,73.935L307.825,74.005Z" style="fill:rgb(86,88,61);fill-rule:nonzero;"/>
    </g>
    <g transform="matrix(1,0,0,1,-276.328,-40.4189)">
        <path d="M302.839,74.662C302.431,74.668 302.045,74.639 301.696,74.364C301.336,74.081 300.932,73.855 300.548,73.602C300.453,73.539 300.361,73.407 300.269,73.409C299.038,73.426 298.315,72.208 297.129,72.127C296.055,71.353 294.729,71.069 293.649,70.27C292.625,69.514 291.338,69.259 290.141,68.85C289.938,68.78 289.672,68.997 289.663,69.223C289.657,69.394 289.612,69.587 289.674,69.733C290.005,70.521 290.251,71.351 291.081,71.835C291.521,72.091 291.857,72.521 292.262,72.845C292.741,73.229 293.166,73.617 293.863,73.734C294.772,73.887 295.469,74.605 296.202,75.153C296.659,75.495 297.058,75.903 297.545,76.228C298.272,76.714 298.881,77.403 298.956,78.308C299.002,78.861 299.521,79.314 299.179,79.967C298.953,80.4 299.047,80.989 298.874,81.464C298.678,81.997 298.388,82.508 297.925,82.887C297.84,82.956 297.737,83.077 297.743,83.168C297.752,83.319 297.825,83.582 297.901,83.593C298.41,83.668 298.927,83.697 299.441,83.724C300.133,83.76 300.554,84.224 300.971,84.687L300.842,84.961C300.689,85.018 300.468,85.081 300.351,85.012C299.763,84.666 299.125,84.734 298.494,84.726C297.396,84.714 296.298,84.721 295.202,84.681C294.808,84.667 294.387,84.61 294.033,84.451C293.445,84.19 292.861,83.98 292.213,83.964C291.939,83.956 291.804,83.757 291.777,83.514C291.742,83.199 291.89,82.915 292.171,82.812C292.486,82.698 292.84,82.668 293.179,82.646C294.121,82.584 295.03,82.626 295.677,83.485C295.743,83.573 295.991,83.575 296.139,83.544C297.039,83.351 297.386,82.55 297.793,81.887C298.352,80.977 298.454,79.923 298.281,78.877C298.197,78.368 297.936,77.912 297.572,77.514C296.201,76.016 294.6,74.864 292.81,73.88C291.212,73.002 289.693,71.904 288.928,70.092C288.729,69.62 288.404,69.203 288.138,68.759C288.038,68.593 288.184,68.266 288.384,68.2C289.006,67.996 289.654,67.957 290.243,68.214C290.879,68.492 291.498,68.752 292.193,68.871C292.569,68.936 292.954,69.178 293.246,69.44C293.736,69.879 294.334,70.108 294.911,70.333C296.563,70.979 298.204,71.637 299.704,72.593C300.182,72.897 300.8,72.885 301.196,73.399C301.515,73.812 302.068,73.92 302.564,74.086C302.704,74.132 302.749,74.463 302.838,74.664L302.839,74.662Z" style="fill:rgb(86,88,61);fill-rule:nonzero;"/>
    </g>
    <g transform="matrix(1,0,0,1,-276.328,-40.4189)">
        <path d="M318.792,54.705C318.792,53.32 318.805,51.934 318.789,50.549C318.773,49.171 318.333,47.953 317.318,46.984C316.862,46.549 316.418,46.112 315.879,45.755C315.312,45.379 314.859,44.831 314.362,44.352C314.072,44.071 313.772,43.796 313.513,43.487C312.912,42.772 312.07,42.588 311.223,42.42C310.752,42.326 310.451,42.59 310.444,43.098C310.427,44.309 310.409,45.522 310.44,46.733C310.459,47.494 310.4,48.236 310.089,48.928C309.822,49.521 309.784,50.145 309.715,50.77L309.61,50.906L309.511,50.777C309.424,49.86 309.343,48.928 309.611,48.04C309.846,47.263 310.007,46.505 309.832,45.701C310.202,44.543 309.789,43.464 309.496,42.372C309.409,42.049 309.599,41.776 309.905,41.754C310.019,41.746 310.138,41.725 310.249,41.743C311.092,41.881 311.949,41.969 312.77,42.19C313.358,42.348 313.862,42.648 314.274,43.216C314.768,43.897 315.47,44.433 316.165,44.962C317.115,45.685 318.015,46.491 318.649,47.569C318.927,48.041 319.108,48.472 319.132,49.001C319.162,49.686 319.06,50.394 319.436,51.028C319.45,52.229 319.689,53.44 319.285,54.624L319.215,54.78C319.222,55.12 319.167,55.484 319.271,55.792C319.391,56.142 319.409,56.42 319.277,56.775C319.164,57.078 319.14,57.469 319.225,57.78C319.559,59.001 319.733,60.245 319.781,61.499C319.806,62.158 320.141,62.707 320.246,63.329C320.259,63.408 320.411,63.472 320.509,63.526C320.689,63.625 321.026,63.701 321.032,63.803C321.044,64.007 320.885,64.226 320.781,64.43C320.73,64.531 320.65,64.618 320.577,64.706C320.35,64.975 319.815,64.926 319.707,64.602C319.599,64.281 319.531,63.94 319.496,63.603C319.366,62.355 319.248,61.108 318.918,59.889C318.83,59.563 318.841,59.205 318.839,58.861C318.83,57.476 318.835,56.09 318.835,54.705L318.792,54.705Z" style="fill:rgb(86,88,61);fill-rule:nonzero;"/>
    </g>
    <g transform="matrix(1,0,0,1,-276.328,-40.4189)">
        <path d="M321.957,60.175C321.936,59.316 321.984,58.48 322.229,57.626C322.461,56.817 322.741,55.969 322.646,55.09C322.581,54.482 322.98,54.001 323.063,53.435L323.166,53.337L323.265,53.476C323.231,54.162 323.259,54.862 323.131,55.531C322.948,56.483 322.559,57.395 322.608,58.389C322.132,59.483 322.27,60.648 322.209,61.79L322.124,61.935L321.965,61.731C321.952,61.213 321.957,60.694 321.957,60.175Z" style="fill:rgb(86,88,61);fill-rule:nonzero;"/>
    </g>
    <g transform="matrix(1,0,0,1,-276.328,-40.4189)">
        <path d="M325.382,45.52C325.346,46.032 325.309,46.544 325.272,47.056C324.652,47.549 324.888,48.457 324.338,48.984L324.354,48.999C324.375,47.417 324.466,47.114 325.392,45.529L325.382,45.52Z" style="fill:rgb(86,88,61);fill-rule:nonzero;"/>
    </g>
    <g transform="matrix(1,0,0,1,-276.328,-40.4189)">
        <path d="M326.427,43.442C326.46,44.327 326.161,45.044 325.382,45.52L325.392,45.529C325.52,44.726 325.928,44.061 326.428,43.443L326.427,43.442Z" style="fill:rgb(86,88,61);fill-rule:nonzero;"/>
    </g>
    <g transform="matrix(1,0,0,1,-276.328,-40.4189)">
        <path d="M302.838,74.664C303.328,74.81 303.818,74.955 304.306,75.107L304.382,75.213L304.251,75.317C303.65,75.382 303.084,75.364 302.839,74.662L302.838,74.664Z" style="fill:rgb(86,88,61);fill-rule:nonzero;"/>
    </g>
    <g transform="matrix(1,0,0,1,-276.328,-40.4189)">
        <path d="M323.944,50.874C323.918,50.98 323.896,51.087 323.864,51.191L323.769,51.195C323.749,51.035 323.727,50.874 323.725,50.713L323.812,50.578L323.919,50.708L323.944,50.874Z" style="fill:rgb(86,88,61);fill-rule:nonzero;"/>
    </g>
    <g transform="matrix(1,0,0,1,-276.328,-40.4189)">
        <path d="M326.428,43.443C326.436,43.157 326.444,42.871 326.779,42.752L326.769,42.743C326.747,43.021 326.764,43.318 326.427,43.442L326.428,43.443Z" style="fill:rgb(86,88,61);fill-rule:nonzero;"/>
    </g>
    <g transform="matrix(1,0,0,1,-276.328,-40.4189)">
        <path d="M324.338,48.984C324.322,49.094 324.323,49.211 324.283,49.311L324.112,49.476C324.104,49.377 324.06,49.257 324.1,49.184L324.354,48.999L324.338,48.984Z" style="fill:rgb(86,88,61);fill-rule:nonzero;"/>
    </g>
    <g transform="matrix(1,0,0,1,-276.328,-40.4189)">
        <path d="M323.48,52.275L323.551,52.539L323.463,52.646C323.435,52.558 323.396,52.471 323.385,52.381L323.48,52.275Z" style="fill:rgb(86,88,61);fill-rule:nonzero;"/>
    </g>
    <g transform="matrix(1,0,0,1,-276.328,-40.4189)">
        <path d="M290.35,95.476L290.174,95.673L290.201,95.542L290.351,95.477L290.35,95.476Z" style="fill:rgb(86,88,61);fill-rule:nonzero;"/>
    </g>
</svg>
