<?xml version="1.0" encoding="UTF-8" standalone="no"?>
<!DOCTYPE svg PUBLIC "-//W3C//DTD SVG 1.1//EN" "http://www.w3.org/Graphics/SVG/1.1/DTD/svg11.dtd">
<svg width="100%" height="100%" viewBox="0 0 102 137" version="1.1" xmlns="http://www.w3.org/2000/svg" xmlns:xlink="http://www.w3.org/1999/xlink" xml:space="preserve" xmlns:serif="http://www.serif.com/" style="fill-rule:evenodd;clip-rule:evenodd;stroke-linejoin:round;stroke-miterlimit:2;">
    <g transform="matrix(1,0,0,1,-679.274,-159.899)">
        <path d="M679.424,171.937C679.389,175.563 681.644,179.44 685.207,180.113C686.138,180.289 687.188,180.279 687.885,180.92C688.346,181.343 688.552,181.971 688.916,182.479C689.8,183.71 691.56,184.075 693.014,183.649C694.467,183.222 695.647,182.15 696.596,180.968C699.065,177.892 700.256,173.983 700.956,170.101C701.314,168.112 701.412,165.71 699.829,164.453C698.338,163.27 696.145,163.763 694.415,164.557C692.686,165.351 690.926,166.417 689.036,166.21C684.476,165.712 679.488,165.491 679.424,171.937Z" style="fill:rgb(255,192,169);fill-rule:nonzero;"/>
    </g>
    <g transform="matrix(1,0,0,1,-679.274,-159.899)">
        <path d="M709.052,197.918C714.216,194.431 719.531,189.508 714.33,183.02C711.669,179.702 707.197,179.664 703.683,181.683C699.638,184.007 699.122,186.924 700.182,191.003C700.744,193.164 700.094,196.938 701.447,198.626C703.498,201.186 706.934,199.349 709.052,197.918Z" style="fill:rgb(255,192,169);fill-rule:nonzero;"/>
    </g>
    <g transform="matrix(1,0,0,1,-679.274,-159.899)">
        <path d="M725.234,177.767C726.022,179.128 727.318,180.107 728.601,181.015C729.684,181.781 730.879,182.555 732.206,182.529C734.451,182.485 736.359,180.162 738.551,180.645C739.708,180.9 740.622,181.91 741.801,182.021C742.933,182.127 743.957,181.374 744.772,180.579C747.663,177.76 749.49,173.875 749.816,169.85C750.274,164.211 745.663,163.562 741.261,164.043C737.757,164.425 735.587,162.952 732.328,162.766C728.404,162.542 728.591,165.139 728.026,168.455C727.481,171.651 723.178,174.217 725.234,177.767Z" style="fill:rgb(255,192,169);fill-rule:nonzero;"/>
    </g>
    <g transform="matrix(1,0,0,1,-679.274,-159.899)">
        <path d="M761.236,185.89C762.17,186.623 763.359,187.197 763.779,188.309C764.45,190.089 762.721,192.067 763.254,193.893C763.573,194.984 764.654,195.714 765.766,195.946C766.878,196.178 768.03,196.004 769.153,195.829C771.262,195.501 773.632,195.007 774.762,193.196C775.181,192.525 775.375,191.739 775.52,190.962C775.867,189.099 775.956,187.14 775.368,185.34C774.779,183.539 773.423,181.916 771.607,181.372C770.449,181.026 768.753,181.221 767.773,180.402C766.229,179.113 767.234,177.919 766.444,176.485C765.385,174.563 764.85,173.584 762.24,174.517C757.609,176.174 757.813,183.203 761.236,185.89Z" style="fill:rgb(255,192,169);fill-rule:nonzero;"/>
    </g>
    <g transform="matrix(1,0,0,1,-679.274,-159.899)">
        <path d="M767.54,221.69C768.205,222.083 768.93,222.441 769.701,222.428C771.038,222.406 772.089,221.303 772.866,220.215C774.481,217.948 774.951,215.22 776.375,212.94C777.808,210.649 780.39,209.863 780.277,206.805C780.136,203.02 776.452,201.319 773.148,201.597C769.467,201.908 765.598,204.457 763.895,207.74C760.989,213.345 762.204,218.528 767.54,221.69Z" style="fill:rgb(255,192,169);fill-rule:nonzero;"/>
    </g>
    <g transform="matrix(1,0,0,1,-679.274,-159.899)">
        <path d="M779.195,208.672C779.15,209.631 778.729,210.464 777.987,211.032C777.341,211.525 776.73,212.045 776.194,212.64C775.531,213.378 775.15,214.25 775.014,215.259C774.863,216.386 774.499,217.488 774.389,218.615C774.306,219.453 773.989,220.164 773.655,220.893C773.607,220.997 773.563,221.107 773.495,221.196C773.132,221.666 772.729,222.062 772.061,221.997C771.832,221.975 771.6,221.993 771.228,221.993C770.122,222.244 769.197,221.405 768.132,221.036C767.563,220.457 766.732,220.305 766.118,219.807C765.76,219.516 765.234,219.611 764.925,219.176C764.363,218.383 763.664,217.677 763.369,216.721C763.307,216.523 763.346,216.285 763.37,216.07C763.42,215.616 763.516,215.167 763.543,214.713C763.556,214.495 763.529,214.179 763.391,214.065C762.596,213.411 763.117,212.904 763.478,212.304C763.855,211.677 764.301,211.219 765.035,211.071L765.17,210.798C765.078,210.411 765.012,209.999 764.824,209.658C764.413,208.918 764.686,208.257 765.126,207.742C765.911,206.826 766.815,206.012 767.673,205.161C767.753,205.082 767.86,205.002 767.965,204.982C768.911,204.804 769.578,204.17 770.284,203.596C770.417,203.488 770.563,203.326 770.71,203.317C771.516,203.262 772.235,202.794 773.062,202.852C773.579,202.888 774.11,202.832 774.612,202.931C775.165,203.04 775.545,203.602 776.16,203.619C776.807,204.268 777.463,204.911 778.099,205.571C778.254,205.733 778.305,206.009 778.476,206.138C779.364,206.809 779.237,207.757 779.195,208.672ZM708.371,197.245C708.096,197.509 707.714,197.587 707.348,197.538C707.339,197.69 707.332,197.843 707.329,197.994C707.325,198.144 707.211,198.348 707.085,198.427C706.264,198.946 705.469,199.513 704.402,199.429C703.88,199.388 703.375,199.435 702.948,199.038C702.79,198.892 702.553,198.796 702.337,198.753C701.844,198.655 701.51,198.322 701.223,197.976C700.823,197.493 700.429,196.978 700.164,196.415C699.852,195.75 699.676,195.057 700.159,194.314C700.524,193.749 700.783,193.113 700.764,192.369C700.747,191.649 700.563,191.011 700.231,190.4C699.907,189.802 699.555,189.219 699.219,188.629C699.163,188.529 699.085,188.424 699.08,188.318C699.021,187.233 698.813,186.133 699.401,185.109C699.602,184.76 699.852,184.404 699.92,184.022C700.063,183.215 700.637,182.732 701.128,182.18C701.857,181.363 702.749,180.921 703.873,180.979C704.742,181.025 705.595,180.991 706.373,180.488C706.597,180.344 706.922,180.327 707.205,180.308C707.664,180.278 708.127,180.274 708.588,180.293C709.16,180.318 709.73,180.377 710.301,180.422C710.993,181.026 711.985,181.12 712.609,181.876C713.194,182.584 713.904,183.187 714.288,184.052C714.379,184.259 714.485,184.489 714.651,184.63C715.166,185.065 715.299,185.694 715.582,186.253C715.988,187.052 716.158,187.872 716.073,188.562C716.05,189.384 716.15,190.024 715.797,190.611C715.715,190.746 715.715,190.948 715.726,191.117C715.797,192.269 715.151,193.201 714.778,194.213C714.622,194.635 714.424,195.071 714.141,195.412C713.247,196.489 711.577,197.293 710.2,196.963C709.843,196.877 709.504,196.713 709.172,196.527C708.9,196.758 708.63,196.993 708.371,197.245ZM730.957,180.685C730.735,180.674 730.48,180.622 730.306,180.497C729.843,180.164 729.461,179.688 728.962,179.445C728.493,179.216 728.073,178.979 727.67,178.635C726.473,177.611 726.2,176.231 725.973,174.751C726.414,173.066 726.383,171.249 727.481,169.716C727.936,169.082 728.243,168.322 728.516,167.583C728.793,166.836 728.948,166.044 729.155,165.272C729.288,164.775 729.404,164.272 729.554,163.78C729.735,163.19 730.116,162.794 730.737,162.641C731.18,162.531 731.623,162.265 732.055,162.288C733.285,162.352 734.249,161.679 735.277,161.224C736.431,160.713 737.275,160.933 737.51,162.111C737.75,163.309 738.414,164.179 739.234,165.009C739.514,165.293 739.795,165.401 740.144,165.363C740.482,165.326 740.837,165.28 741.141,165.142C741.867,164.812 742.656,164.626 743.3,164.099C743.648,163.815 744.116,163.677 744.528,163.471C744.864,163.303 745.2,163.312 745.517,163.502C745.861,163.707 746.239,163.888 746.519,164.163C747.174,164.806 747.782,165.498 748.404,166.174C748.479,166.256 748.56,166.359 748.578,166.462C748.695,167.135 748.662,167.858 749.241,168.371C749.37,168.986 749.595,169.6 749.605,170.217C749.618,171.012 749.397,171.794 749.065,172.532C748.497,173.798 747.724,174.947 746.853,176.006C745.905,177.157 745.029,178.36 744.198,179.588C743.391,180.782 742.445,181.819 741.37,182.757C740.853,183.208 740.202,183.291 739.653,182.928C739.272,182.677 738.904,182.396 738.577,182.08C738.02,181.543 737.372,181.216 736.622,181.064C736.063,180.95 735.501,180.843 734.952,180.692C734.684,180.618 734.416,180.483 734.196,180.313C733.977,180.144 733.82,180.097 733.614,180.305C733.361,180.56 733.054,180.709 732.688,180.707C732.111,180.705 731.533,180.715 730.957,180.685ZM779.573,206.288C779.253,205.87 779.287,205.245 778.785,204.993C778.214,204.708 778.066,204.107 777.705,203.67C776.706,202.461 775.317,202.074 773.893,201.907C772.586,201.754 771.247,201.763 770.031,202.513C769.748,202.688 769.427,202.804 769.159,203.03C768.854,203.287 768.535,203.574 768.17,203.705C767.375,203.99 766.905,204.703 766.192,205.083C765.959,205.572 765.522,205.847 765.115,206.172C764.204,206.899 763.713,207.831 763.891,209.04C763.924,209.267 763.889,209.503 763.903,209.733C763.945,210.431 764.052,211.134 763.179,211.478C763.013,211.543 762.937,211.851 762.831,212.053C762.51,212.667 762.21,213.291 761.869,213.892C761.766,214.072 761.574,214.228 761.386,214.325C761.134,214.454 760.818,214.467 760.579,214.613C758.706,215.757 756.449,216.074 754.652,217.376C753.342,217.71 752.238,218.446 751.121,219.16C750.927,219.284 750.712,219.404 750.492,219.447C749.956,219.552 749.5,219.721 749.279,220.289C749.23,220.416 749.004,220.566 748.875,220.553C748.09,220.476 747.633,221.1 747.02,221.381C746.548,221.597 746.08,221.832 745.643,222.11C745.163,222.415 744.719,222.778 744.26,223.116C744.148,223.767 743.459,223.699 743.079,224.029C742.418,224.6 741.982,225.346 741.356,225.925C740.63,226.596 739.971,227.345 739.522,228.201C739.108,228.99 738.42,229.389 737.748,229.775C736.95,230.235 735.997,230.504 735.083,230.211C734.338,229.972 733.607,229.95 732.864,229.983C731.637,230.035 730.494,229.605 729.305,229.445C729.11,229.418 728.967,229.079 729.041,228.894C730.122,226.232 731.236,223.583 732.188,220.87C732.569,219.788 732.953,218.694 733.474,217.676C733.915,216.817 734.356,215.958 734.782,215.09C735.207,214.22 735.832,213.443 735.917,212.422C735.929,212.276 736.124,212.153 736.21,212.004C736.382,211.705 736.607,211.414 736.686,211.09C737.006,209.784 737.695,208.656 738.339,207.507C739.157,206.051 739.964,204.588 741.249,203.463C741.549,203.2 741.772,202.85 742.045,202.554C742.857,201.676 743.617,200.738 744.508,199.95C745.45,199.118 746.504,198.409 747.54,197.691C747.968,197.394 748.395,197.127 748.623,196.639C748.17,196.665 747.755,196.707 747.356,197.029C746.332,197.857 745.253,198.615 744.198,199.404C744.063,199.505 743.914,199.605 743.818,199.739C743.412,200.305 742.929,200.776 742.381,201.217C741.809,201.68 741.381,202.32 740.87,202.863C739.799,203.999 738.836,205.234 738.128,206.612C736.866,209.07 735.728,211.593 734.538,214.089L734.473,214.25C734.295,215.114 733.795,215.835 733.429,216.616C733.065,217.391 732.881,218.248 732.214,218.874C732.03,219.048 732.021,219.403 731.92,219.671C731.554,220.639 731.17,221.6 730.82,222.573C730.473,223.535 729.997,224.439 729.686,225.425C729.325,226.568 728.735,227.639 728.255,228.746C728.004,229.327 727.791,229.924 727.537,230.502C726.81,232.143 725.831,233.624 724.706,235.018C723.95,235.956 723.212,236.911 722.494,237.878C721.604,239.075 720.711,240.262 719.532,241.201C719.361,241.338 719.279,241.581 719.141,241.764C719.004,241.946 718.877,242.158 718.696,242.282C717.697,242.964 716.737,243.688 715.855,244.521C715.337,245.009 714.63,245.143 713.974,245.358C713.756,245.429 713.489,245.585 713.379,245.311C713.311,245.143 713.412,244.855 713.526,244.678C713.74,244.348 714.052,244.08 714.264,243.748C715.13,242.391 716.022,241.047 716.808,239.644C717.279,238.804 717.789,237.959 718.03,237.012C718.189,236.388 718.485,235.835 718.733,235.253C718.977,234.678 719.033,234.013 719.321,233.468C719.893,232.385 720.196,231.226 720.511,230.063C720.616,229.676 720.852,229.299 720.852,228.918C720.854,228.141 721.059,227.45 721.398,226.768C721.522,226.52 721.515,226.208 721.579,225.928C721.655,225.595 721.723,225.259 721.828,224.936C722.286,223.515 722.826,222.116 723.194,220.673C723.392,219.897 723.527,219.119 723.827,218.359C724.117,217.626 724.024,216.759 724.51,216.068C724.636,214.924 724.908,213.82 725.329,212.745C725.428,212.493 725.36,212.173 725.361,211.884C725.364,211.242 725.428,210.616 725.778,210.054C726,209.697 726.055,209.304 726.051,208.892C726.049,208.604 725.993,208.268 726.116,208.037C726.536,207.246 726.42,206.348 726.698,205.524C726.969,204.719 727.191,203.872 727.161,202.992C727.156,202.831 727.251,202.663 727.312,202.503C727.817,201.156 728.073,199.735 728.405,198.349C728.872,196.398 729.431,194.472 729.91,192.525C730.047,191.967 730.235,191.434 730.227,190.847C730.22,190.327 730.276,189.827 730.668,189.397C730.841,189.208 730.895,188.872 730.922,188.595C731.02,187.617 731.505,186.709 731.549,185.751C731.596,184.716 732.047,183.897 732.495,183.038C732.597,182.841 732.604,182.595 732.661,182.373C732.893,181.455 733.019,181.346 733.793,181.732C734.289,181.979 734.78,182.029 735.296,182.051C735.642,182.067 735.99,182.058 736.335,182.05C736.826,182.039 737.25,182.185 737.564,182.571C738.011,183.121 738.632,183.445 739.195,183.842C739.373,183.968 739.604,184.05 739.823,184.088C740.784,184.252 741.609,184.163 742.192,183.179C742.503,182.653 743.056,182.254 743.545,181.852C743.816,181.63 744.032,181.387 744.248,181.115C746.281,178.548 748.176,175.886 749.845,173.067C750.517,172.541 750.247,171.651 750.632,171.011L750.578,170.687C750.32,170.262 750.374,169.794 750.374,169.335C750.374,168.807 750.293,168.304 750.033,167.833C749.894,167.583 749.763,167.318 749.689,167.043C749.333,165.717 748.493,164.701 747.605,163.71C747.138,163.188 746.571,162.814 745.947,162.509C745.618,162.348 745.294,162.305 744.946,162.425C743.586,162.889 742.271,163.452 741.016,164.153C740.495,164.444 740.23,164.42 739.773,164.019C739.334,163.635 738.915,163.234 738.757,162.646C738.577,161.974 738.192,161.401 737.885,160.79C737.508,160.042 736.878,159.692 736.234,160.025C735.501,160.403 734.719,160.561 733.947,160.777C733.232,160.978 732.561,161.363 731.78,161.308C731.672,161.3 731.527,161.325 731.454,161.394C730.93,161.889 730.213,161.982 729.608,162.303C728.673,162.799 728.049,163.444 728.197,164.624C728.322,165.618 728.076,166.575 727.65,167.476C727.309,168.198 726.942,168.923 726.53,169.591C725.971,170.496 725.666,171.439 725.399,172.449C725.127,173.47 725.034,174.473 725.057,175.515C725.081,176.539 725.708,177.344 725.974,178.278C726.016,178.426 726.2,178.534 726.318,178.66C726.867,179.242 727.711,179.493 728.098,180.255C728.972,180.692 729.825,181.162 730.535,181.85C730.82,182.126 731.45,181.892 731.519,182.391C731.57,182.764 731.407,183.177 731.295,183.559C731.103,184.221 730.784,184.859 730.687,185.532C730.531,186.616 730.247,187.662 729.971,188.714C730.156,189.868 729.361,190.794 729.229,191.877C729.181,192.27 728.956,192.643 728.917,193.036C728.828,193.957 728.525,194.824 728.331,195.718C728.137,196.615 728.033,197.529 727.654,198.38C727.562,198.585 727.531,198.824 727.507,199.052C727.427,199.84 727.608,200.69 726.919,201.326C726.849,201.391 726.833,201.542 726.834,201.654C726.848,202.722 726.299,203.647 726.049,204.648C725.923,205.151 725.758,205.635 725.77,206.156C725.79,207.034 725.569,207.862 725.302,208.687C725.198,209.009 725.078,209.358 725.102,209.685C725.171,210.627 724.87,211.508 724.715,212.411C724.581,213.196 724.406,213.987 724.127,214.73C723.903,215.33 723.667,215.896 723.671,216.555C723.674,216.887 723.54,217.227 723.437,217.552C723.085,218.648 722.67,219.725 722.373,220.835C722.078,221.94 721.958,223.094 721.381,224.115C721.327,224.212 721.304,224.334 721.291,224.446C721.128,225.942 720.581,227.34 720.16,228.765C719.868,229.751 719.446,230.701 719.308,231.728C719.206,232.484 718.918,233.159 718.6,233.841C718.188,234.726 717.867,235.653 717.468,236.545C717.05,237.483 716.685,238.467 716.121,239.313C715.133,240.795 714.171,242.288 713.248,243.811C712.795,244.557 712.184,245.17 711.416,245.61C711.07,245.809 710.81,245.716 710.813,245.368C710.819,244.618 710.707,243.829 710.905,243.129C711.132,242.323 711.099,241.536 711.134,240.735C711.157,240.218 711.086,239.661 711.258,239.196C711.47,238.626 711.473,238.07 711.477,237.497C711.497,234.896 711.504,232.294 711.528,229.693C711.533,229.236 711.497,228.74 711.656,228.331C711.876,227.763 711.864,227.202 711.866,226.629C711.869,225.704 711.85,224.779 711.85,223.855C711.851,222.872 711.805,221.885 711.884,220.908C711.958,219.999 711.543,219.105 711.85,218.198C711.884,218.097 711.872,217.954 711.826,217.858C711.376,216.927 711.557,215.934 711.522,214.962C711.493,214.154 711.623,213.298 711.396,212.55C711.169,211.803 711.158,211.085 711.13,210.342C711.117,209.997 711.166,209.617 711.039,209.317C710.777,208.7 710.856,208.067 710.806,207.439C710.747,206.698 710.798,205.963 710.514,205.228C710.27,204.6 710.176,203.887 710.153,203.208C710.119,202.199 709.815,201.275 709.398,200.394C709.11,199.786 709.068,199.182 709.09,198.547C709.101,198.266 709.366,197.973 709.657,198.004C710.654,198.108 711.589,197.747 712.56,197.666C712.924,197.636 713.228,197.522 713.446,197.211C713.577,197.025 713.695,196.79 713.88,196.688C714.566,196.309 714.934,195.661 715.302,195.033C715.671,194.403 716.122,193.788 716.056,192.977C716.039,192.768 716.178,192.539 716.274,192.332C716.863,191.052 717.069,189.712 717.042,188.307C717.023,187.301 716.762,186.42 716.265,185.538C715.386,183.978 714.342,182.555 713.184,181.199C712.756,180.698 712.268,180.327 711.68,180.071C711.419,179.956 711.06,179.969 710.879,179.789C710.409,179.321 709.853,179.318 709.269,179.325C708.691,179.332 708.113,179.33 707.535,179.325C707.012,179.321 706.511,179.357 706.014,179.576C705.103,179.979 704.129,180.071 703.139,180.023C702.671,180.001 702.225,180.037 701.859,180.408C701.705,180.566 701.47,180.648 701.266,180.753C700.636,181.074 700.066,181.412 699.971,182.238C699.935,182.555 699.718,182.917 699.472,183.13C698.868,183.654 698.72,184.405 698.377,185.059C697.922,185.929 697.905,186.824 698.231,187.736C698.501,188.492 698.801,189.239 699.058,190C699.924,192.568 700.057,191.704 699.189,194.269C698.862,195.232 698.922,196.198 699.435,197.109C699.775,197.712 700.096,198.317 700.726,198.699C700.956,198.839 701.092,199.127 701.288,199.332C701.404,199.454 701.551,199.635 701.687,199.637C702.421,199.646 702.941,200.167 703.582,200.373C704.044,200.521 704.549,200.778 705.049,200.428C705.966,200.427 706.673,199.891 707.432,199.487C707.62,199.387 707.747,199.089 708.013,199.257C708.203,199.377 708.398,199.542 708.5,199.735C708.629,199.978 708.741,200.274 708.728,200.542C708.69,201.38 709.122,202.098 709.262,202.885C709.414,203.729 709.535,204.577 709.67,205.424C709.76,205.983 709.865,206.539 709.94,207.1C710.032,207.779 709.985,208.502 710.209,209.13C710.475,209.87 710.456,210.597 710.475,211.342C710.495,212.092 710.389,212.878 710.577,213.585C710.804,214.445 710.812,215.289 710.821,216.15C710.827,216.669 710.828,217.171 711.069,217.67C711.206,217.957 711.242,218.391 711.128,218.682C710.816,219.479 710.782,220.225 711.128,221.018C711.236,221.263 711.166,221.588 711.167,221.877C711.169,223.553 711.171,225.23 711.165,226.906C711.164,227.252 711.233,227.651 711.089,227.932C710.721,228.653 710.852,229.401 710.823,230.142C710.798,230.777 710.926,231.454 710.743,232.036C710.506,232.783 710.528,233.513 710.52,234.258C710.497,236.28 710.491,238.303 710.473,240.326C710.47,240.673 710.551,241.067 710.415,241.355C710.076,242.074 710.185,242.821 710.114,243.56C710.048,244.241 709.873,244.912 709.727,245.583C709.709,245.663 709.574,245.756 709.481,245.771C709.388,245.786 709.221,245.74 709.188,245.672C709.013,245.312 708.858,244.941 708.721,244.565C707.976,242.518 707.512,240.379 706.631,238.372C705.934,236.784 705.186,235.237 704.151,233.841C703.229,232.596 702.299,231.358 701.371,230.118C700.651,229.156 699.931,228.199 699.146,227.281C697.724,225.619 696.41,223.867 694.774,222.395C694.523,222.169 694.357,221.85 694.145,221.579C693.439,220.673 692.819,219.698 691.979,218.899C691.687,218.621 691.389,218.334 691.164,218.003C690.051,216.357 688.545,215.084 687.092,213.777C686.15,212.928 685.227,212.133 684.624,210.967C684.094,209.941 683.625,208.916 683.355,207.796C683.06,206.573 682.78,205.347 682.448,204.135C682.205,203.244 681.982,202.368 682.022,201.425C682.06,200.504 682.153,199.529 681.91,198.666C681.65,197.743 681.686,196.847 681.646,195.934C681.623,195.416 681.652,194.888 681.559,194.383C681.504,194.081 681.497,193.817 681.615,193.554C681.98,192.741 682.041,191.886 681.992,191.015C681.932,189.965 682.183,188.953 682.428,187.954C682.551,187.45 682.789,186.954 682.706,186.444C682.602,185.806 683.17,185.569 683.349,185.113C683.41,184.956 683.383,184.768 683.422,184.6C683.501,184.269 683.549,183.917 683.698,183.618C683.961,183.088 684.152,182.55 684.107,181.959C684.065,181.403 684.317,180.949 684.563,180.495C684.699,180.245 684.913,180.037 685.058,179.791L685.004,179.482C684.943,179.402 684.817,179.352 684.71,179.33C684.395,179.265 684.175,179.452 683.937,179.625C683.242,180.129 683.181,180.133 682.674,179.577C681.943,178.774 681.231,177.952 680.523,177.128C680.416,177.004 680.313,176.825 680.312,176.672C680.309,175.344 680.176,173.992 680.382,172.696C680.632,171.115 681.22,169.61 682.005,168.179C682.481,167.314 683.104,166.749 684.004,166.423C684.382,166.286 684.819,166.183 685.096,165.924C685.62,165.434 686.218,165.405 686.859,165.392C687.504,165.379 688.112,165.464 688.696,165.772C689.456,166.174 690.223,166.245 690.966,165.678C691.141,165.545 691.375,165.435 691.59,165.419C692.077,165.383 692.426,165.089 692.838,164.899C694.037,164.348 695.245,163.83 696.37,163.127C696.635,162.961 697.032,162.982 697.371,162.964C697.531,162.955 697.732,163.012 697.855,163.113C698.69,163.799 699.698,164.314 700.174,165.365C700.289,165.621 700.427,165.895 700.44,166.165C700.476,166.973 700.497,167.786 700.446,168.592C700.382,169.561 699.976,170.485 700.038,171.483C700.054,171.75 699.839,172.024 699.804,172.305C699.737,172.842 699.46,173.278 699.197,173.723C698.905,174.217 698.586,174.696 698.314,175.199C697.52,176.665 696.655,178.086 695.682,179.441C695.551,179.624 695.416,179.813 695.252,179.966C694.663,180.514 693.987,180.989 693.481,181.604C692.844,182.377 691.287,182.738 690.505,182.719C689.778,182.701 689.049,182.437 688.337,182.228C688.075,182.151 687.864,181.908 687.618,181.76C687.177,181.496 687.004,181.117 687.081,180.615C687.099,180.504 687.125,180.389 687.117,180.279C687.1,180.077 686.771,179.934 686.566,180.028C686.238,180.177 685.953,180.675 686.034,180.995C686.118,181.328 686.195,181.67 686.334,181.982C686.497,182.345 686.69,182.655 687.164,182.776C687.997,182.988 688.813,183.285 689.612,183.607C690.132,183.817 690.583,183.752 691.113,183.62C691.904,183.422 692.601,183.098 693.303,182.691C694.207,182.166 694.993,181.493 695.829,180.884C696.247,180.579 696.601,180.183 696.605,179.595C696.606,179.291 696.738,179.059 697.016,178.89C697.206,178.775 697.399,178.613 697.513,178.426C698.26,177.199 699.003,175.969 699.713,174.72C700.247,173.782 700.884,172.882 700.907,171.728C700.914,171.39 701.029,171.052 701.11,170.718C701.204,170.329 701.387,169.947 701.402,169.558C701.445,168.346 701.437,167.132 701.422,165.918C701.418,165.641 701.36,165.336 701.231,165.094C700.537,163.792 699.507,162.79 698.22,162.101C697.634,161.787 696.984,161.59 696.284,162.097C695.638,162.564 694.868,162.839 694.247,163.384C693.737,163.831 692.969,163.866 692.44,164.327C691.5,164.342 690.656,164.731 689.774,164.98C689.528,165.05 689.195,164.98 688.953,164.866C688.31,164.567 687.696,164.33 687.004,164.735C686.873,164.812 686.664,164.751 686.491,164.758C685.314,164.804 684.271,165.283 683.231,165.77C682.82,165.963 682.331,166.085 682.028,166.389C681.675,166.743 681.491,167.264 681.225,167.708C681.137,167.856 680.979,167.975 680.928,168.131C680.633,169.056 679.994,169.864 679.959,170.871C679.945,171.3 679.741,171.639 679.601,172.014C679.482,172.335 679.327,172.667 679.314,172.999C679.27,174.153 679.27,175.309 679.277,176.465C679.281,177.003 679.5,177.454 679.884,177.85C680.645,178.634 681.384,179.44 682.113,180.255C682.414,180.593 682.601,181.027 683.139,181.117C683.269,181.139 683.383,181.472 683.432,181.679C683.468,181.833 683.406,182.021 683.356,182.183C683.003,183.33 682.321,184.374 682.31,185.629C682.309,185.785 682.155,185.936 682.096,186.098C681.941,186.529 681.842,186.988 681.642,187.397C681.034,188.637 681.619,190.043 681.06,191.297C680.936,191.576 681.051,191.983 681.117,192.319C681.163,192.553 681.242,192.77 681.045,192.954C680.718,193.263 680.677,193.653 680.683,194.068C680.692,194.704 680.627,195.347 680.706,195.973C680.782,196.579 680.873,197.176 680.891,197.79C680.911,198.476 680.908,199.193 681.111,199.834C681.329,200.522 681.309,201.196 681.338,201.883C681.373,202.742 681.471,203.581 681.662,204.436C681.921,205.605 682.537,206.704 682.432,207.955C682.418,208.115 682.505,208.291 682.569,208.45C682.828,209.088 683.09,209.724 683.361,210.356C683.773,211.316 684.32,212.169 685.104,212.888C686.118,213.818 687.252,214.632 688.027,215.805C688.085,215.895 688.204,215.946 688.296,216.013C689.344,216.763 690.128,217.752 690.835,218.811C691.156,219.29 691.439,219.799 691.803,220.243C692.744,221.39 693.658,222.571 694.7,223.621C695.8,224.73 696.763,225.95 697.757,227.14C698.897,228.504 699.978,229.923 701.085,231.317C701.762,232.169 702.321,233.114 703.121,233.872C703.285,234.029 703.435,234.219 703.533,234.422C704.279,235.966 705.231,237.402 705.857,239.012C706.109,239.659 706.247,240.336 706.504,240.967C706.895,241.924 707.461,242.811 707.459,243.9C707.459,244.112 707.615,244.332 707.726,244.532C707.957,244.946 708.051,245.384 708.095,245.853C708.127,246.188 708.222,246.534 708.37,246.837C708.936,247.999 709.251,249.201 709.137,250.508C709.092,251.025 709.14,251.548 709.125,252.068C709.118,252.355 709.149,252.681 709.025,252.917C708.707,253.524 708.79,254.157 708.786,254.786C708.765,257.907 708.756,261.029 708.738,264.151C708.735,264.723 708.799,265.299 708.507,265.847C708.414,266.023 708.429,266.308 708.497,266.509C708.869,267.639 708.856,268.763 708.535,269.899C708.492,270.053 708.458,270.262 708.527,270.388C708.821,270.934 708.714,271.517 708.74,272.088C708.816,273.749 708.557,275.435 709.114,277.062C709.167,277.218 709.113,277.408 709.132,277.579C709.275,278.829 709.476,280.065 709.735,281.3C709.981,282.474 710.723,283.531 710.565,284.798C710.553,284.9 710.637,285.014 710.68,285.121C710.984,285.867 711.301,286.608 711.591,287.359C712.147,288.799 712.838,290.182 713.402,291.619C713.654,292.261 713.949,292.871 714.313,293.458C714.798,294.238 715.227,295.054 715.687,295.85C715.859,296.149 716.038,296.445 716.242,296.721C716.282,296.776 716.463,296.773 716.556,296.736C716.926,296.591 717.109,296.146 716.875,295.908C716.3,295.321 715.908,294.628 715.574,293.886C715.271,293.215 715.025,292.524 714.481,291.962C714.184,291.654 714.093,291.141 713.924,290.715C713.585,289.86 713.354,288.959 712.852,288.174C712.132,287.049 711.881,285.75 711.459,284.511C710.921,282.933 710.869,281.235 710.227,279.683C710.122,279.429 710.163,279.116 710.133,278.83C709.987,277.417 709.935,275.985 709.654,274.598C709.502,273.849 709.453,273.122 709.444,272.378C709.431,271.222 709.441,270.066 709.44,268.909C709.44,267.753 709.497,266.593 709.424,265.442C709.354,264.308 709.856,263.186 709.452,262.051C709.398,261.902 709.413,261.683 709.484,261.54C709.972,260.559 709.475,259.504 709.729,258.509C709.312,257.544 709.876,256.602 709.798,255.645C710.209,254.891 710.074,254.07 710.089,253.268C710.108,252.286 710.159,251.301 710.109,250.322C710.063,249.433 710.819,248.902 710.97,248.116C711.579,247.687 712.143,247.167 712.806,246.853C713.574,246.488 714.294,246.017 715.136,245.786C715.561,245.67 715.926,245.328 716.309,245.073C717.274,244.432 718.03,243.529 718.948,242.853C720.045,242.045 720.831,241.021 721.585,239.937C721.684,239.796 721.78,239.651 721.893,239.522C722.461,238.878 723.055,238.255 723.602,237.593C724.186,236.885 724.678,236.095 725.304,235.428C725.898,234.797 726.387,234.091 726.947,233.439C727.334,232.988 727.597,232.497 727.777,231.942C727.865,231.669 727.988,231.408 728.09,231.14C728.23,230.773 728.501,230.58 728.886,230.6C730.026,230.657 731.196,230.362 732.299,230.889C732.445,230.959 732.641,230.929 732.814,230.932C733.97,230.948 735.126,230.94 736.282,230.981C737.331,231.019 738.217,230.584 738.972,229.964C739.627,229.425 740.268,228.78 740.675,228.05C741.22,227.073 742.057,226.363 742.676,225.466C742.896,225.148 743.243,224.904 743.564,224.672C744.683,223.864 745.858,223.129 746.929,222.265C747.615,221.712 748.543,221.638 749.15,220.987C750.553,220.333 751.737,219.288 753.226,218.769C753.92,218.527 754.533,218.05 755.187,217.689C755.386,217.578 755.602,217.499 755.807,217.399C756.478,217.073 757.147,216.742 757.819,216.416C758.073,216.293 758.329,216.082 758.586,216.077C759.311,216.064 759.921,215.775 760.551,215.473C761.225,215.151 761.624,215.317 761.952,215.949C762.244,216.513 762.573,217.061 762.825,217.642C763.203,218.514 763.822,219.218 764.536,219.77C765.437,220.466 766.466,221.002 767.459,221.573C768.344,222.083 769.369,222.342 770.124,223.082C770.204,223.16 770.317,223.244 770.419,223.253C771.399,223.336 772.393,223.45 773.244,222.786C774.235,222.013 774.85,221.029 775.013,219.75C775.143,218.726 775.435,217.723 775.364,216.674C775.352,216.511 775.418,216.334 775.479,216.175C775.702,215.584 775.911,214.986 776.173,214.411C776.559,213.567 777.092,212.78 777.832,212.246C778.811,211.539 779.394,210.647 779.844,209.544C780.329,208.359 780.326,207.273 779.573,206.288Z" style="fill:rgb(86,88,61);fill-rule:nonzero;"/>
    </g>
    <g transform="matrix(1,0,0,1,-679.274,-159.899)">
        <path d="M774.899,186.444C774.686,187.273 774.419,188.112 774.382,188.956C774.345,189.803 774.068,190.522 773.725,191.257C773.533,191.669 773.362,192.085 773.257,192.547C772.997,193.692 772.414,194.673 771.513,195.462C770.873,196.023 770.173,196.352 769.226,196.272C769.08,196.272 768.828,196.333 768.622,196.261C767.645,195.924 766.696,195.496 765.627,195.554C765.084,195.154 764.385,194.943 764.09,194.243C763.956,193.925 763.725,193.637 763.641,193.309C763.554,192.97 763.548,192.61 763.53,192.255C763.502,192.162 763.48,192.072 763.475,191.991C763.238,191.803 763.131,191.521 763.289,191.142L763.29,191.14C762.949,190.005 763.053,188.615 763.398,187.343L763.341,187.254C762.952,186.775 762.628,186.217 761.934,186.073C761.73,186.031 761.583,185.76 761.377,185.679C760.371,185.285 759.973,184.555 760.081,183.502C760.104,183.275 760.119,183.017 760.037,182.815C759.491,181.472 759.839,180.072 759.746,178.702C759.734,178.532 759.748,178.352 759.792,178.187C760.143,176.846 761.1,175.552 762.346,174.656C762.809,174.323 763.226,173.928 763.673,173.573C763.967,173.341 764.539,173.294 764.811,173.527C765.461,174.08 766.11,174.592 766.431,175.483C766.767,176.414 767.116,177.307 767.059,178.315C767.038,178.683 767.232,178.958 767.468,179.234C768.383,180.298 769.614,180.781 770.93,180.971C772.12,181.142 772.997,181.708 773.591,182.677C773.911,183.196 774.405,183.664 774.376,184.375C774.368,184.577 774.504,184.823 774.646,184.988C775.03,185.434 775.037,185.903 774.899,186.444ZM775.616,185.451C775.51,184.836 775.248,184.249 775.111,183.637C774.993,183.113 774.753,182.676 774.412,182.276C774.009,181.803 773.692,181.218 773.205,180.867C772.709,180.511 772.053,180.375 771.462,180.157C771.249,180.079 771.01,180.068 770.799,179.986C770.16,179.736 769.482,179.54 768.904,179.186C768.148,178.723 767.558,178.083 767.715,177.066C767.733,176.953 767.702,176.832 767.72,176.72C767.833,176.047 767.555,175.479 767.238,174.925C767.096,174.676 766.795,174.46 766.775,174.212C766.707,173.366 765.997,173.135 765.488,172.701C765.204,172.459 764.886,172.376 764.534,172.363C763.824,172.337 763.139,172.381 762.7,173.063C761.455,173.919 760.364,174.909 759.815,176.371C759.072,177.206 758.933,178.198 759.035,179.265C759.067,179.608 759.039,179.957 759.039,180.303C759.079,181.559 758.872,182.837 759.38,184.05C759.258,184.906 759.745,185.459 760.331,185.963C760.679,186.264 760.985,186.653 761.384,186.849C762.364,187.328 762.672,188.087 762.557,189.111C762.519,189.453 762.574,189.804 762.547,190.148C762.451,191.434 762.73,192.644 763.159,193.849C763.611,195.121 764.306,196.068 765.713,196.344C766.664,196.531 767.601,196.795 768.553,196.972C769.31,197.113 770.114,197.446 770.776,196.693C770.834,196.627 770.997,196.634 771.111,196.639C771.628,196.659 771.955,196.347 772.289,196.014C772.866,195.44 773.279,194.773 773.586,194.024C773.848,193.386 774.144,192.762 774.441,192.139C774.738,191.515 774.688,190.793 775.062,190.177C775.258,189.855 775.298,189.413 775.329,189.019C775.381,188.336 775.345,187.664 775.602,186.984C775.772,186.533 775.701,185.953 775.616,185.451Z" style="fill:rgb(86,88,61);fill-rule:nonzero;"/>
    </g>
    <g transform="matrix(1,0,0,1,-679.274,-159.899)">
        <path d="M689.597,174.75C688.584,174.726 688.062,174.178 687.965,173.452C687.839,172.508 688.33,171.863 689.055,171.501C689.586,171.236 690.188,170.936 690.845,171.009C691.493,171.082 692.023,171.424 692.548,171.77C692.731,171.891 692.852,172.588 692.681,172.734C692.003,173.318 691.543,174.168 690.624,174.459C690.197,174.594 689.761,174.704 689.597,174.75Z" style="fill:rgb(86,88,61);fill-rule:nonzero;"/>
    </g>
    <g transform="matrix(1,0,0,1,-679.274,-159.899)">
        <path d="M748.641,196.637C748.645,196.34 748.7,196.053 748.951,195.864C749.132,195.727 749.345,195.631 749.539,195.509C750.064,195.18 750.581,194.839 751.111,194.517C751.649,194.191 752.223,193.919 752.736,193.558C753.73,192.86 754.893,192.444 755.869,191.754C756.772,191.114 757.774,190.72 758.718,190.192C759.118,189.968 759.489,189.694 759.887,189.468C760.156,189.315 760.456,189.329 760.698,189.523C760.813,189.615 760.96,189.867 760.92,189.922C760.52,190.473 760.086,191.002 759.648,191.526L759.405,191.449C759.137,191.001 758.784,190.993 758.372,191.216L758.22,191.299C756.696,192.209 755.066,192.927 753.572,193.897C752.611,194.521 751.577,195.031 750.586,195.612C750.142,195.872 749.736,196.198 749.289,196.456C749.099,196.565 748.852,196.573 748.63,196.627L748.641,196.637Z" style="fill:rgb(86,88,61);fill-rule:nonzero;"/>
    </g>
    <g transform="matrix(1,0,0,1,-679.274,-159.899)">
        <path d="M735.033,172.126C734.972,171.968 734.959,171.815 734.893,171.786C734.745,171.722 734.562,171.743 734.525,171.946L734.625,172.219C734.757,172.222 734.891,172.163 735.033,172.126ZM735.351,170.268C736.468,170.289 737.495,171.553 737.047,172.516C736.594,173.488 735.926,174.367 734.796,174.689C734.647,174.731 734.397,174.723 734.31,174.631C733.854,174.144 733.204,173.803 733.092,173.045C732.986,172.325 733.212,171.644 733.564,171.086C733.935,170.499 734.606,170.217 735.351,170.268Z" style="fill:rgb(86,88,61);fill-rule:nonzero;"/>
    </g>
    <g transform="matrix(1,0,0,1,-679.274,-159.899)">
        <path d="M707.896,189.196L707.997,188.937L707.912,188.826L707.763,188.993L707.896,189.196ZM704.584,189.075C704.587,189.055 704.573,188.87 704.639,188.721C704.701,188.582 704.847,188.381 704.957,188.38C705.637,188.376 706.105,187.936 706.646,187.639C707.348,187.253 708.431,187.505 708.909,188.152C709.002,188.279 709.048,188.465 709.06,188.628C709.084,188.969 709.098,189.316 709.063,189.655C709.04,189.87 708.984,190.143 708.838,190.274C708.336,190.722 708.01,191.32 707.365,191.667C706.858,191.94 706.519,191.966 705.967,191.828C704.982,191.583 704.761,190.878 704.594,190.083C704.536,189.809 704.584,189.513 704.584,189.075Z" style="fill:rgb(86,88,61);fill-rule:nonzero;"/>
    </g>
    <g transform="matrix(1,0,0,1,-679.274,-159.899)">
        <path d="M772.221,210.959C772.191,211.382 772.198,211.671 772.146,211.949C772.014,212.655 771.297,213.244 770.569,213.274C769.902,213.302 769.208,212.867 768.962,212.232C768.598,211.288 768.712,210.295 769.838,209.827C769.995,209.762 770.137,209.655 770.298,209.606C770.815,209.444 771.258,209.444 771.65,209.957C771.922,210.315 772.363,210.545 772.221,210.959Z" style="fill:rgb(86,88,61);fill-rule:nonzero;"/>
    </g>
    <g transform="matrix(1,0,0,1,-679.274,-159.899)">
        <path d="M766.329,186.979C766.329,186.864 766.331,186.75 766.328,186.635C766.311,186.129 766.494,185.749 766.99,185.552C767.344,185.41 767.632,185.115 768.097,185.35C768.605,185.607 769.146,185.779 769.339,186.392C769.373,186.5 769.449,186.628 769.418,186.717C769.178,187.412 768.933,188.105 768.648,188.781C768.601,188.893 768.359,188.963 768.199,188.981C767.046,189.113 766.364,188.501 766.327,187.322C766.323,187.208 766.327,187.093 766.327,186.979L766.329,186.979Z" style="fill:rgb(86,88,61);fill-rule:nonzero;"/>
    </g>
</svg>
