<?xml version="1.0" encoding="UTF-8" standalone="no"?>
<!DOCTYPE svg PUBLIC "-//W3C//DTD SVG 1.1//EN" "http://www.w3.org/Graphics/SVG/1.1/DTD/svg11.dtd">
<svg width="100%" height="100%" viewBox="0 0 226 55" version="1.1" xmlns="http://www.w3.org/2000/svg" xmlns:xlink="http://www.w3.org/1999/xlink" xml:space="preserve" xmlns:serif="http://www.serif.com/" style="fill-rule:evenodd;clip-rule:evenodd;stroke-linejoin:round;stroke-miterlimit:2;">
    <g transform="matrix(6.12323e-17,1,-1,6.12323e-17,875.441,-895.558)">
        <path d="M932.782,783.768L932.812,783.697L932.802,783.747L932.791,783.768L932.782,783.768L932.782,783.787L932.742,783.827L932.782,783.768ZM900.342,794.167C900.472,794.428 900.572,794.737 900.782,794.907C901.642,795.587 901.952,796.608 902.442,797.508C903.022,798.577 903.552,799.667 904.102,800.747C905.062,802.657 906.012,804.568 906.962,806.487C907.092,806.747 907.242,807.008 907.291,807.287C907.482,808.178 907.581,809.098 907.812,809.978C908.052,810.877 908.032,811.778 907.992,812.688C907.962,813.148 908.041,813.608 908.081,814.068C908.152,814.867 908.262,815.667 908.291,816.468C908.342,817.627 908.622,818.728 909.041,819.808C909.142,820.068 909.192,820.358 909.252,820.638C909.452,821.468 909.472,822.348 909.922,823.117C910.052,823.348 910.062,823.678 910.052,823.957C910.022,824.617 910.242,825.207 910.532,825.778C910.922,826.548 911.322,827.318 911.692,828.098C912.062,828.867 912.622,829.457 913.432,829.667C914.022,829.818 914.152,830.178 914.202,830.657C914.242,830.997 914.282,831.337 914.272,831.688C914.242,832.947 914.182,834.218 914.142,835.478C914.122,836.577 913.902,837.648 913.652,838.707C913.532,839.207 913.331,839.678 913.512,840.218C913.622,840.568 913.422,840.938 913.422,841.308C913.422,841.447 913.452,841.598 913.552,841.737C914.232,840.938 914.822,840.098 914.822,839.037C914.822,838.858 914.812,838.667 914.772,838.478C915.272,836.407 915.482,834.278 916.262,832.287C916.402,831.907 916.602,831.548 916.702,831.157C916.822,830.737 916.822,830.278 916.932,829.848C917.462,827.848 917.782,825.808 918.242,823.798C918.291,823.577 918.432,823.318 918.362,823.127C918.052,822.298 918.492,821.537 918.592,820.758C918.702,819.907 918.831,819.058 918.882,818.197C918.962,816.877 919.162,815.568 919.352,814.258C919.402,813.938 919.532,813.548 919.752,813.337C921.142,812.018 922.062,810.327 923.352,808.928C923.892,808.337 924.372,807.667 925.012,807.197C925.462,806.858 925.742,806.468 925.902,805.968C926.022,805.627 926.252,805.398 926.552,805.188C926.722,805.077 926.902,804.877 926.962,804.678C927.172,803.968 927.592,803.308 927.732,802.608C927.912,801.768 927.882,800.888 927.892,800.028C927.892,799.098 928.032,798.197 928.202,797.298C928.252,797.018 928.312,796.728 928.312,796.447C928.322,795.997 928.572,795.737 928.892,795.457C929.662,794.787 930.522,794.188 931.002,793.247C931.512,792.987 931.541,792.367 931.932,792.028C932.972,791.117 933.802,790.028 934.672,788.968C935.172,788.348 935.791,787.778 936.162,787.087C936.482,786.478 936.852,785.898 937.212,785.308C937.132,784.548 937.702,784.048 937.942,783.417C938.562,781.818 939.602,780.577 940.962,779.537C941.722,778.957 942.282,778.117 943.112,777.587L943.272,777.287C943.442,777.068 943.602,776.798 943.822,776.638C944.982,775.837 945.331,774.508 946.002,773.388C946.012,772.318 946.602,771.407 946.852,770.398C947.072,769.508 947.382,768.648 947.502,767.718C947.672,766.457 948.291,765.327 948.962,764.247C949.112,764.008 949.202,763.728 949.262,763.457C949.312,763.218 948.892,762.877 948.682,762.987C947.382,763.617 946.081,764.247 944.812,764.928C944.522,765.077 944.322,765.407 944.112,765.667C943.672,766.207 943.331,766.818 942.692,767.167C942.562,767.247 942.432,767.417 942.382,767.568C942.352,767.667 942.302,767.747 942.252,767.837C941.952,768.077 941.662,768.327 941.382,768.587C941.002,768.837 940.702,769.148 940.452,769.508C938.331,771.798 936.772,774.568 935.362,777.087C933.972,779.568 932.592,782.048 931.202,784.528L931.802,784.858C931.572,785.207 931.372,785.577 931.202,785.968C931.022,786.398 930.852,786.827 930.612,787.218C929.672,788.798 928.622,790.298 927.831,791.968C927.302,793.087 926.532,794.108 925.852,795.167C925.322,795.997 924.862,796.877 924.532,797.768C924.052,799.077 923.462,800.308 922.732,801.487C922.642,801.627 922.522,801.768 922.452,801.917C921.682,803.508 920.692,805.028 920.722,806.898C920.722,807.528 920.692,808.157 920.672,808.798C920.662,809.207 920.682,809.587 921.062,809.858L921.102,810.167C920.872,810.558 920.662,810.997 920.152,811.087C920.052,811.108 919.922,811.048 919.852,810.978C919.782,810.907 919.752,810.787 919.732,810.678C919.462,809.367 919.962,808.068 919.802,806.758C920.132,806.167 919.812,805.528 919.982,804.907C920.152,804.308 920.081,803.648 920.152,803.018C920.242,802.157 920.372,801.308 920.472,800.457C920.572,799.657 920.692,798.858 920.742,798.068C920.802,796.818 920.842,795.568 920.982,794.318C921.232,792.167 921.202,789.978 921.102,787.818C921.002,785.768 920.842,783.688 920.132,781.728C920.072,781.568 920.092,781.388 920.072,781.218C919.982,780.417 919.882,779.617 919.802,778.818C919.762,778.417 919.722,778.018 919.742,777.608C919.762,776.928 919.842,776.237 919.862,775.548C919.892,774.098 920.172,772.688 920.512,771.298C920.912,769.627 921.062,768.718 921.081,766.718C921.081,766.497 921.142,766.268 921.182,766.037C921.541,764.188 922.152,762.377 922.272,760.468C922.622,759.718 922.502,758.898 922.572,758.117C922.652,757.278 922.482,756.407 922.422,755.558C922.402,755.207 922.392,754.867 922.392,754.518C922.382,753.888 922.312,753.268 922.152,752.648C921.962,751.938 921.952,751.167 921.912,750.428C921.872,749.737 921.902,749.037 921.882,748.348C921.872,748.068 921.862,747.758 921.752,747.508C921.182,746.188 920.972,744.758 920.522,743.398C920.362,742.917 920.402,742.398 919.882,742.077C919.712,741.978 919.592,741.697 919.572,741.487C919.502,740.497 918.972,739.627 918.862,738.657C918.762,737.827 918.622,736.978 919.452,736.318C919.942,735.928 920.262,735.348 920.032,734.617C919.972,734.457 920.142,734.188 920.262,734.008C920.892,733.048 921.862,732.388 922.472,731.407C922.862,730.778 923.272,730.157 923.772,729.608C924.302,729.018 924.942,728.528 925.532,727.987C925.622,727.907 925.742,727.858 925.791,727.758C926.182,727.108 926.622,726.537 927.312,726.178C927.492,726.087 927.562,725.808 927.692,725.627C927.831,725.438 927.942,725.197 928.122,725.098C929.122,724.587 929.752,723.657 930.592,722.968C931.392,722.327 932.062,721.518 932.722,720.737C933.052,720.348 933.372,719.867 933.462,719.388C933.642,718.388 934.272,717.627 934.602,716.718C934.742,716.337 934.992,715.978 935.022,715.598C935.081,714.827 935.342,714.138 935.562,713.417C935.802,712.657 936.041,711.888 936.202,711.108C936.322,710.548 936.291,709.978 935.962,709.447C935.692,709.008 935.302,708.728 934.842,708.737C933.422,708.768 932.102,709.098 931.152,710.278C930.752,710.768 930.362,711.268 930.002,711.787C929.662,712.247 929.232,712.697 929.081,713.228C928.892,713.907 928.242,714.167 927.992,714.747C927.892,714.957 927.802,715.167 927.692,715.377C927.342,716.028 926.992,716.688 926.632,717.337C926.462,717.648 926.232,717.917 926.132,718.247C925.882,719.087 925.382,719.787 924.892,720.487C924.142,721.568 923.422,722.678 922.612,723.707C922.002,724.478 921.502,725.298 921.032,726.157C920.672,726.808 920.252,727.428 919.831,728.048C919.752,728.167 919.552,728.228 919.392,728.278C919.192,728.348 919.112,728.138 919.262,727.737C919.512,727.077 919.642,726.407 919.602,725.707C919.581,725.237 919.702,724.808 919.852,724.358C920.452,722.558 920.642,720.638 921.342,718.858C921.402,718.707 921.402,718.518 921.422,718.348C921.702,716.178 921.962,714.008 921.862,711.818C921.772,710.028 921.732,708.247 921.662,706.468C921.662,706.348 921.692,706.228 921.652,706.117C921.452,705.457 921.392,704.808 921.602,704.108C921.692,703.808 921.482,703.407 921.562,703.098C921.602,702.938 921.712,702.787 921.822,702.648L921.872,702.688C922.482,701.917 923.172,701.228 923.902,700.577L924.122,700.537C924.192,700.407 924.282,700.298 924.362,700.178C924.552,700.028 924.712,699.858 924.902,699.718L924.822,699.608C925.162,699.218 925.522,698.837 925.802,698.388C926.202,697.747 926.532,697.058 927.052,696.528C927.512,696.058 927.812,695.518 928.062,694.947C928.422,694.108 928.702,693.228 929.032,692.377C929.182,692.008 929.312,691.577 929.592,691.327C930.232,690.747 930.302,689.907 930.702,689.228C930.882,687.697 931.652,686.398 932.372,685.098C933.122,683.747 933.952,682.428 934.752,681.108C935.142,680.468 935.492,679.778 935.992,679.247C936.502,678.707 936.581,677.848 937.352,677.537L937.432,677.398C937.462,676.888 937.842,676.617 938.142,676.268C939.402,674.858 940.852,673.617 941.902,672.018C942.682,671.447 943.052,670.598 943.362,669.747C943.662,668.928 944.142,668.207 944.512,667.428C945.032,666.348 945.502,665.237 946.012,664.148C946.331,663.457 946.242,662.837 945.882,662.178C945.572,661.617 945.202,661.348 944.562,661.237C943.752,661.087 943.212,661.358 942.791,661.987C942.632,662.218 942.452,662.468 942.382,662.737C942.062,664.048 941.342,665.178 940.662,666.298C939.602,668.068 938.532,669.848 936.502,670.747C935.992,670.968 935.541,671.388 935.152,671.798C934.342,672.688 933.112,673.108 932.492,674.207C932.422,674.337 932.202,674.377 932.062,674.487C931.122,675.258 930.232,676.108 929.662,677.157C928.882,678.627 928.052,680.077 927.612,681.707C927.502,682.087 927.342,682.468 927.132,682.808C926.012,684.627 925.532,686.747 924.392,688.558C924.331,688.657 924.312,688.778 924.272,688.888C923.942,689.858 923.592,690.818 923.291,691.787C923.092,691.968 922.942,692.218 922.872,692.528C922.442,694.337 921.331,696.037 921.882,697.907C921.862,698.028 921.831,698.157 921.812,698.278C921.722,698.787 921.712,699.308 921.642,699.818C921.622,699.987 921.552,700.157 921.472,700.298L921.202,700.487L920.922,700.358C920.782,700.048 920.642,699.728 920.562,699.398C920.412,698.787 920.412,698.117 920.152,697.568C919.791,696.827 919.592,696.058 919.502,695.258C919.422,694.608 919.172,694.048 918.912,693.468C918.732,693.048 918.472,692.657 918.502,692.157C918.552,691.518 918.412,690.898 918.132,690.318C918.032,690.108 918.041,689.877 918.212,689.678C918.842,688.928 919.052,688.077 918.852,687.117C918.812,686.957 918.782,686.768 918.822,686.608C919.002,685.957 918.822,685.207 919.302,684.627C919.242,683.888 919.142,683.138 919.342,682.398C919.392,682.237 919.342,682.048 919.402,681.888C920.032,680.098 919.962,678.287 919.662,676.457C919.462,675.278 919.362,674.068 919.222,672.877C919.012,671.018 918.842,669.127 918.922,667.247C918.972,666.167 918.902,665.087 918.962,664.008C918.982,663.778 918.962,663.548 918.982,663.318C919.152,661.337 919.092,660.247 918.702,658.398C918.662,658.237 918.642,658.048 918.682,657.898C918.772,657.548 918.712,657.218 918.672,656.877C918.512,655.508 918.392,654.138 918.291,652.758C918.242,652.148 917.982,651.657 917.592,651.218C917.412,650.997 917.192,650.808 916.972,650.617C916.312,650.018 915.612,649.978 914.972,650.587C914.272,651.268 913.562,651.957 912.992,652.737C912.522,653.367 912.322,654.188 911.712,654.747C911.472,655.627 911.022,656.447 911.052,657.417C911.072,658.268 910.822,659.108 911.172,659.968C911.291,660.258 911.182,660.648 911.162,660.987C911.132,661.447 911.052,661.907 911.072,662.367C911.152,664.028 910.852,665.707 911.372,667.337C911.212,668.898 911.552,670.428 911.722,671.957C911.831,672.877 911.942,673.787 912.062,674.697C912.112,675.037 912.162,675.388 912.291,675.697C912.512,676.237 912.692,676.718 912.592,677.348C912.502,677.888 912.612,678.548 912.862,679.028C913.512,680.258 913.682,681.657 914.362,682.877C914.632,683.358 914.642,683.978 914.842,684.508C915.041,685.048 915.352,685.548 915.552,686.087C915.672,686.407 915.732,686.778 915.702,687.108C915.632,687.858 916.122,688.407 916.291,689.068C916.482,689.787 916.562,690.528 916.692,691.258L916.772,691.407C917.072,692.037 917.412,692.648 917.662,693.287C917.932,693.978 918.182,694.688 918.331,695.407C918.512,696.258 918.982,697.018 919.122,697.858C919.272,698.707 919.602,699.518 919.702,700.358C919.831,701.388 920.291,702.318 920.331,703.377C920.392,704.867 920.502,706.348 920.472,707.837C920.442,709.048 920.642,710.247 920.692,711.457C920.742,712.487 920.882,713.548 920.702,714.548C920.452,715.957 920.352,717.388 920.152,718.798C919.992,719.867 919.572,720.888 919.572,721.997C919.572,722.268 919.442,722.558 919.322,722.818C918.831,723.928 918.872,725.188 918.322,726.287C918.252,726.428 918.282,726.617 918.262,726.798C918.182,727.598 918.132,728.398 918.002,729.188C917.752,730.657 917.952,732.197 917.382,733.617C917.342,733.718 917.352,733.858 917.372,733.957C917.552,734.837 917.352,735.667 917.162,736.508C917.102,736.787 917.081,737.077 917.041,737.358C916.932,738.327 916.762,739.298 916.702,740.278C916.642,741.237 916.682,742.218 916.442,743.167C916.252,743.928 916.532,744.657 916.472,745.388C916.372,746.707 916.712,748.028 916.492,749.348C916.472,749.518 916.492,749.688 916.502,749.867C916.602,751.528 916.722,753.188 916.812,754.858C916.942,757.077 917.002,759.308 917.172,761.528C917.272,762.848 917.291,764.167 917.352,765.487C917.372,765.837 917.452,766.178 917.472,766.518C917.522,767.827 918.062,769.108 917.712,770.457C917.672,770.608 917.732,770.798 917.802,770.957C918.052,771.508 917.982,772.087 918.012,772.657C918.032,773.058 917.952,773.528 918.122,773.848C918.632,774.827 918.372,775.898 918.622,776.898C918.432,777.417 918.602,777.907 918.752,778.407C918.912,778.947 918.541,779.537 918.882,780.098C919.102,780.468 918.902,780.888 918.762,781.268C918.682,781.497 918.392,781.587 918.202,781.417C918.041,781.268 917.802,781.077 917.791,780.898C917.752,779.987 917.282,779.258 916.902,778.487C916.482,777.657 915.972,776.867 915.672,776.008C915.362,775.127 914.802,774.407 914.422,773.587C914.272,773.278 914.072,772.978 913.992,772.648C913.702,771.417 913.312,770.228 912.942,769.028C912.472,767.487 912.152,765.917 911.382,764.487C911.222,764.197 911.202,763.837 911.112,763.508C910.932,762.837 910.842,762.138 910.562,761.518C909.942,760.157 909.222,758.837 908.541,757.497C908.382,757.167 908.112,756.968 907.762,756.858C906.502,756.447 905.262,755.987 903.922,755.848C903.192,755.778 901.072,755.758 900.352,755.917C900.041,755.987 899.862,756.298 900.002,756.568C900.622,757.808 901.272,759.037 901.872,760.278C902.152,760.848 902.412,761.438 902.572,762.037C902.892,763.258 903.192,764.487 903.772,765.617C904.092,766.228 904.352,766.858 904.392,767.568C904.432,768.197 904.552,768.827 904.932,769.377C905.052,769.568 905.202,769.787 905.212,769.997C905.272,771.278 906.062,772.247 906.562,773.337C906.732,773.688 907.041,773.978 907.272,774.298C908.322,775.827 909.932,776.818 911.092,778.247C911.162,778.327 911.291,778.367 911.382,778.428C912.331,779.087 913.132,779.947 913.762,780.867C914.642,782.148 915.782,783.218 916.522,784.587C917.192,785.028 917.442,785.947 918.302,786.157C918.822,786.718 919.282,787.258 918.992,788.138C918.812,788.667 918.791,789.258 918.732,789.827C918.652,790.577 918.612,791.327 918.552,792.068C918.482,792.917 918.192,793.758 918.402,794.627C918.452,794.837 918.352,795.077 918.291,795.308C918.202,795.697 918.072,796.087 918.002,796.478C917.892,797.157 917.742,797.837 917.762,798.518C917.782,799.308 917.302,799.928 917.232,800.657C917.212,800.888 917.142,801.117 917.122,801.348C916.992,802.537 916.882,803.737 916.752,804.928C916.732,805.148 916.682,805.377 916.622,805.598C916.282,807.048 916.022,808.518 916.012,810.018C916.012,810.707 916.041,811.438 915.842,812.077C915.592,812.858 915.712,813.657 915.552,814.438C915.392,815.218 915.472,816.037 915.422,816.848C915.342,818.278 915.162,819.707 915.102,821.148C915.081,821.638 914.972,822.148 914.972,822.657C914.972,822.928 914.812,823.207 914.692,823.457C914.662,823.518 914.492,823.548 914.392,823.528C914.291,823.508 914.112,823.428 914.112,823.358C914.052,821.608 913.062,820.218 912.342,818.718C912.192,818.398 911.992,818.108 911.882,817.787C911.532,816.818 911.212,815.827 911.081,814.808C910.922,813.558 910.772,812.308 910.541,811.068C910.342,810.008 910.162,808.917 910.312,807.808C910.412,807.087 910.352,807.048 909.962,806.028C909.902,805.888 909.822,805.667 909.892,805.558C910.102,805.228 910.012,804.907 909.962,804.568C909.812,803.657 909.762,802.737 909.322,801.898C909.242,801.747 909.162,801.568 909.172,801.407C909.232,799.978 908.302,798.808 908.152,797.438C907.622,797.068 907.752,796.398 907.462,795.907C907.162,795.417 906.922,794.888 906.672,794.367C906.331,793.697 905.972,793.058 905.902,792.278C905.842,791.707 905.702,791.138 905.482,790.617C904.992,789.447 904.682,788.237 904.362,787.018C904.142,786.197 903.622,785.457 903.242,784.688C902.312,783.997 901.722,782.978 900.812,782.247C899.872,781.497 899.052,780.598 898.412,779.568C898.052,778.978 897.722,778.388 897.192,777.917C897.022,777.778 896.932,777.447 896.772,777.417C896.432,777.348 896.331,777.728 896.212,777.947C895.462,779.298 895.242,780.657 896.172,782.028C896.242,782.117 896.272,782.237 896.331,782.337C896.882,783.237 897.172,784.228 897.302,785.258C897.342,785.548 897.342,785.858 897.472,786.098C897.842,786.778 897.882,787.528 898.062,788.247C898.152,788.638 898.242,789.028 898.362,789.407C898.452,789.737 898.652,790.058 898.672,790.388C898.692,790.877 898.872,791.278 899.081,791.697C899.502,792.518 899.922,793.348 900.342,794.167Z" style="fill:rgb(209,164,172);fill-rule:nonzero;"/>
    </g>
    <g transform="matrix(6.12323e-17,1,-1,6.12323e-17,881.684,-898.791)">
        <path d="M953.022,814.318C952.802,814.287 952.541,814.237 952.362,814.327C950.802,815.098 949.262,815.877 947.732,816.697C947.342,816.917 947.041,817.287 946.672,817.568C946.442,817.737 946.172,817.848 945.922,817.987C945.312,818.318 944.662,818.548 943.962,818.568C942.742,819.207 941.532,819.848 940.791,821.087C940.652,821.318 940.382,821.478 940.152,821.638C939.722,821.938 939.152,822.117 938.872,822.508C938.312,823.298 937.552,823.778 936.732,824.188C936.262,824.428 935.862,824.718 935.522,825.138C934.842,825.978 933.672,826.318 933.222,827.407C933.162,827.537 932.952,827.617 932.802,827.697C932.092,828.087 931.422,828.478 930.802,829.037C930.222,829.568 929.472,829.917 928.882,830.468C928.581,830.737 928.342,831.077 928.002,831.278C926.752,832.037 925.882,833.188 924.892,834.228C923.482,835.728 922.402,837.537 920.652,838.707C920.462,838.827 920.362,839.068 920.212,839.237C920.012,839.447 919.842,839.707 919.602,839.837C918.892,840.197 918.492,840.818 918.032,841.407C917.352,842.268 916.722,843.178 915.932,843.928C915.222,844.598 914.432,845.148 913.982,846.068C913.852,846.337 913.532,846.398 913.232,846.388C912.992,846.367 912.762,846.127 912.831,845.938C912.922,845.667 913.032,845.398 913.142,845.138C913.422,844.438 913.662,843.737 913.402,842.978C913.312,843.048 913.182,843.087 913.132,843.178C912.852,843.678 912.862,844.258 912.532,844.768C912.242,845.228 912.212,845.848 912.041,846.398C911.612,847.758 911.182,849.108 910.732,850.468C910.272,851.867 909.352,853.108 909.192,854.627L909.112,854.778C908.562,855.407 908.422,856.228 908.202,856.997C907.662,858.808 906.702,860.468 906.322,862.337C906.302,862.447 906.202,862.537 906.162,862.638C905.552,864.237 904.581,865.697 904.232,867.398C903.512,868.747 903.462,870.278 903.202,871.728C903.041,872.657 902.782,873.497 902.352,874.327C901.822,875.348 901.032,876.218 900.692,877.348C900.442,878.167 900.172,878.978 899.581,879.638C899.602,880.337 898.972,880.737 898.791,881.337L898.952,881.598C899.392,881.787 899.822,881.657 899.942,881.287C900.112,880.798 900.202,880.268 900.442,879.818C900.702,879.298 900.822,878.747 900.972,878.197C901.142,877.587 901.392,877.018 901.831,876.528C902.572,875.707 903.022,874.688 903.402,873.688C903.831,872.577 904.072,871.388 904.232,870.197C904.352,869.287 904.472,868.377 904.922,867.548C905.092,867.258 905.242,866.898 905.242,866.568C905.222,865.827 905.562,865.247 905.922,864.657C906.422,863.808 906.782,862.898 907.072,861.957C907.272,861.287 907.412,860.587 907.732,859.987C908.572,858.447 908.952,856.758 909.541,855.127C909.642,854.858 909.672,854.537 909.842,854.327C910.352,853.657 910.502,852.858 910.782,852.098C911.032,851.398 911.252,850.678 911.512,849.968C911.632,849.648 911.812,849.348 911.982,849.048C912.142,848.758 912.412,848.697 912.712,848.798C912.972,848.877 913.232,848.837 913.222,848.537C913.192,847.848 913.552,847.478 914.152,847.258C914.952,846.947 915.622,846.327 916.552,846.348C916.702,846.358 916.892,846.247 917.012,846.138C917.482,845.718 917.982,845.318 918.372,844.827C918.842,844.207 919.422,843.787 920.112,843.457C921.052,843.018 921.972,842.518 922.892,842.048C923.462,841.768 924.041,841.568 924.682,841.457C925.572,841.318 926.362,841.008 926.962,840.148C927.702,839.077 928.722,838.197 929.632,837.237C929.791,837.077 929.972,836.917 930.172,836.827C931.081,836.377 931.712,835.627 932.362,834.898C932.512,834.728 932.642,834.438 932.822,834.407C933.581,834.268 933.932,833.657 934.402,833.178C935.012,832.568 935.622,831.957 936.462,831.648C936.772,831.528 937.032,831.258 937.312,831.058C937.732,830.768 938.152,830.457 938.581,830.188C938.922,829.968 939.372,829.867 939.632,829.587C940.312,828.818 941.242,828.487 942.112,828.048C942.732,827.728 943.372,827.457 943.952,827.077C944.432,826.768 944.852,826.367 945.252,825.968C945.742,825.487 946.291,825.048 946.482,824.337C946.581,823.997 946.782,823.728 947.092,823.528C947.272,823.407 947.492,823.228 947.532,823.037C947.682,822.358 948.322,822.077 948.642,821.537C948.992,820.938 949.402,820.367 949.892,819.877C950.922,818.858 951.672,817.617 952.541,816.468C952.962,815.907 953.122,815.228 953.232,814.537L953.022,814.318Z" style="fill:rgb(209,164,172);fill-rule:nonzero;"/>
    </g>
    <g transform="matrix(6.12323e-17,1,-1,6.12323e-17,881.684,-898.791)">
        <path d="M913.406,842.979L913.405,842.976L913.402,842.977L913.406,842.979Z" style="fill:rgb(209,164,172);fill-rule:nonzero;"/>
    </g>
    <g transform="matrix(6.12323e-17,1,-1,6.12323e-17,881.684,-898.791)">
        <path d="M913.738,842.187C913.673,842.038 913.614,841.888 913.552,841.737C913.186,842.112 913.193,842.531 913.405,842.976C913.728,842.803 913.901,842.567 913.738,842.187Z" style="fill:rgb(209,164,172);fill-rule:nonzero;"/>
    </g>
</svg>
